G04 EAGLE Gerber RS-274X export*
G75*
%MOMM*%
%FSLAX34Y34*%
%LPD*%
%INBottom Copper*%
%IPPOS*%
%AMOC8*
5,1,8,0,0,1.08239X$1,22.5*%
G01*
%ADD10C,1.524000*%
%ADD11R,1.650000X1.650000*%
%ADD12C,1.650000*%
%ADD13R,0.550000X1.200000*%
%ADD14R,1.300000X1.500000*%
%ADD15R,1.500000X1.300000*%
%ADD16R,1.700000X1.800000*%
%ADD17C,0.406400*%
%ADD18C,0.900000*%
%ADD19C,0.250000*%
%ADD20C,0.304800*%
%ADD21C,2.500000*%

G36*
X141675Y13417D02*
X141675Y13417D01*
X141800Y13426D01*
X141831Y13437D01*
X141863Y13441D01*
X141980Y13487D01*
X142099Y13528D01*
X142126Y13546D01*
X142156Y13558D01*
X142257Y13632D01*
X142363Y13701D01*
X142384Y13725D01*
X142410Y13744D01*
X142490Y13842D01*
X142574Y13935D01*
X142589Y13964D01*
X142610Y13989D01*
X142662Y14103D01*
X142721Y14215D01*
X142725Y14240D01*
X142742Y14275D01*
X142798Y14586D01*
X142795Y14625D01*
X142799Y14650D01*
X142799Y26501D01*
X143422Y26402D01*
X145417Y25754D01*
X146933Y24982D01*
X147031Y24947D01*
X147125Y24903D01*
X147179Y24894D01*
X147230Y24875D01*
X147334Y24866D01*
X147436Y24847D01*
X147490Y24851D01*
X147544Y24846D01*
X147647Y24863D01*
X147750Y24871D01*
X147802Y24888D01*
X147855Y24897D01*
X147950Y24939D01*
X148049Y24973D01*
X148095Y25003D01*
X148144Y25024D01*
X148226Y25089D01*
X148313Y25146D01*
X148349Y25186D01*
X148392Y25220D01*
X148455Y25303D01*
X148524Y25380D01*
X148550Y25428D01*
X148582Y25471D01*
X148623Y25567D01*
X148671Y25659D01*
X148678Y25700D01*
X148704Y25762D01*
X148749Y26075D01*
X148748Y26087D01*
X148749Y26095D01*
X148749Y28000D01*
X148733Y28125D01*
X148724Y28250D01*
X148713Y28281D01*
X148709Y28313D01*
X148663Y28430D01*
X148622Y28549D01*
X148604Y28576D01*
X148592Y28606D01*
X148518Y28707D01*
X148449Y28813D01*
X148425Y28834D01*
X148406Y28860D01*
X148308Y28940D01*
X148215Y29024D01*
X148186Y29039D01*
X148161Y29060D01*
X148047Y29113D01*
X147936Y29171D01*
X147910Y29175D01*
X147875Y29192D01*
X147564Y29248D01*
X147525Y29245D01*
X147500Y29249D01*
X144860Y29249D01*
X141368Y30696D01*
X138696Y33368D01*
X138184Y34604D01*
X138164Y34638D01*
X138152Y34675D01*
X138086Y34775D01*
X138027Y34878D01*
X138000Y34906D01*
X137978Y34939D01*
X137890Y35019D01*
X137807Y35104D01*
X137774Y35124D01*
X137745Y35150D01*
X137639Y35206D01*
X137537Y35268D01*
X137500Y35279D01*
X137465Y35297D01*
X137401Y35308D01*
X137235Y35358D01*
X137094Y35364D01*
X137030Y35375D01*
X97513Y35375D01*
X97474Y35370D01*
X97435Y35373D01*
X97318Y35350D01*
X97200Y35335D01*
X97163Y35321D01*
X97125Y35313D01*
X97017Y35263D01*
X96907Y35218D01*
X96875Y35195D01*
X96840Y35178D01*
X96748Y35102D01*
X96652Y35032D01*
X96627Y35001D01*
X96597Y34976D01*
X96562Y34921D01*
X96453Y34787D01*
X96450Y34782D01*
X92869Y31201D01*
X88230Y29279D01*
X67970Y29279D01*
X63331Y31201D01*
X59781Y34751D01*
X59728Y34878D01*
X59709Y34912D01*
X59696Y34949D01*
X59631Y35049D01*
X59571Y35152D01*
X59544Y35180D01*
X59523Y35213D01*
X59434Y35293D01*
X59351Y35378D01*
X59318Y35398D01*
X59289Y35424D01*
X59183Y35480D01*
X59081Y35541D01*
X59044Y35553D01*
X59009Y35571D01*
X58945Y35582D01*
X58779Y35632D01*
X58638Y35638D01*
X58574Y35649D01*
X56857Y35649D01*
X54559Y36601D01*
X39701Y51459D01*
X38749Y53757D01*
X38749Y96243D01*
X39701Y98541D01*
X51459Y110299D01*
X53757Y111251D01*
X57677Y111251D01*
X57780Y111264D01*
X57884Y111268D01*
X57936Y111284D01*
X57990Y111291D01*
X58087Y111329D01*
X58186Y111359D01*
X58232Y111387D01*
X58283Y111408D01*
X58367Y111469D01*
X58456Y111523D01*
X58493Y111562D01*
X58537Y111594D01*
X58603Y111675D01*
X58676Y111749D01*
X58702Y111797D01*
X58737Y111839D01*
X58780Y111933D01*
X58832Y112024D01*
X58846Y112076D01*
X58869Y112125D01*
X58887Y112228D01*
X58914Y112328D01*
X58915Y112382D01*
X58925Y112436D01*
X58917Y112539D01*
X58918Y112644D01*
X58906Y112683D01*
X58901Y112750D01*
X58799Y113049D01*
X58792Y113059D01*
X58790Y113067D01*
X58710Y113225D01*
X58092Y115126D01*
X58017Y115601D01*
X76850Y115601D01*
X76975Y115617D01*
X77100Y115626D01*
X77131Y115637D01*
X77163Y115641D01*
X77280Y115687D01*
X77399Y115728D01*
X77426Y115746D01*
X77456Y115758D01*
X77557Y115832D01*
X77663Y115901D01*
X77684Y115925D01*
X77710Y115944D01*
X77790Y116042D01*
X77874Y116135D01*
X77889Y116164D01*
X77910Y116189D01*
X77962Y116303D01*
X78021Y116415D01*
X78025Y116440D01*
X78042Y116475D01*
X78097Y116786D01*
X78095Y116825D01*
X78099Y116850D01*
X78099Y118101D01*
X78101Y118101D01*
X78101Y116850D01*
X78117Y116725D01*
X78126Y116600D01*
X78137Y116569D01*
X78141Y116537D01*
X78187Y116420D01*
X78228Y116301D01*
X78246Y116274D01*
X78258Y116244D01*
X78332Y116143D01*
X78401Y116037D01*
X78425Y116016D01*
X78444Y115990D01*
X78542Y115910D01*
X78635Y115826D01*
X78664Y115811D01*
X78689Y115790D01*
X78803Y115737D01*
X78915Y115679D01*
X78940Y115675D01*
X78975Y115658D01*
X79286Y115602D01*
X79325Y115605D01*
X79350Y115601D01*
X98183Y115601D01*
X98108Y115126D01*
X97490Y113225D01*
X97410Y113067D01*
X97375Y112969D01*
X97331Y112875D01*
X97322Y112821D01*
X97303Y112770D01*
X97294Y112667D01*
X97275Y112564D01*
X97280Y112510D01*
X97275Y112456D01*
X97291Y112353D01*
X97299Y112250D01*
X97317Y112198D01*
X97325Y112145D01*
X97367Y112050D01*
X97401Y111951D01*
X97431Y111906D01*
X97453Y111856D01*
X97517Y111774D01*
X97574Y111687D01*
X97615Y111651D01*
X97648Y111608D01*
X97731Y111545D01*
X97808Y111476D01*
X97856Y111450D01*
X97899Y111418D01*
X97995Y111377D01*
X98088Y111329D01*
X98129Y111322D01*
X98190Y111296D01*
X98503Y111251D01*
X98515Y111252D01*
X98523Y111251D01*
X121893Y111251D01*
X122002Y111265D01*
X122112Y111270D01*
X122158Y111284D01*
X122206Y111291D01*
X122308Y111331D01*
X122413Y111364D01*
X122444Y111386D01*
X122499Y111408D01*
X122754Y111594D01*
X122766Y111609D01*
X122777Y111617D01*
X158692Y147531D01*
X158692Y147532D01*
X160133Y148973D01*
X160201Y149060D01*
X160274Y149142D01*
X160297Y149184D01*
X160327Y149223D01*
X160370Y149324D01*
X160421Y149421D01*
X160428Y149458D01*
X160451Y149513D01*
X160499Y149824D01*
X160497Y149844D01*
X160499Y149857D01*
X160499Y151890D01*
X161946Y155382D01*
X164618Y158054D01*
X168110Y159501D01*
X169756Y159501D01*
X169865Y159515D01*
X169975Y159520D01*
X170021Y159534D01*
X170069Y159541D01*
X170171Y159581D01*
X170276Y159614D01*
X170307Y159636D01*
X170362Y159658D01*
X170616Y159844D01*
X170628Y159859D01*
X170639Y159867D01*
X171304Y160531D01*
X173702Y161525D01*
X268080Y161525D01*
X268189Y161539D01*
X268299Y161544D01*
X268345Y161558D01*
X268393Y161565D01*
X268495Y161605D01*
X268600Y161638D01*
X268631Y161660D01*
X268686Y161682D01*
X268940Y161868D01*
X268952Y161883D01*
X268963Y161891D01*
X273409Y166337D01*
X273477Y166423D01*
X273550Y166505D01*
X273573Y166548D01*
X273603Y166586D01*
X273646Y166687D01*
X273697Y166785D01*
X273704Y166821D01*
X273727Y166876D01*
X273775Y167188D01*
X273773Y167207D01*
X273775Y167220D01*
X273775Y167821D01*
X273761Y167930D01*
X273756Y168040D01*
X273742Y168086D01*
X273735Y168134D01*
X273695Y168236D01*
X273662Y168341D01*
X273640Y168372D01*
X273618Y168427D01*
X273432Y168682D01*
X273417Y168694D01*
X273409Y168705D01*
X272246Y169868D01*
X270799Y173360D01*
X270799Y176650D01*
X270783Y176775D01*
X270774Y176900D01*
X270763Y176931D01*
X270759Y176963D01*
X270713Y177080D01*
X270672Y177199D01*
X270654Y177226D01*
X270642Y177256D01*
X270568Y177357D01*
X270499Y177463D01*
X270475Y177484D01*
X270456Y177510D01*
X270358Y177590D01*
X270265Y177674D01*
X270236Y177689D01*
X270211Y177710D01*
X270097Y177763D01*
X269986Y177821D01*
X269960Y177825D01*
X269925Y177842D01*
X269614Y177898D01*
X269575Y177895D01*
X269550Y177899D01*
X126357Y177899D01*
X124059Y178851D01*
X122883Y180027D01*
X122771Y180113D01*
X122661Y180203D01*
X122647Y180210D01*
X122634Y180220D01*
X122504Y180276D01*
X122375Y180335D01*
X122359Y180338D01*
X122344Y180344D01*
X122203Y180366D01*
X122064Y180391D01*
X122048Y180390D01*
X122032Y180392D01*
X121891Y180378D01*
X121750Y180367D01*
X121734Y180362D01*
X121718Y180361D01*
X121586Y180311D01*
X121451Y180266D01*
X121437Y180257D01*
X121422Y180251D01*
X121307Y180171D01*
X121187Y180092D01*
X121176Y180080D01*
X121163Y180071D01*
X121071Y179964D01*
X120976Y179858D01*
X120968Y179844D01*
X120958Y179832D01*
X120895Y179704D01*
X120829Y179579D01*
X120827Y179566D01*
X120818Y179549D01*
X120754Y179240D01*
X120757Y179180D01*
X120751Y179143D01*
X120751Y178110D01*
X119304Y174618D01*
X116632Y171946D01*
X113140Y170499D01*
X111107Y170499D01*
X110998Y170485D01*
X110888Y170480D01*
X110842Y170466D01*
X110794Y170459D01*
X110692Y170419D01*
X110587Y170386D01*
X110556Y170364D01*
X110501Y170342D01*
X110246Y170156D01*
X110234Y170141D01*
X110223Y170133D01*
X79791Y139701D01*
X77493Y138749D01*
X72250Y138749D01*
X72125Y138733D01*
X72000Y138724D01*
X71969Y138713D01*
X71937Y138709D01*
X71820Y138663D01*
X71701Y138622D01*
X71674Y138604D01*
X71644Y138592D01*
X71543Y138518D01*
X71437Y138449D01*
X71416Y138425D01*
X71390Y138406D01*
X71310Y138308D01*
X71226Y138215D01*
X71211Y138186D01*
X71190Y138161D01*
X71137Y138047D01*
X71079Y137936D01*
X71075Y137910D01*
X71058Y137875D01*
X71002Y137564D01*
X71005Y137525D01*
X71001Y137500D01*
X71001Y136505D01*
X70239Y134667D01*
X68833Y133261D01*
X68568Y133151D01*
X68558Y133145D01*
X68547Y133142D01*
X68421Y133067D01*
X68294Y132994D01*
X68286Y132987D01*
X68276Y132981D01*
X68173Y132877D01*
X68068Y132774D01*
X68062Y132765D01*
X68054Y132757D01*
X67980Y132629D01*
X67904Y132504D01*
X67901Y132494D01*
X67896Y132484D01*
X67856Y132342D01*
X67814Y132202D01*
X67813Y132191D01*
X67810Y132180D01*
X67807Y132033D01*
X67801Y131887D01*
X67804Y131876D01*
X67804Y131865D01*
X67837Y131722D01*
X67869Y131579D01*
X67874Y131569D01*
X67876Y131558D01*
X67944Y131429D01*
X68011Y131297D01*
X68018Y131289D01*
X68023Y131279D01*
X68122Y131171D01*
X68219Y131060D01*
X68228Y131054D01*
X68236Y131046D01*
X68359Y130965D01*
X68480Y130883D01*
X68491Y130879D01*
X68500Y130873D01*
X68639Y130826D01*
X68777Y130777D01*
X68788Y130776D01*
X68799Y130772D01*
X68837Y130771D01*
X69092Y130748D01*
X69166Y130764D01*
X69241Y130763D01*
X69480Y130801D01*
X75601Y130801D01*
X75601Y120599D01*
X58017Y120599D01*
X58092Y121074D01*
X58710Y122975D01*
X59617Y124757D01*
X60792Y126374D01*
X62206Y127788D01*
X63823Y128963D01*
X65605Y129870D01*
X66195Y130062D01*
X66303Y130113D01*
X66415Y130158D01*
X66445Y130180D01*
X66480Y130196D01*
X66572Y130273D01*
X66669Y130344D01*
X66693Y130374D01*
X66722Y130398D01*
X66792Y130496D01*
X66868Y130589D01*
X66884Y130623D01*
X66907Y130654D01*
X66950Y130766D01*
X67000Y130875D01*
X67007Y130913D01*
X67021Y130949D01*
X67035Y131068D01*
X67056Y131186D01*
X67053Y131224D01*
X67058Y131262D01*
X67041Y131381D01*
X67032Y131500D01*
X67020Y131537D01*
X67015Y131574D01*
X66969Y131685D01*
X66931Y131799D01*
X66910Y131831D01*
X66895Y131866D01*
X66823Y131962D01*
X66757Y132063D01*
X66729Y132088D01*
X66706Y132119D01*
X66613Y132194D01*
X66524Y132274D01*
X66490Y132292D01*
X66460Y132316D01*
X66350Y132365D01*
X66244Y132421D01*
X66214Y132426D01*
X66172Y132445D01*
X65861Y132498D01*
X65835Y132495D01*
X65809Y132499D01*
X52005Y132499D01*
X50478Y133132D01*
X50372Y133161D01*
X50269Y133198D01*
X50220Y133202D01*
X50174Y133215D01*
X50064Y133216D01*
X49954Y133226D01*
X49918Y133218D01*
X49858Y133219D01*
X49552Y133144D01*
X49535Y133135D01*
X49522Y133132D01*
X47995Y132499D01*
X33005Y132499D01*
X31167Y133261D01*
X29761Y134667D01*
X28999Y136505D01*
X28999Y153495D01*
X29761Y155333D01*
X31167Y156739D01*
X33005Y157501D01*
X33728Y157501D01*
X33767Y157506D01*
X33806Y157503D01*
X33923Y157526D01*
X34041Y157541D01*
X34078Y157555D01*
X34116Y157562D01*
X34223Y157613D01*
X34334Y157658D01*
X34366Y157681D01*
X34401Y157697D01*
X34492Y157774D01*
X34589Y157844D01*
X34613Y157874D01*
X34643Y157900D01*
X34679Y157955D01*
X34788Y158089D01*
X34847Y158217D01*
X34882Y158272D01*
X35201Y159041D01*
X39947Y163787D01*
X40033Y163899D01*
X40123Y164009D01*
X40130Y164023D01*
X40140Y164036D01*
X40196Y164167D01*
X40255Y164295D01*
X40258Y164311D01*
X40264Y164326D01*
X40286Y164467D01*
X40311Y164606D01*
X40310Y164622D01*
X40312Y164638D01*
X40298Y164779D01*
X40287Y164920D01*
X40282Y164936D01*
X40280Y164952D01*
X40231Y165085D01*
X40186Y165219D01*
X40177Y165233D01*
X40171Y165248D01*
X40090Y165364D01*
X40012Y165483D01*
X40000Y165494D01*
X39991Y165507D01*
X39884Y165599D01*
X39778Y165694D01*
X39764Y165702D01*
X39752Y165712D01*
X39625Y165775D01*
X39499Y165841D01*
X39486Y165843D01*
X39469Y165852D01*
X39160Y165916D01*
X39100Y165913D01*
X39063Y165919D01*
X36750Y165919D01*
X35768Y166115D01*
X35624Y166174D01*
X35518Y166203D01*
X35414Y166240D01*
X35366Y166245D01*
X35319Y166257D01*
X35209Y166259D01*
X35100Y166269D01*
X35063Y166261D01*
X35004Y166261D01*
X34697Y166186D01*
X34680Y166177D01*
X34667Y166174D01*
X34245Y165999D01*
X30750Y165999D01*
X30625Y165983D01*
X30500Y165974D01*
X30469Y165963D01*
X30437Y165959D01*
X30320Y165913D01*
X30201Y165872D01*
X30174Y165854D01*
X30144Y165842D01*
X30043Y165768D01*
X29937Y165699D01*
X29916Y165675D01*
X29890Y165656D01*
X29810Y165558D01*
X29726Y165465D01*
X29711Y165436D01*
X29690Y165411D01*
X29637Y165297D01*
X29579Y165186D01*
X29575Y165160D01*
X29558Y165125D01*
X29502Y164814D01*
X29505Y164775D01*
X29501Y164750D01*
X29501Y163110D01*
X28054Y159618D01*
X25382Y156946D01*
X21890Y155499D01*
X18037Y155499D01*
X17948Y155523D01*
X17893Y155524D01*
X17838Y155534D01*
X17736Y155526D01*
X17632Y155528D01*
X17579Y155514D01*
X17524Y155510D01*
X17426Y155477D01*
X17326Y155453D01*
X17277Y155426D01*
X17225Y155409D01*
X17139Y155352D01*
X17048Y155303D01*
X17008Y155266D01*
X16961Y155235D01*
X16892Y155159D01*
X16817Y155089D01*
X16787Y155042D01*
X16750Y155001D01*
X16702Y154910D01*
X16646Y154823D01*
X16629Y154771D01*
X16603Y154722D01*
X16592Y154658D01*
X16547Y154524D01*
X16536Y154351D01*
X16525Y154286D01*
X16525Y68220D01*
X16539Y68111D01*
X16544Y68001D01*
X16558Y67955D01*
X16565Y67907D01*
X16605Y67805D01*
X16638Y67700D01*
X16660Y67669D01*
X16682Y67614D01*
X16868Y67360D01*
X16883Y67348D01*
X16891Y67337D01*
X63937Y20291D01*
X64023Y20223D01*
X64105Y20150D01*
X64148Y20127D01*
X64186Y20097D01*
X64287Y20054D01*
X64385Y20003D01*
X64421Y19996D01*
X64476Y19973D01*
X64788Y19925D01*
X64807Y19927D01*
X64820Y19925D01*
X102425Y19925D01*
X102464Y19930D01*
X102503Y19927D01*
X102620Y19950D01*
X102738Y19965D01*
X102775Y19979D01*
X102813Y19986D01*
X102921Y20037D01*
X103031Y20082D01*
X103063Y20105D01*
X103098Y20121D01*
X103190Y20198D01*
X103286Y20268D01*
X103311Y20299D01*
X103340Y20324D01*
X103376Y20378D01*
X103485Y20513D01*
X103544Y20641D01*
X103580Y20696D01*
X103667Y20906D01*
X107394Y24633D01*
X112264Y26651D01*
X117536Y26651D01*
X122406Y24633D01*
X126133Y20906D01*
X126455Y20130D01*
X126501Y20049D01*
X126539Y19964D01*
X126579Y19913D01*
X126611Y19856D01*
X126677Y19789D01*
X126734Y19716D01*
X126786Y19677D01*
X126832Y19630D01*
X126911Y19582D01*
X126985Y19525D01*
X127046Y19500D01*
X127101Y19466D01*
X127191Y19440D01*
X127277Y19404D01*
X127341Y19394D01*
X127404Y19376D01*
X127497Y19372D01*
X127589Y19359D01*
X127654Y19366D01*
X127719Y19363D01*
X127810Y19383D01*
X127902Y19394D01*
X127963Y19417D01*
X128027Y19431D01*
X128110Y19473D01*
X128197Y19506D01*
X128251Y19544D01*
X128309Y19573D01*
X128379Y19634D01*
X128455Y19688D01*
X128484Y19727D01*
X128546Y19781D01*
X128720Y20037D01*
X128722Y20041D01*
X128899Y20387D01*
X130132Y22084D01*
X131616Y23568D01*
X133313Y24801D01*
X135183Y25754D01*
X137178Y26402D01*
X137801Y26501D01*
X137801Y14650D01*
X137817Y14525D01*
X137826Y14400D01*
X137837Y14369D01*
X137841Y14337D01*
X137887Y14220D01*
X137928Y14101D01*
X137946Y14074D01*
X137958Y14044D01*
X138032Y13943D01*
X138101Y13837D01*
X138125Y13816D01*
X138144Y13790D01*
X138242Y13710D01*
X138335Y13626D01*
X138364Y13611D01*
X138389Y13590D01*
X138503Y13538D01*
X138615Y13479D01*
X138640Y13475D01*
X138675Y13458D01*
X138986Y13403D01*
X139025Y13405D01*
X139050Y13401D01*
X141550Y13401D01*
X141675Y13417D01*
G37*
G36*
X381694Y19386D02*
X381694Y19386D01*
X381710Y19385D01*
X381849Y19416D01*
X381988Y19442D01*
X382002Y19449D01*
X382018Y19452D01*
X382144Y19516D01*
X382273Y19577D01*
X382285Y19588D01*
X382300Y19595D01*
X382406Y19688D01*
X382515Y19779D01*
X382522Y19790D01*
X382537Y19803D01*
X382714Y20064D01*
X382734Y20120D01*
X382754Y20152D01*
X383067Y20906D01*
X386794Y24633D01*
X389040Y25564D01*
X389102Y25599D01*
X389168Y25626D01*
X389239Y25677D01*
X389314Y25720D01*
X389365Y25770D01*
X389423Y25812D01*
X389478Y25880D01*
X389540Y25941D01*
X389577Y26001D01*
X389622Y26057D01*
X389659Y26136D01*
X389704Y26210D01*
X389724Y26279D01*
X389754Y26343D01*
X389769Y26429D01*
X389795Y26513D01*
X389797Y26584D01*
X389810Y26654D01*
X389803Y26741D01*
X389807Y26828D01*
X389792Y26897D01*
X389786Y26968D01*
X389758Y27051D01*
X389740Y27136D01*
X389707Y27200D01*
X389684Y27267D01*
X389636Y27340D01*
X389597Y27418D01*
X389550Y27471D01*
X389511Y27531D01*
X389446Y27589D01*
X389389Y27655D01*
X389330Y27695D01*
X389277Y27742D01*
X389200Y27783D01*
X389128Y27832D01*
X389061Y27856D01*
X388998Y27889D01*
X388939Y27900D01*
X388831Y27938D01*
X388618Y27957D01*
X388562Y27967D01*
X378601Y27967D01*
X376016Y29038D01*
X364538Y40516D01*
X364036Y41728D01*
X364017Y41762D01*
X364004Y41799D01*
X363938Y41899D01*
X363879Y42002D01*
X363852Y42030D01*
X363831Y42063D01*
X363742Y42143D01*
X363659Y42228D01*
X363626Y42248D01*
X363597Y42274D01*
X363491Y42330D01*
X363389Y42391D01*
X363352Y42403D01*
X363317Y42421D01*
X363253Y42432D01*
X363087Y42482D01*
X363042Y42484D01*
X361167Y43261D01*
X359761Y44667D01*
X358999Y46505D01*
X358999Y63495D01*
X359761Y65333D01*
X361167Y66739D01*
X362696Y67373D01*
X362730Y67392D01*
X362767Y67405D01*
X362867Y67470D01*
X362970Y67529D01*
X362998Y67556D01*
X363031Y67578D01*
X363111Y67666D01*
X363196Y67749D01*
X363216Y67783D01*
X363242Y67812D01*
X363298Y67917D01*
X363359Y68019D01*
X363371Y68057D01*
X363389Y68091D01*
X363400Y68156D01*
X363450Y68321D01*
X363456Y68463D01*
X363467Y68527D01*
X363467Y78022D01*
X363464Y78045D01*
X363466Y78068D01*
X363454Y78123D01*
X363427Y78335D01*
X363385Y78442D01*
X363372Y78500D01*
X362935Y79556D01*
X362908Y79604D01*
X362888Y79656D01*
X362829Y79741D01*
X362778Y79830D01*
X362740Y79869D01*
X362708Y79915D01*
X362630Y79982D01*
X362558Y80056D01*
X362511Y80085D01*
X362469Y80120D01*
X362377Y80166D01*
X362288Y80220D01*
X362235Y80235D01*
X362186Y80260D01*
X362085Y80281D01*
X361986Y80310D01*
X361931Y80312D01*
X361877Y80324D01*
X361774Y80318D01*
X361671Y80322D01*
X361617Y80311D01*
X361562Y80308D01*
X361463Y80277D01*
X361363Y80255D01*
X361313Y80230D01*
X361261Y80214D01*
X361207Y80177D01*
X361081Y80113D01*
X360951Y79999D01*
X360897Y79961D01*
X359132Y78196D01*
X355783Y76809D01*
X355763Y76797D01*
X355741Y76790D01*
X355695Y76758D01*
X355509Y76652D01*
X355427Y76572D01*
X355378Y76538D01*
X354225Y75385D01*
X352291Y73451D01*
X349993Y72499D01*
X285007Y72499D01*
X282709Y73451D01*
X265951Y90209D01*
X264999Y92507D01*
X264999Y116893D01*
X264985Y117002D01*
X264980Y117112D01*
X264966Y117158D01*
X264959Y117206D01*
X264919Y117308D01*
X264886Y117413D01*
X264864Y117444D01*
X264842Y117499D01*
X264656Y117754D01*
X264641Y117766D01*
X264633Y117777D01*
X261527Y120883D01*
X261440Y120951D01*
X261358Y121024D01*
X261316Y121047D01*
X261277Y121077D01*
X261176Y121120D01*
X261079Y121171D01*
X261042Y121178D01*
X260987Y121201D01*
X260676Y121249D01*
X260656Y121247D01*
X260643Y121249D01*
X240007Y121249D01*
X237709Y122201D01*
X236027Y123883D01*
X235940Y123951D01*
X235858Y124024D01*
X235816Y124047D01*
X235777Y124077D01*
X235676Y124120D01*
X235579Y124171D01*
X235542Y124178D01*
X235487Y124201D01*
X235176Y124249D01*
X235156Y124247D01*
X235143Y124249D01*
X233110Y124249D01*
X232978Y124304D01*
X232925Y124318D01*
X232875Y124342D01*
X232773Y124360D01*
X232674Y124387D01*
X232619Y124388D01*
X232564Y124397D01*
X232461Y124390D01*
X232358Y124391D01*
X232305Y124378D01*
X232250Y124374D01*
X232152Y124340D01*
X232052Y124316D01*
X232003Y124290D01*
X231951Y124272D01*
X231865Y124215D01*
X231774Y124166D01*
X231734Y124129D01*
X231687Y124099D01*
X231618Y124022D01*
X231542Y123952D01*
X231513Y123906D01*
X231476Y123865D01*
X231428Y123774D01*
X231372Y123687D01*
X231355Y123634D01*
X231329Y123585D01*
X231318Y123521D01*
X231273Y123387D01*
X231262Y123214D01*
X231251Y123150D01*
X231251Y118107D01*
X231265Y117998D01*
X231270Y117888D01*
X231284Y117842D01*
X231291Y117794D01*
X231331Y117692D01*
X231364Y117587D01*
X231386Y117556D01*
X231408Y117501D01*
X231594Y117246D01*
X231609Y117234D01*
X231617Y117223D01*
X238973Y109867D01*
X239060Y109799D01*
X239142Y109726D01*
X239184Y109703D01*
X239223Y109673D01*
X239324Y109630D01*
X239421Y109579D01*
X239458Y109572D01*
X239513Y109549D01*
X239824Y109501D01*
X239844Y109503D01*
X239857Y109501D01*
X241890Y109501D01*
X245382Y108054D01*
X248054Y105382D01*
X249501Y101890D01*
X249501Y98110D01*
X248054Y94618D01*
X245382Y91946D01*
X241890Y90499D01*
X238110Y90499D01*
X234618Y91946D01*
X231946Y94618D01*
X230499Y98110D01*
X230499Y100143D01*
X230485Y100252D01*
X230480Y100362D01*
X230466Y100408D01*
X230459Y100456D01*
X230419Y100559D01*
X230386Y100663D01*
X230365Y100694D01*
X230342Y100749D01*
X230156Y101004D01*
X230141Y101016D01*
X230133Y101027D01*
X224967Y106193D01*
X224855Y106280D01*
X224745Y106370D01*
X224730Y106376D01*
X224718Y106386D01*
X224587Y106442D01*
X224458Y106502D01*
X224442Y106504D01*
X224428Y106511D01*
X224287Y106532D01*
X224148Y106557D01*
X224132Y106556D01*
X224116Y106559D01*
X223974Y106544D01*
X223833Y106534D01*
X223818Y106528D01*
X223802Y106527D01*
X223669Y106478D01*
X223535Y106432D01*
X223521Y106423D01*
X223506Y106417D01*
X223390Y106337D01*
X223271Y106259D01*
X223260Y106247D01*
X223247Y106237D01*
X223155Y106130D01*
X223059Y106025D01*
X223052Y106010D01*
X223041Y105998D01*
X222979Y105871D01*
X222913Y105745D01*
X222910Y105732D01*
X222902Y105715D01*
X222838Y105406D01*
X222841Y105347D01*
X222834Y105310D01*
X222834Y104777D01*
X221388Y101285D01*
X218715Y98612D01*
X215223Y97166D01*
X213190Y97166D01*
X213081Y97152D01*
X212971Y97146D01*
X212925Y97132D01*
X212877Y97126D01*
X212775Y97085D01*
X212670Y97052D01*
X212639Y97031D01*
X212584Y97009D01*
X212330Y96822D01*
X212318Y96807D01*
X212307Y96800D01*
X196458Y80951D01*
X195210Y80434D01*
X195086Y80363D01*
X194962Y80296D01*
X194950Y80285D01*
X194936Y80277D01*
X194834Y80178D01*
X194730Y80082D01*
X194722Y80068D01*
X194710Y80057D01*
X194636Y79936D01*
X194560Y79816D01*
X194555Y79801D01*
X194546Y79787D01*
X194505Y79651D01*
X194461Y79517D01*
X194460Y79501D01*
X194456Y79485D01*
X194450Y79343D01*
X194441Y79202D01*
X194444Y79186D01*
X194443Y79170D01*
X194474Y79031D01*
X194500Y78892D01*
X194507Y78877D01*
X194511Y78862D01*
X194575Y78734D01*
X194635Y78607D01*
X194646Y78595D01*
X194653Y78580D01*
X194747Y78473D01*
X194837Y78365D01*
X194849Y78357D01*
X194861Y78343D01*
X195122Y78166D01*
X195178Y78146D01*
X195210Y78126D01*
X195382Y78054D01*
X198054Y75382D01*
X199501Y71890D01*
X199501Y68110D01*
X198054Y64618D01*
X196617Y63181D01*
X196549Y63094D01*
X196476Y63012D01*
X196453Y62969D01*
X196423Y62931D01*
X196380Y62830D01*
X196329Y62733D01*
X196322Y62696D01*
X196299Y62641D01*
X196251Y62329D01*
X196253Y62310D01*
X196251Y62297D01*
X196251Y49357D01*
X196265Y49248D01*
X196270Y49138D01*
X196284Y49092D01*
X196291Y49044D01*
X196331Y48942D01*
X196364Y48837D01*
X196386Y48806D01*
X196408Y48751D01*
X196594Y48496D01*
X196609Y48484D01*
X196617Y48473D01*
X198973Y46117D01*
X199060Y46049D01*
X199142Y45976D01*
X199184Y45953D01*
X199223Y45923D01*
X199324Y45880D01*
X199421Y45829D01*
X199458Y45822D01*
X199513Y45799D01*
X199824Y45751D01*
X199844Y45753D01*
X199857Y45751D01*
X201890Y45751D01*
X204955Y44481D01*
X204992Y44471D01*
X205027Y44454D01*
X205144Y44430D01*
X205259Y44398D01*
X205298Y44398D01*
X205336Y44390D01*
X205455Y44396D01*
X205574Y44394D01*
X205612Y44404D01*
X205651Y44405D01*
X205765Y44441D01*
X205881Y44469D01*
X205915Y44488D01*
X205953Y44500D01*
X206006Y44537D01*
X206159Y44619D01*
X206262Y44715D01*
X206316Y44752D01*
X207025Y45461D01*
X210516Y46907D01*
X214296Y46907D01*
X216002Y46200D01*
X216055Y46186D01*
X216105Y46163D01*
X216207Y46145D01*
X216306Y46118D01*
X216362Y46117D01*
X216416Y46107D01*
X216518Y46115D01*
X216622Y46113D01*
X216675Y46127D01*
X216730Y46131D01*
X216828Y46164D01*
X216928Y46189D01*
X216977Y46215D01*
X217029Y46232D01*
X217115Y46289D01*
X217206Y46338D01*
X217246Y46375D01*
X217293Y46406D01*
X217362Y46482D01*
X217438Y46552D01*
X217467Y46599D01*
X217504Y46640D01*
X217552Y46731D01*
X217608Y46818D01*
X217625Y46870D01*
X217651Y46919D01*
X217662Y46983D01*
X217707Y47118D01*
X217718Y47290D01*
X217729Y47355D01*
X217729Y47870D01*
X218637Y50060D01*
X218647Y50098D01*
X218664Y50133D01*
X218688Y50249D01*
X218719Y50365D01*
X218720Y50404D01*
X218728Y50442D01*
X218722Y50561D01*
X218724Y50680D01*
X218714Y50718D01*
X218712Y50757D01*
X218677Y50871D01*
X218648Y50986D01*
X218630Y51021D01*
X218618Y51058D01*
X218581Y51112D01*
X218499Y51264D01*
X218403Y51368D01*
X218366Y51422D01*
X217307Y52480D01*
X215861Y55972D01*
X215861Y59751D01*
X217307Y63243D01*
X219980Y65916D01*
X223472Y67362D01*
X227251Y67362D01*
X230743Y65916D01*
X233431Y63228D01*
X233518Y63161D01*
X233599Y63087D01*
X233642Y63065D01*
X233681Y63035D01*
X233782Y62992D01*
X233879Y62941D01*
X233916Y62934D01*
X233970Y62911D01*
X234282Y62863D01*
X234301Y62865D01*
X234314Y62862D01*
X324632Y62862D01*
X326929Y61911D01*
X348799Y40041D01*
X349751Y37743D01*
X349751Y25988D01*
X349756Y25949D01*
X349753Y25910D01*
X349776Y25793D01*
X349791Y25675D01*
X349805Y25639D01*
X349812Y25600D01*
X349863Y25493D01*
X349908Y25382D01*
X349931Y25351D01*
X349947Y25315D01*
X350024Y25224D01*
X350094Y25128D01*
X350125Y25103D01*
X350150Y25073D01*
X350204Y25038D01*
X350339Y24928D01*
X350467Y24869D01*
X350522Y24834D01*
X351006Y24633D01*
X354733Y20906D01*
X355046Y20152D01*
X355116Y20029D01*
X355183Y19904D01*
X355194Y19892D01*
X355202Y19878D01*
X355302Y19776D01*
X355398Y19672D01*
X355411Y19663D01*
X355423Y19652D01*
X355544Y19578D01*
X355663Y19502D01*
X355679Y19497D01*
X355692Y19488D01*
X355828Y19447D01*
X355963Y19403D01*
X355979Y19402D01*
X355995Y19397D01*
X356137Y19392D01*
X356278Y19383D01*
X356294Y19386D01*
X356310Y19385D01*
X356449Y19416D01*
X356588Y19442D01*
X356602Y19449D01*
X356618Y19452D01*
X356744Y19516D01*
X356873Y19577D01*
X356885Y19588D01*
X356900Y19595D01*
X357006Y19688D01*
X357115Y19779D01*
X357122Y19790D01*
X357137Y19803D01*
X357314Y20064D01*
X357334Y20120D01*
X357354Y20152D01*
X357667Y20906D01*
X361394Y24633D01*
X366264Y26651D01*
X371536Y26651D01*
X376406Y24633D01*
X380133Y20906D01*
X380446Y20152D01*
X380516Y20029D01*
X380583Y19904D01*
X380594Y19892D01*
X380602Y19878D01*
X380702Y19776D01*
X380798Y19672D01*
X380811Y19663D01*
X380823Y19652D01*
X380944Y19578D01*
X381063Y19502D01*
X381079Y19497D01*
X381092Y19488D01*
X381228Y19447D01*
X381363Y19403D01*
X381379Y19402D01*
X381395Y19397D01*
X381537Y19392D01*
X381678Y19383D01*
X381694Y19386D01*
G37*
G36*
X73252Y151265D02*
X73252Y151265D01*
X73362Y151270D01*
X73408Y151284D01*
X73456Y151291D01*
X73558Y151331D01*
X73663Y151364D01*
X73694Y151386D01*
X73749Y151408D01*
X74004Y151594D01*
X74016Y151609D01*
X74027Y151617D01*
X89244Y166834D01*
X89309Y166918D01*
X89381Y166997D01*
X89405Y167042D01*
X89437Y167083D01*
X89479Y167181D01*
X89529Y167275D01*
X89541Y167326D01*
X89562Y167373D01*
X89578Y167479D01*
X89603Y167582D01*
X89602Y167634D01*
X89609Y167685D01*
X89599Y167791D01*
X89597Y167898D01*
X89583Y167948D01*
X89578Y167999D01*
X89541Y168099D01*
X89512Y168202D01*
X89486Y168246D01*
X89468Y168295D01*
X89407Y168382D01*
X89354Y168475D01*
X89318Y168511D01*
X89288Y168554D01*
X89207Y168623D01*
X89133Y168699D01*
X89088Y168726D01*
X89049Y168760D01*
X88953Y168807D01*
X88862Y168861D01*
X88812Y168876D01*
X88766Y168899D01*
X88661Y168920D01*
X88559Y168951D01*
X88519Y168950D01*
X88457Y168963D01*
X88142Y168947D01*
X88127Y168943D01*
X88117Y168942D01*
X88000Y168919D01*
X82499Y168919D01*
X82499Y178001D01*
X92581Y178001D01*
X92581Y173500D01*
X92558Y173383D01*
X92550Y173277D01*
X92534Y173172D01*
X92539Y173120D01*
X92536Y173068D01*
X92555Y172964D01*
X92566Y172858D01*
X92584Y172809D01*
X92593Y172758D01*
X92638Y172662D01*
X92675Y172562D01*
X92705Y172519D01*
X92727Y172472D01*
X92794Y172390D01*
X92855Y172303D01*
X92894Y172269D01*
X92927Y172229D01*
X93014Y172166D01*
X93094Y172097D01*
X93141Y172074D01*
X93183Y172044D01*
X93282Y172005D01*
X93378Y171958D01*
X93428Y171947D01*
X93476Y171928D01*
X93582Y171915D01*
X93687Y171894D01*
X93738Y171896D01*
X93790Y171890D01*
X93895Y171904D01*
X94002Y171909D01*
X94051Y171925D01*
X94102Y171932D01*
X94201Y171972D01*
X94303Y172004D01*
X94335Y172026D01*
X94395Y172050D01*
X94648Y172238D01*
X94658Y172250D01*
X94666Y172256D01*
X101383Y178973D01*
X101451Y179060D01*
X101524Y179142D01*
X101547Y179184D01*
X101577Y179223D01*
X101620Y179324D01*
X101671Y179421D01*
X101678Y179458D01*
X101701Y179513D01*
X101749Y179824D01*
X101747Y179844D01*
X101749Y179857D01*
X101749Y181890D01*
X103196Y185382D01*
X105868Y188054D01*
X109404Y189519D01*
X109500Y189526D01*
X109531Y189537D01*
X109563Y189541D01*
X109680Y189587D01*
X109799Y189628D01*
X109826Y189646D01*
X109856Y189658D01*
X109957Y189732D01*
X110063Y189801D01*
X110084Y189825D01*
X110110Y189844D01*
X110190Y189942D01*
X110274Y190035D01*
X110289Y190064D01*
X110310Y190089D01*
X110363Y190203D01*
X110421Y190314D01*
X110425Y190340D01*
X110442Y190375D01*
X110498Y190686D01*
X110495Y190717D01*
X110498Y190730D01*
X110497Y190738D01*
X110499Y190750D01*
X110499Y193640D01*
X111946Y197132D01*
X114618Y199804D01*
X117374Y200946D01*
X117436Y200981D01*
X117502Y201008D01*
X117572Y201059D01*
X117648Y201102D01*
X117699Y201152D01*
X117756Y201194D01*
X117812Y201262D01*
X117874Y201323D01*
X117911Y201383D01*
X117956Y201439D01*
X117992Y201518D01*
X118038Y201592D01*
X118058Y201661D01*
X118088Y201725D01*
X118103Y201811D01*
X118128Y201895D01*
X118131Y201966D01*
X118144Y202036D01*
X118137Y202123D01*
X118141Y202210D01*
X118125Y202279D01*
X118120Y202350D01*
X118092Y202433D01*
X118073Y202518D01*
X118041Y202582D01*
X118018Y202649D01*
X117970Y202722D01*
X117931Y202800D01*
X117884Y202853D01*
X117845Y202913D01*
X117780Y202971D01*
X117723Y203037D01*
X117664Y203077D01*
X117611Y203124D01*
X117534Y203165D01*
X117462Y203214D01*
X117395Y203238D01*
X117332Y203271D01*
X117272Y203282D01*
X117165Y203320D01*
X116951Y203339D01*
X116896Y203349D01*
X112264Y203349D01*
X107394Y205367D01*
X103667Y209094D01*
X101649Y213964D01*
X101649Y219236D01*
X102795Y222002D01*
X102810Y222055D01*
X102833Y222105D01*
X102851Y222207D01*
X102878Y222306D01*
X102879Y222362D01*
X102889Y222416D01*
X102881Y222519D01*
X102882Y222622D01*
X102869Y222675D01*
X102865Y222730D01*
X102832Y222828D01*
X102807Y222928D01*
X102781Y222977D01*
X102763Y223029D01*
X102706Y223115D01*
X102658Y223206D01*
X102620Y223247D01*
X102590Y223293D01*
X102513Y223362D01*
X102443Y223438D01*
X102397Y223467D01*
X102356Y223504D01*
X102264Y223552D01*
X102178Y223608D01*
X102125Y223625D01*
X102076Y223651D01*
X102012Y223662D01*
X101878Y223707D01*
X101705Y223718D01*
X101641Y223729D01*
X13115Y223729D01*
X13006Y223715D01*
X12896Y223710D01*
X12850Y223696D01*
X12802Y223689D01*
X12700Y223649D01*
X12595Y223616D01*
X12564Y223594D01*
X12509Y223572D01*
X12255Y223386D01*
X12242Y223371D01*
X12232Y223363D01*
X6637Y217768D01*
X6569Y217682D01*
X6496Y217600D01*
X6473Y217557D01*
X6443Y217519D01*
X6400Y217418D01*
X6349Y217321D01*
X6342Y217284D01*
X6319Y217229D01*
X6271Y216917D01*
X6273Y216898D01*
X6271Y216885D01*
X6271Y203127D01*
X6289Y202986D01*
X6303Y202845D01*
X6309Y202830D01*
X6311Y202814D01*
X6363Y202682D01*
X6412Y202549D01*
X6422Y202536D01*
X6428Y202521D01*
X6512Y202406D01*
X6592Y202290D01*
X6605Y202279D01*
X6614Y202266D01*
X6724Y202176D01*
X6832Y202084D01*
X6846Y202077D01*
X6859Y202067D01*
X6988Y202007D01*
X7115Y201945D01*
X7131Y201942D01*
X7145Y201935D01*
X7285Y201910D01*
X7424Y201881D01*
X7440Y201882D01*
X7456Y201879D01*
X7597Y201890D01*
X7739Y201897D01*
X7754Y201901D01*
X7770Y201903D01*
X7905Y201949D01*
X8040Y201991D01*
X8051Y201998D01*
X8069Y202004D01*
X8333Y202178D01*
X8373Y202222D01*
X8403Y202243D01*
X12525Y206365D01*
X14459Y208299D01*
X16757Y209251D01*
X21606Y209251D01*
X21645Y209256D01*
X21684Y209253D01*
X21801Y209276D01*
X21919Y209291D01*
X21956Y209305D01*
X21994Y209312D01*
X22102Y209363D01*
X22212Y209408D01*
X22244Y209431D01*
X22279Y209447D01*
X22371Y209524D01*
X22467Y209594D01*
X22491Y209624D01*
X22521Y209650D01*
X22557Y209705D01*
X22666Y209839D01*
X22725Y209967D01*
X22761Y210022D01*
X23511Y211833D01*
X24917Y213239D01*
X26755Y214001D01*
X34245Y214001D01*
X36083Y213239D01*
X37489Y211833D01*
X38251Y209995D01*
X38251Y196005D01*
X37489Y194167D01*
X36083Y192761D01*
X34245Y191999D01*
X26755Y191999D01*
X24917Y192761D01*
X23511Y194167D01*
X22761Y195978D01*
X22741Y196012D01*
X22729Y196049D01*
X22663Y196149D01*
X22604Y196252D01*
X22577Y196280D01*
X22555Y196313D01*
X22467Y196393D01*
X22384Y196478D01*
X22350Y196498D01*
X22321Y196524D01*
X22216Y196580D01*
X22114Y196641D01*
X22077Y196653D01*
X22042Y196671D01*
X21978Y196682D01*
X21812Y196732D01*
X21671Y196738D01*
X21606Y196749D01*
X21107Y196749D01*
X20998Y196735D01*
X20888Y196730D01*
X20842Y196716D01*
X20794Y196709D01*
X20692Y196669D01*
X20587Y196636D01*
X20556Y196614D01*
X20501Y196592D01*
X20246Y196406D01*
X20234Y196391D01*
X20223Y196383D01*
X16617Y192777D01*
X16549Y192690D01*
X16476Y192608D01*
X16453Y192566D01*
X16423Y192527D01*
X16380Y192426D01*
X16329Y192329D01*
X16322Y192292D01*
X16299Y192237D01*
X16251Y191926D01*
X16253Y191906D01*
X16251Y191893D01*
X16251Y188100D01*
X16258Y188045D01*
X16256Y187990D01*
X16278Y187889D01*
X16291Y187787D01*
X16311Y187736D01*
X16323Y187682D01*
X16369Y187590D01*
X16408Y187494D01*
X16440Y187450D01*
X16465Y187400D01*
X16533Y187323D01*
X16594Y187240D01*
X16637Y187205D01*
X16673Y187163D01*
X16759Y187106D01*
X16839Y187040D01*
X16889Y187017D01*
X16934Y186986D01*
X17031Y186952D01*
X17125Y186908D01*
X17180Y186899D01*
X17232Y186880D01*
X17334Y186871D01*
X17436Y186853D01*
X17491Y186857D01*
X17546Y186852D01*
X17610Y186866D01*
X17750Y186876D01*
X17914Y186932D01*
X17978Y186946D01*
X18110Y187001D01*
X21890Y187001D01*
X23091Y186503D01*
X23128Y186493D01*
X23163Y186476D01*
X23280Y186452D01*
X23395Y186420D01*
X23434Y186420D01*
X23472Y186412D01*
X23591Y186418D01*
X23710Y186416D01*
X23748Y186426D01*
X23788Y186428D01*
X23901Y186463D01*
X24017Y186491D01*
X24051Y186510D01*
X24089Y186522D01*
X24142Y186559D01*
X24295Y186641D01*
X24398Y186737D01*
X24452Y186774D01*
X24917Y187239D01*
X26755Y188001D01*
X34245Y188001D01*
X34667Y187826D01*
X34774Y187797D01*
X34877Y187760D01*
X34925Y187755D01*
X34972Y187743D01*
X35082Y187741D01*
X35191Y187731D01*
X35228Y187739D01*
X35287Y187739D01*
X35594Y187814D01*
X35611Y187823D01*
X35624Y187826D01*
X35768Y187885D01*
X36750Y188081D01*
X38626Y188081D01*
X38626Y177125D01*
X38642Y177000D01*
X38651Y176875D01*
X38661Y176844D01*
X38666Y176812D01*
X38712Y176696D01*
X38753Y176576D01*
X38771Y176549D01*
X38783Y176519D01*
X38857Y176418D01*
X38926Y176313D01*
X38950Y176291D01*
X38969Y176265D01*
X39067Y176185D01*
X39160Y176101D01*
X39189Y176086D01*
X39214Y176065D01*
X39328Y176013D01*
X39439Y175954D01*
X39465Y175950D01*
X39500Y175933D01*
X39811Y175878D01*
X39850Y175881D01*
X39875Y175876D01*
X40125Y175876D01*
X40250Y175892D01*
X40375Y175901D01*
X40406Y175912D01*
X40438Y175916D01*
X40555Y175962D01*
X40674Y176003D01*
X40701Y176021D01*
X40731Y176033D01*
X40832Y176107D01*
X40938Y176176D01*
X40959Y176200D01*
X40985Y176219D01*
X41065Y176317D01*
X41149Y176410D01*
X41164Y176439D01*
X41185Y176464D01*
X41238Y176578D01*
X41296Y176690D01*
X41300Y176715D01*
X41317Y176750D01*
X41373Y177061D01*
X41370Y177100D01*
X41374Y177125D01*
X41374Y188081D01*
X43250Y188081D01*
X44232Y187885D01*
X44376Y187826D01*
X44482Y187797D01*
X44586Y187760D01*
X44634Y187755D01*
X44681Y187743D01*
X44791Y187741D01*
X44900Y187731D01*
X44937Y187739D01*
X44996Y187739D01*
X45303Y187814D01*
X45320Y187823D01*
X45333Y187826D01*
X45755Y188001D01*
X53245Y188001D01*
X55083Y187239D01*
X56489Y185833D01*
X57251Y183995D01*
X57251Y170005D01*
X56489Y168167D01*
X56117Y167795D01*
X56049Y167708D01*
X55976Y167626D01*
X55953Y167583D01*
X55923Y167545D01*
X55880Y167444D01*
X55829Y167347D01*
X55822Y167310D01*
X55799Y167255D01*
X55751Y166943D01*
X55753Y166924D01*
X55751Y166911D01*
X55751Y163257D01*
X54799Y160959D01*
X53473Y159633D01*
X53387Y159521D01*
X53297Y159411D01*
X53290Y159397D01*
X53280Y159384D01*
X53224Y159254D01*
X53165Y159125D01*
X53162Y159109D01*
X53156Y159094D01*
X53134Y158953D01*
X53109Y158814D01*
X53110Y158798D01*
X53108Y158782D01*
X53122Y158641D01*
X53133Y158500D01*
X53138Y158484D01*
X53139Y158468D01*
X53189Y158336D01*
X53234Y158201D01*
X53243Y158187D01*
X53249Y158172D01*
X53329Y158057D01*
X53408Y157937D01*
X53420Y157926D01*
X53429Y157913D01*
X53536Y157821D01*
X53642Y157726D01*
X53656Y157718D01*
X53668Y157708D01*
X53796Y157645D01*
X53921Y157579D01*
X53934Y157577D01*
X53951Y157568D01*
X54260Y157504D01*
X54320Y157507D01*
X54357Y157501D01*
X66995Y157501D01*
X68833Y156739D01*
X70239Y155333D01*
X71001Y153495D01*
X71001Y152500D01*
X71017Y152375D01*
X71026Y152250D01*
X71037Y152219D01*
X71041Y152187D01*
X71087Y152070D01*
X71128Y151951D01*
X71146Y151924D01*
X71158Y151894D01*
X71232Y151793D01*
X71301Y151687D01*
X71325Y151666D01*
X71344Y151640D01*
X71442Y151560D01*
X71535Y151476D01*
X71564Y151461D01*
X71589Y151440D01*
X71703Y151387D01*
X71814Y151329D01*
X71840Y151325D01*
X71875Y151308D01*
X72186Y151252D01*
X72225Y151255D01*
X72250Y151251D01*
X73143Y151251D01*
X73252Y151265D01*
G37*
G36*
X426678Y42047D02*
X426678Y42047D01*
X426788Y42052D01*
X426835Y42066D01*
X426882Y42073D01*
X426985Y42113D01*
X427089Y42146D01*
X427120Y42168D01*
X427175Y42190D01*
X427430Y42376D01*
X427442Y42391D01*
X427453Y42399D01*
X437701Y52647D01*
X437769Y52734D01*
X437842Y52816D01*
X437865Y52858D01*
X437895Y52897D01*
X437938Y52998D01*
X437989Y53095D01*
X437996Y53132D01*
X438019Y53187D01*
X438067Y53498D01*
X438065Y53518D01*
X438067Y53531D01*
X438067Y86211D01*
X438049Y86352D01*
X438035Y86493D01*
X438029Y86508D01*
X438027Y86524D01*
X437975Y86656D01*
X437926Y86789D01*
X437916Y86802D01*
X437910Y86817D01*
X437827Y86932D01*
X437746Y87048D01*
X437733Y87059D01*
X437724Y87072D01*
X437614Y87162D01*
X437506Y87254D01*
X437492Y87261D01*
X437479Y87271D01*
X437350Y87331D01*
X437223Y87393D01*
X437207Y87396D01*
X437193Y87403D01*
X437053Y87428D01*
X436914Y87457D01*
X436898Y87456D01*
X436882Y87459D01*
X436741Y87448D01*
X436599Y87441D01*
X436584Y87437D01*
X436568Y87435D01*
X436433Y87389D01*
X436298Y87347D01*
X436287Y87340D01*
X436269Y87334D01*
X436005Y87160D01*
X435965Y87116D01*
X435935Y87095D01*
X434041Y85201D01*
X433272Y84882D01*
X433238Y84863D01*
X433201Y84850D01*
X433101Y84785D01*
X432998Y84726D01*
X432970Y84699D01*
X432937Y84677D01*
X432857Y84589D01*
X432772Y84506D01*
X432752Y84472D01*
X432726Y84443D01*
X432670Y84338D01*
X432609Y84236D01*
X432597Y84198D01*
X432579Y84164D01*
X432568Y84099D01*
X432518Y83934D01*
X432512Y83792D01*
X432501Y83728D01*
X432501Y83005D01*
X431739Y81167D01*
X430333Y79761D01*
X428495Y78999D01*
X411505Y78999D01*
X409667Y79761D01*
X408261Y81167D01*
X407499Y83005D01*
X407499Y97995D01*
X408132Y99522D01*
X408161Y99628D01*
X408198Y99731D01*
X408202Y99780D01*
X408215Y99826D01*
X408216Y99936D01*
X408226Y100046D01*
X408218Y100082D01*
X408219Y100142D01*
X408144Y100448D01*
X408135Y100465D01*
X408132Y100478D01*
X407498Y102008D01*
X407483Y102125D01*
X407474Y102250D01*
X407463Y102281D01*
X407459Y102313D01*
X407413Y102430D01*
X407372Y102549D01*
X407354Y102576D01*
X407342Y102606D01*
X407268Y102707D01*
X407199Y102813D01*
X407175Y102834D01*
X407156Y102860D01*
X407058Y102940D01*
X406965Y103024D01*
X406936Y103039D01*
X406911Y103060D01*
X406797Y103113D01*
X406686Y103171D01*
X406660Y103175D01*
X406625Y103192D01*
X406314Y103248D01*
X406275Y103245D01*
X406250Y103249D01*
X404257Y103249D01*
X401959Y104201D01*
X399776Y106384D01*
X399689Y106452D01*
X399607Y106525D01*
X399565Y106548D01*
X399526Y106578D01*
X399425Y106621D01*
X399328Y106672D01*
X399291Y106679D01*
X399236Y106702D01*
X398925Y106750D01*
X398905Y106748D01*
X398892Y106750D01*
X398394Y106750D01*
X398355Y106745D01*
X398316Y106748D01*
X398199Y106725D01*
X398081Y106710D01*
X398044Y106696D01*
X398006Y106689D01*
X397898Y106638D01*
X397788Y106593D01*
X397756Y106570D01*
X397721Y106554D01*
X397629Y106477D01*
X397533Y106407D01*
X397509Y106377D01*
X397479Y106351D01*
X397443Y106296D01*
X397334Y106162D01*
X397275Y106034D01*
X397239Y105979D01*
X396489Y104168D01*
X395083Y102762D01*
X393245Y102000D01*
X385755Y102000D01*
X385333Y102175D01*
X385226Y102204D01*
X385123Y102241D01*
X385075Y102246D01*
X385028Y102258D01*
X384918Y102260D01*
X384809Y102270D01*
X384772Y102262D01*
X384713Y102262D01*
X384406Y102187D01*
X384389Y102178D01*
X384376Y102175D01*
X384232Y102116D01*
X383250Y101920D01*
X381374Y101920D01*
X381374Y112876D01*
X381360Y112990D01*
X381373Y113062D01*
X381370Y113101D01*
X381374Y113126D01*
X381374Y124250D01*
X381358Y124375D01*
X381349Y124500D01*
X381338Y124531D01*
X381334Y124563D01*
X381288Y124680D01*
X381247Y124799D01*
X381229Y124826D01*
X381217Y124856D01*
X381143Y124957D01*
X381074Y125063D01*
X381050Y125084D01*
X381031Y125110D01*
X380933Y125190D01*
X380840Y125274D01*
X380811Y125289D01*
X380786Y125310D01*
X380672Y125363D01*
X380561Y125421D01*
X380535Y125425D01*
X380500Y125442D01*
X380189Y125498D01*
X380150Y125495D01*
X380125Y125499D01*
X379875Y125499D01*
X379750Y125483D01*
X379625Y125474D01*
X379594Y125463D01*
X379562Y125459D01*
X379445Y125413D01*
X379326Y125372D01*
X379299Y125354D01*
X379269Y125342D01*
X379168Y125268D01*
X379062Y125199D01*
X379041Y125175D01*
X379015Y125156D01*
X378935Y125058D01*
X378851Y124965D01*
X378836Y124936D01*
X378815Y124911D01*
X378762Y124797D01*
X378704Y124686D01*
X378700Y124660D01*
X378683Y124625D01*
X378627Y124314D01*
X378630Y124275D01*
X378626Y124250D01*
X378626Y113126D01*
X378640Y113012D01*
X378627Y112940D01*
X378630Y112901D01*
X378626Y112876D01*
X378626Y101920D01*
X376750Y101920D01*
X375768Y102116D01*
X375624Y102175D01*
X375518Y102204D01*
X375414Y102241D01*
X375366Y102246D01*
X375319Y102258D01*
X375209Y102260D01*
X375100Y102270D01*
X375063Y102262D01*
X375004Y102262D01*
X374697Y102187D01*
X374680Y102178D01*
X374667Y102175D01*
X374245Y102000D01*
X366755Y102000D01*
X364917Y102762D01*
X364160Y103519D01*
X364129Y103543D01*
X364103Y103572D01*
X364005Y103639D01*
X363910Y103712D01*
X363874Y103728D01*
X363842Y103750D01*
X363730Y103790D01*
X363621Y103837D01*
X363582Y103843D01*
X363545Y103856D01*
X363427Y103866D01*
X363309Y103885D01*
X363270Y103881D01*
X363231Y103884D01*
X363167Y103870D01*
X362995Y103853D01*
X362862Y103804D01*
X362798Y103790D01*
X360890Y102999D01*
X358857Y102999D01*
X358748Y102985D01*
X358638Y102980D01*
X358592Y102966D01*
X358544Y102959D01*
X358441Y102919D01*
X358337Y102886D01*
X358306Y102865D01*
X358251Y102842D01*
X357996Y102656D01*
X357984Y102641D01*
X357973Y102633D01*
X353223Y97883D01*
X353137Y97771D01*
X353047Y97661D01*
X353040Y97647D01*
X353030Y97634D01*
X352974Y97503D01*
X352915Y97375D01*
X352912Y97359D01*
X352906Y97344D01*
X352884Y97203D01*
X352859Y97064D01*
X352860Y97048D01*
X352858Y97032D01*
X352872Y96891D01*
X352883Y96750D01*
X352888Y96734D01*
X352889Y96718D01*
X352939Y96585D01*
X352984Y96451D01*
X352993Y96437D01*
X352999Y96422D01*
X353080Y96306D01*
X353158Y96187D01*
X353170Y96176D01*
X353179Y96163D01*
X353286Y96071D01*
X353392Y95976D01*
X353406Y95968D01*
X353418Y95958D01*
X353545Y95895D01*
X353671Y95829D01*
X353684Y95827D01*
X353701Y95818D01*
X354010Y95754D01*
X354070Y95757D01*
X354107Y95751D01*
X355640Y95751D01*
X359132Y94304D01*
X360617Y92819D01*
X360729Y92733D01*
X360839Y92643D01*
X360853Y92636D01*
X360866Y92626D01*
X360996Y92571D01*
X361125Y92511D01*
X361141Y92508D01*
X361156Y92502D01*
X361297Y92480D01*
X361436Y92455D01*
X361452Y92456D01*
X361468Y92454D01*
X361609Y92468D01*
X361750Y92479D01*
X361766Y92484D01*
X361782Y92486D01*
X361914Y92535D01*
X362049Y92581D01*
X362063Y92590D01*
X362078Y92595D01*
X362193Y92676D01*
X362313Y92754D01*
X362324Y92766D01*
X362337Y92775D01*
X362429Y92882D01*
X362524Y92988D01*
X362532Y93002D01*
X362542Y93014D01*
X362605Y93142D01*
X362671Y93267D01*
X362673Y93280D01*
X362682Y93297D01*
X362746Y93606D01*
X362743Y93666D01*
X362749Y93703D01*
X362749Y93994D01*
X363511Y95832D01*
X364917Y97238D01*
X366755Y98000D01*
X374245Y98000D01*
X376083Y97238D01*
X377489Y95832D01*
X378251Y93994D01*
X378251Y80004D01*
X377628Y78500D01*
X377622Y78478D01*
X377611Y78458D01*
X377601Y78403D01*
X377545Y78196D01*
X377543Y78082D01*
X377533Y78022D01*
X377533Y68527D01*
X377538Y68488D01*
X377535Y68449D01*
X377558Y68332D01*
X377573Y68214D01*
X377587Y68177D01*
X377594Y68139D01*
X377645Y68032D01*
X377690Y67921D01*
X377713Y67889D01*
X377729Y67854D01*
X377806Y67763D01*
X377876Y67666D01*
X377906Y67642D01*
X377932Y67612D01*
X377987Y67576D01*
X378121Y67467D01*
X378249Y67408D01*
X378304Y67373D01*
X379442Y66901D01*
X379514Y66881D01*
X379583Y66852D01*
X379666Y66840D01*
X379747Y66818D01*
X379821Y66817D01*
X379895Y66806D01*
X379978Y66815D01*
X380062Y66814D01*
X380135Y66832D01*
X380209Y66840D01*
X380263Y66863D01*
X380369Y66889D01*
X380532Y66977D01*
X381518Y67385D01*
X382500Y67581D01*
X387001Y67581D01*
X387001Y56250D01*
X387017Y56125D01*
X387026Y56000D01*
X387037Y55969D01*
X387041Y55937D01*
X387087Y55820D01*
X387128Y55701D01*
X387146Y55674D01*
X387158Y55644D01*
X387232Y55543D01*
X387301Y55437D01*
X387325Y55416D01*
X387344Y55390D01*
X387442Y55310D01*
X387535Y55226D01*
X387564Y55211D01*
X387589Y55190D01*
X387703Y55138D01*
X387815Y55079D01*
X387840Y55075D01*
X387875Y55058D01*
X388186Y55003D01*
X388225Y55005D01*
X388250Y55001D01*
X389501Y55001D01*
X389501Y53750D01*
X389517Y53625D01*
X389526Y53500D01*
X389537Y53469D01*
X389541Y53437D01*
X389587Y53320D01*
X389628Y53201D01*
X389646Y53174D01*
X389658Y53144D01*
X389732Y53043D01*
X389801Y52937D01*
X389825Y52916D01*
X389844Y52890D01*
X389942Y52810D01*
X390035Y52726D01*
X390064Y52711D01*
X390089Y52690D01*
X390203Y52638D01*
X390315Y52579D01*
X390340Y52575D01*
X390375Y52558D01*
X390686Y52502D01*
X390725Y52505D01*
X390750Y52501D01*
X401081Y52501D01*
X401081Y47000D01*
X400885Y46018D01*
X400502Y45093D01*
X399947Y44261D01*
X399851Y44165D01*
X399764Y44053D01*
X399674Y43943D01*
X399667Y43929D01*
X399657Y43916D01*
X399602Y43786D01*
X399542Y43657D01*
X399539Y43641D01*
X399533Y43626D01*
X399511Y43486D01*
X399486Y43346D01*
X399488Y43330D01*
X399485Y43314D01*
X399499Y43173D01*
X399510Y43032D01*
X399515Y43016D01*
X399517Y43000D01*
X399566Y42868D01*
X399612Y42733D01*
X399621Y42719D01*
X399626Y42704D01*
X399707Y42589D01*
X399785Y42469D01*
X399797Y42458D01*
X399806Y42445D01*
X399913Y42353D01*
X400019Y42258D01*
X400033Y42250D01*
X400045Y42240D01*
X400172Y42177D01*
X400298Y42111D01*
X400311Y42109D01*
X400329Y42100D01*
X400638Y42036D01*
X400697Y42039D01*
X400734Y42033D01*
X426569Y42033D01*
X426678Y42047D01*
G37*
G36*
X291859Y187622D02*
X291859Y187622D01*
X292000Y187633D01*
X292016Y187638D01*
X292032Y187639D01*
X292164Y187689D01*
X292299Y187734D01*
X292313Y187743D01*
X292328Y187749D01*
X292443Y187829D01*
X292563Y187908D01*
X292574Y187920D01*
X292587Y187929D01*
X292679Y188036D01*
X292774Y188142D01*
X292782Y188156D01*
X292792Y188168D01*
X292855Y188295D01*
X292921Y188421D01*
X292923Y188434D01*
X292932Y188451D01*
X292996Y188760D01*
X292993Y188820D01*
X292999Y188857D01*
X292999Y191890D01*
X294450Y195391D01*
X294517Y195479D01*
X294607Y195589D01*
X294614Y195603D01*
X294624Y195616D01*
X294680Y195746D01*
X294739Y195875D01*
X294742Y195891D01*
X294748Y195906D01*
X294770Y196047D01*
X294795Y196186D01*
X294794Y196202D01*
X294796Y196218D01*
X294782Y196359D01*
X294771Y196500D01*
X294766Y196516D01*
X294764Y196532D01*
X294715Y196665D01*
X294669Y196799D01*
X294661Y196813D01*
X294655Y196828D01*
X294574Y196944D01*
X294496Y197063D01*
X294484Y197073D01*
X294475Y197087D01*
X294368Y197179D01*
X294262Y197274D01*
X294248Y197282D01*
X294236Y197292D01*
X294109Y197355D01*
X293983Y197421D01*
X293970Y197423D01*
X293953Y197432D01*
X293644Y197496D01*
X293584Y197493D01*
X293547Y197499D01*
X129772Y197499D01*
X129717Y197492D01*
X129662Y197494D01*
X129561Y197472D01*
X129459Y197459D01*
X129408Y197439D01*
X129354Y197427D01*
X129262Y197381D01*
X129166Y197342D01*
X129121Y197310D01*
X129072Y197285D01*
X128995Y197217D01*
X128911Y197156D01*
X128877Y197113D01*
X128835Y197077D01*
X128777Y196991D01*
X128712Y196911D01*
X128689Y196861D01*
X128658Y196816D01*
X128623Y196719D01*
X128580Y196625D01*
X128570Y196570D01*
X128552Y196519D01*
X128542Y196416D01*
X128524Y196314D01*
X128528Y196259D01*
X128523Y196204D01*
X128537Y196141D01*
X128548Y196000D01*
X128604Y195836D01*
X128618Y195772D01*
X129501Y193640D01*
X129501Y191650D01*
X129517Y191525D01*
X129526Y191400D01*
X129537Y191369D01*
X129541Y191337D01*
X129587Y191220D01*
X129628Y191101D01*
X129646Y191074D01*
X129658Y191044D01*
X129732Y190943D01*
X129801Y190837D01*
X129825Y190816D01*
X129844Y190790D01*
X129942Y190710D01*
X130035Y190626D01*
X130064Y190611D01*
X130089Y190590D01*
X130203Y190537D01*
X130314Y190479D01*
X130340Y190475D01*
X130375Y190458D01*
X130686Y190402D01*
X130725Y190405D01*
X130750Y190401D01*
X287093Y190401D01*
X289391Y189449D01*
X290867Y187973D01*
X290979Y187887D01*
X291089Y187797D01*
X291103Y187790D01*
X291116Y187780D01*
X291246Y187724D01*
X291375Y187665D01*
X291391Y187662D01*
X291406Y187656D01*
X291547Y187634D01*
X291686Y187609D01*
X291702Y187610D01*
X291718Y187608D01*
X291859Y187622D01*
G37*
%LPC*%
G36*
X79999Y180499D02*
X79999Y180499D01*
X79999Y181750D01*
X79983Y181875D01*
X79974Y182000D01*
X79963Y182031D01*
X79959Y182063D01*
X79913Y182180D01*
X79872Y182299D01*
X79854Y182326D01*
X79842Y182356D01*
X79768Y182457D01*
X79699Y182563D01*
X79675Y182584D01*
X79656Y182610D01*
X79558Y182690D01*
X79465Y182774D01*
X79436Y182789D01*
X79411Y182810D01*
X79297Y182862D01*
X79185Y182921D01*
X79160Y182925D01*
X79125Y182942D01*
X78814Y182998D01*
X78775Y182995D01*
X78750Y182999D01*
X67419Y182999D01*
X67419Y187500D01*
X67615Y188482D01*
X68015Y189449D01*
X68017Y189452D01*
X68059Y189514D01*
X68087Y189593D01*
X68124Y189668D01*
X68140Y189741D01*
X68165Y189811D01*
X68172Y189895D01*
X68190Y189976D01*
X68186Y190051D01*
X68193Y190125D01*
X68181Y190183D01*
X68176Y190292D01*
X68110Y190507D01*
X68099Y190558D01*
X67498Y192008D01*
X67483Y192125D01*
X67474Y192250D01*
X67463Y192281D01*
X67459Y192313D01*
X67413Y192430D01*
X67372Y192549D01*
X67354Y192576D01*
X67342Y192606D01*
X67268Y192707D01*
X67199Y192813D01*
X67175Y192834D01*
X67156Y192860D01*
X67059Y192940D01*
X66965Y193024D01*
X66936Y193039D01*
X66911Y193060D01*
X66797Y193113D01*
X66686Y193171D01*
X66660Y193175D01*
X66625Y193192D01*
X66314Y193248D01*
X66275Y193245D01*
X66250Y193249D01*
X59257Y193249D01*
X57422Y194009D01*
X57384Y194020D01*
X57349Y194037D01*
X57233Y194061D01*
X57118Y194092D01*
X57078Y194093D01*
X57040Y194101D01*
X56921Y194095D01*
X56802Y194096D01*
X56764Y194087D01*
X56725Y194085D01*
X56611Y194049D01*
X56496Y194021D01*
X56461Y194003D01*
X56424Y193991D01*
X56370Y193954D01*
X56218Y193872D01*
X56114Y193776D01*
X56061Y193738D01*
X55083Y192761D01*
X53245Y191999D01*
X45755Y191999D01*
X43917Y192761D01*
X42511Y194167D01*
X41749Y196005D01*
X41749Y209995D01*
X42511Y211833D01*
X43917Y213239D01*
X45755Y214001D01*
X53245Y214001D01*
X55083Y213239D01*
X56489Y211833D01*
X57239Y210022D01*
X57259Y209988D01*
X57271Y209951D01*
X57337Y209851D01*
X57396Y209748D01*
X57423Y209720D01*
X57445Y209687D01*
X57533Y209607D01*
X57616Y209522D01*
X57650Y209502D01*
X57679Y209476D01*
X57784Y209420D01*
X57886Y209359D01*
X57923Y209347D01*
X57958Y209329D01*
X58022Y209318D01*
X58188Y209268D01*
X58204Y209267D01*
X60541Y208299D01*
X62723Y206117D01*
X62810Y206049D01*
X62892Y205976D01*
X62934Y205953D01*
X62973Y205923D01*
X63074Y205880D01*
X63171Y205829D01*
X63208Y205822D01*
X63263Y205799D01*
X63574Y205751D01*
X63594Y205753D01*
X63607Y205751D01*
X66250Y205751D01*
X66375Y205767D01*
X66500Y205776D01*
X66531Y205787D01*
X66563Y205791D01*
X66680Y205837D01*
X66799Y205878D01*
X66826Y205896D01*
X66856Y205908D01*
X66957Y205982D01*
X67063Y206051D01*
X67084Y206075D01*
X67110Y206094D01*
X67190Y206192D01*
X67274Y206285D01*
X67289Y206314D01*
X67310Y206339D01*
X67363Y206453D01*
X67421Y206564D01*
X67425Y206590D01*
X67442Y206625D01*
X67498Y206936D01*
X67496Y206960D01*
X67498Y206970D01*
X67497Y206985D01*
X67498Y206991D01*
X68261Y208833D01*
X69667Y210239D01*
X71505Y211001D01*
X88495Y211001D01*
X90333Y210239D01*
X91739Y208833D01*
X92501Y206995D01*
X92501Y192005D01*
X91901Y190558D01*
X91881Y190486D01*
X91852Y190417D01*
X91840Y190334D01*
X91818Y190253D01*
X91817Y190179D01*
X91806Y190105D01*
X91815Y190022D01*
X91814Y189938D01*
X91832Y189865D01*
X91840Y189791D01*
X91863Y189737D01*
X91889Y189631D01*
X91977Y189468D01*
X92385Y188482D01*
X92581Y187500D01*
X92581Y182999D01*
X81250Y182999D01*
X81125Y182983D01*
X81000Y182974D01*
X80969Y182963D01*
X80937Y182959D01*
X80820Y182913D01*
X80701Y182872D01*
X80674Y182854D01*
X80644Y182842D01*
X80543Y182768D01*
X80437Y182699D01*
X80416Y182675D01*
X80390Y182656D01*
X80310Y182558D01*
X80226Y182465D01*
X80211Y182436D01*
X80190Y182411D01*
X80138Y182297D01*
X80079Y182185D01*
X80075Y182160D01*
X80058Y182125D01*
X80003Y181814D01*
X80005Y181775D01*
X80001Y181750D01*
X80001Y180499D01*
X79999Y180499D01*
G37*
%LPD*%
G36*
X406892Y117494D02*
X406892Y117494D01*
X406947Y117491D01*
X407048Y117510D01*
X407151Y117520D01*
X407203Y117540D01*
X407257Y117550D01*
X407350Y117594D01*
X407447Y117630D01*
X407492Y117661D01*
X407542Y117685D01*
X407621Y117751D01*
X407706Y117810D01*
X407742Y117852D01*
X407784Y117887D01*
X407819Y117942D01*
X407911Y118049D01*
X407988Y118205D01*
X408023Y118260D01*
X408261Y118833D01*
X409667Y120239D01*
X411505Y121001D01*
X428168Y121001D01*
X428293Y121017D01*
X428418Y121026D01*
X428449Y121037D01*
X428481Y121041D01*
X428598Y121087D01*
X428717Y121128D01*
X428744Y121146D01*
X428774Y121158D01*
X428875Y121232D01*
X428981Y121301D01*
X429002Y121325D01*
X429028Y121344D01*
X429108Y121442D01*
X429192Y121535D01*
X429207Y121564D01*
X429228Y121589D01*
X429281Y121703D01*
X429339Y121814D01*
X429343Y121840D01*
X429360Y121875D01*
X429416Y122186D01*
X429413Y122225D01*
X429417Y122250D01*
X429417Y137679D01*
X429406Y137769D01*
X429404Y137860D01*
X429386Y137925D01*
X429377Y137992D01*
X429344Y138076D01*
X429319Y138164D01*
X429286Y138222D01*
X429260Y138285D01*
X429207Y138358D01*
X429161Y138437D01*
X429114Y138485D01*
X429074Y138539D01*
X429003Y138597D01*
X428940Y138661D01*
X428882Y138696D01*
X428829Y138739D01*
X428747Y138777D01*
X428669Y138823D01*
X428604Y138842D01*
X428543Y138871D01*
X428454Y138887D01*
X428366Y138912D01*
X428316Y138911D01*
X428232Y138926D01*
X428127Y138919D01*
X428123Y138919D01*
X422499Y138919D01*
X422499Y149250D01*
X422483Y149375D01*
X422474Y149500D01*
X422463Y149531D01*
X422459Y149563D01*
X422413Y149680D01*
X422372Y149799D01*
X422354Y149826D01*
X422342Y149856D01*
X422268Y149957D01*
X422199Y150063D01*
X422175Y150084D01*
X422156Y150110D01*
X422058Y150190D01*
X421965Y150274D01*
X421936Y150289D01*
X421911Y150310D01*
X421797Y150362D01*
X421685Y150421D01*
X421660Y150425D01*
X421625Y150442D01*
X421314Y150497D01*
X421275Y150495D01*
X421250Y150499D01*
X418750Y150499D01*
X418625Y150483D01*
X418500Y150474D01*
X418469Y150463D01*
X418437Y150459D01*
X418320Y150413D01*
X418201Y150372D01*
X418174Y150354D01*
X418144Y150342D01*
X418043Y150268D01*
X417937Y150199D01*
X417916Y150175D01*
X417890Y150156D01*
X417810Y150058D01*
X417726Y149965D01*
X417711Y149936D01*
X417690Y149911D01*
X417638Y149797D01*
X417579Y149685D01*
X417575Y149660D01*
X417558Y149625D01*
X417502Y149314D01*
X417505Y149275D01*
X417501Y149250D01*
X417501Y138919D01*
X412000Y138919D01*
X411018Y139115D01*
X410093Y139498D01*
X409261Y140054D01*
X408554Y140761D01*
X407998Y141593D01*
X407615Y142518D01*
X407419Y143500D01*
X407419Y144458D01*
X407401Y144598D01*
X407387Y144739D01*
X407381Y144755D01*
X407379Y144771D01*
X407327Y144902D01*
X407278Y145035D01*
X407268Y145049D01*
X407262Y145064D01*
X407179Y145178D01*
X407098Y145294D01*
X407085Y145305D01*
X407076Y145318D01*
X406966Y145408D01*
X406858Y145500D01*
X406844Y145507D01*
X406831Y145517D01*
X406702Y145577D01*
X406575Y145639D01*
X406559Y145642D01*
X406545Y145649D01*
X406405Y145674D01*
X406266Y145703D01*
X406250Y145702D01*
X406234Y145705D01*
X406093Y145694D01*
X405951Y145687D01*
X405936Y145683D01*
X405920Y145681D01*
X405785Y145636D01*
X405650Y145593D01*
X405639Y145586D01*
X405621Y145580D01*
X405357Y145406D01*
X405317Y145362D01*
X405287Y145341D01*
X403808Y143862D01*
X393867Y133921D01*
X393799Y133834D01*
X393726Y133752D01*
X393703Y133710D01*
X393673Y133671D01*
X393630Y133570D01*
X393579Y133473D01*
X393572Y133436D01*
X393549Y133381D01*
X393501Y133070D01*
X393503Y133050D01*
X393501Y133037D01*
X393501Y129505D01*
X392739Y127667D01*
X391206Y126134D01*
X391120Y126022D01*
X391030Y125912D01*
X391023Y125898D01*
X391013Y125885D01*
X390958Y125755D01*
X390898Y125626D01*
X390895Y125610D01*
X390889Y125595D01*
X390867Y125454D01*
X390842Y125315D01*
X390843Y125299D01*
X390841Y125283D01*
X390855Y125142D01*
X390866Y125001D01*
X390871Y124985D01*
X390873Y124969D01*
X390922Y124837D01*
X390968Y124702D01*
X390977Y124688D01*
X390982Y124673D01*
X391063Y124558D01*
X391141Y124438D01*
X391153Y124427D01*
X391162Y124414D01*
X391269Y124322D01*
X391375Y124227D01*
X391389Y124219D01*
X391401Y124209D01*
X391529Y124146D01*
X391654Y124080D01*
X391667Y124078D01*
X391684Y124069D01*
X391993Y124005D01*
X392053Y124008D01*
X392090Y124002D01*
X393245Y124002D01*
X395083Y123240D01*
X396489Y121834D01*
X397239Y120023D01*
X397259Y119989D01*
X397271Y119952D01*
X397337Y119852D01*
X397396Y119749D01*
X397423Y119721D01*
X397445Y119688D01*
X397533Y119608D01*
X397616Y119523D01*
X397650Y119503D01*
X397679Y119477D01*
X397784Y119421D01*
X397886Y119360D01*
X397923Y119348D01*
X397958Y119330D01*
X398022Y119319D01*
X398188Y119269D01*
X398329Y119263D01*
X398394Y119252D01*
X403242Y119252D01*
X405540Y118300D01*
X405986Y117854D01*
X406029Y117820D01*
X406067Y117780D01*
X406154Y117724D01*
X406235Y117661D01*
X406286Y117639D01*
X406332Y117609D01*
X406430Y117577D01*
X406525Y117537D01*
X406580Y117528D01*
X406632Y117511D01*
X406735Y117504D01*
X406837Y117489D01*
X406892Y117494D01*
G37*
%LPC*%
G36*
X385755Y75998D02*
X385755Y75998D01*
X383917Y76760D01*
X382511Y78166D01*
X381749Y80004D01*
X381749Y93994D01*
X382511Y95832D01*
X383917Y97238D01*
X385755Y98000D01*
X393245Y98000D01*
X395083Y97238D01*
X396489Y95832D01*
X397251Y93994D01*
X397251Y80004D01*
X396489Y78166D01*
X395083Y76760D01*
X393245Y75998D01*
X385755Y75998D01*
G37*
%LPD*%
%LPC*%
G36*
X80599Y120599D02*
X80599Y120599D01*
X80599Y130801D01*
X86720Y130801D01*
X88694Y130488D01*
X90595Y129870D01*
X92377Y128963D01*
X93994Y127788D01*
X95408Y126374D01*
X96583Y124757D01*
X97490Y122975D01*
X98108Y121074D01*
X98183Y120599D01*
X80599Y120599D01*
G37*
%LPD*%
%LPC*%
G36*
X391999Y57499D02*
X391999Y57499D01*
X391999Y67581D01*
X396500Y67581D01*
X397482Y67385D01*
X398407Y67002D01*
X399239Y66446D01*
X399946Y65739D01*
X400502Y64907D01*
X400885Y63982D01*
X401081Y63000D01*
X401081Y57499D01*
X391999Y57499D01*
G37*
%LPD*%
%LPC*%
G36*
X72000Y168919D02*
X72000Y168919D01*
X71018Y169115D01*
X70093Y169498D01*
X69261Y170054D01*
X68554Y170761D01*
X67998Y171593D01*
X67615Y172518D01*
X67419Y173500D01*
X67419Y178001D01*
X77501Y178001D01*
X77501Y168919D01*
X72000Y168919D01*
G37*
%LPD*%
D10*
X85720Y41900D02*
X70480Y41900D01*
X70480Y67300D02*
X85720Y67300D01*
X85720Y92700D02*
X70480Y92700D01*
X70480Y118100D02*
X85720Y118100D01*
D11*
X445100Y13400D03*
D12*
X419700Y13400D03*
X394300Y13400D03*
X368900Y13400D03*
X343500Y13400D03*
X318100Y13400D03*
X292700Y13400D03*
X267300Y13400D03*
X241900Y13400D03*
X216500Y13400D03*
X191100Y13400D03*
X165700Y13400D03*
X140300Y13400D03*
X114900Y13400D03*
D11*
X445100Y216600D03*
D12*
X419700Y216600D03*
X394300Y216600D03*
X368900Y216600D03*
X343500Y216600D03*
X318100Y216600D03*
X292700Y216600D03*
X267300Y216600D03*
X241900Y216600D03*
X216500Y216600D03*
X191100Y216600D03*
X165700Y216600D03*
X140300Y216600D03*
X114900Y216600D03*
D13*
X49500Y177000D03*
X40000Y177000D03*
X30500Y177000D03*
X30500Y203000D03*
X49500Y203000D03*
D14*
X59500Y145000D03*
X40500Y145000D03*
D15*
X80000Y199500D03*
X80000Y180500D03*
D13*
X370500Y113001D03*
X380000Y113001D03*
X389500Y113001D03*
X389500Y86999D03*
X370500Y86999D03*
D16*
X380000Y139500D03*
X380000Y180500D03*
D15*
X420000Y169500D03*
X420000Y150500D03*
D14*
X370500Y55000D03*
X389500Y55000D03*
D15*
X420000Y90500D03*
X420000Y109500D03*
D17*
X370500Y86999D02*
X370500Y55000D01*
X445100Y50100D02*
X445100Y216600D01*
X445100Y50100D02*
X430000Y35000D01*
X370500Y44500D02*
X370500Y55000D01*
X380000Y35000D02*
X430000Y35000D01*
X380000Y35000D02*
X370500Y44500D01*
D18*
X164166Y105834D03*
D19*
X164166Y120000D01*
X164166Y144166D01*
X170000Y150000D01*
D18*
X170000Y150000D03*
X146750Y38750D03*
D20*
X143600Y41900D01*
X78100Y41900D01*
D18*
X280300Y175250D03*
D20*
X280300Y164000D01*
X271300Y155000D01*
X175000Y155000D01*
X170000Y150000D01*
D19*
X78100Y41900D02*
X58100Y41900D01*
X45000Y55000D01*
X45000Y95000D01*
X55000Y105000D01*
X125000Y105000D01*
X164166Y144166D01*
D18*
X240000Y100000D03*
D19*
X225000Y115000D01*
X225000Y125000D01*
X220000Y130000D01*
X174166Y130000D02*
X164166Y120000D01*
X174166Y130000D02*
X220000Y130000D01*
D17*
X445100Y50100D02*
X445100Y13400D01*
D19*
X191100Y13400D02*
X165000Y39500D01*
X165000Y77500D01*
D18*
X165000Y77500D03*
X175000Y70000D03*
D19*
X175000Y45000D01*
X192500Y27500D02*
X202500Y27500D01*
X216500Y13500D01*
X216500Y13400D01*
X192500Y27500D02*
X175000Y45000D01*
D18*
X190000Y70000D03*
D19*
X190000Y46250D01*
X200000Y36250D01*
D18*
X200000Y36250D03*
X212406Y37406D03*
D19*
X221063Y28750D01*
X267300Y22700D02*
X267300Y13400D01*
X261250Y28750D02*
X221063Y28750D01*
X261250Y28750D02*
X267300Y22700D01*
D18*
X237500Y37612D03*
D19*
X277388Y37612D01*
X292700Y22300D02*
X292700Y13400D01*
X292700Y22300D02*
X277388Y37612D01*
D18*
X227230Y45980D03*
D19*
X318100Y26900D02*
X318100Y13400D01*
X299020Y45980D02*
X227230Y45980D01*
X299020Y45980D02*
X318100Y26900D01*
D18*
X225362Y57862D03*
D19*
X226612Y56612D02*
X323388Y56612D01*
X226612Y56612D02*
X225362Y57862D01*
X343500Y36500D02*
X343500Y13400D01*
X343500Y36500D02*
X323388Y56612D01*
D18*
X288750Y98750D03*
D19*
X345250Y98750D01*
X359000Y112500D01*
D18*
X359000Y112500D03*
X288417Y110750D03*
D19*
X340750Y110750D01*
X358750Y128750D02*
X358750Y138750D01*
X358750Y128750D02*
X340750Y110750D01*
X358750Y138750D02*
X365000Y145000D01*
X365000Y160000D01*
X356250Y168750D01*
X356250Y177500D01*
D18*
X356250Y177500D03*
X213334Y106666D03*
D19*
X192917Y86250D01*
X97300Y67300D02*
X78100Y67300D01*
X116250Y86250D02*
X192917Y86250D01*
X116250Y86250D02*
X97300Y67300D01*
D18*
X215000Y120000D03*
D19*
X187700Y92700D01*
X78100Y92700D01*
D18*
X335000Y190000D03*
D19*
X302500Y190000D01*
D18*
X302500Y190000D03*
X155000Y55000D03*
D19*
X155000Y24100D01*
X165700Y13400D01*
D18*
X353750Y86250D03*
D19*
X353750Y83750D01*
X348750Y78750D01*
D18*
X235000Y133750D03*
D19*
X263750Y127500D02*
X271250Y120000D01*
X263750Y127500D02*
X241250Y127500D01*
X235000Y133750D01*
X271250Y120000D02*
X271250Y93750D01*
X286250Y78750D01*
X348750Y78750D01*
X278550Y95200D02*
X278550Y125000D01*
X286250Y87500D02*
X335000Y87500D01*
D18*
X335000Y87500D03*
D19*
X286250Y87500D02*
X278550Y95200D01*
D18*
X246041Y140209D03*
D19*
X263341Y140209D01*
X278550Y125000D01*
D18*
X356250Y148750D03*
D19*
X341250Y163750D01*
X329583Y163750D01*
X319166Y174166D01*
D18*
X319166Y174166D03*
D17*
X380000Y113001D02*
X380000Y75000D01*
X389500Y65500D02*
X389500Y55000D01*
X389500Y65500D02*
X380000Y75000D01*
D20*
X420000Y135000D02*
X420000Y150500D01*
X410000Y125000D02*
X385000Y125000D01*
X410000Y125000D02*
X420000Y135000D01*
X385000Y125000D02*
X380000Y120000D01*
X380000Y113001D01*
X40000Y165000D02*
X40000Y177000D01*
X20000Y145000D02*
X20000Y130000D01*
X31900Y118100D01*
X78100Y118100D01*
X40000Y165000D02*
X20000Y145000D01*
D18*
X269050Y168750D03*
D19*
X265300Y165000D01*
D18*
X180000Y165000D03*
D19*
X265300Y165000D01*
X40000Y177000D02*
X40000Y185000D01*
X45000Y190000D01*
X60000Y190000D01*
X69500Y180500D02*
X80000Y180500D01*
X69500Y180500D02*
X60000Y190000D01*
D18*
X110000Y200000D03*
D19*
X90500Y180500D01*
X80000Y180500D01*
D20*
X420000Y135000D02*
X420000Y126250D01*
D18*
X420000Y126250D03*
X340000Y60000D03*
D19*
X330000Y70000D01*
X260160Y89840D02*
X246104Y89840D01*
D18*
X246104Y89840D03*
D19*
X280000Y70000D02*
X330000Y70000D01*
X280000Y70000D02*
X260160Y89840D01*
D18*
X165000Y195000D03*
D19*
X183250Y195000D01*
D18*
X183250Y195000D03*
X288750Y122500D03*
D19*
X339167Y122500D02*
X347084Y130416D01*
D18*
X347084Y130416D03*
D19*
X339167Y122500D02*
X288750Y122500D01*
D21*
X475000Y20000D03*
X475000Y210000D03*
X20000Y20000D03*
D18*
X111250Y180000D03*
D19*
X76250Y145000D01*
X59500Y145000D01*
D17*
X370500Y119500D02*
X370500Y113001D01*
X370500Y119500D02*
X366250Y123750D01*
X366250Y133750D01*
X372000Y139500D01*
X380000Y139500D01*
X389500Y139500D01*
X400000Y150000D01*
X400000Y160000D01*
X409500Y169500D01*
X420000Y169500D01*
D18*
X20000Y165000D03*
D19*
X15000Y165000D01*
X10000Y170000D01*
X10000Y195000D01*
X18000Y203000D01*
X30500Y203000D01*
D20*
X61600Y13400D02*
X114900Y13400D01*
X10000Y65000D02*
X10000Y170000D01*
X10000Y65000D02*
X61600Y13400D01*
D19*
X285850Y184150D02*
X291250Y178750D01*
X307500Y178750D01*
X311250Y182500D01*
X327500Y182500D01*
X331250Y178750D01*
X342500Y178750D01*
X350000Y186250D01*
X362500Y186250D01*
X365000Y183750D01*
X365000Y168750D01*
X380000Y153750D02*
X380000Y139500D01*
X380000Y153750D02*
X365000Y168750D01*
X420000Y90500D02*
X430500Y90500D01*
X430500Y169500D02*
X420000Y169500D01*
X435668Y95668D02*
X430500Y90500D01*
X435668Y95668D02*
X435668Y164332D01*
X430500Y169500D01*
D18*
X120000Y191750D03*
D19*
X127600Y184150D02*
X285850Y184150D01*
X127600Y184150D02*
X120000Y191750D01*
X80000Y199500D02*
X60500Y199500D01*
X57000Y203000D02*
X49500Y203000D01*
X57000Y203000D02*
X60500Y199500D01*
D18*
X20000Y177500D03*
D17*
X20500Y177000D01*
X30500Y177000D01*
D20*
X380000Y180500D02*
X380000Y195000D01*
X371250Y203750D01*
D19*
X127750Y203750D02*
X114900Y216600D01*
X127750Y203750D02*
X371250Y203750D01*
X49500Y177000D02*
X49500Y164500D01*
X40500Y155500D02*
X40500Y145000D01*
X40500Y155500D02*
X49500Y164500D01*
X389500Y113001D02*
X401999Y113001D01*
X405500Y109500D02*
X420000Y109500D01*
X405500Y109500D02*
X401999Y113001D01*
M02*
