M48
;GenerationSoftware,Autodesk,EAGLE,9.5.1*%
;CreationDate,2021-06-10T15:39:41Z*%
FMAT,2
ICI,OFF
METRIC,TZ,000.000
T4C0.400
T3C1.016
T2C1.100
T1C2.000
%
G90
M71
T1
X2000Y2000
X47500Y21000
X47500Y2000
T2
X34350Y1340
X36890Y1340
X39430Y1340
X41970Y1340
X44510Y1340
X11490Y21660
X14030Y21660
X34350Y21660
X16570Y21660
X19110Y21660
X21650Y21660
X24190Y21660
X26730Y21660
X29270Y21660
X31810Y21660
X36890Y21660
X39430Y21660
X41970Y21660
X44510Y21660
X11490Y1340
X14030Y1340
X16570Y1340
X19110Y1340
X21650Y1340
X24190Y1340
X26730Y1340
X29270Y1340
X31810Y1340
T3
X7810Y4190
X7810Y6730
X7810Y11810
X7810Y9270
T4
X16417Y10583
X17000Y15000
X14675Y3875
X28030Y17525
X24000Y10000
X16500Y7750
X17500Y7000
X2000Y16500
X12000Y19175
X2000Y17750
X34708Y13042
X28875Y12250
X18000Y16500
X11125Y18000
X18325Y19500
X16500Y19500
X24610Y8984
X34000Y6000
X42000Y12625
X11000Y20000
X26905Y16875
X31917Y17417
X35625Y14875
X24604Y14021
X33500Y8750
X23500Y13375
X35375Y8625
X15500Y5500
X30250Y19000
X33500Y19000
X21500Y12000
X21333Y10667
X21241Y3741
X35625Y17750
X28842Y11075
X35900Y11250
X28875Y9875
X22536Y5786
X22723Y4598
X23750Y3761
X20000Y3625
X19000Y7000
M30