G04 EAGLE Gerber RS-274X export*
G75*
%MOMM*%
%FSLAX34Y34*%
%LPD*%
%INSilkscreen Bottom*%
%IPPOS*%
%AMOC8*
5,1,8,0,0,1.08239X$1,22.5*%
G01*
%ADD10C,0.177800*%
%ADD11C,0.127000*%
%ADD12C,0.200000*%
%ADD13C,0.152400*%
%ADD14C,0.150000*%
%ADD15C,0.203200*%
%ADD16C,0.254000*%
%ADD17R,2.300000X0.300000*%

G36*
X269031Y81517D02*
X269031Y81517D01*
X269066Y81516D01*
X269384Y81565D01*
X269419Y81578D01*
X269474Y81587D01*
X314381Y97364D01*
X314414Y97384D01*
X314469Y97405D01*
X314762Y97578D01*
X314806Y97617D01*
X314855Y97649D01*
X314879Y97683D01*
X314910Y97711D01*
X314935Y97764D01*
X314968Y97812D01*
X314976Y97853D01*
X314994Y97892D01*
X314996Y97950D01*
X315008Y98007D01*
X315000Y98055D01*
X315001Y98090D01*
X314988Y98123D01*
X314980Y98171D01*
X312104Y106488D01*
X294458Y157515D01*
X294413Y157591D01*
X294371Y157670D01*
X294362Y157677D01*
X294357Y157686D01*
X294285Y157739D01*
X294216Y157795D01*
X294205Y157798D01*
X294197Y157804D01*
X294157Y157814D01*
X294058Y157846D01*
X293764Y157889D01*
X293729Y157887D01*
X293694Y157894D01*
X293610Y157880D01*
X293565Y157877D01*
X293550Y157870D01*
X293530Y157867D01*
X276886Y152151D01*
X276842Y152125D01*
X276793Y152108D01*
X276749Y152070D01*
X276715Y152050D01*
X276697Y152026D01*
X276666Y152000D01*
X276479Y151777D01*
X276444Y151712D01*
X276402Y151651D01*
X276396Y151626D01*
X276384Y151603D01*
X276377Y151529D01*
X276362Y151456D01*
X276367Y151427D01*
X276365Y151405D01*
X276378Y151363D01*
X276390Y151292D01*
X290980Y109369D01*
X280220Y105577D01*
X280210Y105571D01*
X280195Y105567D01*
X279949Y105465D01*
X279935Y105463D01*
X279556Y105343D01*
X279550Y105339D01*
X279541Y105338D01*
X268979Y101616D01*
X268929Y101586D01*
X268875Y101565D01*
X268845Y101535D01*
X268808Y101513D01*
X268774Y101467D01*
X268732Y101426D01*
X268712Y101381D01*
X268691Y101353D01*
X268683Y101319D01*
X268663Y101275D01*
X268572Y100939D01*
X268569Y100894D01*
X268554Y100810D01*
X268491Y82011D01*
X268500Y81965D01*
X268500Y81918D01*
X268520Y81868D01*
X268530Y81816D01*
X268557Y81777D01*
X268574Y81734D01*
X268612Y81696D01*
X268642Y81652D01*
X268682Y81626D01*
X268715Y81593D01*
X268764Y81573D01*
X268809Y81544D01*
X268856Y81536D01*
X268900Y81519D01*
X268964Y81518D01*
X269005Y81511D01*
X269031Y81517D01*
G37*
G36*
X235322Y70120D02*
X235322Y70120D01*
X235347Y70118D01*
X235388Y70131D01*
X235453Y70142D01*
X252071Y75997D01*
X252072Y75998D01*
X252073Y75998D01*
X252158Y76050D01*
X252242Y76100D01*
X252243Y76101D01*
X252345Y76232D01*
X252479Y76483D01*
X252486Y76505D01*
X252499Y76524D01*
X252514Y76599D01*
X252537Y76673D01*
X252534Y76696D01*
X252539Y76719D01*
X252519Y76838D01*
X252515Y76871D01*
X252512Y76876D01*
X252511Y76883D01*
X240653Y110916D01*
X237975Y118602D01*
X260364Y126405D01*
X260398Y126426D01*
X260437Y126437D01*
X260497Y126484D01*
X260535Y126506D01*
X260547Y126523D01*
X260568Y126540D01*
X260789Y126782D01*
X260791Y126785D01*
X260793Y126786D01*
X260842Y126870D01*
X260892Y126953D01*
X260892Y126956D01*
X260893Y126958D01*
X260920Y127122D01*
X260785Y145949D01*
X260767Y146035D01*
X260753Y146121D01*
X260746Y146131D01*
X260744Y146144D01*
X260694Y146216D01*
X260647Y146289D01*
X260637Y146297D01*
X260630Y146307D01*
X260556Y146353D01*
X260484Y146403D01*
X260471Y146407D01*
X260462Y146413D01*
X260420Y146419D01*
X260323Y146443D01*
X260053Y146464D01*
X260033Y146461D01*
X260014Y146465D01*
X259876Y146441D01*
X259855Y146439D01*
X259853Y146437D01*
X259850Y146437D01*
X214489Y130531D01*
X214408Y130483D01*
X214325Y130436D01*
X214322Y130432D01*
X214318Y130429D01*
X214262Y130353D01*
X214205Y130278D01*
X214203Y130273D01*
X214200Y130269D01*
X214193Y130240D01*
X214158Y130118D01*
X214123Y129820D01*
X214125Y129791D01*
X214119Y129762D01*
X214136Y129665D01*
X214139Y129622D01*
X214145Y129612D01*
X214147Y129598D01*
X217574Y119763D01*
X217620Y119685D01*
X217631Y119666D01*
X217652Y119539D01*
X234651Y70758D01*
X234668Y70730D01*
X234682Y70688D01*
X234846Y70379D01*
X234891Y70324D01*
X234930Y70265D01*
X234954Y70248D01*
X234973Y70225D01*
X235036Y70192D01*
X235094Y70153D01*
X235123Y70147D01*
X235149Y70133D01*
X235220Y70128D01*
X235289Y70114D01*
X235322Y70120D01*
G37*
G36*
X261373Y70075D02*
X261373Y70075D01*
X261460Y70088D01*
X261470Y70094D01*
X261481Y70096D01*
X261554Y70145D01*
X261630Y70191D01*
X261637Y70201D01*
X261646Y70207D01*
X261694Y70281D01*
X261746Y70353D01*
X261748Y70364D01*
X261755Y70374D01*
X261789Y70536D01*
X263283Y105945D01*
X283421Y113631D01*
X283445Y113646D01*
X283473Y113654D01*
X283528Y113699D01*
X283589Y113737D01*
X283605Y113761D01*
X283628Y113779D01*
X283661Y113842D01*
X283702Y113901D01*
X283708Y113929D01*
X283721Y113955D01*
X283734Y114054D01*
X283742Y114096D01*
X283740Y114106D01*
X283742Y114120D01*
X283736Y114243D01*
X283726Y114282D01*
X283708Y114387D01*
X268159Y158447D01*
X268154Y158455D01*
X268153Y158465D01*
X268103Y158540D01*
X268057Y158617D01*
X268049Y158623D01*
X268044Y158631D01*
X267969Y158682D01*
X267897Y158734D01*
X267887Y158737D01*
X267879Y158742D01*
X267790Y158759D01*
X267703Y158780D01*
X267693Y158778D01*
X267684Y158780D01*
X267596Y158761D01*
X267507Y158746D01*
X267499Y158740D01*
X267489Y158738D01*
X267415Y158687D01*
X267340Y158638D01*
X267334Y158630D01*
X267326Y158624D01*
X267279Y158548D01*
X267228Y158473D01*
X267226Y158464D01*
X267221Y158455D01*
X267190Y158292D01*
X266375Y122918D01*
X246698Y115701D01*
X246684Y115693D01*
X246669Y115689D01*
X246600Y115641D01*
X246529Y115597D01*
X246520Y115584D01*
X246507Y115575D01*
X246414Y115436D01*
X246369Y115336D01*
X246344Y115222D01*
X246326Y115142D01*
X246326Y115139D01*
X246350Y114978D01*
X248473Y108434D01*
X248492Y108401D01*
X260816Y70403D01*
X260821Y70393D01*
X260823Y70382D01*
X260870Y70307D01*
X260913Y70230D01*
X260922Y70223D01*
X260928Y70214D01*
X261001Y70163D01*
X261071Y70109D01*
X261082Y70106D01*
X261091Y70100D01*
X261178Y70081D01*
X261263Y70059D01*
X261275Y70061D01*
X261286Y70058D01*
X261373Y70075D01*
G37*
D10*
X474445Y49202D02*
X474445Y46436D01*
X474447Y46333D01*
X474453Y46229D01*
X474462Y46126D01*
X474476Y46024D01*
X474493Y45922D01*
X474514Y45821D01*
X474539Y45720D01*
X474568Y45621D01*
X474600Y45522D01*
X474636Y45425D01*
X474676Y45330D01*
X474719Y45236D01*
X474766Y45144D01*
X474816Y45053D01*
X474869Y44964D01*
X474926Y44878D01*
X474985Y44793D01*
X475048Y44711D01*
X475114Y44632D01*
X475183Y44555D01*
X475255Y44480D01*
X475330Y44408D01*
X475407Y44339D01*
X475486Y44273D01*
X475568Y44210D01*
X475653Y44151D01*
X475739Y44094D01*
X475828Y44041D01*
X475919Y43991D01*
X476011Y43944D01*
X476105Y43901D01*
X476200Y43861D01*
X476297Y43825D01*
X476396Y43793D01*
X476495Y43764D01*
X476596Y43739D01*
X476697Y43718D01*
X476799Y43701D01*
X476901Y43687D01*
X477004Y43678D01*
X477108Y43672D01*
X477211Y43670D01*
X477211Y43671D02*
X484125Y43671D01*
X484125Y43670D02*
X484228Y43672D01*
X484332Y43678D01*
X484435Y43687D01*
X484537Y43701D01*
X484639Y43718D01*
X484740Y43739D01*
X484841Y43764D01*
X484940Y43793D01*
X485039Y43825D01*
X485136Y43861D01*
X485231Y43901D01*
X485325Y43944D01*
X485417Y43991D01*
X485508Y44041D01*
X485597Y44094D01*
X485683Y44151D01*
X485767Y44210D01*
X485850Y44273D01*
X485929Y44339D01*
X486006Y44408D01*
X486081Y44480D01*
X486153Y44555D01*
X486222Y44632D01*
X486288Y44711D01*
X486351Y44793D01*
X486410Y44878D01*
X486467Y44964D01*
X486520Y45053D01*
X486570Y45144D01*
X486617Y45236D01*
X486660Y45330D01*
X486700Y45425D01*
X486736Y45522D01*
X486768Y45621D01*
X486797Y45720D01*
X486822Y45820D01*
X486843Y45922D01*
X486860Y46024D01*
X486874Y46126D01*
X486883Y46229D01*
X486889Y46333D01*
X486891Y46436D01*
X486891Y49202D01*
X479285Y56560D02*
X479285Y59671D01*
X479285Y56560D02*
X479283Y56463D01*
X479277Y56365D01*
X479267Y56268D01*
X479254Y56172D01*
X479236Y56076D01*
X479215Y55981D01*
X479189Y55887D01*
X479160Y55794D01*
X479128Y55702D01*
X479091Y55611D01*
X479051Y55523D01*
X479008Y55435D01*
X478961Y55350D01*
X478910Y55267D01*
X478857Y55185D01*
X478800Y55106D01*
X478740Y55029D01*
X478676Y54955D01*
X478610Y54884D01*
X478541Y54815D01*
X478470Y54749D01*
X478396Y54685D01*
X478319Y54625D01*
X478240Y54568D01*
X478158Y54515D01*
X478075Y54464D01*
X477990Y54417D01*
X477902Y54374D01*
X477814Y54334D01*
X477723Y54297D01*
X477631Y54265D01*
X477538Y54236D01*
X477444Y54210D01*
X477349Y54189D01*
X477253Y54171D01*
X477157Y54158D01*
X477060Y54148D01*
X476962Y54142D01*
X476865Y54140D01*
X476768Y54142D01*
X476670Y54148D01*
X476573Y54158D01*
X476477Y54171D01*
X476381Y54189D01*
X476286Y54210D01*
X476192Y54236D01*
X476099Y54265D01*
X476007Y54297D01*
X475916Y54334D01*
X475828Y54374D01*
X475740Y54417D01*
X475655Y54464D01*
X475572Y54515D01*
X475490Y54568D01*
X475411Y54625D01*
X475334Y54685D01*
X475260Y54749D01*
X475189Y54815D01*
X475120Y54884D01*
X475054Y54955D01*
X474990Y55029D01*
X474930Y55106D01*
X474873Y55185D01*
X474820Y55267D01*
X474769Y55350D01*
X474722Y55435D01*
X474679Y55523D01*
X474639Y55611D01*
X474602Y55702D01*
X474570Y55794D01*
X474541Y55887D01*
X474515Y55981D01*
X474494Y56076D01*
X474476Y56172D01*
X474463Y56268D01*
X474453Y56365D01*
X474447Y56463D01*
X474445Y56560D01*
X474445Y59671D01*
X480668Y59671D01*
X480756Y59669D01*
X480844Y59664D01*
X480931Y59654D01*
X481019Y59641D01*
X481105Y59624D01*
X481191Y59604D01*
X481275Y59580D01*
X481359Y59553D01*
X481441Y59521D01*
X481522Y59487D01*
X481602Y59449D01*
X481679Y59408D01*
X481755Y59363D01*
X481829Y59315D01*
X481901Y59264D01*
X481971Y59211D01*
X482038Y59154D01*
X482103Y59094D01*
X482165Y59032D01*
X482225Y58967D01*
X482282Y58900D01*
X482335Y58830D01*
X482386Y58758D01*
X482434Y58684D01*
X482479Y58608D01*
X482520Y58531D01*
X482558Y58451D01*
X482592Y58370D01*
X482624Y58288D01*
X482651Y58204D01*
X482675Y58120D01*
X482695Y58034D01*
X482712Y57948D01*
X482725Y57860D01*
X482735Y57773D01*
X482740Y57685D01*
X482742Y57597D01*
X482742Y54831D01*
X486891Y65840D02*
X476519Y65840D01*
X476519Y65841D02*
X476431Y65843D01*
X476343Y65848D01*
X476256Y65858D01*
X476168Y65871D01*
X476082Y65888D01*
X475996Y65908D01*
X475912Y65932D01*
X475828Y65959D01*
X475746Y65991D01*
X475665Y66025D01*
X475585Y66063D01*
X475508Y66104D01*
X475432Y66149D01*
X475358Y66197D01*
X475286Y66248D01*
X475216Y66301D01*
X475149Y66358D01*
X475084Y66418D01*
X475022Y66480D01*
X474962Y66545D01*
X474905Y66612D01*
X474852Y66682D01*
X474801Y66754D01*
X474753Y66828D01*
X474708Y66904D01*
X474667Y66981D01*
X474629Y67061D01*
X474595Y67142D01*
X474563Y67224D01*
X474536Y67308D01*
X474512Y67392D01*
X474492Y67478D01*
X474475Y67564D01*
X474462Y67652D01*
X474452Y67739D01*
X474447Y67827D01*
X474445Y67915D01*
X474445Y72352D02*
X482742Y72352D01*
X486200Y72006D02*
X486891Y72006D01*
X486891Y72698D01*
X486200Y72698D01*
X486200Y72006D01*
X481359Y78526D02*
X481359Y81983D01*
X481357Y82100D01*
X481351Y82216D01*
X481341Y82333D01*
X481327Y82449D01*
X481310Y82564D01*
X481288Y82679D01*
X481263Y82793D01*
X481234Y82906D01*
X481200Y83018D01*
X481164Y83129D01*
X481123Y83238D01*
X481079Y83346D01*
X481031Y83453D01*
X480980Y83558D01*
X480925Y83661D01*
X480866Y83762D01*
X480804Y83861D01*
X480739Y83958D01*
X480671Y84053D01*
X480600Y84145D01*
X480525Y84235D01*
X480447Y84322D01*
X480367Y84407D01*
X480284Y84489D01*
X480198Y84568D01*
X480109Y84644D01*
X480018Y84717D01*
X479925Y84787D01*
X479829Y84853D01*
X479731Y84917D01*
X479631Y84977D01*
X479528Y85034D01*
X479424Y85087D01*
X479319Y85136D01*
X479211Y85182D01*
X479103Y85225D01*
X478992Y85264D01*
X478881Y85298D01*
X478769Y85330D01*
X478655Y85357D01*
X478541Y85381D01*
X478425Y85400D01*
X478310Y85416D01*
X478194Y85428D01*
X478077Y85436D01*
X477960Y85440D01*
X477844Y85440D01*
X477727Y85436D01*
X477610Y85428D01*
X477494Y85416D01*
X477379Y85400D01*
X477263Y85381D01*
X477149Y85357D01*
X477035Y85330D01*
X476923Y85298D01*
X476812Y85264D01*
X476701Y85225D01*
X476593Y85182D01*
X476485Y85136D01*
X476380Y85087D01*
X476276Y85034D01*
X476174Y84977D01*
X476073Y84917D01*
X475975Y84853D01*
X475879Y84787D01*
X475786Y84717D01*
X475695Y84644D01*
X475606Y84568D01*
X475520Y84489D01*
X475437Y84407D01*
X475357Y84322D01*
X475279Y84235D01*
X475204Y84145D01*
X475133Y84053D01*
X475065Y83958D01*
X475000Y83861D01*
X474938Y83762D01*
X474879Y83661D01*
X474824Y83558D01*
X474773Y83453D01*
X474725Y83346D01*
X474681Y83238D01*
X474640Y83129D01*
X474604Y83018D01*
X474570Y82906D01*
X474541Y82793D01*
X474516Y82679D01*
X474494Y82564D01*
X474477Y82449D01*
X474463Y82333D01*
X474453Y82216D01*
X474447Y82100D01*
X474445Y81983D01*
X474445Y78526D01*
X486891Y78526D01*
X486891Y81983D01*
X486889Y82086D01*
X486883Y82190D01*
X486874Y82293D01*
X486860Y82395D01*
X486843Y82497D01*
X486822Y82598D01*
X486797Y82699D01*
X486768Y82798D01*
X486736Y82897D01*
X486700Y82994D01*
X486660Y83089D01*
X486617Y83183D01*
X486570Y83275D01*
X486520Y83366D01*
X486467Y83455D01*
X486410Y83541D01*
X486351Y83626D01*
X486288Y83708D01*
X486222Y83787D01*
X486153Y83864D01*
X486081Y83939D01*
X486006Y84011D01*
X485929Y84080D01*
X485850Y84146D01*
X485768Y84209D01*
X485683Y84268D01*
X485597Y84325D01*
X485508Y84378D01*
X485417Y84428D01*
X485325Y84475D01*
X485231Y84518D01*
X485136Y84558D01*
X485039Y84594D01*
X484940Y84626D01*
X484841Y84655D01*
X484740Y84680D01*
X484639Y84701D01*
X484537Y84718D01*
X484435Y84732D01*
X484332Y84741D01*
X484228Y84747D01*
X484125Y84749D01*
X484022Y84747D01*
X483918Y84741D01*
X483815Y84732D01*
X483713Y84718D01*
X483611Y84701D01*
X483510Y84680D01*
X483409Y84655D01*
X483310Y84626D01*
X483211Y84594D01*
X483114Y84558D01*
X483019Y84518D01*
X482925Y84475D01*
X482833Y84428D01*
X482742Y84378D01*
X482653Y84325D01*
X482567Y84268D01*
X482482Y84209D01*
X482400Y84146D01*
X482321Y84080D01*
X482244Y84011D01*
X482169Y83939D01*
X482097Y83864D01*
X482028Y83787D01*
X481962Y83708D01*
X481899Y83626D01*
X481840Y83541D01*
X481783Y83455D01*
X481730Y83366D01*
X481680Y83275D01*
X481633Y83183D01*
X481590Y83089D01*
X481550Y82994D01*
X481514Y82897D01*
X481482Y82798D01*
X481453Y82699D01*
X481428Y82598D01*
X481407Y82497D01*
X481390Y82395D01*
X481376Y82293D01*
X481367Y82190D01*
X481361Y82086D01*
X481359Y81983D01*
X474445Y92570D02*
X474445Y96027D01*
X474445Y92570D02*
X474447Y92482D01*
X474452Y92394D01*
X474462Y92307D01*
X474475Y92219D01*
X474492Y92133D01*
X474512Y92047D01*
X474536Y91963D01*
X474563Y91879D01*
X474595Y91797D01*
X474629Y91716D01*
X474667Y91636D01*
X474708Y91559D01*
X474753Y91483D01*
X474801Y91409D01*
X474852Y91337D01*
X474905Y91267D01*
X474962Y91200D01*
X475022Y91135D01*
X475084Y91073D01*
X475149Y91013D01*
X475216Y90956D01*
X475286Y90903D01*
X475358Y90852D01*
X475432Y90804D01*
X475508Y90759D01*
X475585Y90718D01*
X475665Y90680D01*
X475746Y90646D01*
X475828Y90614D01*
X475912Y90587D01*
X475996Y90563D01*
X476082Y90543D01*
X476168Y90526D01*
X476256Y90513D01*
X476343Y90503D01*
X476431Y90498D01*
X476519Y90496D01*
X476519Y90495D02*
X479977Y90495D01*
X480080Y90497D01*
X480184Y90503D01*
X480287Y90512D01*
X480389Y90526D01*
X480491Y90543D01*
X480592Y90564D01*
X480693Y90589D01*
X480792Y90618D01*
X480891Y90650D01*
X480988Y90686D01*
X481083Y90726D01*
X481177Y90769D01*
X481269Y90816D01*
X481360Y90866D01*
X481449Y90919D01*
X481535Y90976D01*
X481620Y91035D01*
X481702Y91098D01*
X481781Y91164D01*
X481858Y91233D01*
X481933Y91305D01*
X482005Y91380D01*
X482074Y91457D01*
X482140Y91536D01*
X482203Y91618D01*
X482262Y91703D01*
X482319Y91789D01*
X482372Y91878D01*
X482422Y91969D01*
X482469Y92061D01*
X482512Y92155D01*
X482552Y92250D01*
X482588Y92347D01*
X482620Y92446D01*
X482649Y92545D01*
X482674Y92646D01*
X482695Y92747D01*
X482712Y92849D01*
X482726Y92951D01*
X482735Y93054D01*
X482741Y93158D01*
X482743Y93261D01*
X482741Y93364D01*
X482735Y93468D01*
X482726Y93571D01*
X482712Y93673D01*
X482695Y93775D01*
X482674Y93876D01*
X482649Y93977D01*
X482620Y94076D01*
X482588Y94175D01*
X482552Y94272D01*
X482512Y94367D01*
X482469Y94461D01*
X482422Y94553D01*
X482372Y94644D01*
X482319Y94733D01*
X482262Y94819D01*
X482203Y94904D01*
X482140Y94986D01*
X482074Y95065D01*
X482005Y95142D01*
X481933Y95217D01*
X481858Y95289D01*
X481781Y95358D01*
X481702Y95424D01*
X481620Y95487D01*
X481535Y95546D01*
X481449Y95603D01*
X481360Y95656D01*
X481269Y95706D01*
X481177Y95753D01*
X481083Y95796D01*
X480988Y95836D01*
X480891Y95872D01*
X480792Y95904D01*
X480693Y95933D01*
X480592Y95958D01*
X480491Y95979D01*
X480389Y95996D01*
X480287Y96010D01*
X480184Y96019D01*
X480080Y96025D01*
X479977Y96027D01*
X478594Y96027D01*
X478594Y90495D01*
X482742Y100442D02*
X482742Y104591D01*
X486891Y101825D02*
X476519Y101825D01*
X476431Y101827D01*
X476343Y101832D01*
X476256Y101842D01*
X476168Y101855D01*
X476082Y101872D01*
X475996Y101892D01*
X475912Y101916D01*
X475828Y101943D01*
X475746Y101975D01*
X475665Y102009D01*
X475585Y102047D01*
X475508Y102088D01*
X475432Y102133D01*
X475358Y102181D01*
X475286Y102232D01*
X475216Y102285D01*
X475149Y102342D01*
X475084Y102402D01*
X475022Y102464D01*
X474962Y102529D01*
X474905Y102596D01*
X474851Y102666D01*
X474801Y102738D01*
X474753Y102812D01*
X474708Y102888D01*
X474667Y102965D01*
X474629Y103045D01*
X474595Y103126D01*
X474563Y103208D01*
X474536Y103292D01*
X474512Y103376D01*
X474492Y103462D01*
X474475Y103549D01*
X474462Y103636D01*
X474452Y103723D01*
X474447Y103811D01*
X474445Y103899D01*
X474445Y104591D01*
X479285Y112033D02*
X479285Y115145D01*
X479285Y112033D02*
X479283Y111936D01*
X479277Y111838D01*
X479267Y111741D01*
X479254Y111645D01*
X479236Y111549D01*
X479215Y111454D01*
X479189Y111360D01*
X479160Y111267D01*
X479128Y111175D01*
X479091Y111084D01*
X479051Y110996D01*
X479008Y110908D01*
X478961Y110823D01*
X478910Y110740D01*
X478857Y110658D01*
X478800Y110579D01*
X478740Y110502D01*
X478676Y110428D01*
X478610Y110357D01*
X478541Y110288D01*
X478470Y110222D01*
X478396Y110158D01*
X478319Y110098D01*
X478240Y110041D01*
X478158Y109988D01*
X478075Y109937D01*
X477990Y109890D01*
X477902Y109847D01*
X477814Y109807D01*
X477723Y109770D01*
X477631Y109738D01*
X477538Y109709D01*
X477444Y109683D01*
X477349Y109662D01*
X477253Y109644D01*
X477157Y109631D01*
X477060Y109621D01*
X476962Y109615D01*
X476865Y109613D01*
X476768Y109615D01*
X476670Y109621D01*
X476573Y109631D01*
X476477Y109644D01*
X476381Y109662D01*
X476286Y109683D01*
X476192Y109709D01*
X476099Y109738D01*
X476007Y109770D01*
X475916Y109807D01*
X475828Y109847D01*
X475740Y109890D01*
X475655Y109937D01*
X475572Y109988D01*
X475490Y110041D01*
X475411Y110098D01*
X475334Y110158D01*
X475260Y110222D01*
X475189Y110288D01*
X475120Y110357D01*
X475054Y110428D01*
X474990Y110502D01*
X474930Y110579D01*
X474873Y110658D01*
X474820Y110740D01*
X474769Y110823D01*
X474722Y110908D01*
X474679Y110996D01*
X474639Y111084D01*
X474602Y111175D01*
X474570Y111267D01*
X474541Y111360D01*
X474515Y111454D01*
X474494Y111549D01*
X474476Y111645D01*
X474463Y111741D01*
X474453Y111838D01*
X474447Y111936D01*
X474445Y112033D01*
X474445Y115145D01*
X480668Y115145D01*
X480668Y115144D02*
X480756Y115142D01*
X480844Y115137D01*
X480931Y115127D01*
X481019Y115114D01*
X481105Y115097D01*
X481191Y115077D01*
X481275Y115053D01*
X481359Y115026D01*
X481441Y114994D01*
X481522Y114960D01*
X481602Y114922D01*
X481679Y114881D01*
X481755Y114836D01*
X481829Y114788D01*
X481901Y114737D01*
X481971Y114684D01*
X482038Y114627D01*
X482103Y114567D01*
X482165Y114505D01*
X482225Y114440D01*
X482282Y114373D01*
X482335Y114303D01*
X482386Y114231D01*
X482434Y114157D01*
X482479Y114081D01*
X482520Y114004D01*
X482558Y113924D01*
X482592Y113843D01*
X482624Y113761D01*
X482651Y113677D01*
X482675Y113593D01*
X482695Y113507D01*
X482712Y113421D01*
X482725Y113333D01*
X482735Y113246D01*
X482740Y113158D01*
X482742Y113070D01*
X482742Y110305D01*
X474445Y131931D02*
X474447Y132034D01*
X474453Y132138D01*
X474462Y132241D01*
X474476Y132343D01*
X474493Y132445D01*
X474514Y132546D01*
X474539Y132647D01*
X474568Y132746D01*
X474600Y132845D01*
X474636Y132942D01*
X474676Y133037D01*
X474719Y133131D01*
X474766Y133223D01*
X474816Y133314D01*
X474869Y133403D01*
X474926Y133489D01*
X474985Y133574D01*
X475048Y133656D01*
X475114Y133735D01*
X475183Y133812D01*
X475255Y133887D01*
X475330Y133959D01*
X475407Y134028D01*
X475486Y134094D01*
X475568Y134157D01*
X475653Y134216D01*
X475739Y134273D01*
X475828Y134326D01*
X475919Y134376D01*
X476011Y134423D01*
X476105Y134466D01*
X476200Y134506D01*
X476297Y134542D01*
X476396Y134574D01*
X476495Y134603D01*
X476596Y134628D01*
X476697Y134649D01*
X476799Y134666D01*
X476901Y134680D01*
X477004Y134689D01*
X477108Y134695D01*
X477211Y134697D01*
X474445Y131931D02*
X474447Y131782D01*
X474453Y131633D01*
X474462Y131485D01*
X474475Y131337D01*
X474492Y131189D01*
X474513Y131042D01*
X474538Y130895D01*
X474566Y130749D01*
X474598Y130603D01*
X474634Y130459D01*
X474673Y130315D01*
X474716Y130173D01*
X474762Y130031D01*
X474813Y129891D01*
X474866Y129753D01*
X474924Y129615D01*
X474984Y129479D01*
X475048Y129345D01*
X475116Y129212D01*
X475187Y129082D01*
X475261Y128953D01*
X475339Y128826D01*
X475419Y128701D01*
X475503Y128578D01*
X475590Y128457D01*
X475680Y128338D01*
X475773Y128222D01*
X475869Y128108D01*
X475968Y127997D01*
X476069Y127888D01*
X476174Y127782D01*
X484125Y128127D02*
X484228Y128129D01*
X484332Y128135D01*
X484435Y128144D01*
X484537Y128158D01*
X484639Y128175D01*
X484740Y128196D01*
X484841Y128221D01*
X484940Y128250D01*
X485039Y128282D01*
X485136Y128318D01*
X485231Y128358D01*
X485325Y128401D01*
X485417Y128448D01*
X485508Y128498D01*
X485597Y128551D01*
X485683Y128608D01*
X485768Y128667D01*
X485850Y128730D01*
X485929Y128796D01*
X486006Y128865D01*
X486081Y128937D01*
X486153Y129012D01*
X486222Y129089D01*
X486288Y129168D01*
X486351Y129251D01*
X486410Y129335D01*
X486467Y129421D01*
X486520Y129510D01*
X486570Y129601D01*
X486617Y129693D01*
X486660Y129787D01*
X486700Y129882D01*
X486736Y129979D01*
X486768Y130078D01*
X486797Y130177D01*
X486822Y130278D01*
X486843Y130379D01*
X486860Y130481D01*
X486874Y130583D01*
X486883Y130686D01*
X486889Y130790D01*
X486891Y130893D01*
X486889Y131032D01*
X486884Y131171D01*
X486874Y131310D01*
X486861Y131448D01*
X486844Y131586D01*
X486824Y131724D01*
X486800Y131861D01*
X486772Y131997D01*
X486741Y132132D01*
X486706Y132267D01*
X486667Y132401D01*
X486625Y132533D01*
X486579Y132664D01*
X486530Y132794D01*
X486477Y132923D01*
X486421Y133050D01*
X486362Y133176D01*
X486299Y133300D01*
X486232Y133422D01*
X486163Y133543D01*
X486090Y133661D01*
X486015Y133778D01*
X485936Y133892D01*
X485854Y134005D01*
X481705Y129511D02*
X481759Y129422D01*
X481817Y129335D01*
X481878Y129251D01*
X481942Y129169D01*
X482009Y129089D01*
X482079Y129012D01*
X482152Y128937D01*
X482228Y128866D01*
X482306Y128797D01*
X482386Y128731D01*
X482469Y128668D01*
X482554Y128608D01*
X482642Y128551D01*
X482731Y128498D01*
X482823Y128448D01*
X482916Y128402D01*
X483011Y128358D01*
X483107Y128319D01*
X483205Y128283D01*
X483304Y128251D01*
X483404Y128222D01*
X483505Y128197D01*
X483607Y128176D01*
X483710Y128159D01*
X483813Y128145D01*
X483917Y128136D01*
X484021Y128130D01*
X484125Y128128D01*
X479631Y133313D02*
X479577Y133402D01*
X479519Y133488D01*
X479458Y133573D01*
X479394Y133655D01*
X479327Y133735D01*
X479257Y133812D01*
X479184Y133886D01*
X479108Y133958D01*
X479030Y134027D01*
X478950Y134093D01*
X478867Y134156D01*
X478782Y134216D01*
X478694Y134273D01*
X478605Y134326D01*
X478513Y134376D01*
X478420Y134422D01*
X478325Y134466D01*
X478229Y134505D01*
X478131Y134541D01*
X478032Y134573D01*
X477932Y134602D01*
X477831Y134627D01*
X477729Y134648D01*
X477626Y134665D01*
X477523Y134679D01*
X477419Y134688D01*
X477315Y134694D01*
X477211Y134696D01*
X479631Y133314D02*
X481705Y129511D01*
X486891Y142761D02*
X474445Y142761D01*
X486891Y139303D02*
X486891Y146218D01*
X486891Y151840D02*
X474445Y151840D01*
X479977Y155989D02*
X486891Y151840D01*
X479977Y155989D02*
X486891Y160138D01*
X474445Y160138D01*
X474445Y166613D02*
X474445Y170071D01*
X474447Y170188D01*
X474453Y170304D01*
X474463Y170421D01*
X474477Y170537D01*
X474494Y170652D01*
X474516Y170767D01*
X474541Y170881D01*
X474570Y170994D01*
X474604Y171106D01*
X474640Y171217D01*
X474681Y171326D01*
X474725Y171434D01*
X474773Y171541D01*
X474824Y171646D01*
X474879Y171749D01*
X474938Y171850D01*
X475000Y171949D01*
X475065Y172046D01*
X475133Y172141D01*
X475204Y172233D01*
X475279Y172323D01*
X475357Y172410D01*
X475437Y172495D01*
X475520Y172577D01*
X475606Y172656D01*
X475695Y172732D01*
X475786Y172805D01*
X475879Y172875D01*
X475975Y172941D01*
X476073Y173005D01*
X476174Y173065D01*
X476276Y173122D01*
X476380Y173175D01*
X476485Y173224D01*
X476593Y173270D01*
X476701Y173313D01*
X476812Y173352D01*
X476923Y173386D01*
X477035Y173418D01*
X477149Y173445D01*
X477263Y173469D01*
X477379Y173488D01*
X477494Y173504D01*
X477610Y173516D01*
X477727Y173524D01*
X477844Y173528D01*
X477960Y173528D01*
X478077Y173524D01*
X478194Y173516D01*
X478310Y173504D01*
X478425Y173488D01*
X478541Y173469D01*
X478655Y173445D01*
X478769Y173418D01*
X478881Y173386D01*
X478992Y173352D01*
X479103Y173313D01*
X479211Y173270D01*
X479319Y173224D01*
X479424Y173175D01*
X479528Y173122D01*
X479631Y173065D01*
X479731Y173005D01*
X479829Y172941D01*
X479925Y172875D01*
X480018Y172805D01*
X480109Y172732D01*
X480198Y172656D01*
X480284Y172577D01*
X480367Y172495D01*
X480447Y172410D01*
X480525Y172323D01*
X480600Y172233D01*
X480671Y172141D01*
X480739Y172046D01*
X480804Y171949D01*
X480866Y171850D01*
X480925Y171749D01*
X480980Y171646D01*
X481031Y171541D01*
X481079Y171434D01*
X481123Y171326D01*
X481164Y171217D01*
X481200Y171106D01*
X481234Y170994D01*
X481263Y170881D01*
X481288Y170767D01*
X481310Y170652D01*
X481327Y170537D01*
X481341Y170421D01*
X481351Y170304D01*
X481357Y170188D01*
X481359Y170071D01*
X486891Y170762D02*
X486891Y166613D01*
X486891Y170762D02*
X486889Y170865D01*
X486883Y170969D01*
X486874Y171072D01*
X486860Y171174D01*
X486843Y171276D01*
X486822Y171377D01*
X486797Y171478D01*
X486768Y171577D01*
X486736Y171676D01*
X486700Y171773D01*
X486660Y171868D01*
X486617Y171962D01*
X486570Y172054D01*
X486520Y172145D01*
X486467Y172234D01*
X486410Y172320D01*
X486351Y172405D01*
X486288Y172487D01*
X486222Y172566D01*
X486153Y172643D01*
X486081Y172718D01*
X486006Y172790D01*
X485929Y172859D01*
X485850Y172925D01*
X485768Y172988D01*
X485683Y173047D01*
X485597Y173104D01*
X485508Y173157D01*
X485417Y173207D01*
X485325Y173254D01*
X485231Y173297D01*
X485136Y173337D01*
X485039Y173373D01*
X484940Y173405D01*
X484841Y173434D01*
X484740Y173459D01*
X484639Y173480D01*
X484537Y173497D01*
X484435Y173511D01*
X484332Y173520D01*
X484228Y173526D01*
X484125Y173528D01*
X484022Y173526D01*
X483918Y173520D01*
X483815Y173511D01*
X483713Y173497D01*
X483611Y173480D01*
X483510Y173459D01*
X483409Y173434D01*
X483310Y173405D01*
X483211Y173373D01*
X483114Y173337D01*
X483019Y173297D01*
X482925Y173254D01*
X482833Y173207D01*
X482742Y173157D01*
X482653Y173104D01*
X482567Y173047D01*
X482482Y172988D01*
X482400Y172925D01*
X482321Y172859D01*
X482244Y172790D01*
X482169Y172718D01*
X482097Y172643D01*
X482028Y172566D01*
X481962Y172487D01*
X481899Y172405D01*
X481840Y172320D01*
X481783Y172234D01*
X481730Y172145D01*
X481680Y172054D01*
X481633Y171962D01*
X481590Y171868D01*
X481550Y171773D01*
X481514Y171676D01*
X481482Y171577D01*
X481453Y171478D01*
X481428Y171377D01*
X481407Y171276D01*
X481390Y171174D01*
X481376Y171072D01*
X481367Y170969D01*
X481361Y170865D01*
X481359Y170762D01*
X481359Y167996D01*
X486892Y183218D02*
X486890Y183329D01*
X486884Y183440D01*
X486874Y183551D01*
X486860Y183661D01*
X486843Y183771D01*
X486821Y183880D01*
X486795Y183988D01*
X486766Y184095D01*
X486733Y184201D01*
X486696Y184306D01*
X486655Y184409D01*
X486611Y184511D01*
X486563Y184611D01*
X486511Y184709D01*
X486456Y184806D01*
X486398Y184900D01*
X486336Y184993D01*
X486271Y185083D01*
X486203Y185171D01*
X486132Y185256D01*
X486058Y185339D01*
X485981Y185419D01*
X485901Y185496D01*
X485818Y185570D01*
X485733Y185641D01*
X485645Y185709D01*
X485555Y185774D01*
X485462Y185836D01*
X485368Y185894D01*
X485271Y185949D01*
X485173Y186001D01*
X485073Y186049D01*
X484971Y186093D01*
X484868Y186134D01*
X484763Y186171D01*
X484657Y186204D01*
X484550Y186233D01*
X484442Y186259D01*
X484333Y186281D01*
X484223Y186298D01*
X484113Y186312D01*
X484002Y186322D01*
X483891Y186328D01*
X483780Y186330D01*
X486891Y183218D02*
X486889Y183092D01*
X486883Y182967D01*
X486873Y182842D01*
X486859Y182717D01*
X486842Y182592D01*
X486820Y182468D01*
X486795Y182345D01*
X486765Y182223D01*
X486732Y182102D01*
X486695Y181982D01*
X486654Y181863D01*
X486610Y181746D01*
X486562Y181629D01*
X486510Y181515D01*
X486455Y181402D01*
X486396Y181291D01*
X486334Y181182D01*
X486268Y181075D01*
X486199Y180970D01*
X486127Y180867D01*
X486051Y180767D01*
X485972Y180669D01*
X485891Y180573D01*
X485806Y180480D01*
X485719Y180390D01*
X485628Y180303D01*
X485535Y180218D01*
X485440Y180137D01*
X485342Y180058D01*
X485241Y179983D01*
X485138Y179910D01*
X485033Y179842D01*
X484926Y179776D01*
X484817Y179714D01*
X484706Y179655D01*
X484593Y179600D01*
X484478Y179548D01*
X484362Y179500D01*
X484244Y179456D01*
X484126Y179415D01*
X481360Y185292D02*
X481439Y185372D01*
X481521Y185450D01*
X481605Y185525D01*
X481692Y185596D01*
X481781Y185665D01*
X481873Y185731D01*
X481966Y185794D01*
X482062Y185854D01*
X482160Y185910D01*
X482259Y185963D01*
X482361Y186013D01*
X482463Y186059D01*
X482568Y186101D01*
X482674Y186141D01*
X482781Y186176D01*
X482889Y186208D01*
X482998Y186236D01*
X483108Y186261D01*
X483219Y186282D01*
X483330Y186299D01*
X483442Y186312D01*
X483555Y186321D01*
X483667Y186327D01*
X483780Y186329D01*
X481359Y185292D02*
X474445Y179415D01*
X474445Y186329D01*
X465555Y68629D02*
X453109Y68629D01*
X465555Y68629D02*
X465555Y72086D01*
X465553Y72203D01*
X465547Y72319D01*
X465537Y72436D01*
X465523Y72552D01*
X465506Y72667D01*
X465484Y72782D01*
X465459Y72896D01*
X465430Y73009D01*
X465396Y73121D01*
X465360Y73232D01*
X465319Y73341D01*
X465275Y73449D01*
X465227Y73556D01*
X465176Y73661D01*
X465121Y73764D01*
X465062Y73865D01*
X465000Y73964D01*
X464935Y74061D01*
X464867Y74156D01*
X464796Y74248D01*
X464721Y74338D01*
X464643Y74425D01*
X464563Y74510D01*
X464480Y74592D01*
X464394Y74671D01*
X464305Y74747D01*
X464214Y74820D01*
X464121Y74890D01*
X464025Y74956D01*
X463927Y75020D01*
X463827Y75080D01*
X463724Y75137D01*
X463620Y75190D01*
X463515Y75239D01*
X463407Y75285D01*
X463299Y75328D01*
X463188Y75367D01*
X463077Y75401D01*
X462965Y75433D01*
X462851Y75460D01*
X462737Y75484D01*
X462621Y75503D01*
X462506Y75519D01*
X462390Y75531D01*
X462273Y75539D01*
X462156Y75543D01*
X462040Y75543D01*
X461923Y75539D01*
X461806Y75531D01*
X461690Y75519D01*
X461575Y75503D01*
X461459Y75484D01*
X461345Y75460D01*
X461231Y75433D01*
X461119Y75401D01*
X461008Y75367D01*
X460897Y75328D01*
X460789Y75285D01*
X460681Y75239D01*
X460576Y75190D01*
X460472Y75137D01*
X460370Y75080D01*
X460269Y75020D01*
X460171Y74956D01*
X460075Y74890D01*
X459982Y74820D01*
X459891Y74747D01*
X459802Y74671D01*
X459716Y74592D01*
X459633Y74510D01*
X459553Y74425D01*
X459475Y74338D01*
X459400Y74248D01*
X459329Y74156D01*
X459261Y74061D01*
X459196Y73964D01*
X459134Y73865D01*
X459075Y73764D01*
X459020Y73661D01*
X458969Y73556D01*
X458921Y73449D01*
X458877Y73341D01*
X458836Y73232D01*
X458800Y73121D01*
X458766Y73009D01*
X458737Y72896D01*
X458712Y72782D01*
X458690Y72667D01*
X458673Y72552D01*
X458659Y72436D01*
X458649Y72319D01*
X458643Y72203D01*
X458641Y72086D01*
X458641Y68629D01*
X458641Y72778D02*
X453109Y75544D01*
X453109Y81784D02*
X465555Y81784D01*
X465555Y87316D01*
X460023Y87316D02*
X460023Y81784D01*
X465555Y99836D02*
X453109Y99836D01*
X458641Y103985D02*
X465555Y99836D01*
X458641Y103985D02*
X465555Y108133D01*
X453109Y108133D01*
X455875Y114447D02*
X458641Y114447D01*
X458744Y114449D01*
X458848Y114455D01*
X458951Y114464D01*
X459053Y114478D01*
X459155Y114495D01*
X459256Y114516D01*
X459357Y114541D01*
X459456Y114570D01*
X459555Y114602D01*
X459652Y114638D01*
X459747Y114678D01*
X459841Y114721D01*
X459933Y114768D01*
X460024Y114818D01*
X460113Y114871D01*
X460199Y114928D01*
X460284Y114987D01*
X460366Y115050D01*
X460445Y115116D01*
X460522Y115185D01*
X460597Y115257D01*
X460669Y115332D01*
X460738Y115409D01*
X460804Y115488D01*
X460867Y115570D01*
X460926Y115655D01*
X460983Y115741D01*
X461036Y115830D01*
X461086Y115921D01*
X461133Y116013D01*
X461176Y116107D01*
X461216Y116202D01*
X461252Y116299D01*
X461284Y116398D01*
X461313Y116497D01*
X461338Y116598D01*
X461359Y116699D01*
X461376Y116801D01*
X461390Y116903D01*
X461399Y117006D01*
X461405Y117110D01*
X461407Y117213D01*
X461405Y117316D01*
X461399Y117420D01*
X461390Y117523D01*
X461376Y117625D01*
X461359Y117727D01*
X461338Y117828D01*
X461313Y117929D01*
X461284Y118028D01*
X461252Y118127D01*
X461216Y118224D01*
X461176Y118319D01*
X461133Y118413D01*
X461086Y118505D01*
X461036Y118596D01*
X460983Y118685D01*
X460926Y118771D01*
X460867Y118856D01*
X460804Y118938D01*
X460738Y119017D01*
X460669Y119094D01*
X460597Y119169D01*
X460522Y119241D01*
X460445Y119310D01*
X460366Y119376D01*
X460284Y119439D01*
X460199Y119498D01*
X460113Y119555D01*
X460024Y119608D01*
X459933Y119658D01*
X459841Y119705D01*
X459747Y119748D01*
X459652Y119788D01*
X459555Y119824D01*
X459456Y119856D01*
X459357Y119885D01*
X459256Y119910D01*
X459155Y119931D01*
X459053Y119948D01*
X458951Y119962D01*
X458848Y119971D01*
X458744Y119977D01*
X458641Y119979D01*
X455875Y119979D01*
X455772Y119977D01*
X455668Y119971D01*
X455565Y119962D01*
X455463Y119948D01*
X455361Y119931D01*
X455260Y119910D01*
X455159Y119885D01*
X455060Y119856D01*
X454961Y119824D01*
X454864Y119788D01*
X454769Y119748D01*
X454675Y119705D01*
X454583Y119658D01*
X454492Y119608D01*
X454403Y119555D01*
X454317Y119498D01*
X454232Y119439D01*
X454150Y119376D01*
X454071Y119310D01*
X453994Y119241D01*
X453919Y119169D01*
X453847Y119094D01*
X453778Y119017D01*
X453712Y118938D01*
X453649Y118856D01*
X453590Y118771D01*
X453533Y118685D01*
X453480Y118596D01*
X453430Y118505D01*
X453383Y118413D01*
X453340Y118319D01*
X453300Y118224D01*
X453264Y118127D01*
X453232Y118028D01*
X453203Y117929D01*
X453178Y117828D01*
X453157Y117727D01*
X453140Y117625D01*
X453126Y117523D01*
X453117Y117420D01*
X453111Y117316D01*
X453109Y117213D01*
X453111Y117110D01*
X453117Y117006D01*
X453126Y116903D01*
X453140Y116801D01*
X453157Y116699D01*
X453178Y116598D01*
X453203Y116497D01*
X453232Y116398D01*
X453264Y116299D01*
X453300Y116202D01*
X453340Y116107D01*
X453383Y116013D01*
X453430Y115921D01*
X453480Y115830D01*
X453533Y115741D01*
X453590Y115655D01*
X453649Y115570D01*
X453712Y115488D01*
X453778Y115409D01*
X453847Y115332D01*
X453919Y115257D01*
X453994Y115185D01*
X454071Y115116D01*
X454150Y115050D01*
X454232Y114987D01*
X454317Y114928D01*
X454403Y114871D01*
X454492Y114818D01*
X454583Y114768D01*
X454675Y114721D01*
X454769Y114678D01*
X454864Y114638D01*
X454961Y114602D01*
X455060Y114570D01*
X455159Y114541D01*
X455260Y114516D01*
X455361Y114495D01*
X455463Y114478D01*
X455565Y114464D01*
X455668Y114455D01*
X455772Y114449D01*
X455875Y114447D01*
X453109Y130989D02*
X465555Y130989D01*
X453109Y130989D02*
X453109Y127532D01*
X453111Y127444D01*
X453116Y127356D01*
X453126Y127269D01*
X453139Y127181D01*
X453156Y127095D01*
X453176Y127009D01*
X453200Y126925D01*
X453227Y126841D01*
X453259Y126759D01*
X453293Y126678D01*
X453331Y126598D01*
X453372Y126521D01*
X453417Y126445D01*
X453465Y126371D01*
X453516Y126299D01*
X453569Y126229D01*
X453626Y126162D01*
X453686Y126097D01*
X453748Y126035D01*
X453813Y125975D01*
X453880Y125918D01*
X453950Y125865D01*
X454022Y125814D01*
X454096Y125766D01*
X454172Y125721D01*
X454249Y125680D01*
X454329Y125642D01*
X454410Y125608D01*
X454492Y125576D01*
X454576Y125549D01*
X454660Y125525D01*
X454746Y125505D01*
X454832Y125488D01*
X454920Y125475D01*
X455007Y125465D01*
X455095Y125460D01*
X455183Y125458D01*
X459332Y125458D01*
X459420Y125460D01*
X459508Y125465D01*
X459595Y125475D01*
X459683Y125488D01*
X459769Y125505D01*
X459855Y125525D01*
X459939Y125549D01*
X460023Y125576D01*
X460105Y125608D01*
X460186Y125642D01*
X460266Y125680D01*
X460343Y125721D01*
X460419Y125766D01*
X460493Y125814D01*
X460565Y125865D01*
X460635Y125918D01*
X460702Y125975D01*
X460767Y126035D01*
X460829Y126097D01*
X460889Y126162D01*
X460946Y126229D01*
X460999Y126299D01*
X461050Y126371D01*
X461098Y126445D01*
X461143Y126521D01*
X461184Y126598D01*
X461222Y126678D01*
X461256Y126759D01*
X461288Y126841D01*
X461315Y126925D01*
X461339Y127009D01*
X461359Y127095D01*
X461376Y127181D01*
X461389Y127269D01*
X461399Y127356D01*
X461404Y127444D01*
X461406Y127532D01*
X461406Y130989D01*
X461406Y137490D02*
X455183Y137490D01*
X455183Y137491D02*
X455095Y137493D01*
X455007Y137498D01*
X454920Y137508D01*
X454832Y137521D01*
X454746Y137538D01*
X454660Y137558D01*
X454576Y137582D01*
X454492Y137609D01*
X454410Y137641D01*
X454329Y137675D01*
X454249Y137713D01*
X454172Y137754D01*
X454096Y137799D01*
X454022Y137847D01*
X453950Y137898D01*
X453880Y137951D01*
X453813Y138008D01*
X453748Y138068D01*
X453686Y138130D01*
X453626Y138195D01*
X453569Y138262D01*
X453516Y138332D01*
X453465Y138404D01*
X453417Y138478D01*
X453372Y138554D01*
X453331Y138631D01*
X453293Y138711D01*
X453259Y138792D01*
X453227Y138874D01*
X453200Y138958D01*
X453176Y139042D01*
X453156Y139128D01*
X453139Y139214D01*
X453126Y139302D01*
X453116Y139389D01*
X453111Y139477D01*
X453109Y139565D01*
X453109Y143022D01*
X461406Y143022D01*
X465555Y149106D02*
X455183Y149106D01*
X455183Y149107D02*
X455095Y149109D01*
X455007Y149114D01*
X454920Y149124D01*
X454832Y149137D01*
X454746Y149154D01*
X454660Y149174D01*
X454576Y149198D01*
X454492Y149225D01*
X454410Y149257D01*
X454329Y149291D01*
X454249Y149329D01*
X454172Y149370D01*
X454096Y149415D01*
X454022Y149463D01*
X453950Y149514D01*
X453880Y149567D01*
X453813Y149624D01*
X453748Y149684D01*
X453686Y149746D01*
X453626Y149811D01*
X453569Y149878D01*
X453516Y149948D01*
X453465Y150020D01*
X453417Y150094D01*
X453372Y150170D01*
X453331Y150247D01*
X453293Y150327D01*
X453259Y150408D01*
X453227Y150490D01*
X453200Y150574D01*
X453176Y150658D01*
X453156Y150744D01*
X453139Y150830D01*
X453126Y150918D01*
X453116Y151005D01*
X453111Y151093D01*
X453109Y151181D01*
X453109Y157913D02*
X453109Y161371D01*
X453109Y157913D02*
X453111Y157825D01*
X453116Y157737D01*
X453126Y157650D01*
X453139Y157562D01*
X453156Y157476D01*
X453176Y157390D01*
X453200Y157306D01*
X453227Y157222D01*
X453259Y157140D01*
X453293Y157059D01*
X453331Y156979D01*
X453372Y156902D01*
X453417Y156826D01*
X453465Y156752D01*
X453516Y156680D01*
X453569Y156610D01*
X453626Y156543D01*
X453686Y156478D01*
X453748Y156416D01*
X453813Y156356D01*
X453880Y156299D01*
X453950Y156246D01*
X454022Y156195D01*
X454096Y156147D01*
X454172Y156102D01*
X454249Y156061D01*
X454329Y156023D01*
X454410Y155989D01*
X454492Y155957D01*
X454576Y155930D01*
X454660Y155906D01*
X454746Y155886D01*
X454832Y155869D01*
X454920Y155856D01*
X455007Y155846D01*
X455095Y155841D01*
X455183Y155839D01*
X458641Y155839D01*
X458744Y155841D01*
X458848Y155847D01*
X458951Y155856D01*
X459053Y155870D01*
X459155Y155887D01*
X459256Y155908D01*
X459357Y155933D01*
X459456Y155962D01*
X459555Y155994D01*
X459652Y156030D01*
X459747Y156070D01*
X459841Y156113D01*
X459933Y156160D01*
X460024Y156210D01*
X460113Y156263D01*
X460199Y156320D01*
X460284Y156379D01*
X460366Y156442D01*
X460445Y156508D01*
X460522Y156577D01*
X460597Y156649D01*
X460669Y156724D01*
X460738Y156801D01*
X460804Y156880D01*
X460867Y156962D01*
X460926Y157047D01*
X460983Y157133D01*
X461036Y157222D01*
X461086Y157313D01*
X461133Y157405D01*
X461176Y157499D01*
X461216Y157594D01*
X461252Y157691D01*
X461284Y157790D01*
X461313Y157889D01*
X461338Y157990D01*
X461359Y158091D01*
X461376Y158193D01*
X461390Y158295D01*
X461399Y158398D01*
X461405Y158502D01*
X461407Y158605D01*
X461405Y158708D01*
X461399Y158812D01*
X461390Y158915D01*
X461376Y159017D01*
X461359Y159119D01*
X461338Y159220D01*
X461313Y159321D01*
X461284Y159420D01*
X461252Y159519D01*
X461216Y159616D01*
X461176Y159711D01*
X461133Y159805D01*
X461086Y159897D01*
X461036Y159988D01*
X460983Y160077D01*
X460926Y160163D01*
X460867Y160248D01*
X460804Y160330D01*
X460738Y160409D01*
X460669Y160486D01*
X460597Y160561D01*
X460522Y160633D01*
X460445Y160702D01*
X460366Y160768D01*
X460284Y160831D01*
X460199Y160890D01*
X460113Y160947D01*
X460024Y161000D01*
X459933Y161050D01*
X459841Y161097D01*
X459747Y161140D01*
X459652Y161180D01*
X459555Y161216D01*
X459456Y161248D01*
X459357Y161277D01*
X459256Y161302D01*
X459155Y161323D01*
X459053Y161340D01*
X458951Y161354D01*
X458848Y161363D01*
X458744Y161369D01*
X458641Y161371D01*
X457258Y161371D01*
X457258Y155839D01*
D11*
X457800Y26100D02*
X457800Y700D01*
X102200Y700D01*
X102200Y26100D01*
X457800Y26100D01*
D12*
X443800Y-4600D02*
X443802Y-4537D01*
X443808Y-4475D01*
X443818Y-4413D01*
X443831Y-4351D01*
X443849Y-4291D01*
X443870Y-4232D01*
X443895Y-4174D01*
X443924Y-4118D01*
X443956Y-4064D01*
X443991Y-4012D01*
X444029Y-3963D01*
X444071Y-3915D01*
X444115Y-3871D01*
X444163Y-3829D01*
X444212Y-3791D01*
X444264Y-3756D01*
X444318Y-3724D01*
X444374Y-3695D01*
X444432Y-3670D01*
X444491Y-3649D01*
X444551Y-3631D01*
X444613Y-3618D01*
X444675Y-3608D01*
X444737Y-3602D01*
X444800Y-3600D01*
X444863Y-3602D01*
X444925Y-3608D01*
X444987Y-3618D01*
X445049Y-3631D01*
X445109Y-3649D01*
X445168Y-3670D01*
X445226Y-3695D01*
X445282Y-3724D01*
X445336Y-3756D01*
X445388Y-3791D01*
X445437Y-3829D01*
X445485Y-3871D01*
X445529Y-3915D01*
X445571Y-3963D01*
X445609Y-4012D01*
X445644Y-4064D01*
X445676Y-4118D01*
X445705Y-4174D01*
X445730Y-4232D01*
X445751Y-4291D01*
X445769Y-4351D01*
X445782Y-4413D01*
X445792Y-4475D01*
X445798Y-4537D01*
X445800Y-4600D01*
X445798Y-4663D01*
X445792Y-4725D01*
X445782Y-4787D01*
X445769Y-4849D01*
X445751Y-4909D01*
X445730Y-4968D01*
X445705Y-5026D01*
X445676Y-5082D01*
X445644Y-5136D01*
X445609Y-5188D01*
X445571Y-5237D01*
X445529Y-5285D01*
X445485Y-5329D01*
X445437Y-5371D01*
X445388Y-5409D01*
X445336Y-5444D01*
X445282Y-5476D01*
X445226Y-5505D01*
X445168Y-5530D01*
X445109Y-5551D01*
X445049Y-5569D01*
X444987Y-5582D01*
X444925Y-5592D01*
X444863Y-5598D01*
X444800Y-5600D01*
X444737Y-5598D01*
X444675Y-5592D01*
X444613Y-5582D01*
X444551Y-5569D01*
X444491Y-5551D01*
X444432Y-5530D01*
X444374Y-5505D01*
X444318Y-5476D01*
X444264Y-5444D01*
X444212Y-5409D01*
X444163Y-5371D01*
X444115Y-5329D01*
X444071Y-5285D01*
X444029Y-5237D01*
X443991Y-5188D01*
X443956Y-5136D01*
X443924Y-5082D01*
X443895Y-5026D01*
X443870Y-4968D01*
X443849Y-4909D01*
X443831Y-4849D01*
X443818Y-4787D01*
X443808Y-4725D01*
X443802Y-4663D01*
X443800Y-4600D01*
D11*
X95952Y11011D02*
X95952Y17925D01*
X95951Y11011D02*
X95953Y10925D01*
X95959Y10839D01*
X95968Y10753D01*
X95981Y10668D01*
X95998Y10583D01*
X96018Y10500D01*
X96042Y10417D01*
X96070Y10335D01*
X96101Y10255D01*
X96136Y10176D01*
X96174Y10099D01*
X96216Y10023D01*
X96260Y9949D01*
X96308Y9878D01*
X96359Y9808D01*
X96413Y9741D01*
X96470Y9676D01*
X96530Y9614D01*
X96592Y9554D01*
X96657Y9497D01*
X96724Y9443D01*
X96794Y9392D01*
X96865Y9344D01*
X96939Y9300D01*
X97015Y9258D01*
X97092Y9220D01*
X97171Y9185D01*
X97251Y9154D01*
X97333Y9126D01*
X97416Y9102D01*
X97499Y9082D01*
X97584Y9065D01*
X97669Y9052D01*
X97755Y9043D01*
X97841Y9037D01*
X97927Y9035D01*
X98915Y9035D01*
X91489Y15949D02*
X89020Y17925D01*
X89020Y9035D01*
X91489Y9035D02*
X86551Y9035D01*
X457800Y203900D02*
X457800Y229300D01*
X457800Y203900D02*
X102200Y203900D01*
X102200Y229300D01*
X457800Y229300D01*
D12*
X443800Y198600D02*
X443802Y198663D01*
X443808Y198725D01*
X443818Y198787D01*
X443831Y198849D01*
X443849Y198909D01*
X443870Y198968D01*
X443895Y199026D01*
X443924Y199082D01*
X443956Y199136D01*
X443991Y199188D01*
X444029Y199237D01*
X444071Y199285D01*
X444115Y199329D01*
X444163Y199371D01*
X444212Y199409D01*
X444264Y199444D01*
X444318Y199476D01*
X444374Y199505D01*
X444432Y199530D01*
X444491Y199551D01*
X444551Y199569D01*
X444613Y199582D01*
X444675Y199592D01*
X444737Y199598D01*
X444800Y199600D01*
X444863Y199598D01*
X444925Y199592D01*
X444987Y199582D01*
X445049Y199569D01*
X445109Y199551D01*
X445168Y199530D01*
X445226Y199505D01*
X445282Y199476D01*
X445336Y199444D01*
X445388Y199409D01*
X445437Y199371D01*
X445485Y199329D01*
X445529Y199285D01*
X445571Y199237D01*
X445609Y199188D01*
X445644Y199136D01*
X445676Y199082D01*
X445705Y199026D01*
X445730Y198968D01*
X445751Y198909D01*
X445769Y198849D01*
X445782Y198787D01*
X445792Y198725D01*
X445798Y198663D01*
X445800Y198600D01*
X445798Y198537D01*
X445792Y198475D01*
X445782Y198413D01*
X445769Y198351D01*
X445751Y198291D01*
X445730Y198232D01*
X445705Y198174D01*
X445676Y198118D01*
X445644Y198064D01*
X445609Y198012D01*
X445571Y197963D01*
X445529Y197915D01*
X445485Y197871D01*
X445437Y197829D01*
X445388Y197791D01*
X445336Y197756D01*
X445282Y197724D01*
X445226Y197695D01*
X445168Y197670D01*
X445109Y197649D01*
X445049Y197631D01*
X444987Y197618D01*
X444925Y197608D01*
X444863Y197602D01*
X444800Y197600D01*
X444737Y197602D01*
X444675Y197608D01*
X444613Y197618D01*
X444551Y197631D01*
X444491Y197649D01*
X444432Y197670D01*
X444374Y197695D01*
X444318Y197724D01*
X444264Y197756D01*
X444212Y197791D01*
X444163Y197829D01*
X444115Y197871D01*
X444071Y197915D01*
X444029Y197963D01*
X443991Y198012D01*
X443956Y198064D01*
X443924Y198118D01*
X443895Y198174D01*
X443870Y198232D01*
X443849Y198291D01*
X443831Y198351D01*
X443818Y198413D01*
X443808Y198475D01*
X443802Y198537D01*
X443800Y198600D01*
D11*
X94702Y219211D02*
X94702Y226125D01*
X94701Y219211D02*
X94703Y219125D01*
X94709Y219039D01*
X94718Y218953D01*
X94731Y218868D01*
X94748Y218783D01*
X94768Y218700D01*
X94792Y218617D01*
X94820Y218535D01*
X94851Y218455D01*
X94886Y218376D01*
X94924Y218299D01*
X94966Y218223D01*
X95010Y218149D01*
X95058Y218078D01*
X95109Y218008D01*
X95163Y217941D01*
X95220Y217876D01*
X95280Y217814D01*
X95342Y217754D01*
X95407Y217697D01*
X95474Y217643D01*
X95544Y217592D01*
X95615Y217544D01*
X95689Y217500D01*
X95765Y217458D01*
X95842Y217420D01*
X95921Y217385D01*
X96001Y217354D01*
X96083Y217326D01*
X96166Y217302D01*
X96249Y217282D01*
X96334Y217265D01*
X96419Y217252D01*
X96505Y217243D01*
X96591Y217237D01*
X96677Y217235D01*
X97665Y217235D01*
X87523Y226126D02*
X87431Y226124D01*
X87339Y226118D01*
X87248Y226109D01*
X87157Y226096D01*
X87067Y226079D01*
X86977Y226058D01*
X86889Y226034D01*
X86801Y226006D01*
X86715Y225974D01*
X86630Y225939D01*
X86547Y225900D01*
X86465Y225858D01*
X86385Y225813D01*
X86307Y225764D01*
X86231Y225712D01*
X86158Y225657D01*
X86086Y225599D01*
X86017Y225539D01*
X85951Y225475D01*
X85887Y225409D01*
X85827Y225340D01*
X85769Y225268D01*
X85714Y225195D01*
X85662Y225119D01*
X85613Y225041D01*
X85568Y224961D01*
X85526Y224879D01*
X85487Y224796D01*
X85452Y224711D01*
X85420Y224625D01*
X85392Y224537D01*
X85368Y224449D01*
X85347Y224359D01*
X85330Y224269D01*
X85317Y224178D01*
X85308Y224087D01*
X85302Y223995D01*
X85300Y223903D01*
X87523Y226125D02*
X87629Y226123D01*
X87734Y226117D01*
X87839Y226107D01*
X87944Y226094D01*
X88048Y226076D01*
X88151Y226055D01*
X88254Y226030D01*
X88356Y226001D01*
X88456Y225968D01*
X88555Y225932D01*
X88653Y225892D01*
X88749Y225848D01*
X88844Y225801D01*
X88936Y225751D01*
X89027Y225697D01*
X89116Y225639D01*
X89202Y225579D01*
X89286Y225515D01*
X89368Y225449D01*
X89448Y225379D01*
X89524Y225306D01*
X89598Y225231D01*
X89669Y225153D01*
X89737Y225072D01*
X89803Y224989D01*
X89865Y224903D01*
X89923Y224816D01*
X89979Y224726D01*
X90031Y224634D01*
X90080Y224540D01*
X90125Y224445D01*
X90167Y224348D01*
X90205Y224249D01*
X90239Y224150D01*
X86042Y222174D02*
X85973Y222243D01*
X85907Y222313D01*
X85844Y222387D01*
X85785Y222463D01*
X85728Y222541D01*
X85674Y222621D01*
X85624Y222704D01*
X85577Y222788D01*
X85534Y222875D01*
X85494Y222963D01*
X85458Y223052D01*
X85425Y223143D01*
X85396Y223235D01*
X85371Y223329D01*
X85350Y223423D01*
X85332Y223518D01*
X85319Y223614D01*
X85309Y223710D01*
X85303Y223806D01*
X85301Y223903D01*
X86041Y222174D02*
X90239Y217235D01*
X85301Y217235D01*
D13*
X25780Y198100D02*
X25780Y181900D01*
X54220Y181900D02*
X54220Y198100D01*
X45220Y198100D02*
X34780Y198100D01*
X44280Y181900D02*
X45220Y181900D01*
X35720Y181900D02*
X34780Y181900D01*
X53280Y181900D02*
X54220Y181900D01*
X26720Y181900D02*
X25780Y181900D01*
X25780Y198100D02*
X26720Y198100D01*
X53280Y198100D02*
X54220Y198100D01*
D11*
X22325Y181323D02*
X13435Y181323D01*
X13435Y180335D02*
X13435Y182311D01*
X22325Y182311D02*
X22325Y180335D01*
X13435Y188110D02*
X13435Y190086D01*
X13435Y188110D02*
X13437Y188024D01*
X13443Y187938D01*
X13452Y187852D01*
X13465Y187767D01*
X13482Y187682D01*
X13502Y187599D01*
X13526Y187516D01*
X13554Y187434D01*
X13585Y187354D01*
X13620Y187275D01*
X13658Y187198D01*
X13700Y187122D01*
X13744Y187048D01*
X13792Y186977D01*
X13843Y186907D01*
X13897Y186840D01*
X13954Y186775D01*
X14014Y186713D01*
X14076Y186653D01*
X14141Y186596D01*
X14208Y186542D01*
X14278Y186491D01*
X14349Y186443D01*
X14423Y186399D01*
X14499Y186357D01*
X14576Y186319D01*
X14655Y186284D01*
X14735Y186253D01*
X14817Y186225D01*
X14900Y186201D01*
X14983Y186181D01*
X15068Y186164D01*
X15153Y186151D01*
X15239Y186142D01*
X15325Y186136D01*
X15411Y186134D01*
X20349Y186134D01*
X20438Y186136D01*
X20526Y186142D01*
X20614Y186152D01*
X20702Y186166D01*
X20789Y186184D01*
X20875Y186205D01*
X20960Y186231D01*
X21043Y186260D01*
X21126Y186293D01*
X21206Y186330D01*
X21285Y186370D01*
X21362Y186414D01*
X21438Y186461D01*
X21510Y186511D01*
X21581Y186565D01*
X21649Y186622D01*
X21715Y186682D01*
X21777Y186744D01*
X21837Y186810D01*
X21894Y186878D01*
X21948Y186949D01*
X21998Y187021D01*
X22045Y187096D01*
X22089Y187174D01*
X22129Y187253D01*
X22166Y187333D01*
X22199Y187416D01*
X22228Y187499D01*
X22254Y187584D01*
X22275Y187670D01*
X22293Y187757D01*
X22307Y187845D01*
X22317Y187933D01*
X22323Y188021D01*
X22325Y188110D01*
X22325Y190086D01*
X22326Y196505D02*
X22324Y196597D01*
X22318Y196689D01*
X22309Y196780D01*
X22296Y196871D01*
X22279Y196961D01*
X22258Y197051D01*
X22234Y197139D01*
X22206Y197227D01*
X22174Y197313D01*
X22139Y197398D01*
X22100Y197481D01*
X22058Y197563D01*
X22013Y197643D01*
X21964Y197721D01*
X21912Y197797D01*
X21857Y197870D01*
X21799Y197942D01*
X21739Y198011D01*
X21675Y198077D01*
X21609Y198141D01*
X21540Y198201D01*
X21468Y198259D01*
X21395Y198314D01*
X21319Y198366D01*
X21241Y198415D01*
X21161Y198460D01*
X21079Y198502D01*
X20996Y198541D01*
X20911Y198576D01*
X20825Y198608D01*
X20737Y198636D01*
X20649Y198660D01*
X20559Y198681D01*
X20469Y198698D01*
X20378Y198711D01*
X20287Y198720D01*
X20195Y198726D01*
X20103Y198728D01*
X22325Y196505D02*
X22323Y196399D01*
X22317Y196294D01*
X22307Y196189D01*
X22294Y196084D01*
X22276Y195980D01*
X22255Y195877D01*
X22230Y195774D01*
X22201Y195672D01*
X22168Y195572D01*
X22132Y195473D01*
X22092Y195375D01*
X22048Y195279D01*
X22001Y195184D01*
X21951Y195092D01*
X21897Y195001D01*
X21839Y194912D01*
X21779Y194826D01*
X21715Y194742D01*
X21649Y194660D01*
X21579Y194580D01*
X21506Y194504D01*
X21431Y194430D01*
X21353Y194359D01*
X21272Y194291D01*
X21189Y194225D01*
X21103Y194163D01*
X21016Y194105D01*
X20926Y194049D01*
X20834Y193997D01*
X20740Y193948D01*
X20645Y193903D01*
X20548Y193861D01*
X20449Y193823D01*
X20350Y193789D01*
X18374Y197986D02*
X18443Y198055D01*
X18513Y198121D01*
X18587Y198184D01*
X18663Y198243D01*
X18741Y198300D01*
X18821Y198354D01*
X18904Y198404D01*
X18988Y198451D01*
X19075Y198494D01*
X19163Y198534D01*
X19252Y198570D01*
X19343Y198603D01*
X19435Y198632D01*
X19529Y198657D01*
X19623Y198678D01*
X19718Y198696D01*
X19814Y198709D01*
X19910Y198719D01*
X20006Y198725D01*
X20103Y198727D01*
X18374Y197986D02*
X13435Y193788D01*
X13435Y198727D01*
D14*
X30270Y154830D02*
X69730Y154830D01*
X30270Y154830D02*
X30270Y135170D01*
X69730Y135170D01*
X69730Y154830D01*
D11*
X57004Y132245D02*
X57004Y123355D01*
X57004Y132245D02*
X54534Y132245D01*
X54436Y132243D01*
X54338Y132237D01*
X54240Y132227D01*
X54143Y132214D01*
X54046Y132196D01*
X53950Y132175D01*
X53856Y132150D01*
X53762Y132121D01*
X53669Y132089D01*
X53578Y132052D01*
X53488Y132013D01*
X53400Y131969D01*
X53314Y131922D01*
X53229Y131872D01*
X53147Y131819D01*
X53067Y131762D01*
X52989Y131702D01*
X52914Y131639D01*
X52841Y131573D01*
X52771Y131504D01*
X52704Y131433D01*
X52639Y131359D01*
X52578Y131282D01*
X52519Y131203D01*
X52464Y131122D01*
X52412Y131039D01*
X52364Y130953D01*
X52319Y130866D01*
X52277Y130777D01*
X52239Y130687D01*
X52205Y130595D01*
X52174Y130502D01*
X52147Y130407D01*
X52124Y130312D01*
X52104Y130215D01*
X52089Y130119D01*
X52077Y130021D01*
X52069Y129923D01*
X52065Y129825D01*
X52065Y129727D01*
X52069Y129629D01*
X52077Y129531D01*
X52089Y129433D01*
X52104Y129337D01*
X52124Y129240D01*
X52147Y129145D01*
X52174Y129050D01*
X52205Y128957D01*
X52239Y128865D01*
X52277Y128775D01*
X52319Y128686D01*
X52364Y128599D01*
X52412Y128513D01*
X52464Y128430D01*
X52519Y128349D01*
X52578Y128270D01*
X52639Y128193D01*
X52704Y128119D01*
X52771Y128048D01*
X52841Y127979D01*
X52914Y127913D01*
X52989Y127850D01*
X53067Y127790D01*
X53147Y127733D01*
X53229Y127680D01*
X53314Y127630D01*
X53400Y127583D01*
X53488Y127539D01*
X53578Y127500D01*
X53669Y127463D01*
X53762Y127431D01*
X53856Y127402D01*
X53950Y127377D01*
X54046Y127356D01*
X54143Y127338D01*
X54240Y127325D01*
X54338Y127315D01*
X54436Y127309D01*
X54534Y127307D01*
X54534Y127306D02*
X57004Y127306D01*
X54040Y127306D02*
X52065Y123355D01*
X47935Y123355D02*
X45466Y123355D01*
X45368Y123357D01*
X45270Y123363D01*
X45172Y123373D01*
X45075Y123386D01*
X44978Y123404D01*
X44882Y123425D01*
X44788Y123450D01*
X44694Y123479D01*
X44601Y123511D01*
X44510Y123548D01*
X44420Y123587D01*
X44332Y123631D01*
X44246Y123678D01*
X44161Y123728D01*
X44079Y123781D01*
X43999Y123838D01*
X43921Y123898D01*
X43846Y123961D01*
X43773Y124027D01*
X43703Y124096D01*
X43636Y124167D01*
X43571Y124241D01*
X43510Y124318D01*
X43451Y124397D01*
X43396Y124478D01*
X43344Y124561D01*
X43296Y124647D01*
X43251Y124734D01*
X43209Y124823D01*
X43171Y124913D01*
X43137Y125005D01*
X43106Y125098D01*
X43079Y125193D01*
X43056Y125288D01*
X43036Y125385D01*
X43021Y125481D01*
X43009Y125579D01*
X43001Y125677D01*
X42997Y125775D01*
X42997Y125873D01*
X43001Y125971D01*
X43009Y126069D01*
X43021Y126167D01*
X43036Y126263D01*
X43056Y126360D01*
X43079Y126455D01*
X43106Y126550D01*
X43137Y126643D01*
X43171Y126735D01*
X43209Y126825D01*
X43251Y126914D01*
X43296Y127001D01*
X43344Y127087D01*
X43396Y127170D01*
X43451Y127251D01*
X43510Y127330D01*
X43571Y127407D01*
X43636Y127481D01*
X43703Y127552D01*
X43773Y127621D01*
X43846Y127687D01*
X43921Y127750D01*
X43999Y127810D01*
X44079Y127867D01*
X44161Y127920D01*
X44246Y127970D01*
X44332Y128017D01*
X44420Y128061D01*
X44510Y128100D01*
X44601Y128137D01*
X44694Y128169D01*
X44788Y128198D01*
X44882Y128223D01*
X44978Y128244D01*
X45075Y128262D01*
X45172Y128275D01*
X45270Y128285D01*
X45368Y128291D01*
X45466Y128293D01*
X44972Y132245D02*
X47935Y132245D01*
X44972Y132245D02*
X44885Y132243D01*
X44797Y132237D01*
X44710Y132228D01*
X44624Y132214D01*
X44538Y132197D01*
X44454Y132176D01*
X44370Y132151D01*
X44287Y132122D01*
X44206Y132090D01*
X44126Y132055D01*
X44048Y132016D01*
X43971Y131973D01*
X43897Y131927D01*
X43825Y131878D01*
X43755Y131826D01*
X43687Y131770D01*
X43622Y131712D01*
X43559Y131651D01*
X43500Y131587D01*
X43443Y131520D01*
X43389Y131452D01*
X43338Y131380D01*
X43291Y131307D01*
X43246Y131232D01*
X43205Y131154D01*
X43168Y131075D01*
X43134Y130995D01*
X43104Y130913D01*
X43077Y130830D01*
X43054Y130745D01*
X43035Y130660D01*
X43020Y130574D01*
X43008Y130487D01*
X43000Y130400D01*
X42996Y130313D01*
X42996Y130225D01*
X43000Y130138D01*
X43008Y130051D01*
X43020Y129964D01*
X43035Y129878D01*
X43054Y129793D01*
X43077Y129708D01*
X43104Y129625D01*
X43134Y129543D01*
X43168Y129463D01*
X43205Y129384D01*
X43246Y129306D01*
X43291Y129231D01*
X43338Y129158D01*
X43389Y129086D01*
X43443Y129018D01*
X43500Y128951D01*
X43559Y128887D01*
X43622Y128826D01*
X43687Y128768D01*
X43755Y128712D01*
X43825Y128660D01*
X43897Y128611D01*
X43971Y128565D01*
X44048Y128522D01*
X44126Y128483D01*
X44206Y128448D01*
X44287Y128416D01*
X44370Y128387D01*
X44454Y128362D01*
X44538Y128341D01*
X44624Y128324D01*
X44710Y128310D01*
X44797Y128301D01*
X44885Y128295D01*
X44972Y128293D01*
X44972Y128294D02*
X46947Y128294D01*
D14*
X70170Y170270D02*
X70170Y209730D01*
X70170Y170270D02*
X89830Y170270D01*
X89830Y209730D01*
X70170Y209730D01*
D11*
X91505Y182996D02*
X100395Y182996D01*
X100395Y185466D01*
X100393Y185564D01*
X100387Y185662D01*
X100377Y185760D01*
X100364Y185857D01*
X100346Y185954D01*
X100325Y186050D01*
X100300Y186144D01*
X100271Y186238D01*
X100239Y186331D01*
X100202Y186422D01*
X100163Y186512D01*
X100119Y186600D01*
X100072Y186686D01*
X100022Y186771D01*
X99969Y186853D01*
X99912Y186933D01*
X99852Y187011D01*
X99789Y187086D01*
X99723Y187159D01*
X99654Y187229D01*
X99583Y187296D01*
X99509Y187361D01*
X99432Y187422D01*
X99353Y187481D01*
X99272Y187536D01*
X99189Y187588D01*
X99103Y187636D01*
X99016Y187681D01*
X98927Y187723D01*
X98837Y187761D01*
X98745Y187795D01*
X98652Y187826D01*
X98557Y187853D01*
X98462Y187876D01*
X98365Y187896D01*
X98269Y187911D01*
X98171Y187923D01*
X98073Y187931D01*
X97975Y187935D01*
X97877Y187935D01*
X97779Y187931D01*
X97681Y187923D01*
X97583Y187911D01*
X97487Y187896D01*
X97390Y187876D01*
X97295Y187853D01*
X97200Y187826D01*
X97107Y187795D01*
X97015Y187761D01*
X96925Y187723D01*
X96836Y187681D01*
X96749Y187636D01*
X96663Y187588D01*
X96580Y187536D01*
X96499Y187481D01*
X96420Y187422D01*
X96343Y187361D01*
X96269Y187296D01*
X96198Y187229D01*
X96129Y187159D01*
X96063Y187086D01*
X96000Y187011D01*
X95940Y186933D01*
X95883Y186853D01*
X95830Y186771D01*
X95780Y186686D01*
X95733Y186600D01*
X95689Y186512D01*
X95650Y186422D01*
X95613Y186331D01*
X95581Y186238D01*
X95552Y186144D01*
X95527Y186050D01*
X95506Y185954D01*
X95488Y185857D01*
X95475Y185760D01*
X95465Y185662D01*
X95459Y185564D01*
X95457Y185466D01*
X95456Y185466D02*
X95456Y182996D01*
X95456Y185960D02*
X91505Y187935D01*
X93481Y192065D02*
X100395Y194040D01*
X93481Y192065D02*
X93481Y197004D01*
X95456Y195522D02*
X91505Y195522D01*
D15*
X392700Y104294D02*
X392700Y95706D01*
X367300Y95706D02*
X367300Y104294D01*
X377316Y92912D02*
X382684Y92912D01*
D16*
X363998Y110160D03*
D11*
X362855Y90682D02*
X353965Y90682D01*
X353965Y91669D02*
X353965Y89694D01*
X362855Y89694D02*
X362855Y91669D01*
X353965Y97469D02*
X353965Y99444D01*
X353965Y97469D02*
X353967Y97383D01*
X353973Y97297D01*
X353982Y97211D01*
X353995Y97126D01*
X354012Y97041D01*
X354032Y96958D01*
X354056Y96875D01*
X354084Y96793D01*
X354115Y96713D01*
X354150Y96634D01*
X354188Y96557D01*
X354230Y96481D01*
X354274Y96407D01*
X354322Y96336D01*
X354373Y96266D01*
X354427Y96199D01*
X354484Y96134D01*
X354544Y96072D01*
X354606Y96012D01*
X354671Y95955D01*
X354738Y95901D01*
X354808Y95850D01*
X354879Y95802D01*
X354953Y95758D01*
X355029Y95716D01*
X355106Y95678D01*
X355185Y95643D01*
X355265Y95612D01*
X355347Y95584D01*
X355430Y95560D01*
X355513Y95540D01*
X355598Y95523D01*
X355683Y95510D01*
X355769Y95501D01*
X355855Y95495D01*
X355941Y95493D01*
X360879Y95493D01*
X360968Y95495D01*
X361056Y95501D01*
X361144Y95511D01*
X361232Y95525D01*
X361319Y95543D01*
X361405Y95564D01*
X361490Y95590D01*
X361573Y95619D01*
X361656Y95652D01*
X361736Y95689D01*
X361815Y95729D01*
X361892Y95773D01*
X361968Y95820D01*
X362040Y95870D01*
X362111Y95924D01*
X362179Y95981D01*
X362245Y96041D01*
X362307Y96103D01*
X362367Y96169D01*
X362424Y96237D01*
X362478Y96308D01*
X362528Y96380D01*
X362575Y96455D01*
X362619Y96533D01*
X362659Y96612D01*
X362696Y96692D01*
X362729Y96775D01*
X362758Y96858D01*
X362784Y96943D01*
X362805Y97029D01*
X362823Y97116D01*
X362837Y97204D01*
X362847Y97292D01*
X362853Y97380D01*
X362855Y97469D01*
X362855Y99444D01*
X353965Y103147D02*
X353965Y105617D01*
X353967Y105715D01*
X353973Y105813D01*
X353983Y105911D01*
X353996Y106008D01*
X354014Y106105D01*
X354035Y106201D01*
X354060Y106295D01*
X354089Y106389D01*
X354121Y106482D01*
X354158Y106573D01*
X354197Y106663D01*
X354241Y106751D01*
X354288Y106837D01*
X354338Y106922D01*
X354391Y107004D01*
X354448Y107084D01*
X354508Y107162D01*
X354571Y107237D01*
X354637Y107310D01*
X354706Y107380D01*
X354777Y107447D01*
X354851Y107512D01*
X354928Y107573D01*
X355007Y107632D01*
X355088Y107687D01*
X355171Y107739D01*
X355257Y107787D01*
X355344Y107832D01*
X355433Y107874D01*
X355523Y107912D01*
X355615Y107946D01*
X355708Y107977D01*
X355803Y108004D01*
X355898Y108027D01*
X355995Y108047D01*
X356091Y108062D01*
X356189Y108074D01*
X356287Y108082D01*
X356385Y108086D01*
X356483Y108086D01*
X356581Y108082D01*
X356679Y108074D01*
X356777Y108062D01*
X356873Y108047D01*
X356970Y108027D01*
X357065Y108004D01*
X357160Y107977D01*
X357253Y107946D01*
X357345Y107912D01*
X357435Y107874D01*
X357524Y107832D01*
X357611Y107787D01*
X357697Y107739D01*
X357780Y107687D01*
X357861Y107632D01*
X357940Y107573D01*
X358017Y107512D01*
X358091Y107447D01*
X358162Y107380D01*
X358231Y107310D01*
X358297Y107237D01*
X358360Y107162D01*
X358420Y107084D01*
X358477Y107004D01*
X358530Y106922D01*
X358580Y106837D01*
X358627Y106751D01*
X358671Y106663D01*
X358710Y106573D01*
X358747Y106482D01*
X358779Y106389D01*
X358808Y106295D01*
X358833Y106201D01*
X358854Y106105D01*
X358872Y106008D01*
X358885Y105911D01*
X358895Y105813D01*
X358901Y105715D01*
X358903Y105617D01*
X362855Y106111D02*
X362855Y103147D01*
X362855Y106111D02*
X362853Y106198D01*
X362847Y106286D01*
X362838Y106373D01*
X362824Y106459D01*
X362807Y106545D01*
X362786Y106629D01*
X362761Y106713D01*
X362732Y106796D01*
X362700Y106877D01*
X362665Y106957D01*
X362626Y107035D01*
X362583Y107112D01*
X362537Y107186D01*
X362488Y107258D01*
X362436Y107328D01*
X362380Y107396D01*
X362322Y107461D01*
X362261Y107524D01*
X362197Y107583D01*
X362130Y107640D01*
X362062Y107694D01*
X361990Y107745D01*
X361917Y107792D01*
X361842Y107837D01*
X361764Y107878D01*
X361685Y107915D01*
X361605Y107949D01*
X361523Y107979D01*
X361440Y108006D01*
X361355Y108029D01*
X361270Y108048D01*
X361184Y108063D01*
X361097Y108075D01*
X361010Y108083D01*
X360923Y108087D01*
X360835Y108087D01*
X360748Y108083D01*
X360661Y108075D01*
X360574Y108063D01*
X360488Y108048D01*
X360403Y108029D01*
X360318Y108006D01*
X360235Y107979D01*
X360153Y107949D01*
X360073Y107915D01*
X359994Y107878D01*
X359916Y107837D01*
X359841Y107792D01*
X359768Y107745D01*
X359696Y107694D01*
X359628Y107640D01*
X359561Y107583D01*
X359497Y107524D01*
X359436Y107461D01*
X359378Y107396D01*
X359322Y107328D01*
X359270Y107258D01*
X359221Y107186D01*
X359175Y107112D01*
X359132Y107035D01*
X359093Y106957D01*
X359058Y106877D01*
X359026Y106796D01*
X358997Y106713D01*
X358972Y106629D01*
X358951Y106545D01*
X358934Y106459D01*
X358920Y106373D01*
X358911Y106286D01*
X358905Y106198D01*
X358903Y106111D01*
X358904Y106111D02*
X358904Y104135D01*
D14*
X392000Y137000D02*
X392000Y183000D01*
X368000Y183000D02*
X368000Y137000D01*
X380000Y152000D02*
X387500Y162500D01*
X373000Y162500D01*
X380000Y152000D01*
D17*
X380000Y151500D03*
D11*
X366175Y153076D02*
X357285Y153076D01*
X366175Y153076D02*
X366175Y155546D01*
X366173Y155643D01*
X366167Y155740D01*
X366158Y155836D01*
X366145Y155932D01*
X366128Y156028D01*
X366107Y156122D01*
X366082Y156216D01*
X366054Y156309D01*
X366022Y156401D01*
X365987Y156491D01*
X365948Y156580D01*
X365906Y156667D01*
X365860Y156752D01*
X365811Y156836D01*
X365759Y156918D01*
X365703Y156997D01*
X365645Y157075D01*
X365583Y157149D01*
X365519Y157222D01*
X365452Y157292D01*
X365382Y157359D01*
X365309Y157423D01*
X365235Y157485D01*
X365157Y157543D01*
X365078Y157599D01*
X364996Y157651D01*
X364912Y157700D01*
X364827Y157746D01*
X364740Y157788D01*
X364651Y157827D01*
X364561Y157862D01*
X364469Y157894D01*
X364376Y157922D01*
X364282Y157947D01*
X364188Y157968D01*
X364092Y157985D01*
X363996Y157998D01*
X363900Y158007D01*
X363803Y158013D01*
X363706Y158015D01*
X359754Y158015D01*
X359657Y158013D01*
X359560Y158007D01*
X359464Y157998D01*
X359368Y157985D01*
X359272Y157968D01*
X359178Y157947D01*
X359084Y157922D01*
X358991Y157894D01*
X358899Y157862D01*
X358809Y157827D01*
X358720Y157788D01*
X358633Y157746D01*
X358548Y157700D01*
X358464Y157651D01*
X358382Y157599D01*
X358303Y157543D01*
X358225Y157485D01*
X358151Y157423D01*
X358078Y157359D01*
X358008Y157292D01*
X357941Y157222D01*
X357877Y157149D01*
X357815Y157075D01*
X357757Y156997D01*
X357701Y156918D01*
X357649Y156836D01*
X357600Y156752D01*
X357554Y156667D01*
X357512Y156580D01*
X357473Y156491D01*
X357438Y156401D01*
X357406Y156309D01*
X357378Y156216D01*
X357353Y156122D01*
X357332Y156028D01*
X357315Y155932D01*
X357302Y155836D01*
X357293Y155740D01*
X357287Y155643D01*
X357285Y155546D01*
X357285Y153076D01*
X364199Y162525D02*
X366175Y164994D01*
X357285Y164994D01*
X357285Y162525D02*
X357285Y167464D01*
D14*
X410150Y179730D02*
X410150Y140270D01*
X429850Y140270D02*
X429850Y179730D01*
X410150Y179730D01*
X410150Y140270D02*
X429850Y140270D01*
D11*
X396505Y155679D02*
X396505Y157655D01*
X396505Y155679D02*
X396507Y155593D01*
X396513Y155507D01*
X396522Y155421D01*
X396535Y155336D01*
X396552Y155251D01*
X396572Y155168D01*
X396596Y155085D01*
X396624Y155003D01*
X396655Y154923D01*
X396690Y154844D01*
X396728Y154767D01*
X396770Y154691D01*
X396814Y154617D01*
X396862Y154546D01*
X396913Y154476D01*
X396967Y154409D01*
X397024Y154344D01*
X397084Y154282D01*
X397146Y154222D01*
X397211Y154165D01*
X397278Y154111D01*
X397348Y154060D01*
X397419Y154012D01*
X397493Y153968D01*
X397569Y153926D01*
X397646Y153888D01*
X397725Y153853D01*
X397805Y153822D01*
X397887Y153794D01*
X397970Y153770D01*
X398053Y153750D01*
X398138Y153733D01*
X398223Y153720D01*
X398309Y153711D01*
X398395Y153705D01*
X398481Y153703D01*
X398481Y153704D02*
X403419Y153704D01*
X403419Y153703D02*
X403508Y153705D01*
X403596Y153711D01*
X403684Y153721D01*
X403772Y153735D01*
X403859Y153753D01*
X403945Y153774D01*
X404030Y153800D01*
X404113Y153829D01*
X404196Y153862D01*
X404276Y153899D01*
X404355Y153939D01*
X404432Y153983D01*
X404508Y154030D01*
X404580Y154080D01*
X404651Y154134D01*
X404719Y154191D01*
X404785Y154251D01*
X404847Y154313D01*
X404907Y154379D01*
X404964Y154447D01*
X405018Y154518D01*
X405068Y154590D01*
X405115Y154665D01*
X405159Y154743D01*
X405199Y154822D01*
X405236Y154902D01*
X405269Y154985D01*
X405298Y155068D01*
X405324Y155153D01*
X405345Y155239D01*
X405363Y155326D01*
X405377Y155414D01*
X405387Y155502D01*
X405393Y155590D01*
X405395Y155679D01*
X405395Y157655D01*
X405396Y164074D02*
X405394Y164166D01*
X405388Y164258D01*
X405379Y164349D01*
X405366Y164440D01*
X405349Y164530D01*
X405328Y164620D01*
X405304Y164708D01*
X405276Y164796D01*
X405244Y164882D01*
X405209Y164967D01*
X405170Y165050D01*
X405128Y165132D01*
X405083Y165212D01*
X405034Y165290D01*
X404982Y165366D01*
X404927Y165439D01*
X404869Y165511D01*
X404809Y165580D01*
X404745Y165646D01*
X404679Y165710D01*
X404610Y165770D01*
X404538Y165828D01*
X404465Y165883D01*
X404389Y165935D01*
X404311Y165984D01*
X404231Y166029D01*
X404149Y166071D01*
X404066Y166110D01*
X403981Y166145D01*
X403895Y166177D01*
X403807Y166205D01*
X403719Y166229D01*
X403629Y166250D01*
X403539Y166267D01*
X403448Y166280D01*
X403357Y166289D01*
X403265Y166295D01*
X403173Y166297D01*
X405395Y164074D02*
X405393Y163968D01*
X405387Y163863D01*
X405377Y163758D01*
X405364Y163653D01*
X405346Y163549D01*
X405325Y163446D01*
X405300Y163343D01*
X405271Y163241D01*
X405238Y163141D01*
X405202Y163042D01*
X405162Y162944D01*
X405118Y162848D01*
X405071Y162753D01*
X405021Y162661D01*
X404967Y162570D01*
X404909Y162481D01*
X404849Y162395D01*
X404785Y162311D01*
X404719Y162229D01*
X404649Y162149D01*
X404576Y162073D01*
X404501Y161999D01*
X404423Y161928D01*
X404342Y161860D01*
X404259Y161794D01*
X404173Y161732D01*
X404086Y161674D01*
X403996Y161618D01*
X403904Y161566D01*
X403810Y161517D01*
X403715Y161472D01*
X403618Y161430D01*
X403519Y161392D01*
X403420Y161358D01*
X401444Y165555D02*
X401513Y165624D01*
X401583Y165690D01*
X401657Y165753D01*
X401733Y165812D01*
X401811Y165869D01*
X401891Y165923D01*
X401974Y165973D01*
X402058Y166020D01*
X402145Y166063D01*
X402233Y166103D01*
X402322Y166139D01*
X402413Y166172D01*
X402505Y166201D01*
X402599Y166226D01*
X402693Y166247D01*
X402788Y166265D01*
X402884Y166278D01*
X402980Y166288D01*
X403076Y166294D01*
X403173Y166296D01*
X401444Y165556D02*
X396505Y161358D01*
X396505Y166296D01*
D14*
X399730Y45150D02*
X360270Y45150D01*
X360270Y64850D02*
X399730Y64850D01*
X360270Y64850D02*
X360270Y45150D01*
X399730Y45150D02*
X399730Y64850D01*
D11*
X384321Y32755D02*
X382345Y32755D01*
X384321Y32755D02*
X384407Y32757D01*
X384493Y32763D01*
X384579Y32772D01*
X384664Y32785D01*
X384749Y32802D01*
X384832Y32822D01*
X384915Y32846D01*
X384997Y32874D01*
X385077Y32905D01*
X385156Y32940D01*
X385233Y32978D01*
X385309Y33020D01*
X385383Y33064D01*
X385454Y33112D01*
X385524Y33163D01*
X385591Y33217D01*
X385656Y33274D01*
X385718Y33334D01*
X385778Y33396D01*
X385835Y33461D01*
X385889Y33528D01*
X385940Y33598D01*
X385988Y33669D01*
X386032Y33743D01*
X386074Y33819D01*
X386112Y33896D01*
X386147Y33975D01*
X386178Y34055D01*
X386206Y34137D01*
X386230Y34220D01*
X386250Y34303D01*
X386267Y34388D01*
X386280Y34473D01*
X386289Y34559D01*
X386295Y34645D01*
X386297Y34731D01*
X386296Y34731D02*
X386296Y39669D01*
X386297Y39669D02*
X386295Y39758D01*
X386289Y39846D01*
X386279Y39934D01*
X386265Y40022D01*
X386247Y40109D01*
X386226Y40195D01*
X386200Y40280D01*
X386171Y40363D01*
X386138Y40446D01*
X386101Y40526D01*
X386061Y40605D01*
X386017Y40682D01*
X385970Y40758D01*
X385920Y40830D01*
X385866Y40901D01*
X385809Y40969D01*
X385749Y41035D01*
X385687Y41097D01*
X385621Y41157D01*
X385553Y41214D01*
X385482Y41268D01*
X385410Y41318D01*
X385335Y41365D01*
X385257Y41409D01*
X385178Y41449D01*
X385098Y41486D01*
X385015Y41519D01*
X384932Y41548D01*
X384847Y41574D01*
X384761Y41595D01*
X384674Y41613D01*
X384586Y41627D01*
X384498Y41637D01*
X384410Y41643D01*
X384321Y41645D01*
X382345Y41645D01*
X378642Y32755D02*
X376173Y32755D01*
X376075Y32757D01*
X375977Y32763D01*
X375879Y32773D01*
X375782Y32786D01*
X375685Y32804D01*
X375589Y32825D01*
X375495Y32850D01*
X375401Y32879D01*
X375308Y32911D01*
X375217Y32948D01*
X375127Y32987D01*
X375039Y33031D01*
X374953Y33078D01*
X374868Y33128D01*
X374786Y33181D01*
X374706Y33238D01*
X374628Y33298D01*
X374553Y33361D01*
X374480Y33427D01*
X374410Y33496D01*
X374343Y33567D01*
X374278Y33641D01*
X374217Y33718D01*
X374158Y33797D01*
X374103Y33878D01*
X374051Y33961D01*
X374003Y34047D01*
X373958Y34134D01*
X373916Y34223D01*
X373878Y34313D01*
X373844Y34405D01*
X373813Y34498D01*
X373786Y34593D01*
X373763Y34688D01*
X373743Y34785D01*
X373728Y34881D01*
X373716Y34979D01*
X373708Y35077D01*
X373704Y35175D01*
X373704Y35273D01*
X373708Y35371D01*
X373716Y35469D01*
X373728Y35567D01*
X373743Y35663D01*
X373763Y35760D01*
X373786Y35855D01*
X373813Y35950D01*
X373844Y36043D01*
X373878Y36135D01*
X373916Y36225D01*
X373958Y36314D01*
X374003Y36401D01*
X374051Y36487D01*
X374103Y36570D01*
X374158Y36651D01*
X374217Y36730D01*
X374278Y36807D01*
X374343Y36881D01*
X374410Y36952D01*
X374480Y37021D01*
X374553Y37087D01*
X374628Y37150D01*
X374706Y37210D01*
X374786Y37267D01*
X374868Y37320D01*
X374953Y37370D01*
X375039Y37417D01*
X375127Y37461D01*
X375217Y37500D01*
X375308Y37537D01*
X375401Y37569D01*
X375495Y37598D01*
X375589Y37623D01*
X375685Y37644D01*
X375782Y37662D01*
X375879Y37675D01*
X375977Y37685D01*
X376075Y37691D01*
X376173Y37693D01*
X375679Y41645D02*
X378642Y41645D01*
X375679Y41645D02*
X375592Y41643D01*
X375504Y41637D01*
X375417Y41628D01*
X375331Y41614D01*
X375245Y41597D01*
X375161Y41576D01*
X375077Y41551D01*
X374994Y41522D01*
X374913Y41490D01*
X374833Y41455D01*
X374755Y41416D01*
X374678Y41373D01*
X374604Y41327D01*
X374532Y41278D01*
X374462Y41226D01*
X374394Y41170D01*
X374329Y41112D01*
X374266Y41051D01*
X374207Y40987D01*
X374150Y40920D01*
X374096Y40852D01*
X374045Y40780D01*
X373998Y40707D01*
X373953Y40632D01*
X373912Y40554D01*
X373875Y40475D01*
X373841Y40395D01*
X373811Y40313D01*
X373784Y40230D01*
X373761Y40145D01*
X373742Y40060D01*
X373727Y39974D01*
X373715Y39887D01*
X373707Y39800D01*
X373703Y39713D01*
X373703Y39625D01*
X373707Y39538D01*
X373715Y39451D01*
X373727Y39364D01*
X373742Y39278D01*
X373761Y39193D01*
X373784Y39108D01*
X373811Y39025D01*
X373841Y38943D01*
X373875Y38863D01*
X373912Y38784D01*
X373953Y38706D01*
X373998Y38631D01*
X374045Y38558D01*
X374096Y38486D01*
X374150Y38418D01*
X374207Y38351D01*
X374266Y38287D01*
X374329Y38226D01*
X374394Y38168D01*
X374462Y38112D01*
X374532Y38060D01*
X374604Y38011D01*
X374678Y37965D01*
X374755Y37922D01*
X374833Y37883D01*
X374913Y37848D01*
X374994Y37816D01*
X375077Y37787D01*
X375161Y37762D01*
X375245Y37741D01*
X375331Y37724D01*
X375417Y37710D01*
X375504Y37701D01*
X375592Y37695D01*
X375679Y37693D01*
X375679Y37694D02*
X377655Y37694D01*
D14*
X429830Y80270D02*
X429830Y119730D01*
X410170Y119730D01*
X410170Y80270D01*
X429830Y80270D01*
D11*
X405995Y92996D02*
X397105Y92996D01*
X405995Y92996D02*
X405995Y95466D01*
X405993Y95564D01*
X405987Y95662D01*
X405977Y95760D01*
X405964Y95857D01*
X405946Y95954D01*
X405925Y96050D01*
X405900Y96144D01*
X405871Y96238D01*
X405839Y96331D01*
X405802Y96422D01*
X405763Y96512D01*
X405719Y96600D01*
X405672Y96686D01*
X405622Y96771D01*
X405569Y96853D01*
X405512Y96933D01*
X405452Y97011D01*
X405389Y97086D01*
X405323Y97159D01*
X405254Y97229D01*
X405183Y97296D01*
X405109Y97361D01*
X405032Y97422D01*
X404953Y97481D01*
X404872Y97536D01*
X404789Y97588D01*
X404703Y97636D01*
X404616Y97681D01*
X404527Y97723D01*
X404437Y97761D01*
X404345Y97795D01*
X404252Y97826D01*
X404157Y97853D01*
X404062Y97876D01*
X403965Y97896D01*
X403869Y97911D01*
X403771Y97923D01*
X403673Y97931D01*
X403575Y97935D01*
X403477Y97935D01*
X403379Y97931D01*
X403281Y97923D01*
X403183Y97911D01*
X403087Y97896D01*
X402990Y97876D01*
X402895Y97853D01*
X402800Y97826D01*
X402707Y97795D01*
X402615Y97761D01*
X402525Y97723D01*
X402436Y97681D01*
X402349Y97636D01*
X402263Y97588D01*
X402180Y97536D01*
X402099Y97481D01*
X402020Y97422D01*
X401943Y97361D01*
X401869Y97296D01*
X401798Y97229D01*
X401729Y97159D01*
X401663Y97086D01*
X401600Y97011D01*
X401540Y96933D01*
X401483Y96853D01*
X401430Y96771D01*
X401380Y96686D01*
X401333Y96600D01*
X401289Y96512D01*
X401250Y96422D01*
X401213Y96331D01*
X401181Y96238D01*
X401152Y96144D01*
X401127Y96050D01*
X401106Y95954D01*
X401088Y95857D01*
X401075Y95760D01*
X401065Y95662D01*
X401059Y95564D01*
X401057Y95466D01*
X401056Y95466D02*
X401056Y92996D01*
X401056Y95960D02*
X397105Y97935D01*
X397105Y102065D02*
X397105Y105028D01*
X397107Y105117D01*
X397113Y105205D01*
X397123Y105293D01*
X397137Y105381D01*
X397155Y105468D01*
X397176Y105554D01*
X397202Y105639D01*
X397231Y105722D01*
X397264Y105805D01*
X397301Y105885D01*
X397341Y105964D01*
X397385Y106041D01*
X397432Y106117D01*
X397482Y106189D01*
X397536Y106260D01*
X397593Y106328D01*
X397653Y106394D01*
X397715Y106456D01*
X397781Y106516D01*
X397849Y106573D01*
X397920Y106627D01*
X397992Y106677D01*
X398067Y106724D01*
X398145Y106768D01*
X398224Y106808D01*
X398304Y106845D01*
X398387Y106878D01*
X398470Y106907D01*
X398555Y106933D01*
X398641Y106954D01*
X398728Y106972D01*
X398816Y106986D01*
X398904Y106996D01*
X398992Y107002D01*
X399081Y107004D01*
X400068Y107004D01*
X400154Y107002D01*
X400240Y106996D01*
X400326Y106987D01*
X400411Y106974D01*
X400496Y106957D01*
X400579Y106937D01*
X400662Y106913D01*
X400744Y106885D01*
X400824Y106854D01*
X400903Y106819D01*
X400980Y106781D01*
X401056Y106739D01*
X401130Y106695D01*
X401201Y106647D01*
X401271Y106596D01*
X401338Y106542D01*
X401403Y106485D01*
X401465Y106425D01*
X401525Y106363D01*
X401582Y106298D01*
X401636Y106231D01*
X401687Y106161D01*
X401735Y106090D01*
X401779Y106016D01*
X401821Y105940D01*
X401859Y105863D01*
X401894Y105784D01*
X401925Y105704D01*
X401953Y105622D01*
X401977Y105539D01*
X401997Y105456D01*
X402014Y105371D01*
X402027Y105286D01*
X402036Y105200D01*
X402042Y105114D01*
X402044Y105028D01*
X402044Y102065D01*
X405995Y102065D01*
X405995Y107004D01*
M02*
