G04 EAGLE Gerber RS-274X export*
G75*
%MOMM*%
%FSLAX34Y34*%
%LPD*%
%INSilkscreen Top*%
%IPPOS*%
%AMOC8*
5,1,8,0,0,1.08239X$1,22.5*%
G01*
%ADD10C,0.101600*%
%ADD11C,0.150000*%
%ADD12C,0.127000*%
%ADD13C,0.609600*%
%ADD14C,0.076200*%
%ADD15C,0.177800*%
%ADD16C,0.152400*%
%ADD17C,0.762000*%
%ADD18R,0.508000X0.762000*%
%ADD19R,1.016000X0.762000*%
%ADD20C,0.203200*%
%ADD21R,0.200000X0.200000*%


D10*
X109760Y26008D02*
X112422Y26008D01*
X112504Y26010D01*
X112586Y26016D01*
X112667Y26025D01*
X112748Y26038D01*
X112828Y26055D01*
X112907Y26076D01*
X112986Y26100D01*
X113063Y26128D01*
X113139Y26159D01*
X113213Y26194D01*
X113285Y26232D01*
X113356Y26274D01*
X113425Y26318D01*
X113491Y26366D01*
X113555Y26417D01*
X113617Y26471D01*
X113676Y26528D01*
X113733Y26587D01*
X113787Y26649D01*
X113838Y26713D01*
X113886Y26779D01*
X113930Y26848D01*
X113972Y26919D01*
X114010Y26991D01*
X114045Y27065D01*
X114076Y27141D01*
X114104Y27218D01*
X114128Y27297D01*
X114149Y27376D01*
X114166Y27456D01*
X114179Y27537D01*
X114188Y27618D01*
X114194Y27700D01*
X114196Y27782D01*
X114196Y28669D01*
X114194Y28751D01*
X114188Y28833D01*
X114179Y28914D01*
X114166Y28995D01*
X114149Y29075D01*
X114128Y29154D01*
X114104Y29233D01*
X114076Y29310D01*
X114045Y29386D01*
X114010Y29460D01*
X113972Y29532D01*
X113930Y29603D01*
X113886Y29672D01*
X113838Y29738D01*
X113787Y29802D01*
X113733Y29864D01*
X113676Y29923D01*
X113617Y29980D01*
X113555Y30034D01*
X113491Y30085D01*
X113425Y30133D01*
X113356Y30177D01*
X113285Y30219D01*
X113213Y30257D01*
X113139Y30292D01*
X113063Y30323D01*
X112986Y30351D01*
X112907Y30375D01*
X112828Y30396D01*
X112748Y30413D01*
X112667Y30426D01*
X112586Y30435D01*
X112504Y30441D01*
X112422Y30443D01*
X112422Y30444D02*
X109760Y30444D01*
X109760Y33992D01*
X114196Y33992D01*
X117417Y33992D02*
X120078Y26008D01*
X122740Y33992D01*
X130997Y30444D02*
X132328Y30444D01*
X132328Y26008D01*
X129667Y26008D01*
X129585Y26010D01*
X129503Y26016D01*
X129422Y26025D01*
X129341Y26038D01*
X129261Y26055D01*
X129182Y26076D01*
X129103Y26100D01*
X129026Y26128D01*
X128950Y26159D01*
X128876Y26194D01*
X128804Y26232D01*
X128733Y26274D01*
X128664Y26318D01*
X128598Y26366D01*
X128534Y26417D01*
X128472Y26471D01*
X128413Y26528D01*
X128356Y26587D01*
X128302Y26649D01*
X128251Y26713D01*
X128203Y26779D01*
X128159Y26848D01*
X128117Y26919D01*
X128079Y26991D01*
X128044Y27065D01*
X128013Y27141D01*
X127985Y27218D01*
X127961Y27297D01*
X127940Y27376D01*
X127923Y27456D01*
X127910Y27537D01*
X127901Y27618D01*
X127895Y27700D01*
X127893Y27782D01*
X127892Y27782D02*
X127892Y32218D01*
X127893Y32218D02*
X127895Y32300D01*
X127901Y32382D01*
X127910Y32463D01*
X127923Y32544D01*
X127940Y32624D01*
X127961Y32703D01*
X127985Y32782D01*
X128013Y32859D01*
X128044Y32935D01*
X128079Y33009D01*
X128117Y33081D01*
X128159Y33152D01*
X128203Y33221D01*
X128251Y33287D01*
X128302Y33351D01*
X128356Y33413D01*
X128413Y33472D01*
X128472Y33529D01*
X128534Y33583D01*
X128598Y33634D01*
X128664Y33682D01*
X128733Y33726D01*
X128804Y33768D01*
X128876Y33806D01*
X128950Y33841D01*
X129026Y33872D01*
X129103Y33900D01*
X129181Y33924D01*
X129261Y33945D01*
X129341Y33962D01*
X129422Y33975D01*
X129503Y33984D01*
X129585Y33990D01*
X129667Y33992D01*
X132328Y33992D01*
X136532Y33992D02*
X136532Y26008D01*
X140968Y26008D02*
X136532Y33992D01*
X140968Y33992D02*
X140968Y26008D01*
X145172Y26008D02*
X145172Y33992D01*
X147390Y33992D01*
X147482Y33990D01*
X147573Y33984D01*
X147664Y33975D01*
X147755Y33962D01*
X147845Y33945D01*
X147934Y33924D01*
X148023Y33900D01*
X148110Y33872D01*
X148196Y33840D01*
X148281Y33805D01*
X148364Y33767D01*
X148446Y33725D01*
X148525Y33679D01*
X148603Y33631D01*
X148679Y33579D01*
X148752Y33524D01*
X148823Y33467D01*
X148892Y33406D01*
X148958Y33342D01*
X149022Y33276D01*
X149083Y33207D01*
X149140Y33136D01*
X149195Y33063D01*
X149247Y32987D01*
X149295Y32909D01*
X149341Y32830D01*
X149383Y32748D01*
X149421Y32665D01*
X149456Y32580D01*
X149488Y32494D01*
X149516Y32407D01*
X149540Y32318D01*
X149561Y32229D01*
X149578Y32139D01*
X149591Y32048D01*
X149600Y31957D01*
X149606Y31866D01*
X149608Y31774D01*
X149608Y28226D01*
X149606Y28134D01*
X149600Y28043D01*
X149591Y27952D01*
X149578Y27861D01*
X149561Y27771D01*
X149540Y27682D01*
X149516Y27593D01*
X149488Y27506D01*
X149456Y27420D01*
X149421Y27335D01*
X149383Y27252D01*
X149341Y27170D01*
X149295Y27091D01*
X149247Y27013D01*
X149195Y26937D01*
X149140Y26864D01*
X149083Y26793D01*
X149022Y26724D01*
X148958Y26658D01*
X148892Y26594D01*
X148823Y26533D01*
X148752Y26476D01*
X148679Y26421D01*
X148603Y26369D01*
X148525Y26321D01*
X148446Y26275D01*
X148364Y26233D01*
X148281Y26195D01*
X148196Y26160D01*
X148110Y26128D01*
X148023Y26100D01*
X147934Y26076D01*
X147845Y26055D01*
X147755Y26038D01*
X147664Y26025D01*
X147573Y26016D01*
X147482Y26010D01*
X147390Y26008D01*
X145172Y26008D01*
X155254Y26008D02*
X155254Y33992D01*
X157471Y33992D01*
X157564Y33990D01*
X157657Y33984D01*
X157749Y33975D01*
X157841Y33961D01*
X157932Y33944D01*
X158023Y33922D01*
X158112Y33897D01*
X158200Y33869D01*
X158288Y33836D01*
X158373Y33800D01*
X158457Y33761D01*
X158540Y33718D01*
X158620Y33671D01*
X158698Y33621D01*
X158775Y33568D01*
X158849Y33512D01*
X158920Y33453D01*
X158989Y33391D01*
X159056Y33326D01*
X159119Y33258D01*
X159180Y33188D01*
X159238Y33115D01*
X159292Y33040D01*
X159344Y32962D01*
X159392Y32883D01*
X159437Y32802D01*
X159478Y32718D01*
X159516Y32634D01*
X159550Y32547D01*
X159580Y32459D01*
X159607Y32370D01*
X159630Y32280D01*
X159650Y32190D01*
X159665Y32098D01*
X159677Y32006D01*
X159685Y31913D01*
X159689Y31820D01*
X159689Y31728D01*
X159685Y31635D01*
X159677Y31542D01*
X159665Y31450D01*
X159650Y31358D01*
X159630Y31268D01*
X159607Y31178D01*
X159580Y31089D01*
X159550Y31001D01*
X159516Y30914D01*
X159478Y30830D01*
X159437Y30746D01*
X159392Y30665D01*
X159344Y30586D01*
X159292Y30508D01*
X159238Y30433D01*
X159180Y30360D01*
X159119Y30290D01*
X159056Y30222D01*
X158989Y30157D01*
X158920Y30095D01*
X158849Y30036D01*
X158775Y29980D01*
X158698Y29927D01*
X158620Y29877D01*
X158540Y29830D01*
X158457Y29787D01*
X158373Y29748D01*
X158288Y29712D01*
X158200Y29679D01*
X158112Y29651D01*
X158023Y29626D01*
X157932Y29604D01*
X157841Y29587D01*
X157749Y29573D01*
X157657Y29564D01*
X157564Y29558D01*
X157471Y29556D01*
X155254Y29556D01*
X157915Y29556D02*
X159689Y26008D01*
X165682Y26008D02*
X165764Y26010D01*
X165846Y26016D01*
X165927Y26025D01*
X166008Y26038D01*
X166088Y26055D01*
X166168Y26076D01*
X166246Y26100D01*
X166323Y26128D01*
X166399Y26159D01*
X166473Y26194D01*
X166545Y26232D01*
X166616Y26274D01*
X166685Y26318D01*
X166751Y26366D01*
X166815Y26417D01*
X166877Y26471D01*
X166936Y26528D01*
X166993Y26587D01*
X167047Y26649D01*
X167098Y26713D01*
X167146Y26779D01*
X167190Y26848D01*
X167232Y26919D01*
X167270Y26991D01*
X167305Y27065D01*
X167336Y27141D01*
X167364Y27218D01*
X167388Y27297D01*
X167409Y27376D01*
X167426Y27456D01*
X167439Y27537D01*
X167448Y27618D01*
X167454Y27700D01*
X167456Y27782D01*
X165682Y26008D02*
X165564Y26010D01*
X165445Y26015D01*
X165327Y26025D01*
X165210Y26038D01*
X165093Y26055D01*
X164976Y26075D01*
X164860Y26099D01*
X164745Y26127D01*
X164631Y26158D01*
X164518Y26193D01*
X164406Y26232D01*
X164295Y26274D01*
X164186Y26320D01*
X164078Y26368D01*
X163972Y26421D01*
X163868Y26476D01*
X163765Y26535D01*
X163664Y26598D01*
X163565Y26663D01*
X163469Y26731D01*
X163374Y26803D01*
X163282Y26877D01*
X163193Y26954D01*
X163105Y27034D01*
X163021Y27117D01*
X163243Y32218D02*
X163245Y32300D01*
X163251Y32382D01*
X163260Y32463D01*
X163273Y32544D01*
X163290Y32624D01*
X163311Y32703D01*
X163335Y32782D01*
X163363Y32859D01*
X163394Y32935D01*
X163429Y33009D01*
X163467Y33081D01*
X163509Y33152D01*
X163553Y33221D01*
X163601Y33287D01*
X163652Y33351D01*
X163706Y33413D01*
X163763Y33472D01*
X163822Y33529D01*
X163884Y33583D01*
X163948Y33634D01*
X164014Y33682D01*
X164083Y33726D01*
X164154Y33768D01*
X164226Y33806D01*
X164300Y33841D01*
X164376Y33872D01*
X164453Y33900D01*
X164532Y33924D01*
X164611Y33945D01*
X164691Y33962D01*
X164772Y33975D01*
X164853Y33984D01*
X164935Y33990D01*
X165017Y33992D01*
X165130Y33990D01*
X165242Y33984D01*
X165354Y33975D01*
X165466Y33962D01*
X165578Y33944D01*
X165688Y33924D01*
X165798Y33899D01*
X165907Y33871D01*
X166015Y33839D01*
X166122Y33803D01*
X166228Y33764D01*
X166332Y33721D01*
X166435Y33675D01*
X166536Y33625D01*
X166635Y33572D01*
X166733Y33515D01*
X166828Y33456D01*
X166922Y33393D01*
X167013Y33327D01*
X164129Y30665D02*
X164060Y30708D01*
X163993Y30754D01*
X163928Y30803D01*
X163865Y30855D01*
X163805Y30910D01*
X163747Y30967D01*
X163692Y31027D01*
X163640Y31089D01*
X163590Y31153D01*
X163544Y31220D01*
X163500Y31289D01*
X163460Y31359D01*
X163423Y31432D01*
X163389Y31506D01*
X163358Y31581D01*
X163331Y31658D01*
X163308Y31736D01*
X163288Y31815D01*
X163271Y31894D01*
X163259Y31975D01*
X163249Y32056D01*
X163244Y32137D01*
X163242Y32218D01*
X166569Y29334D02*
X166638Y29292D01*
X166705Y29246D01*
X166770Y29197D01*
X166833Y29145D01*
X166893Y29090D01*
X166951Y29033D01*
X167006Y28973D01*
X167058Y28911D01*
X167108Y28847D01*
X167155Y28780D01*
X167198Y28711D01*
X167238Y28640D01*
X167275Y28568D01*
X167309Y28494D01*
X167340Y28419D01*
X167367Y28342D01*
X167390Y28264D01*
X167410Y28185D01*
X167427Y28106D01*
X167440Y28025D01*
X167449Y27944D01*
X167454Y27863D01*
X167456Y27782D01*
X166569Y29335D02*
X164130Y30665D01*
X172529Y33992D02*
X172529Y26008D01*
X170311Y33992D02*
X174746Y33992D01*
X179890Y33992D02*
X179890Y26008D01*
X179890Y33992D02*
X182107Y33992D01*
X182200Y33990D01*
X182293Y33984D01*
X182385Y33975D01*
X182477Y33961D01*
X182568Y33944D01*
X182659Y33922D01*
X182748Y33897D01*
X182836Y33869D01*
X182924Y33836D01*
X183009Y33800D01*
X183093Y33761D01*
X183176Y33718D01*
X183256Y33671D01*
X183334Y33621D01*
X183411Y33568D01*
X183485Y33512D01*
X183556Y33453D01*
X183625Y33391D01*
X183692Y33326D01*
X183755Y33258D01*
X183816Y33188D01*
X183874Y33115D01*
X183928Y33040D01*
X183980Y32962D01*
X184028Y32883D01*
X184073Y32802D01*
X184114Y32718D01*
X184152Y32634D01*
X184186Y32547D01*
X184216Y32459D01*
X184243Y32370D01*
X184266Y32280D01*
X184286Y32190D01*
X184301Y32098D01*
X184313Y32006D01*
X184321Y31913D01*
X184325Y31820D01*
X184325Y31728D01*
X184321Y31635D01*
X184313Y31542D01*
X184301Y31450D01*
X184286Y31358D01*
X184266Y31268D01*
X184243Y31178D01*
X184216Y31089D01*
X184186Y31001D01*
X184152Y30914D01*
X184114Y30830D01*
X184073Y30746D01*
X184028Y30665D01*
X183980Y30586D01*
X183928Y30508D01*
X183874Y30433D01*
X183816Y30360D01*
X183755Y30290D01*
X183692Y30222D01*
X183625Y30157D01*
X183556Y30095D01*
X183485Y30036D01*
X183411Y29980D01*
X183334Y29927D01*
X183256Y29877D01*
X183176Y29830D01*
X183093Y29787D01*
X183009Y29748D01*
X182924Y29712D01*
X182836Y29679D01*
X182748Y29651D01*
X182659Y29626D01*
X182568Y29604D01*
X182477Y29587D01*
X182385Y29573D01*
X182293Y29564D01*
X182200Y29558D01*
X182107Y29556D01*
X179890Y29556D01*
X187131Y26008D02*
X189793Y33992D01*
X192454Y26008D01*
X191789Y28004D02*
X187797Y28004D01*
X195675Y30000D02*
X195677Y30157D01*
X195682Y30314D01*
X195692Y30471D01*
X195705Y30627D01*
X195722Y30783D01*
X195742Y30939D01*
X195767Y31094D01*
X195795Y31249D01*
X195826Y31403D01*
X195862Y31556D01*
X195901Y31708D01*
X195943Y31859D01*
X195989Y32009D01*
X196039Y32158D01*
X196092Y32306D01*
X196149Y32452D01*
X196209Y32597D01*
X196273Y32741D01*
X196340Y32883D01*
X196341Y32883D02*
X196368Y32957D01*
X196398Y33029D01*
X196432Y33099D01*
X196470Y33168D01*
X196510Y33235D01*
X196554Y33300D01*
X196601Y33363D01*
X196651Y33423D01*
X196703Y33481D01*
X196758Y33537D01*
X196816Y33589D01*
X196877Y33639D01*
X196939Y33686D01*
X197004Y33730D01*
X197071Y33771D01*
X197139Y33809D01*
X197210Y33843D01*
X197282Y33874D01*
X197355Y33901D01*
X197430Y33925D01*
X197505Y33946D01*
X197582Y33962D01*
X197659Y33975D01*
X197737Y33985D01*
X197815Y33990D01*
X197893Y33992D01*
X197971Y33990D01*
X198049Y33985D01*
X198127Y33975D01*
X198204Y33962D01*
X198281Y33946D01*
X198356Y33925D01*
X198431Y33901D01*
X198504Y33874D01*
X198576Y33843D01*
X198647Y33809D01*
X198715Y33771D01*
X198782Y33730D01*
X198847Y33686D01*
X198909Y33639D01*
X198970Y33589D01*
X199028Y33537D01*
X199083Y33481D01*
X199135Y33423D01*
X199185Y33363D01*
X199232Y33300D01*
X199276Y33235D01*
X199316Y33168D01*
X199354Y33099D01*
X199388Y33029D01*
X199418Y32957D01*
X199445Y32883D01*
X199512Y32741D01*
X199576Y32597D01*
X199636Y32452D01*
X199693Y32306D01*
X199746Y32158D01*
X199796Y32009D01*
X199842Y31859D01*
X199884Y31708D01*
X199923Y31556D01*
X199959Y31403D01*
X199990Y31249D01*
X200018Y31094D01*
X200043Y30939D01*
X200063Y30783D01*
X200080Y30627D01*
X200093Y30471D01*
X200103Y30314D01*
X200108Y30157D01*
X200110Y30000D01*
X195675Y30000D02*
X195677Y29843D01*
X195682Y29686D01*
X195692Y29529D01*
X195705Y29373D01*
X195722Y29216D01*
X195742Y29061D01*
X195767Y28906D01*
X195795Y28751D01*
X195826Y28597D01*
X195862Y28444D01*
X195901Y28292D01*
X195943Y28141D01*
X195989Y27991D01*
X196039Y27842D01*
X196092Y27694D01*
X196149Y27547D01*
X196209Y27402D01*
X196273Y27259D01*
X196340Y27117D01*
X196341Y27117D02*
X196368Y27043D01*
X196398Y26971D01*
X196433Y26901D01*
X196470Y26832D01*
X196510Y26765D01*
X196554Y26700D01*
X196601Y26637D01*
X196651Y26577D01*
X196703Y26519D01*
X196758Y26463D01*
X196816Y26411D01*
X196877Y26361D01*
X196939Y26314D01*
X197004Y26270D01*
X197071Y26229D01*
X197139Y26191D01*
X197210Y26157D01*
X197282Y26126D01*
X197355Y26099D01*
X197430Y26075D01*
X197505Y26054D01*
X197582Y26038D01*
X197659Y26025D01*
X197737Y26015D01*
X197815Y26010D01*
X197893Y26008D01*
X199446Y27117D02*
X199513Y27259D01*
X199577Y27402D01*
X199637Y27547D01*
X199694Y27694D01*
X199747Y27842D01*
X199797Y27991D01*
X199843Y28141D01*
X199885Y28292D01*
X199924Y28444D01*
X199960Y28597D01*
X199991Y28751D01*
X200019Y28906D01*
X200044Y29061D01*
X200064Y29216D01*
X200081Y29373D01*
X200094Y29529D01*
X200104Y29686D01*
X200109Y29843D01*
X200111Y30000D01*
X199445Y27117D02*
X199418Y27043D01*
X199388Y26971D01*
X199353Y26901D01*
X199316Y26832D01*
X199276Y26765D01*
X199232Y26700D01*
X199185Y26637D01*
X199135Y26577D01*
X199083Y26519D01*
X199028Y26463D01*
X198970Y26411D01*
X198909Y26361D01*
X198847Y26314D01*
X198782Y26270D01*
X198715Y26229D01*
X198647Y26191D01*
X198576Y26157D01*
X198504Y26126D01*
X198431Y26099D01*
X198356Y26075D01*
X198281Y26054D01*
X198204Y26038D01*
X198127Y26025D01*
X198049Y26015D01*
X197971Y26010D01*
X197893Y26008D01*
X196118Y27782D02*
X199667Y32218D01*
X204890Y33992D02*
X204890Y26008D01*
X204890Y33992D02*
X207107Y33992D01*
X207200Y33990D01*
X207293Y33984D01*
X207385Y33975D01*
X207477Y33961D01*
X207568Y33944D01*
X207659Y33922D01*
X207748Y33897D01*
X207836Y33869D01*
X207924Y33836D01*
X208009Y33800D01*
X208093Y33761D01*
X208176Y33718D01*
X208256Y33671D01*
X208334Y33621D01*
X208411Y33568D01*
X208485Y33512D01*
X208556Y33453D01*
X208625Y33391D01*
X208692Y33326D01*
X208755Y33258D01*
X208816Y33188D01*
X208874Y33115D01*
X208928Y33040D01*
X208980Y32962D01*
X209028Y32883D01*
X209073Y32802D01*
X209114Y32718D01*
X209152Y32634D01*
X209186Y32547D01*
X209216Y32459D01*
X209243Y32370D01*
X209266Y32280D01*
X209286Y32190D01*
X209301Y32098D01*
X209313Y32006D01*
X209321Y31913D01*
X209325Y31820D01*
X209325Y31728D01*
X209321Y31635D01*
X209313Y31542D01*
X209301Y31450D01*
X209286Y31358D01*
X209266Y31268D01*
X209243Y31178D01*
X209216Y31089D01*
X209186Y31001D01*
X209152Y30914D01*
X209114Y30830D01*
X209073Y30746D01*
X209028Y30665D01*
X208980Y30586D01*
X208928Y30508D01*
X208874Y30433D01*
X208816Y30360D01*
X208755Y30290D01*
X208692Y30222D01*
X208625Y30157D01*
X208556Y30095D01*
X208485Y30036D01*
X208411Y29980D01*
X208334Y29927D01*
X208256Y29877D01*
X208176Y29830D01*
X208093Y29787D01*
X208009Y29748D01*
X207924Y29712D01*
X207836Y29679D01*
X207748Y29651D01*
X207659Y29626D01*
X207568Y29604D01*
X207477Y29587D01*
X207385Y29573D01*
X207293Y29564D01*
X207200Y29558D01*
X207107Y29556D01*
X204890Y29556D01*
X212131Y26008D02*
X214793Y33992D01*
X217454Y26008D01*
X216789Y28004D02*
X212797Y28004D01*
X220675Y32218D02*
X222893Y33992D01*
X222893Y26008D01*
X225110Y26008D02*
X220675Y26008D01*
X231140Y26008D02*
X231140Y33992D01*
X233357Y33992D01*
X233450Y33990D01*
X233543Y33984D01*
X233635Y33975D01*
X233727Y33961D01*
X233818Y33944D01*
X233909Y33922D01*
X233998Y33897D01*
X234086Y33869D01*
X234174Y33836D01*
X234259Y33800D01*
X234343Y33761D01*
X234426Y33718D01*
X234506Y33671D01*
X234584Y33621D01*
X234661Y33568D01*
X234735Y33512D01*
X234806Y33453D01*
X234875Y33391D01*
X234942Y33326D01*
X235005Y33258D01*
X235066Y33188D01*
X235124Y33115D01*
X235178Y33040D01*
X235230Y32962D01*
X235278Y32883D01*
X235323Y32802D01*
X235364Y32718D01*
X235402Y32634D01*
X235436Y32547D01*
X235466Y32459D01*
X235493Y32370D01*
X235516Y32280D01*
X235536Y32190D01*
X235551Y32098D01*
X235563Y32006D01*
X235571Y31913D01*
X235575Y31820D01*
X235575Y31728D01*
X235571Y31635D01*
X235563Y31542D01*
X235551Y31450D01*
X235536Y31358D01*
X235516Y31268D01*
X235493Y31178D01*
X235466Y31089D01*
X235436Y31001D01*
X235402Y30914D01*
X235364Y30830D01*
X235323Y30746D01*
X235278Y30665D01*
X235230Y30586D01*
X235178Y30508D01*
X235124Y30433D01*
X235066Y30360D01*
X235005Y30290D01*
X234942Y30222D01*
X234875Y30157D01*
X234806Y30095D01*
X234735Y30036D01*
X234661Y29980D01*
X234584Y29927D01*
X234506Y29877D01*
X234426Y29830D01*
X234343Y29787D01*
X234259Y29748D01*
X234174Y29712D01*
X234086Y29679D01*
X233998Y29651D01*
X233909Y29626D01*
X233818Y29604D01*
X233727Y29587D01*
X233635Y29573D01*
X233543Y29564D01*
X233450Y29558D01*
X233357Y29556D01*
X231140Y29556D01*
X238381Y26008D02*
X241043Y33992D01*
X243704Y26008D01*
X243039Y28004D02*
X239047Y28004D01*
X249364Y33992D02*
X249451Y33990D01*
X249538Y33984D01*
X249625Y33975D01*
X249711Y33962D01*
X249796Y33945D01*
X249881Y33924D01*
X249964Y33900D01*
X250047Y33872D01*
X250128Y33840D01*
X250208Y33805D01*
X250286Y33766D01*
X250362Y33725D01*
X250436Y33679D01*
X250509Y33631D01*
X250579Y33580D01*
X250647Y33525D01*
X250712Y33468D01*
X250775Y33407D01*
X250836Y33344D01*
X250893Y33279D01*
X250948Y33211D01*
X250999Y33141D01*
X251047Y33068D01*
X251093Y32994D01*
X251134Y32918D01*
X251173Y32840D01*
X251208Y32760D01*
X251240Y32679D01*
X251268Y32596D01*
X251292Y32513D01*
X251313Y32428D01*
X251330Y32343D01*
X251343Y32257D01*
X251352Y32170D01*
X251358Y32083D01*
X251360Y31996D01*
X249364Y33992D02*
X249266Y33990D01*
X249169Y33985D01*
X249072Y33975D01*
X248975Y33962D01*
X248878Y33946D01*
X248783Y33925D01*
X248688Y33901D01*
X248594Y33874D01*
X248502Y33843D01*
X248410Y33808D01*
X248320Y33770D01*
X248232Y33729D01*
X248145Y33684D01*
X248060Y33636D01*
X247977Y33584D01*
X247896Y33530D01*
X247817Y33472D01*
X247740Y33412D01*
X247665Y33349D01*
X247594Y33283D01*
X247524Y33214D01*
X247457Y33142D01*
X247394Y33069D01*
X247332Y32992D01*
X247274Y32914D01*
X247219Y32833D01*
X247167Y32750D01*
X247118Y32666D01*
X247073Y32579D01*
X247031Y32491D01*
X246992Y32401D01*
X246957Y32310D01*
X246925Y32218D01*
X250695Y30444D02*
X250759Y30508D01*
X250821Y30575D01*
X250881Y30645D01*
X250937Y30717D01*
X250990Y30791D01*
X251039Y30868D01*
X251086Y30947D01*
X251129Y31027D01*
X251168Y31110D01*
X251204Y31194D01*
X251237Y31279D01*
X251265Y31366D01*
X251290Y31454D01*
X251312Y31543D01*
X251329Y31632D01*
X251343Y31723D01*
X251352Y31813D01*
X251358Y31905D01*
X251360Y31996D01*
X250695Y30444D02*
X246925Y26008D01*
X251360Y26008D01*
X257390Y26008D02*
X257390Y33992D01*
X259607Y33992D01*
X259700Y33990D01*
X259793Y33984D01*
X259885Y33975D01*
X259977Y33961D01*
X260068Y33944D01*
X260159Y33922D01*
X260248Y33897D01*
X260336Y33869D01*
X260424Y33836D01*
X260509Y33800D01*
X260593Y33761D01*
X260676Y33718D01*
X260756Y33671D01*
X260834Y33621D01*
X260911Y33568D01*
X260985Y33512D01*
X261056Y33453D01*
X261125Y33391D01*
X261192Y33326D01*
X261255Y33258D01*
X261316Y33188D01*
X261374Y33115D01*
X261428Y33040D01*
X261480Y32962D01*
X261528Y32883D01*
X261573Y32802D01*
X261614Y32718D01*
X261652Y32634D01*
X261686Y32547D01*
X261716Y32459D01*
X261743Y32370D01*
X261766Y32280D01*
X261786Y32190D01*
X261801Y32098D01*
X261813Y32006D01*
X261821Y31913D01*
X261825Y31820D01*
X261825Y31728D01*
X261821Y31635D01*
X261813Y31542D01*
X261801Y31450D01*
X261786Y31358D01*
X261766Y31268D01*
X261743Y31178D01*
X261716Y31089D01*
X261686Y31001D01*
X261652Y30914D01*
X261614Y30830D01*
X261573Y30746D01*
X261528Y30665D01*
X261480Y30586D01*
X261428Y30508D01*
X261374Y30433D01*
X261316Y30360D01*
X261255Y30290D01*
X261192Y30222D01*
X261125Y30157D01*
X261056Y30095D01*
X260985Y30036D01*
X260911Y29980D01*
X260834Y29927D01*
X260756Y29877D01*
X260676Y29830D01*
X260593Y29787D01*
X260509Y29748D01*
X260424Y29712D01*
X260336Y29679D01*
X260248Y29651D01*
X260159Y29626D01*
X260068Y29604D01*
X259977Y29587D01*
X259885Y29573D01*
X259793Y29564D01*
X259700Y29558D01*
X259607Y29556D01*
X257390Y29556D01*
X264631Y26008D02*
X267293Y33992D01*
X269954Y26008D01*
X269289Y28004D02*
X265297Y28004D01*
X273175Y26008D02*
X275393Y26008D01*
X275486Y26010D01*
X275579Y26016D01*
X275671Y26025D01*
X275763Y26039D01*
X275854Y26056D01*
X275945Y26078D01*
X276034Y26103D01*
X276122Y26131D01*
X276210Y26164D01*
X276295Y26200D01*
X276379Y26239D01*
X276462Y26282D01*
X276542Y26329D01*
X276620Y26379D01*
X276697Y26432D01*
X276771Y26488D01*
X276842Y26547D01*
X276911Y26609D01*
X276978Y26674D01*
X277041Y26742D01*
X277102Y26812D01*
X277160Y26885D01*
X277214Y26960D01*
X277266Y27038D01*
X277314Y27117D01*
X277359Y27198D01*
X277400Y27282D01*
X277438Y27366D01*
X277472Y27453D01*
X277502Y27541D01*
X277529Y27630D01*
X277552Y27720D01*
X277572Y27810D01*
X277587Y27902D01*
X277599Y27994D01*
X277607Y28087D01*
X277611Y28180D01*
X277611Y28272D01*
X277607Y28365D01*
X277599Y28458D01*
X277587Y28550D01*
X277572Y28642D01*
X277552Y28732D01*
X277529Y28822D01*
X277502Y28911D01*
X277472Y28999D01*
X277438Y29086D01*
X277400Y29170D01*
X277359Y29254D01*
X277314Y29335D01*
X277266Y29414D01*
X277214Y29492D01*
X277160Y29567D01*
X277102Y29640D01*
X277041Y29710D01*
X276978Y29778D01*
X276911Y29843D01*
X276842Y29905D01*
X276771Y29964D01*
X276697Y30020D01*
X276620Y30073D01*
X276542Y30123D01*
X276462Y30170D01*
X276379Y30213D01*
X276295Y30252D01*
X276210Y30288D01*
X276122Y30321D01*
X276034Y30349D01*
X275945Y30374D01*
X275854Y30396D01*
X275763Y30413D01*
X275671Y30427D01*
X275579Y30436D01*
X275486Y30442D01*
X275393Y30444D01*
X275836Y33992D02*
X273175Y33992D01*
X275836Y33992D02*
X275919Y33990D01*
X276002Y33984D01*
X276085Y33974D01*
X276167Y33961D01*
X276248Y33943D01*
X276329Y33922D01*
X276408Y33897D01*
X276486Y33869D01*
X276563Y33836D01*
X276638Y33801D01*
X276711Y33761D01*
X276782Y33719D01*
X276852Y33672D01*
X276919Y33623D01*
X276983Y33571D01*
X277046Y33516D01*
X277105Y33458D01*
X277162Y33397D01*
X277216Y33333D01*
X277266Y33267D01*
X277314Y33199D01*
X277358Y33129D01*
X277399Y33057D01*
X277437Y32982D01*
X277471Y32906D01*
X277501Y32829D01*
X277528Y32750D01*
X277551Y32670D01*
X277571Y32590D01*
X277586Y32508D01*
X277598Y32425D01*
X277606Y32343D01*
X277610Y32260D01*
X277610Y32176D01*
X277606Y32093D01*
X277598Y32011D01*
X277586Y31928D01*
X277571Y31846D01*
X277551Y31766D01*
X277528Y31686D01*
X277501Y31607D01*
X277471Y31530D01*
X277437Y31454D01*
X277399Y31379D01*
X277358Y31307D01*
X277314Y31237D01*
X277266Y31169D01*
X277216Y31103D01*
X277162Y31039D01*
X277105Y30978D01*
X277046Y30920D01*
X276983Y30865D01*
X276919Y30813D01*
X276852Y30764D01*
X276782Y30717D01*
X276711Y30675D01*
X276638Y30635D01*
X276563Y30600D01*
X276486Y30567D01*
X276408Y30539D01*
X276329Y30514D01*
X276248Y30493D01*
X276167Y30475D01*
X276085Y30462D01*
X276002Y30452D01*
X275919Y30446D01*
X275836Y30444D01*
X274062Y30444D01*
X282390Y33992D02*
X282390Y26008D01*
X282390Y33992D02*
X284607Y33992D01*
X284700Y33990D01*
X284793Y33984D01*
X284885Y33975D01*
X284977Y33961D01*
X285068Y33944D01*
X285159Y33922D01*
X285248Y33897D01*
X285336Y33869D01*
X285424Y33836D01*
X285509Y33800D01*
X285593Y33761D01*
X285676Y33718D01*
X285756Y33671D01*
X285834Y33621D01*
X285911Y33568D01*
X285985Y33512D01*
X286056Y33453D01*
X286125Y33391D01*
X286192Y33326D01*
X286255Y33258D01*
X286316Y33188D01*
X286374Y33115D01*
X286428Y33040D01*
X286480Y32962D01*
X286528Y32883D01*
X286573Y32802D01*
X286614Y32718D01*
X286652Y32634D01*
X286686Y32547D01*
X286716Y32459D01*
X286743Y32370D01*
X286766Y32280D01*
X286786Y32190D01*
X286801Y32098D01*
X286813Y32006D01*
X286821Y31913D01*
X286825Y31820D01*
X286825Y31728D01*
X286821Y31635D01*
X286813Y31542D01*
X286801Y31450D01*
X286786Y31358D01*
X286766Y31268D01*
X286743Y31178D01*
X286716Y31089D01*
X286686Y31001D01*
X286652Y30914D01*
X286614Y30830D01*
X286573Y30746D01*
X286528Y30665D01*
X286480Y30586D01*
X286428Y30508D01*
X286374Y30433D01*
X286316Y30360D01*
X286255Y30290D01*
X286192Y30222D01*
X286125Y30157D01*
X286056Y30095D01*
X285985Y30036D01*
X285911Y29980D01*
X285834Y29927D01*
X285756Y29877D01*
X285676Y29830D01*
X285593Y29787D01*
X285509Y29748D01*
X285424Y29712D01*
X285336Y29679D01*
X285248Y29651D01*
X285159Y29626D01*
X285068Y29604D01*
X284977Y29587D01*
X284885Y29573D01*
X284793Y29564D01*
X284700Y29558D01*
X284607Y29556D01*
X282390Y29556D01*
X289631Y26008D02*
X292293Y33992D01*
X294954Y26008D01*
X294289Y28004D02*
X290297Y28004D01*
X298175Y27782D02*
X299949Y33992D01*
X298175Y27782D02*
X302610Y27782D01*
X301280Y29556D02*
X301280Y26008D01*
X308640Y26008D02*
X308640Y33992D01*
X310857Y33992D01*
X310950Y33990D01*
X311043Y33984D01*
X311135Y33975D01*
X311227Y33961D01*
X311318Y33944D01*
X311409Y33922D01*
X311498Y33897D01*
X311586Y33869D01*
X311674Y33836D01*
X311759Y33800D01*
X311843Y33761D01*
X311926Y33718D01*
X312006Y33671D01*
X312084Y33621D01*
X312161Y33568D01*
X312235Y33512D01*
X312306Y33453D01*
X312375Y33391D01*
X312442Y33326D01*
X312505Y33258D01*
X312566Y33188D01*
X312624Y33115D01*
X312678Y33040D01*
X312730Y32962D01*
X312778Y32883D01*
X312823Y32802D01*
X312864Y32718D01*
X312902Y32634D01*
X312936Y32547D01*
X312966Y32459D01*
X312993Y32370D01*
X313016Y32280D01*
X313036Y32190D01*
X313051Y32098D01*
X313063Y32006D01*
X313071Y31913D01*
X313075Y31820D01*
X313075Y31728D01*
X313071Y31635D01*
X313063Y31542D01*
X313051Y31450D01*
X313036Y31358D01*
X313016Y31268D01*
X312993Y31178D01*
X312966Y31089D01*
X312936Y31001D01*
X312902Y30914D01*
X312864Y30830D01*
X312823Y30746D01*
X312778Y30665D01*
X312730Y30586D01*
X312678Y30508D01*
X312624Y30433D01*
X312566Y30360D01*
X312505Y30290D01*
X312442Y30222D01*
X312375Y30157D01*
X312306Y30095D01*
X312235Y30036D01*
X312161Y29980D01*
X312084Y29927D01*
X312006Y29877D01*
X311926Y29830D01*
X311843Y29787D01*
X311759Y29748D01*
X311674Y29712D01*
X311586Y29679D01*
X311498Y29651D01*
X311409Y29626D01*
X311318Y29604D01*
X311227Y29587D01*
X311135Y29573D01*
X311043Y29564D01*
X310950Y29558D01*
X310857Y29556D01*
X308640Y29556D01*
X315881Y26008D02*
X318543Y33992D01*
X321204Y26008D01*
X320539Y28004D02*
X316547Y28004D01*
X324425Y26008D02*
X327086Y26008D01*
X327168Y26010D01*
X327250Y26016D01*
X327331Y26025D01*
X327412Y26038D01*
X327492Y26055D01*
X327571Y26076D01*
X327650Y26100D01*
X327727Y26128D01*
X327803Y26159D01*
X327877Y26194D01*
X327949Y26232D01*
X328020Y26274D01*
X328089Y26318D01*
X328155Y26366D01*
X328219Y26417D01*
X328281Y26471D01*
X328340Y26528D01*
X328397Y26587D01*
X328451Y26649D01*
X328502Y26713D01*
X328550Y26779D01*
X328594Y26848D01*
X328636Y26919D01*
X328674Y26991D01*
X328709Y27065D01*
X328740Y27141D01*
X328768Y27218D01*
X328792Y27297D01*
X328813Y27376D01*
X328830Y27456D01*
X328843Y27537D01*
X328852Y27618D01*
X328858Y27700D01*
X328860Y27782D01*
X328860Y28669D01*
X328858Y28751D01*
X328852Y28833D01*
X328843Y28914D01*
X328830Y28995D01*
X328813Y29075D01*
X328792Y29154D01*
X328768Y29233D01*
X328740Y29310D01*
X328709Y29386D01*
X328674Y29460D01*
X328636Y29532D01*
X328594Y29603D01*
X328550Y29672D01*
X328502Y29738D01*
X328451Y29802D01*
X328397Y29864D01*
X328340Y29923D01*
X328281Y29980D01*
X328219Y30034D01*
X328155Y30085D01*
X328089Y30133D01*
X328020Y30177D01*
X327949Y30219D01*
X327877Y30257D01*
X327803Y30292D01*
X327727Y30323D01*
X327650Y30351D01*
X327571Y30375D01*
X327492Y30396D01*
X327412Y30413D01*
X327331Y30426D01*
X327250Y30435D01*
X327168Y30441D01*
X327086Y30443D01*
X327086Y30444D02*
X324425Y30444D01*
X324425Y33992D01*
X328860Y33992D01*
X334890Y33992D02*
X334890Y26008D01*
X334890Y33992D02*
X337107Y33992D01*
X337200Y33990D01*
X337293Y33984D01*
X337385Y33975D01*
X337477Y33961D01*
X337568Y33944D01*
X337659Y33922D01*
X337748Y33897D01*
X337836Y33869D01*
X337924Y33836D01*
X338009Y33800D01*
X338093Y33761D01*
X338176Y33718D01*
X338256Y33671D01*
X338334Y33621D01*
X338411Y33568D01*
X338485Y33512D01*
X338556Y33453D01*
X338625Y33391D01*
X338692Y33326D01*
X338755Y33258D01*
X338816Y33188D01*
X338874Y33115D01*
X338928Y33040D01*
X338980Y32962D01*
X339028Y32883D01*
X339073Y32802D01*
X339114Y32718D01*
X339152Y32634D01*
X339186Y32547D01*
X339216Y32459D01*
X339243Y32370D01*
X339266Y32280D01*
X339286Y32190D01*
X339301Y32098D01*
X339313Y32006D01*
X339321Y31913D01*
X339325Y31820D01*
X339325Y31728D01*
X339321Y31635D01*
X339313Y31542D01*
X339301Y31450D01*
X339286Y31358D01*
X339266Y31268D01*
X339243Y31178D01*
X339216Y31089D01*
X339186Y31001D01*
X339152Y30914D01*
X339114Y30830D01*
X339073Y30746D01*
X339028Y30665D01*
X338980Y30586D01*
X338928Y30508D01*
X338874Y30433D01*
X338816Y30360D01*
X338755Y30290D01*
X338692Y30222D01*
X338625Y30157D01*
X338556Y30095D01*
X338485Y30036D01*
X338411Y29980D01*
X338334Y29927D01*
X338256Y29877D01*
X338176Y29830D01*
X338093Y29787D01*
X338009Y29748D01*
X337924Y29712D01*
X337836Y29679D01*
X337748Y29651D01*
X337659Y29626D01*
X337568Y29604D01*
X337477Y29587D01*
X337385Y29573D01*
X337293Y29564D01*
X337200Y29558D01*
X337107Y29556D01*
X334890Y29556D01*
X342131Y26008D02*
X344793Y33992D01*
X347454Y26008D01*
X346789Y28004D02*
X342797Y28004D01*
X350675Y30444D02*
X353336Y30444D01*
X353336Y30443D02*
X353418Y30441D01*
X353500Y30435D01*
X353581Y30426D01*
X353662Y30413D01*
X353742Y30396D01*
X353821Y30375D01*
X353900Y30351D01*
X353977Y30323D01*
X354053Y30292D01*
X354127Y30257D01*
X354199Y30219D01*
X354270Y30177D01*
X354339Y30133D01*
X354405Y30085D01*
X354469Y30034D01*
X354531Y29980D01*
X354590Y29923D01*
X354647Y29864D01*
X354701Y29802D01*
X354752Y29738D01*
X354800Y29672D01*
X354844Y29603D01*
X354886Y29532D01*
X354924Y29460D01*
X354959Y29386D01*
X354990Y29310D01*
X355018Y29233D01*
X355042Y29154D01*
X355063Y29075D01*
X355080Y28995D01*
X355093Y28914D01*
X355102Y28833D01*
X355108Y28751D01*
X355110Y28669D01*
X355110Y28226D01*
X355111Y28226D02*
X355109Y28133D01*
X355103Y28040D01*
X355094Y27948D01*
X355080Y27856D01*
X355063Y27765D01*
X355041Y27674D01*
X355016Y27585D01*
X354988Y27497D01*
X354955Y27409D01*
X354919Y27324D01*
X354880Y27240D01*
X354837Y27157D01*
X354790Y27077D01*
X354740Y26999D01*
X354687Y26922D01*
X354631Y26848D01*
X354572Y26777D01*
X354510Y26708D01*
X354445Y26641D01*
X354377Y26578D01*
X354307Y26517D01*
X354234Y26459D01*
X354159Y26405D01*
X354081Y26353D01*
X354002Y26305D01*
X353921Y26260D01*
X353837Y26219D01*
X353753Y26181D01*
X353666Y26147D01*
X353578Y26117D01*
X353489Y26090D01*
X353399Y26067D01*
X353309Y26047D01*
X353217Y26032D01*
X353125Y26020D01*
X353032Y26012D01*
X352939Y26008D01*
X352847Y26008D01*
X352754Y26012D01*
X352661Y26020D01*
X352569Y26032D01*
X352477Y26047D01*
X352387Y26067D01*
X352297Y26090D01*
X352208Y26117D01*
X352120Y26147D01*
X352033Y26181D01*
X351949Y26219D01*
X351865Y26260D01*
X351784Y26305D01*
X351705Y26353D01*
X351627Y26405D01*
X351552Y26459D01*
X351479Y26517D01*
X351409Y26578D01*
X351341Y26641D01*
X351276Y26708D01*
X351214Y26777D01*
X351155Y26848D01*
X351099Y26922D01*
X351046Y26999D01*
X350996Y27077D01*
X350949Y27157D01*
X350906Y27240D01*
X350867Y27324D01*
X350831Y27409D01*
X350798Y27497D01*
X350770Y27585D01*
X350745Y27674D01*
X350723Y27765D01*
X350706Y27856D01*
X350692Y27948D01*
X350683Y28040D01*
X350677Y28133D01*
X350675Y28226D01*
X350675Y30444D01*
X350677Y30563D01*
X350683Y30681D01*
X350693Y30799D01*
X350707Y30917D01*
X350724Y31034D01*
X350746Y31151D01*
X350772Y31266D01*
X350801Y31381D01*
X350834Y31495D01*
X350871Y31608D01*
X350912Y31719D01*
X350957Y31829D01*
X351005Y31937D01*
X351056Y32044D01*
X351112Y32149D01*
X351170Y32252D01*
X351232Y32353D01*
X351298Y32452D01*
X351367Y32549D01*
X351439Y32643D01*
X351514Y32735D01*
X351592Y32824D01*
X351673Y32911D01*
X351756Y32994D01*
X351843Y33075D01*
X351932Y33153D01*
X352024Y33228D01*
X352118Y33300D01*
X352215Y33369D01*
X352314Y33435D01*
X352415Y33497D01*
X352518Y33555D01*
X352623Y33611D01*
X352730Y33662D01*
X352838Y33710D01*
X352948Y33755D01*
X353059Y33796D01*
X353172Y33833D01*
X353286Y33866D01*
X353400Y33895D01*
X353516Y33921D01*
X353633Y33943D01*
X353750Y33960D01*
X353868Y33974D01*
X353986Y33984D01*
X354104Y33990D01*
X354223Y33992D01*
X359890Y33992D02*
X359890Y26008D01*
X359890Y33992D02*
X362107Y33992D01*
X362200Y33990D01*
X362293Y33984D01*
X362385Y33975D01*
X362477Y33961D01*
X362568Y33944D01*
X362659Y33922D01*
X362748Y33897D01*
X362836Y33869D01*
X362924Y33836D01*
X363009Y33800D01*
X363093Y33761D01*
X363176Y33718D01*
X363256Y33671D01*
X363334Y33621D01*
X363411Y33568D01*
X363485Y33512D01*
X363556Y33453D01*
X363625Y33391D01*
X363692Y33326D01*
X363755Y33258D01*
X363816Y33188D01*
X363874Y33115D01*
X363928Y33040D01*
X363980Y32962D01*
X364028Y32883D01*
X364073Y32802D01*
X364114Y32718D01*
X364152Y32634D01*
X364186Y32547D01*
X364216Y32459D01*
X364243Y32370D01*
X364266Y32280D01*
X364286Y32190D01*
X364301Y32098D01*
X364313Y32006D01*
X364321Y31913D01*
X364325Y31820D01*
X364325Y31728D01*
X364321Y31635D01*
X364313Y31542D01*
X364301Y31450D01*
X364286Y31358D01*
X364266Y31268D01*
X364243Y31178D01*
X364216Y31089D01*
X364186Y31001D01*
X364152Y30914D01*
X364114Y30830D01*
X364073Y30746D01*
X364028Y30665D01*
X363980Y30586D01*
X363928Y30508D01*
X363874Y30433D01*
X363816Y30360D01*
X363755Y30290D01*
X363692Y30222D01*
X363625Y30157D01*
X363556Y30095D01*
X363485Y30036D01*
X363411Y29980D01*
X363334Y29927D01*
X363256Y29877D01*
X363176Y29830D01*
X363093Y29787D01*
X363009Y29748D01*
X362924Y29712D01*
X362836Y29679D01*
X362748Y29651D01*
X362659Y29626D01*
X362568Y29604D01*
X362477Y29587D01*
X362385Y29573D01*
X362293Y29564D01*
X362200Y29558D01*
X362107Y29556D01*
X359890Y29556D01*
X367131Y26008D02*
X369793Y33992D01*
X372454Y26008D01*
X371789Y28004D02*
X367797Y28004D01*
X375675Y33105D02*
X375675Y33992D01*
X380110Y33992D01*
X377893Y26008D01*
X384890Y26008D02*
X384890Y33992D01*
X387107Y33992D01*
X387200Y33990D01*
X387293Y33984D01*
X387385Y33975D01*
X387477Y33961D01*
X387568Y33944D01*
X387659Y33922D01*
X387748Y33897D01*
X387836Y33869D01*
X387924Y33836D01*
X388009Y33800D01*
X388093Y33761D01*
X388176Y33718D01*
X388256Y33671D01*
X388334Y33621D01*
X388411Y33568D01*
X388485Y33512D01*
X388556Y33453D01*
X388625Y33391D01*
X388692Y33326D01*
X388755Y33258D01*
X388816Y33188D01*
X388874Y33115D01*
X388928Y33040D01*
X388980Y32962D01*
X389028Y32883D01*
X389073Y32802D01*
X389114Y32718D01*
X389152Y32634D01*
X389186Y32547D01*
X389216Y32459D01*
X389243Y32370D01*
X389266Y32280D01*
X389286Y32190D01*
X389301Y32098D01*
X389313Y32006D01*
X389321Y31913D01*
X389325Y31820D01*
X389325Y31728D01*
X389321Y31635D01*
X389313Y31542D01*
X389301Y31450D01*
X389286Y31358D01*
X389266Y31268D01*
X389243Y31178D01*
X389216Y31089D01*
X389186Y31001D01*
X389152Y30914D01*
X389114Y30830D01*
X389073Y30746D01*
X389028Y30665D01*
X388980Y30586D01*
X388928Y30508D01*
X388874Y30433D01*
X388816Y30360D01*
X388755Y30290D01*
X388692Y30222D01*
X388625Y30157D01*
X388556Y30095D01*
X388485Y30036D01*
X388411Y29980D01*
X388334Y29927D01*
X388256Y29877D01*
X388176Y29830D01*
X388093Y29787D01*
X388009Y29748D01*
X387924Y29712D01*
X387836Y29679D01*
X387748Y29651D01*
X387659Y29626D01*
X387568Y29604D01*
X387477Y29587D01*
X387385Y29573D01*
X387293Y29564D01*
X387200Y29558D01*
X387107Y29556D01*
X384890Y29556D01*
X392990Y30444D02*
X395207Y30444D01*
X395300Y30442D01*
X395393Y30436D01*
X395485Y30427D01*
X395577Y30413D01*
X395668Y30396D01*
X395759Y30374D01*
X395848Y30349D01*
X395936Y30321D01*
X396024Y30288D01*
X396109Y30252D01*
X396193Y30213D01*
X396276Y30170D01*
X396356Y30123D01*
X396434Y30073D01*
X396511Y30020D01*
X396585Y29964D01*
X396656Y29905D01*
X396725Y29843D01*
X396792Y29778D01*
X396855Y29710D01*
X396916Y29640D01*
X396974Y29567D01*
X397028Y29492D01*
X397080Y29414D01*
X397128Y29335D01*
X397173Y29254D01*
X397214Y29170D01*
X397252Y29086D01*
X397286Y28999D01*
X397316Y28911D01*
X397343Y28822D01*
X397366Y28732D01*
X397386Y28642D01*
X397401Y28550D01*
X397413Y28458D01*
X397421Y28365D01*
X397425Y28272D01*
X397425Y28180D01*
X397421Y28087D01*
X397413Y27994D01*
X397401Y27902D01*
X397386Y27810D01*
X397366Y27720D01*
X397343Y27630D01*
X397316Y27541D01*
X397286Y27453D01*
X397252Y27366D01*
X397214Y27282D01*
X397173Y27198D01*
X397128Y27117D01*
X397080Y27038D01*
X397028Y26960D01*
X396974Y26885D01*
X396916Y26812D01*
X396855Y26742D01*
X396792Y26674D01*
X396725Y26609D01*
X396656Y26547D01*
X396585Y26488D01*
X396511Y26432D01*
X396434Y26379D01*
X396356Y26329D01*
X396276Y26282D01*
X396193Y26239D01*
X396109Y26200D01*
X396024Y26164D01*
X395936Y26131D01*
X395848Y26103D01*
X395759Y26078D01*
X395668Y26056D01*
X395577Y26039D01*
X395485Y26025D01*
X395393Y26016D01*
X395300Y26010D01*
X395207Y26008D01*
X392990Y26008D01*
X392990Y33992D01*
X395207Y33992D01*
X395290Y33990D01*
X395373Y33984D01*
X395456Y33974D01*
X395538Y33961D01*
X395619Y33943D01*
X395700Y33922D01*
X395779Y33897D01*
X395857Y33869D01*
X395934Y33836D01*
X396009Y33801D01*
X396082Y33761D01*
X396153Y33719D01*
X396223Y33672D01*
X396290Y33623D01*
X396354Y33571D01*
X396417Y33516D01*
X396476Y33458D01*
X396533Y33397D01*
X396587Y33333D01*
X396637Y33267D01*
X396685Y33199D01*
X396729Y33129D01*
X396770Y33057D01*
X396808Y32982D01*
X396842Y32906D01*
X396872Y32829D01*
X396899Y32750D01*
X396922Y32670D01*
X396942Y32590D01*
X396957Y32508D01*
X396969Y32425D01*
X396977Y32343D01*
X396981Y32260D01*
X396981Y32176D01*
X396977Y32093D01*
X396969Y32011D01*
X396957Y31928D01*
X396942Y31846D01*
X396922Y31766D01*
X396899Y31686D01*
X396872Y31607D01*
X396842Y31530D01*
X396808Y31454D01*
X396770Y31379D01*
X396729Y31307D01*
X396685Y31237D01*
X396637Y31169D01*
X396587Y31103D01*
X396533Y31039D01*
X396476Y30978D01*
X396417Y30920D01*
X396354Y30865D01*
X396290Y30813D01*
X396223Y30764D01*
X396153Y30717D01*
X396082Y30675D01*
X396009Y30635D01*
X395934Y30600D01*
X395857Y30567D01*
X395779Y30539D01*
X395700Y30514D01*
X395619Y30493D01*
X395538Y30475D01*
X395456Y30462D01*
X395373Y30452D01*
X395290Y30446D01*
X395207Y30444D01*
X400675Y30000D02*
X400677Y30157D01*
X400682Y30314D01*
X400692Y30471D01*
X400705Y30627D01*
X400722Y30783D01*
X400742Y30939D01*
X400767Y31094D01*
X400795Y31249D01*
X400826Y31403D01*
X400862Y31556D01*
X400901Y31708D01*
X400943Y31859D01*
X400989Y32009D01*
X401039Y32158D01*
X401092Y32306D01*
X401149Y32452D01*
X401209Y32597D01*
X401273Y32741D01*
X401340Y32883D01*
X401341Y32883D02*
X401368Y32957D01*
X401398Y33029D01*
X401432Y33099D01*
X401470Y33168D01*
X401510Y33235D01*
X401554Y33300D01*
X401601Y33363D01*
X401651Y33423D01*
X401703Y33481D01*
X401758Y33537D01*
X401816Y33589D01*
X401877Y33639D01*
X401939Y33686D01*
X402004Y33730D01*
X402071Y33771D01*
X402139Y33809D01*
X402210Y33843D01*
X402282Y33874D01*
X402355Y33901D01*
X402430Y33925D01*
X402505Y33946D01*
X402582Y33962D01*
X402659Y33975D01*
X402737Y33985D01*
X402815Y33990D01*
X402893Y33992D01*
X402971Y33990D01*
X403049Y33985D01*
X403127Y33975D01*
X403204Y33962D01*
X403281Y33946D01*
X403356Y33925D01*
X403431Y33901D01*
X403504Y33874D01*
X403576Y33843D01*
X403647Y33809D01*
X403715Y33771D01*
X403782Y33730D01*
X403847Y33686D01*
X403909Y33639D01*
X403970Y33589D01*
X404028Y33537D01*
X404083Y33481D01*
X404135Y33423D01*
X404185Y33363D01*
X404232Y33300D01*
X404276Y33235D01*
X404316Y33168D01*
X404354Y33099D01*
X404388Y33029D01*
X404418Y32957D01*
X404445Y32883D01*
X404512Y32741D01*
X404576Y32597D01*
X404636Y32452D01*
X404693Y32306D01*
X404746Y32158D01*
X404796Y32009D01*
X404842Y31859D01*
X404884Y31708D01*
X404923Y31556D01*
X404959Y31403D01*
X404990Y31249D01*
X405018Y31094D01*
X405043Y30939D01*
X405063Y30783D01*
X405080Y30627D01*
X405093Y30471D01*
X405103Y30314D01*
X405108Y30157D01*
X405110Y30000D01*
X400675Y30000D02*
X400677Y29843D01*
X400682Y29686D01*
X400692Y29529D01*
X400705Y29373D01*
X400722Y29216D01*
X400742Y29061D01*
X400767Y28906D01*
X400795Y28751D01*
X400826Y28597D01*
X400862Y28444D01*
X400901Y28292D01*
X400943Y28141D01*
X400989Y27991D01*
X401039Y27842D01*
X401092Y27694D01*
X401149Y27547D01*
X401209Y27402D01*
X401273Y27259D01*
X401340Y27117D01*
X401341Y27117D02*
X401368Y27043D01*
X401398Y26971D01*
X401433Y26901D01*
X401470Y26832D01*
X401510Y26765D01*
X401554Y26700D01*
X401601Y26637D01*
X401651Y26577D01*
X401703Y26519D01*
X401758Y26463D01*
X401816Y26411D01*
X401877Y26361D01*
X401939Y26314D01*
X402004Y26270D01*
X402071Y26229D01*
X402139Y26191D01*
X402210Y26157D01*
X402282Y26126D01*
X402355Y26099D01*
X402430Y26075D01*
X402505Y26054D01*
X402582Y26038D01*
X402659Y26025D01*
X402737Y26015D01*
X402815Y26010D01*
X402893Y26008D01*
X404446Y27117D02*
X404513Y27259D01*
X404577Y27402D01*
X404637Y27547D01*
X404694Y27694D01*
X404747Y27842D01*
X404797Y27991D01*
X404843Y28141D01*
X404885Y28292D01*
X404924Y28444D01*
X404960Y28597D01*
X404991Y28751D01*
X405019Y28906D01*
X405044Y29061D01*
X405064Y29216D01*
X405081Y29373D01*
X405094Y29529D01*
X405104Y29686D01*
X405109Y29843D01*
X405111Y30000D01*
X404445Y27117D02*
X404418Y27043D01*
X404388Y26971D01*
X404353Y26901D01*
X404316Y26832D01*
X404276Y26765D01*
X404232Y26700D01*
X404185Y26637D01*
X404135Y26577D01*
X404083Y26519D01*
X404028Y26463D01*
X403970Y26411D01*
X403909Y26361D01*
X403847Y26314D01*
X403782Y26270D01*
X403715Y26229D01*
X403647Y26191D01*
X403576Y26157D01*
X403504Y26126D01*
X403431Y26099D01*
X403356Y26075D01*
X403281Y26054D01*
X403204Y26038D01*
X403127Y26025D01*
X403049Y26015D01*
X402971Y26010D01*
X402893Y26008D01*
X401118Y27782D02*
X404667Y32218D01*
X409890Y33992D02*
X409890Y26008D01*
X409890Y33992D02*
X412107Y33992D01*
X412200Y33990D01*
X412293Y33984D01*
X412385Y33975D01*
X412477Y33961D01*
X412568Y33944D01*
X412659Y33922D01*
X412748Y33897D01*
X412836Y33869D01*
X412924Y33836D01*
X413009Y33800D01*
X413093Y33761D01*
X413176Y33718D01*
X413256Y33671D01*
X413334Y33621D01*
X413411Y33568D01*
X413485Y33512D01*
X413556Y33453D01*
X413625Y33391D01*
X413692Y33326D01*
X413755Y33258D01*
X413816Y33188D01*
X413874Y33115D01*
X413928Y33040D01*
X413980Y32962D01*
X414028Y32883D01*
X414073Y32802D01*
X414114Y32718D01*
X414152Y32634D01*
X414186Y32547D01*
X414216Y32459D01*
X414243Y32370D01*
X414266Y32280D01*
X414286Y32190D01*
X414301Y32098D01*
X414313Y32006D01*
X414321Y31913D01*
X414325Y31820D01*
X414325Y31728D01*
X414321Y31635D01*
X414313Y31542D01*
X414301Y31450D01*
X414286Y31358D01*
X414266Y31268D01*
X414243Y31178D01*
X414216Y31089D01*
X414186Y31001D01*
X414152Y30914D01*
X414114Y30830D01*
X414073Y30746D01*
X414028Y30665D01*
X413980Y30586D01*
X413928Y30508D01*
X413874Y30433D01*
X413816Y30360D01*
X413755Y30290D01*
X413692Y30222D01*
X413625Y30157D01*
X413556Y30095D01*
X413485Y30036D01*
X413411Y29980D01*
X413334Y29927D01*
X413256Y29877D01*
X413176Y29830D01*
X413093Y29787D01*
X413009Y29748D01*
X412924Y29712D01*
X412836Y29679D01*
X412748Y29651D01*
X412659Y29626D01*
X412568Y29604D01*
X412477Y29587D01*
X412385Y29573D01*
X412293Y29564D01*
X412200Y29558D01*
X412107Y29556D01*
X409890Y29556D01*
X417990Y30444D02*
X420207Y30444D01*
X420300Y30442D01*
X420393Y30436D01*
X420485Y30427D01*
X420577Y30413D01*
X420668Y30396D01*
X420759Y30374D01*
X420848Y30349D01*
X420936Y30321D01*
X421024Y30288D01*
X421109Y30252D01*
X421193Y30213D01*
X421276Y30170D01*
X421356Y30123D01*
X421434Y30073D01*
X421511Y30020D01*
X421585Y29964D01*
X421656Y29905D01*
X421725Y29843D01*
X421792Y29778D01*
X421855Y29710D01*
X421916Y29640D01*
X421974Y29567D01*
X422028Y29492D01*
X422080Y29414D01*
X422128Y29335D01*
X422173Y29254D01*
X422214Y29170D01*
X422252Y29086D01*
X422286Y28999D01*
X422316Y28911D01*
X422343Y28822D01*
X422366Y28732D01*
X422386Y28642D01*
X422401Y28550D01*
X422413Y28458D01*
X422421Y28365D01*
X422425Y28272D01*
X422425Y28180D01*
X422421Y28087D01*
X422413Y27994D01*
X422401Y27902D01*
X422386Y27810D01*
X422366Y27720D01*
X422343Y27630D01*
X422316Y27541D01*
X422286Y27453D01*
X422252Y27366D01*
X422214Y27282D01*
X422173Y27198D01*
X422128Y27117D01*
X422080Y27038D01*
X422028Y26960D01*
X421974Y26885D01*
X421916Y26812D01*
X421855Y26742D01*
X421792Y26674D01*
X421725Y26609D01*
X421656Y26547D01*
X421585Y26488D01*
X421511Y26432D01*
X421434Y26379D01*
X421356Y26329D01*
X421276Y26282D01*
X421193Y26239D01*
X421109Y26200D01*
X421024Y26164D01*
X420936Y26131D01*
X420848Y26103D01*
X420759Y26078D01*
X420668Y26056D01*
X420577Y26039D01*
X420485Y26025D01*
X420393Y26016D01*
X420300Y26010D01*
X420207Y26008D01*
X417990Y26008D01*
X417990Y33992D01*
X420207Y33992D01*
X420290Y33990D01*
X420373Y33984D01*
X420456Y33974D01*
X420538Y33961D01*
X420619Y33943D01*
X420700Y33922D01*
X420779Y33897D01*
X420857Y33869D01*
X420934Y33836D01*
X421009Y33801D01*
X421082Y33761D01*
X421153Y33719D01*
X421223Y33672D01*
X421290Y33623D01*
X421354Y33571D01*
X421417Y33516D01*
X421476Y33458D01*
X421533Y33397D01*
X421587Y33333D01*
X421637Y33267D01*
X421685Y33199D01*
X421729Y33129D01*
X421770Y33057D01*
X421808Y32982D01*
X421842Y32906D01*
X421872Y32829D01*
X421899Y32750D01*
X421922Y32670D01*
X421942Y32590D01*
X421957Y32508D01*
X421969Y32425D01*
X421977Y32343D01*
X421981Y32260D01*
X421981Y32176D01*
X421977Y32093D01*
X421969Y32011D01*
X421957Y31928D01*
X421942Y31846D01*
X421922Y31766D01*
X421899Y31686D01*
X421872Y31607D01*
X421842Y31530D01*
X421808Y31454D01*
X421770Y31379D01*
X421729Y31307D01*
X421685Y31237D01*
X421637Y31169D01*
X421587Y31103D01*
X421533Y31039D01*
X421476Y30978D01*
X421417Y30920D01*
X421354Y30865D01*
X421290Y30813D01*
X421223Y30764D01*
X421153Y30717D01*
X421082Y30675D01*
X421009Y30635D01*
X420934Y30600D01*
X420857Y30567D01*
X420779Y30539D01*
X420700Y30514D01*
X420619Y30493D01*
X420538Y30475D01*
X420456Y30462D01*
X420373Y30452D01*
X420290Y30446D01*
X420207Y30444D01*
X425675Y32218D02*
X427893Y33992D01*
X427893Y26008D01*
X430110Y26008D02*
X425675Y26008D01*
X434682Y26008D02*
X436900Y26008D01*
X436993Y26010D01*
X437086Y26016D01*
X437178Y26025D01*
X437270Y26039D01*
X437361Y26056D01*
X437452Y26078D01*
X437541Y26103D01*
X437629Y26131D01*
X437717Y26164D01*
X437802Y26200D01*
X437886Y26239D01*
X437969Y26282D01*
X438049Y26329D01*
X438127Y26379D01*
X438204Y26432D01*
X438278Y26488D01*
X438349Y26547D01*
X438418Y26609D01*
X438485Y26674D01*
X438548Y26742D01*
X438609Y26812D01*
X438667Y26885D01*
X438721Y26960D01*
X438773Y27038D01*
X438821Y27117D01*
X438866Y27198D01*
X438907Y27282D01*
X438945Y27366D01*
X438979Y27453D01*
X439009Y27541D01*
X439036Y27630D01*
X439059Y27720D01*
X439079Y27810D01*
X439094Y27902D01*
X439106Y27994D01*
X439114Y28087D01*
X439118Y28180D01*
X439118Y28272D01*
X439114Y28365D01*
X439106Y28458D01*
X439094Y28550D01*
X439079Y28642D01*
X439059Y28732D01*
X439036Y28822D01*
X439009Y28911D01*
X438979Y28999D01*
X438945Y29086D01*
X438907Y29170D01*
X438866Y29254D01*
X438821Y29335D01*
X438773Y29414D01*
X438721Y29492D01*
X438667Y29567D01*
X438609Y29640D01*
X438548Y29710D01*
X438485Y29778D01*
X438418Y29843D01*
X438349Y29905D01*
X438278Y29964D01*
X438204Y30020D01*
X438127Y30073D01*
X438049Y30123D01*
X437969Y30170D01*
X437886Y30213D01*
X437802Y30252D01*
X437717Y30288D01*
X437629Y30321D01*
X437541Y30349D01*
X437452Y30374D01*
X437361Y30396D01*
X437270Y30413D01*
X437178Y30427D01*
X437086Y30436D01*
X436993Y30442D01*
X436900Y30444D01*
X437344Y33992D02*
X434682Y33992D01*
X437344Y33992D02*
X437427Y33990D01*
X437510Y33984D01*
X437593Y33974D01*
X437675Y33961D01*
X437756Y33943D01*
X437837Y33922D01*
X437916Y33897D01*
X437994Y33869D01*
X438071Y33836D01*
X438146Y33801D01*
X438219Y33761D01*
X438290Y33719D01*
X438360Y33672D01*
X438427Y33623D01*
X438491Y33571D01*
X438554Y33516D01*
X438613Y33458D01*
X438670Y33397D01*
X438724Y33333D01*
X438774Y33267D01*
X438822Y33199D01*
X438866Y33129D01*
X438907Y33057D01*
X438945Y32982D01*
X438979Y32906D01*
X439009Y32829D01*
X439036Y32750D01*
X439059Y32670D01*
X439079Y32590D01*
X439094Y32508D01*
X439106Y32425D01*
X439114Y32343D01*
X439118Y32260D01*
X439118Y32176D01*
X439114Y32093D01*
X439106Y32011D01*
X439094Y31928D01*
X439079Y31846D01*
X439059Y31766D01*
X439036Y31686D01*
X439009Y31607D01*
X438979Y31530D01*
X438945Y31454D01*
X438907Y31379D01*
X438866Y31307D01*
X438822Y31237D01*
X438774Y31169D01*
X438724Y31103D01*
X438670Y31039D01*
X438613Y30978D01*
X438554Y30920D01*
X438491Y30865D01*
X438427Y30813D01*
X438360Y30764D01*
X438290Y30717D01*
X438219Y30675D01*
X438146Y30635D01*
X438071Y30600D01*
X437994Y30567D01*
X437916Y30539D01*
X437837Y30514D01*
X437756Y30493D01*
X437675Y30475D01*
X437593Y30462D01*
X437510Y30452D01*
X437427Y30446D01*
X437344Y30444D01*
X435569Y30444D01*
X442339Y33992D02*
X445000Y26008D01*
X447661Y33992D01*
X450882Y26008D02*
X453100Y26008D01*
X453193Y26010D01*
X453286Y26016D01*
X453378Y26025D01*
X453470Y26039D01*
X453561Y26056D01*
X453652Y26078D01*
X453741Y26103D01*
X453829Y26131D01*
X453917Y26164D01*
X454002Y26200D01*
X454086Y26239D01*
X454169Y26282D01*
X454249Y26329D01*
X454327Y26379D01*
X454404Y26432D01*
X454478Y26488D01*
X454549Y26547D01*
X454618Y26609D01*
X454685Y26674D01*
X454748Y26742D01*
X454809Y26812D01*
X454867Y26885D01*
X454921Y26960D01*
X454973Y27038D01*
X455021Y27117D01*
X455066Y27198D01*
X455107Y27282D01*
X455145Y27366D01*
X455179Y27453D01*
X455209Y27541D01*
X455236Y27630D01*
X455259Y27720D01*
X455279Y27810D01*
X455294Y27902D01*
X455306Y27994D01*
X455314Y28087D01*
X455318Y28180D01*
X455318Y28272D01*
X455314Y28365D01*
X455306Y28458D01*
X455294Y28550D01*
X455279Y28642D01*
X455259Y28732D01*
X455236Y28822D01*
X455209Y28911D01*
X455179Y28999D01*
X455145Y29086D01*
X455107Y29170D01*
X455066Y29254D01*
X455021Y29335D01*
X454973Y29414D01*
X454921Y29492D01*
X454867Y29567D01*
X454809Y29640D01*
X454748Y29710D01*
X454685Y29778D01*
X454618Y29843D01*
X454549Y29905D01*
X454478Y29964D01*
X454404Y30020D01*
X454327Y30073D01*
X454249Y30123D01*
X454169Y30170D01*
X454086Y30213D01*
X454002Y30252D01*
X453917Y30288D01*
X453829Y30321D01*
X453741Y30349D01*
X453652Y30374D01*
X453561Y30396D01*
X453470Y30413D01*
X453378Y30427D01*
X453286Y30436D01*
X453193Y30442D01*
X453100Y30444D01*
X453544Y33992D02*
X450882Y33992D01*
X453544Y33992D02*
X453627Y33990D01*
X453710Y33984D01*
X453793Y33974D01*
X453875Y33961D01*
X453956Y33943D01*
X454037Y33922D01*
X454116Y33897D01*
X454194Y33869D01*
X454271Y33836D01*
X454346Y33801D01*
X454419Y33761D01*
X454490Y33719D01*
X454560Y33672D01*
X454627Y33623D01*
X454691Y33571D01*
X454754Y33516D01*
X454813Y33458D01*
X454870Y33397D01*
X454924Y33333D01*
X454974Y33267D01*
X455022Y33199D01*
X455066Y33129D01*
X455107Y33057D01*
X455145Y32982D01*
X455179Y32906D01*
X455209Y32829D01*
X455236Y32750D01*
X455259Y32670D01*
X455279Y32590D01*
X455294Y32508D01*
X455306Y32425D01*
X455314Y32343D01*
X455318Y32260D01*
X455318Y32176D01*
X455314Y32093D01*
X455306Y32011D01*
X455294Y31928D01*
X455279Y31846D01*
X455259Y31766D01*
X455236Y31686D01*
X455209Y31607D01*
X455179Y31530D01*
X455145Y31454D01*
X455107Y31379D01*
X455066Y31307D01*
X455022Y31237D01*
X454974Y31169D01*
X454924Y31103D01*
X454870Y31039D01*
X454813Y30978D01*
X454754Y30920D01*
X454691Y30865D01*
X454627Y30813D01*
X454560Y30764D01*
X454490Y30717D01*
X454419Y30675D01*
X454346Y30635D01*
X454271Y30600D01*
X454194Y30567D01*
X454116Y30539D01*
X454037Y30514D01*
X453956Y30493D01*
X453875Y30475D01*
X453793Y30462D01*
X453710Y30452D01*
X453627Y30446D01*
X453544Y30444D01*
X451769Y30444D01*
X106127Y200444D02*
X103910Y200444D01*
X106127Y200444D02*
X106220Y200442D01*
X106313Y200436D01*
X106405Y200427D01*
X106497Y200413D01*
X106588Y200396D01*
X106679Y200374D01*
X106768Y200349D01*
X106856Y200321D01*
X106944Y200288D01*
X107029Y200252D01*
X107113Y200213D01*
X107196Y200170D01*
X107276Y200123D01*
X107354Y200073D01*
X107431Y200020D01*
X107505Y199964D01*
X107576Y199905D01*
X107645Y199843D01*
X107712Y199778D01*
X107775Y199710D01*
X107836Y199640D01*
X107894Y199567D01*
X107948Y199492D01*
X108000Y199414D01*
X108048Y199335D01*
X108093Y199254D01*
X108134Y199170D01*
X108172Y199086D01*
X108206Y198999D01*
X108236Y198911D01*
X108263Y198822D01*
X108286Y198732D01*
X108306Y198642D01*
X108321Y198550D01*
X108333Y198458D01*
X108341Y198365D01*
X108345Y198272D01*
X108345Y198180D01*
X108341Y198087D01*
X108333Y197994D01*
X108321Y197902D01*
X108306Y197810D01*
X108286Y197720D01*
X108263Y197630D01*
X108236Y197541D01*
X108206Y197453D01*
X108172Y197366D01*
X108134Y197282D01*
X108093Y197198D01*
X108048Y197117D01*
X108000Y197038D01*
X107948Y196960D01*
X107894Y196885D01*
X107836Y196812D01*
X107775Y196742D01*
X107712Y196674D01*
X107645Y196609D01*
X107576Y196547D01*
X107505Y196488D01*
X107431Y196432D01*
X107354Y196379D01*
X107276Y196329D01*
X107196Y196282D01*
X107113Y196239D01*
X107029Y196200D01*
X106944Y196164D01*
X106856Y196131D01*
X106768Y196103D01*
X106679Y196078D01*
X106588Y196056D01*
X106497Y196039D01*
X106405Y196025D01*
X106313Y196016D01*
X106220Y196010D01*
X106127Y196008D01*
X103910Y196008D01*
X103910Y203992D01*
X106127Y203992D01*
X106210Y203990D01*
X106293Y203984D01*
X106376Y203974D01*
X106458Y203961D01*
X106539Y203943D01*
X106620Y203922D01*
X106699Y203897D01*
X106777Y203869D01*
X106854Y203836D01*
X106929Y203801D01*
X107002Y203761D01*
X107073Y203719D01*
X107143Y203672D01*
X107210Y203623D01*
X107274Y203571D01*
X107337Y203516D01*
X107396Y203458D01*
X107453Y203397D01*
X107507Y203333D01*
X107557Y203267D01*
X107605Y203199D01*
X107649Y203129D01*
X107690Y203057D01*
X107728Y202982D01*
X107762Y202906D01*
X107792Y202829D01*
X107819Y202750D01*
X107842Y202670D01*
X107862Y202590D01*
X107877Y202508D01*
X107889Y202425D01*
X107897Y202343D01*
X107901Y202260D01*
X107901Y202176D01*
X107897Y202093D01*
X107889Y202011D01*
X107877Y201928D01*
X107862Y201846D01*
X107842Y201766D01*
X107819Y201686D01*
X107792Y201607D01*
X107762Y201530D01*
X107728Y201454D01*
X107690Y201379D01*
X107649Y201307D01*
X107605Y201237D01*
X107557Y201169D01*
X107507Y201103D01*
X107453Y201039D01*
X107396Y200978D01*
X107337Y200920D01*
X107274Y200865D01*
X107210Y200813D01*
X107143Y200764D01*
X107073Y200717D01*
X107002Y200675D01*
X106929Y200635D01*
X106854Y200600D01*
X106777Y200567D01*
X106699Y200539D01*
X106620Y200514D01*
X106539Y200493D01*
X106458Y200475D01*
X106376Y200462D01*
X106293Y200452D01*
X106210Y200446D01*
X106127Y200444D01*
X111151Y196008D02*
X113813Y203992D01*
X116474Y196008D01*
X115809Y198004D02*
X111817Y198004D01*
X121373Y196008D02*
X121373Y203992D01*
X123590Y203992D02*
X119155Y203992D01*
X130997Y200444D02*
X132328Y200444D01*
X132328Y196008D01*
X129667Y196008D01*
X129585Y196010D01*
X129503Y196016D01*
X129422Y196025D01*
X129341Y196038D01*
X129261Y196055D01*
X129182Y196076D01*
X129103Y196100D01*
X129026Y196128D01*
X128950Y196159D01*
X128876Y196194D01*
X128804Y196232D01*
X128733Y196274D01*
X128664Y196318D01*
X128598Y196366D01*
X128534Y196417D01*
X128472Y196471D01*
X128413Y196528D01*
X128356Y196587D01*
X128302Y196649D01*
X128251Y196713D01*
X128203Y196779D01*
X128159Y196848D01*
X128117Y196919D01*
X128079Y196991D01*
X128044Y197065D01*
X128013Y197141D01*
X127985Y197218D01*
X127961Y197297D01*
X127940Y197376D01*
X127923Y197456D01*
X127910Y197537D01*
X127901Y197618D01*
X127895Y197700D01*
X127893Y197782D01*
X127892Y197782D02*
X127892Y202218D01*
X127893Y202218D02*
X127895Y202300D01*
X127901Y202382D01*
X127910Y202463D01*
X127923Y202544D01*
X127940Y202624D01*
X127961Y202703D01*
X127985Y202782D01*
X128013Y202859D01*
X128044Y202935D01*
X128079Y203009D01*
X128117Y203081D01*
X128159Y203152D01*
X128203Y203221D01*
X128251Y203287D01*
X128302Y203351D01*
X128356Y203413D01*
X128413Y203472D01*
X128472Y203529D01*
X128534Y203583D01*
X128598Y203634D01*
X128664Y203682D01*
X128733Y203726D01*
X128804Y203768D01*
X128876Y203806D01*
X128950Y203841D01*
X129026Y203872D01*
X129103Y203900D01*
X129181Y203924D01*
X129261Y203945D01*
X129341Y203962D01*
X129422Y203975D01*
X129503Y203984D01*
X129585Y203990D01*
X129667Y203992D01*
X132328Y203992D01*
X136532Y203992D02*
X136532Y196008D01*
X140968Y196008D02*
X136532Y203992D01*
X140968Y203992D02*
X140968Y196008D01*
X145172Y196008D02*
X145172Y203992D01*
X147390Y203992D01*
X147482Y203990D01*
X147573Y203984D01*
X147664Y203975D01*
X147755Y203962D01*
X147845Y203945D01*
X147934Y203924D01*
X148023Y203900D01*
X148110Y203872D01*
X148196Y203840D01*
X148281Y203805D01*
X148364Y203767D01*
X148446Y203725D01*
X148525Y203679D01*
X148603Y203631D01*
X148679Y203579D01*
X148752Y203524D01*
X148823Y203467D01*
X148892Y203406D01*
X148958Y203342D01*
X149022Y203276D01*
X149083Y203207D01*
X149140Y203136D01*
X149195Y203063D01*
X149247Y202987D01*
X149295Y202909D01*
X149341Y202830D01*
X149383Y202748D01*
X149421Y202665D01*
X149456Y202580D01*
X149488Y202494D01*
X149516Y202407D01*
X149540Y202318D01*
X149561Y202229D01*
X149578Y202139D01*
X149591Y202048D01*
X149600Y201957D01*
X149606Y201866D01*
X149608Y201774D01*
X149608Y198226D01*
X149606Y198134D01*
X149600Y198043D01*
X149591Y197952D01*
X149578Y197861D01*
X149561Y197771D01*
X149540Y197682D01*
X149516Y197593D01*
X149488Y197506D01*
X149456Y197420D01*
X149421Y197335D01*
X149383Y197252D01*
X149341Y197170D01*
X149295Y197091D01*
X149247Y197013D01*
X149195Y196937D01*
X149140Y196864D01*
X149083Y196793D01*
X149022Y196724D01*
X148958Y196658D01*
X148892Y196594D01*
X148823Y196533D01*
X148752Y196476D01*
X148679Y196421D01*
X148603Y196369D01*
X148525Y196321D01*
X148446Y196275D01*
X148364Y196233D01*
X148281Y196195D01*
X148196Y196160D01*
X148110Y196128D01*
X148023Y196100D01*
X147934Y196076D01*
X147845Y196055D01*
X147755Y196038D01*
X147664Y196025D01*
X147573Y196016D01*
X147482Y196010D01*
X147390Y196008D01*
X145172Y196008D01*
X154004Y196008D02*
X154004Y203992D01*
X156221Y203992D01*
X156314Y203990D01*
X156407Y203984D01*
X156499Y203975D01*
X156591Y203961D01*
X156682Y203944D01*
X156773Y203922D01*
X156862Y203897D01*
X156950Y203869D01*
X157038Y203836D01*
X157123Y203800D01*
X157207Y203761D01*
X157290Y203718D01*
X157370Y203671D01*
X157448Y203621D01*
X157525Y203568D01*
X157599Y203512D01*
X157670Y203453D01*
X157739Y203391D01*
X157806Y203326D01*
X157869Y203258D01*
X157930Y203188D01*
X157988Y203115D01*
X158042Y203040D01*
X158094Y202962D01*
X158142Y202883D01*
X158187Y202802D01*
X158228Y202718D01*
X158266Y202634D01*
X158300Y202547D01*
X158330Y202459D01*
X158357Y202370D01*
X158380Y202280D01*
X158400Y202190D01*
X158415Y202098D01*
X158427Y202006D01*
X158435Y201913D01*
X158439Y201820D01*
X158439Y201728D01*
X158435Y201635D01*
X158427Y201542D01*
X158415Y201450D01*
X158400Y201358D01*
X158380Y201268D01*
X158357Y201178D01*
X158330Y201089D01*
X158300Y201001D01*
X158266Y200914D01*
X158228Y200830D01*
X158187Y200746D01*
X158142Y200665D01*
X158094Y200586D01*
X158042Y200508D01*
X157988Y200433D01*
X157930Y200360D01*
X157869Y200290D01*
X157806Y200222D01*
X157739Y200157D01*
X157670Y200095D01*
X157599Y200036D01*
X157525Y199980D01*
X157448Y199927D01*
X157370Y199877D01*
X157290Y199830D01*
X157207Y199787D01*
X157123Y199748D01*
X157038Y199712D01*
X156950Y199679D01*
X156862Y199651D01*
X156773Y199626D01*
X156682Y199604D01*
X156591Y199587D01*
X156499Y199573D01*
X156407Y199564D01*
X156314Y199558D01*
X156221Y199556D01*
X154004Y199556D01*
X156665Y199556D02*
X158439Y196008D01*
X164432Y196008D02*
X164514Y196010D01*
X164596Y196016D01*
X164677Y196025D01*
X164758Y196038D01*
X164838Y196055D01*
X164918Y196076D01*
X164996Y196100D01*
X165073Y196128D01*
X165149Y196159D01*
X165223Y196194D01*
X165295Y196232D01*
X165366Y196274D01*
X165435Y196318D01*
X165501Y196366D01*
X165565Y196417D01*
X165627Y196471D01*
X165686Y196528D01*
X165743Y196587D01*
X165797Y196649D01*
X165848Y196713D01*
X165896Y196779D01*
X165940Y196848D01*
X165982Y196919D01*
X166020Y196991D01*
X166055Y197065D01*
X166086Y197141D01*
X166114Y197218D01*
X166138Y197297D01*
X166159Y197376D01*
X166176Y197456D01*
X166189Y197537D01*
X166198Y197618D01*
X166204Y197700D01*
X166206Y197782D01*
X164432Y196008D02*
X164314Y196010D01*
X164195Y196015D01*
X164077Y196025D01*
X163960Y196038D01*
X163843Y196055D01*
X163726Y196075D01*
X163610Y196099D01*
X163495Y196127D01*
X163381Y196158D01*
X163268Y196193D01*
X163156Y196232D01*
X163045Y196274D01*
X162936Y196320D01*
X162828Y196368D01*
X162722Y196421D01*
X162618Y196476D01*
X162515Y196535D01*
X162414Y196598D01*
X162315Y196663D01*
X162219Y196731D01*
X162124Y196803D01*
X162032Y196877D01*
X161943Y196954D01*
X161855Y197034D01*
X161771Y197117D01*
X161993Y202218D02*
X161995Y202300D01*
X162001Y202382D01*
X162010Y202463D01*
X162023Y202544D01*
X162040Y202624D01*
X162061Y202703D01*
X162085Y202782D01*
X162113Y202859D01*
X162144Y202935D01*
X162179Y203009D01*
X162217Y203081D01*
X162259Y203152D01*
X162303Y203221D01*
X162351Y203287D01*
X162402Y203351D01*
X162456Y203413D01*
X162513Y203472D01*
X162572Y203529D01*
X162634Y203583D01*
X162698Y203634D01*
X162764Y203682D01*
X162833Y203726D01*
X162904Y203768D01*
X162976Y203806D01*
X163050Y203841D01*
X163126Y203872D01*
X163203Y203900D01*
X163282Y203924D01*
X163361Y203945D01*
X163441Y203962D01*
X163522Y203975D01*
X163603Y203984D01*
X163685Y203990D01*
X163767Y203992D01*
X163880Y203990D01*
X163992Y203984D01*
X164104Y203975D01*
X164216Y203962D01*
X164328Y203944D01*
X164438Y203924D01*
X164548Y203899D01*
X164657Y203871D01*
X164765Y203839D01*
X164872Y203803D01*
X164978Y203764D01*
X165082Y203721D01*
X165185Y203675D01*
X165286Y203625D01*
X165385Y203572D01*
X165483Y203515D01*
X165578Y203456D01*
X165672Y203393D01*
X165763Y203327D01*
X162879Y200665D02*
X162810Y200708D01*
X162743Y200754D01*
X162678Y200803D01*
X162615Y200855D01*
X162555Y200910D01*
X162497Y200967D01*
X162442Y201027D01*
X162390Y201089D01*
X162340Y201153D01*
X162294Y201220D01*
X162250Y201289D01*
X162210Y201359D01*
X162173Y201432D01*
X162139Y201506D01*
X162108Y201581D01*
X162081Y201658D01*
X162058Y201736D01*
X162038Y201815D01*
X162021Y201894D01*
X162009Y201975D01*
X161999Y202056D01*
X161994Y202137D01*
X161992Y202218D01*
X165319Y199334D02*
X165388Y199292D01*
X165455Y199246D01*
X165520Y199197D01*
X165583Y199145D01*
X165643Y199090D01*
X165701Y199033D01*
X165756Y198973D01*
X165808Y198911D01*
X165858Y198847D01*
X165905Y198780D01*
X165948Y198711D01*
X165988Y198640D01*
X166025Y198568D01*
X166059Y198494D01*
X166090Y198419D01*
X166117Y198342D01*
X166140Y198264D01*
X166160Y198185D01*
X166177Y198106D01*
X166190Y198025D01*
X166199Y197944D01*
X166204Y197863D01*
X166206Y197782D01*
X165319Y199335D02*
X162880Y200665D01*
X171279Y203992D02*
X171279Y196008D01*
X169061Y203992D02*
X173496Y203992D01*
X181261Y197782D02*
X181259Y197700D01*
X181253Y197618D01*
X181244Y197537D01*
X181231Y197456D01*
X181214Y197376D01*
X181193Y197297D01*
X181169Y197218D01*
X181141Y197141D01*
X181110Y197065D01*
X181075Y196991D01*
X181037Y196919D01*
X180995Y196848D01*
X180951Y196779D01*
X180903Y196713D01*
X180852Y196649D01*
X180798Y196587D01*
X180741Y196528D01*
X180682Y196471D01*
X180620Y196417D01*
X180556Y196366D01*
X180490Y196318D01*
X180421Y196274D01*
X180350Y196232D01*
X180278Y196194D01*
X180204Y196159D01*
X180128Y196128D01*
X180051Y196100D01*
X179973Y196076D01*
X179893Y196055D01*
X179813Y196038D01*
X179732Y196025D01*
X179651Y196016D01*
X179569Y196010D01*
X179487Y196008D01*
X179369Y196010D01*
X179250Y196015D01*
X179132Y196025D01*
X179015Y196038D01*
X178898Y196055D01*
X178781Y196075D01*
X178665Y196099D01*
X178550Y196127D01*
X178436Y196158D01*
X178323Y196193D01*
X178211Y196232D01*
X178100Y196274D01*
X177991Y196320D01*
X177883Y196368D01*
X177777Y196421D01*
X177673Y196476D01*
X177570Y196535D01*
X177469Y196598D01*
X177370Y196663D01*
X177274Y196731D01*
X177179Y196803D01*
X177087Y196877D01*
X176998Y196954D01*
X176910Y197034D01*
X176826Y197117D01*
X177048Y202218D02*
X177050Y202300D01*
X177056Y202382D01*
X177065Y202463D01*
X177078Y202544D01*
X177095Y202624D01*
X177116Y202703D01*
X177140Y202782D01*
X177168Y202859D01*
X177199Y202935D01*
X177234Y203009D01*
X177272Y203081D01*
X177314Y203152D01*
X177358Y203221D01*
X177406Y203287D01*
X177457Y203351D01*
X177511Y203413D01*
X177568Y203472D01*
X177627Y203529D01*
X177689Y203583D01*
X177753Y203634D01*
X177819Y203682D01*
X177888Y203726D01*
X177959Y203768D01*
X178031Y203806D01*
X178105Y203841D01*
X178181Y203872D01*
X178258Y203900D01*
X178337Y203924D01*
X178416Y203945D01*
X178496Y203962D01*
X178577Y203975D01*
X178658Y203984D01*
X178740Y203990D01*
X178822Y203992D01*
X178935Y203990D01*
X179047Y203984D01*
X179159Y203975D01*
X179271Y203962D01*
X179383Y203944D01*
X179493Y203924D01*
X179603Y203899D01*
X179712Y203871D01*
X179820Y203839D01*
X179927Y203803D01*
X180033Y203764D01*
X180137Y203721D01*
X180240Y203675D01*
X180341Y203625D01*
X180440Y203572D01*
X180538Y203515D01*
X180633Y203456D01*
X180727Y203393D01*
X180818Y203327D01*
X177934Y200665D02*
X177865Y200708D01*
X177798Y200754D01*
X177733Y200803D01*
X177670Y200855D01*
X177610Y200910D01*
X177552Y200967D01*
X177497Y201027D01*
X177445Y201089D01*
X177395Y201153D01*
X177349Y201220D01*
X177305Y201289D01*
X177265Y201359D01*
X177228Y201432D01*
X177194Y201506D01*
X177163Y201581D01*
X177136Y201658D01*
X177113Y201736D01*
X177093Y201815D01*
X177076Y201894D01*
X177064Y201975D01*
X177054Y202056D01*
X177049Y202137D01*
X177047Y202218D01*
X180374Y199334D02*
X180443Y199292D01*
X180510Y199246D01*
X180575Y199197D01*
X180638Y199145D01*
X180698Y199090D01*
X180756Y199033D01*
X180811Y198973D01*
X180863Y198911D01*
X180913Y198847D01*
X180960Y198780D01*
X181003Y198711D01*
X181043Y198640D01*
X181080Y198568D01*
X181114Y198494D01*
X181145Y198419D01*
X181172Y198342D01*
X181195Y198264D01*
X181215Y198185D01*
X181232Y198106D01*
X181245Y198025D01*
X181254Y197944D01*
X181259Y197863D01*
X181261Y197782D01*
X180374Y199335D02*
X177934Y200665D01*
X184925Y203992D02*
X184925Y196008D01*
X184925Y203992D02*
X187143Y203992D01*
X187235Y203990D01*
X187326Y203984D01*
X187417Y203975D01*
X187508Y203962D01*
X187598Y203945D01*
X187687Y203924D01*
X187776Y203900D01*
X187863Y203872D01*
X187949Y203840D01*
X188034Y203805D01*
X188117Y203767D01*
X188199Y203725D01*
X188278Y203679D01*
X188356Y203631D01*
X188432Y203579D01*
X188505Y203524D01*
X188576Y203467D01*
X188645Y203406D01*
X188711Y203342D01*
X188775Y203276D01*
X188836Y203207D01*
X188893Y203136D01*
X188948Y203063D01*
X189000Y202987D01*
X189048Y202909D01*
X189094Y202830D01*
X189136Y202748D01*
X189174Y202665D01*
X189209Y202580D01*
X189241Y202494D01*
X189269Y202407D01*
X189293Y202318D01*
X189314Y202229D01*
X189331Y202139D01*
X189344Y202048D01*
X189353Y201957D01*
X189359Y201866D01*
X189361Y201774D01*
X189361Y198226D01*
X189359Y198134D01*
X189353Y198043D01*
X189344Y197952D01*
X189331Y197861D01*
X189314Y197771D01*
X189293Y197682D01*
X189269Y197593D01*
X189241Y197506D01*
X189209Y197420D01*
X189174Y197335D01*
X189136Y197252D01*
X189094Y197170D01*
X189048Y197091D01*
X189000Y197013D01*
X188948Y196937D01*
X188893Y196864D01*
X188836Y196793D01*
X188775Y196724D01*
X188711Y196658D01*
X188645Y196594D01*
X188576Y196533D01*
X188505Y196476D01*
X188432Y196421D01*
X188356Y196369D01*
X188278Y196321D01*
X188199Y196275D01*
X188117Y196233D01*
X188034Y196195D01*
X187949Y196160D01*
X187863Y196128D01*
X187776Y196100D01*
X187687Y196076D01*
X187598Y196055D01*
X187508Y196038D01*
X187417Y196025D01*
X187326Y196016D01*
X187235Y196010D01*
X187143Y196008D01*
X184925Y196008D01*
X192852Y196008D02*
X195513Y203992D01*
X198175Y196008D01*
X197509Y198004D02*
X193517Y198004D01*
X205952Y196008D02*
X206034Y196010D01*
X206116Y196016D01*
X206197Y196025D01*
X206278Y196038D01*
X206358Y196055D01*
X206438Y196076D01*
X206516Y196100D01*
X206593Y196128D01*
X206669Y196159D01*
X206743Y196194D01*
X206815Y196232D01*
X206886Y196274D01*
X206955Y196318D01*
X207021Y196366D01*
X207085Y196417D01*
X207147Y196471D01*
X207206Y196528D01*
X207263Y196587D01*
X207317Y196649D01*
X207368Y196713D01*
X207416Y196779D01*
X207460Y196848D01*
X207502Y196919D01*
X207540Y196991D01*
X207575Y197065D01*
X207606Y197141D01*
X207634Y197218D01*
X207658Y197297D01*
X207679Y197376D01*
X207696Y197456D01*
X207709Y197537D01*
X207718Y197618D01*
X207724Y197700D01*
X207726Y197782D01*
X205952Y196008D02*
X205834Y196010D01*
X205715Y196015D01*
X205597Y196025D01*
X205480Y196038D01*
X205363Y196055D01*
X205246Y196075D01*
X205130Y196099D01*
X205015Y196127D01*
X204901Y196158D01*
X204788Y196193D01*
X204676Y196232D01*
X204565Y196274D01*
X204456Y196320D01*
X204348Y196368D01*
X204242Y196421D01*
X204138Y196476D01*
X204035Y196535D01*
X203934Y196598D01*
X203835Y196663D01*
X203739Y196731D01*
X203644Y196803D01*
X203552Y196877D01*
X203463Y196954D01*
X203375Y197034D01*
X203291Y197117D01*
X203513Y202218D02*
X203515Y202300D01*
X203521Y202382D01*
X203530Y202463D01*
X203543Y202544D01*
X203560Y202624D01*
X203581Y202703D01*
X203605Y202782D01*
X203633Y202859D01*
X203664Y202935D01*
X203699Y203009D01*
X203737Y203081D01*
X203779Y203152D01*
X203823Y203221D01*
X203871Y203287D01*
X203922Y203351D01*
X203976Y203413D01*
X204033Y203472D01*
X204092Y203529D01*
X204154Y203583D01*
X204218Y203634D01*
X204284Y203682D01*
X204353Y203726D01*
X204424Y203768D01*
X204496Y203806D01*
X204570Y203841D01*
X204646Y203872D01*
X204723Y203900D01*
X204802Y203924D01*
X204881Y203945D01*
X204961Y203962D01*
X205042Y203975D01*
X205123Y203984D01*
X205205Y203990D01*
X205287Y203992D01*
X205400Y203990D01*
X205512Y203984D01*
X205624Y203975D01*
X205736Y203962D01*
X205848Y203944D01*
X205958Y203924D01*
X206068Y203899D01*
X206177Y203871D01*
X206285Y203839D01*
X206392Y203803D01*
X206498Y203764D01*
X206602Y203721D01*
X206705Y203675D01*
X206806Y203625D01*
X206905Y203572D01*
X207003Y203515D01*
X207098Y203456D01*
X207192Y203393D01*
X207283Y203327D01*
X204400Y200665D02*
X204331Y200708D01*
X204264Y200754D01*
X204199Y200803D01*
X204136Y200855D01*
X204076Y200910D01*
X204018Y200967D01*
X203963Y201027D01*
X203911Y201089D01*
X203861Y201153D01*
X203815Y201220D01*
X203771Y201289D01*
X203731Y201359D01*
X203694Y201432D01*
X203660Y201506D01*
X203629Y201581D01*
X203602Y201658D01*
X203579Y201736D01*
X203559Y201815D01*
X203542Y201894D01*
X203530Y201975D01*
X203520Y202056D01*
X203515Y202137D01*
X203513Y202218D01*
X206840Y199334D02*
X206909Y199292D01*
X206976Y199246D01*
X207041Y199197D01*
X207104Y199145D01*
X207164Y199090D01*
X207222Y199033D01*
X207277Y198973D01*
X207329Y198911D01*
X207379Y198847D01*
X207426Y198780D01*
X207469Y198711D01*
X207509Y198640D01*
X207546Y198568D01*
X207580Y198494D01*
X207611Y198419D01*
X207638Y198342D01*
X207661Y198264D01*
X207681Y198185D01*
X207698Y198106D01*
X207711Y198025D01*
X207720Y197944D01*
X207725Y197863D01*
X207727Y197782D01*
X206840Y199335D02*
X204400Y200665D01*
X212867Y196008D02*
X214641Y196008D01*
X212867Y196008D02*
X212785Y196010D01*
X212703Y196016D01*
X212622Y196025D01*
X212541Y196038D01*
X212461Y196055D01*
X212382Y196076D01*
X212303Y196100D01*
X212226Y196128D01*
X212150Y196159D01*
X212076Y196194D01*
X212004Y196232D01*
X211933Y196274D01*
X211864Y196318D01*
X211798Y196366D01*
X211734Y196417D01*
X211672Y196471D01*
X211613Y196528D01*
X211556Y196587D01*
X211502Y196649D01*
X211451Y196713D01*
X211403Y196779D01*
X211359Y196848D01*
X211317Y196919D01*
X211279Y196991D01*
X211244Y197065D01*
X211213Y197141D01*
X211185Y197218D01*
X211161Y197297D01*
X211140Y197376D01*
X211123Y197456D01*
X211110Y197537D01*
X211101Y197618D01*
X211095Y197700D01*
X211093Y197782D01*
X211093Y202218D01*
X211095Y202300D01*
X211101Y202382D01*
X211110Y202463D01*
X211123Y202544D01*
X211140Y202624D01*
X211161Y202703D01*
X211185Y202782D01*
X211213Y202859D01*
X211244Y202935D01*
X211279Y203009D01*
X211317Y203081D01*
X211359Y203152D01*
X211403Y203221D01*
X211451Y203287D01*
X211502Y203351D01*
X211556Y203413D01*
X211613Y203472D01*
X211672Y203529D01*
X211734Y203583D01*
X211798Y203634D01*
X211864Y203682D01*
X211933Y203726D01*
X212004Y203768D01*
X212076Y203806D01*
X212150Y203841D01*
X212226Y203872D01*
X212303Y203900D01*
X212381Y203924D01*
X212461Y203945D01*
X212541Y203962D01*
X212622Y203975D01*
X212703Y203984D01*
X212785Y203990D01*
X212867Y203992D01*
X214641Y203992D01*
X218160Y203992D02*
X218160Y196008D01*
X221709Y196008D01*
X225556Y196444D02*
X225556Y203556D01*
X227927Y199605D01*
X230298Y203556D01*
X230298Y196444D01*
X233998Y198420D02*
X233998Y201580D01*
X234000Y201667D01*
X234006Y201755D01*
X234015Y201842D01*
X234029Y201928D01*
X234046Y202014D01*
X234067Y202098D01*
X234092Y202182D01*
X234121Y202265D01*
X234153Y202346D01*
X234188Y202426D01*
X234227Y202504D01*
X234270Y202581D01*
X234316Y202655D01*
X234365Y202727D01*
X234417Y202797D01*
X234473Y202865D01*
X234531Y202930D01*
X234592Y202993D01*
X234656Y203052D01*
X234723Y203109D01*
X234791Y203163D01*
X234863Y203214D01*
X234936Y203261D01*
X235011Y203306D01*
X235089Y203347D01*
X235168Y203384D01*
X235248Y203418D01*
X235330Y203448D01*
X235413Y203475D01*
X235498Y203498D01*
X235583Y203517D01*
X235669Y203532D01*
X235756Y203544D01*
X235843Y203552D01*
X235930Y203556D01*
X236018Y203556D01*
X236105Y203552D01*
X236192Y203544D01*
X236279Y203532D01*
X236365Y203517D01*
X236450Y203498D01*
X236535Y203475D01*
X236618Y203448D01*
X236700Y203418D01*
X236780Y203384D01*
X236859Y203347D01*
X236937Y203306D01*
X237012Y203261D01*
X237085Y203214D01*
X237157Y203163D01*
X237225Y203109D01*
X237292Y203052D01*
X237356Y202993D01*
X237417Y202930D01*
X237475Y202865D01*
X237531Y202797D01*
X237583Y202727D01*
X237632Y202655D01*
X237678Y202581D01*
X237721Y202504D01*
X237760Y202426D01*
X237795Y202346D01*
X237827Y202265D01*
X237856Y202182D01*
X237881Y202098D01*
X237902Y202014D01*
X237919Y201928D01*
X237933Y201842D01*
X237942Y201755D01*
X237948Y201667D01*
X237950Y201580D01*
X237949Y201580D02*
X237949Y198420D01*
X237950Y198420D02*
X237948Y198333D01*
X237942Y198245D01*
X237933Y198158D01*
X237919Y198072D01*
X237902Y197986D01*
X237881Y197902D01*
X237856Y197818D01*
X237827Y197735D01*
X237795Y197654D01*
X237760Y197574D01*
X237721Y197496D01*
X237678Y197419D01*
X237632Y197345D01*
X237583Y197273D01*
X237531Y197203D01*
X237475Y197135D01*
X237417Y197070D01*
X237356Y197007D01*
X237292Y196948D01*
X237225Y196891D01*
X237157Y196837D01*
X237085Y196786D01*
X237012Y196739D01*
X236937Y196694D01*
X236859Y196653D01*
X236780Y196616D01*
X236700Y196582D01*
X236618Y196552D01*
X236535Y196525D01*
X236450Y196502D01*
X236365Y196483D01*
X236279Y196468D01*
X236192Y196456D01*
X236105Y196448D01*
X236018Y196444D01*
X235930Y196444D01*
X235843Y196448D01*
X235756Y196456D01*
X235669Y196468D01*
X235583Y196483D01*
X235498Y196502D01*
X235413Y196525D01*
X235330Y196552D01*
X235248Y196582D01*
X235168Y196616D01*
X235089Y196653D01*
X235011Y196694D01*
X234936Y196739D01*
X234863Y196786D01*
X234791Y196837D01*
X234723Y196891D01*
X234656Y196948D01*
X234592Y197007D01*
X234531Y197070D01*
X234473Y197135D01*
X234417Y197203D01*
X234365Y197273D01*
X234316Y197345D01*
X234270Y197419D01*
X234227Y197496D01*
X234188Y197574D01*
X234153Y197654D01*
X234121Y197735D01*
X234092Y197818D01*
X234067Y197902D01*
X234046Y197986D01*
X234029Y198072D01*
X234015Y198158D01*
X234006Y198245D01*
X234000Y198333D01*
X233998Y198420D01*
X243440Y196444D02*
X243518Y196446D01*
X243595Y196452D01*
X243672Y196461D01*
X243748Y196474D01*
X243824Y196491D01*
X243899Y196512D01*
X243972Y196536D01*
X244045Y196564D01*
X244116Y196596D01*
X244185Y196631D01*
X244252Y196669D01*
X244318Y196710D01*
X244381Y196755D01*
X244442Y196803D01*
X244501Y196853D01*
X244557Y196907D01*
X244611Y196963D01*
X244661Y197022D01*
X244709Y197083D01*
X244754Y197146D01*
X244795Y197212D01*
X244833Y197279D01*
X244868Y197348D01*
X244900Y197419D01*
X244928Y197492D01*
X244952Y197565D01*
X244973Y197640D01*
X244990Y197716D01*
X245003Y197792D01*
X245012Y197869D01*
X245018Y197946D01*
X245020Y198024D01*
X243440Y196444D02*
X243325Y196446D01*
X243211Y196452D01*
X243097Y196462D01*
X242983Y196475D01*
X242870Y196493D01*
X242757Y196515D01*
X242645Y196540D01*
X242535Y196569D01*
X242425Y196602D01*
X242316Y196639D01*
X242209Y196679D01*
X242103Y196723D01*
X241999Y196771D01*
X241896Y196822D01*
X241796Y196877D01*
X241697Y196935D01*
X241600Y196997D01*
X241506Y197061D01*
X241413Y197129D01*
X241323Y197201D01*
X241236Y197275D01*
X241151Y197352D01*
X241069Y197432D01*
X241268Y201976D02*
X241270Y202054D01*
X241276Y202131D01*
X241285Y202208D01*
X241298Y202284D01*
X241315Y202360D01*
X241336Y202435D01*
X241360Y202508D01*
X241388Y202581D01*
X241420Y202652D01*
X241455Y202721D01*
X241493Y202788D01*
X241534Y202854D01*
X241579Y202917D01*
X241627Y202978D01*
X241677Y203037D01*
X241731Y203093D01*
X241787Y203147D01*
X241846Y203197D01*
X241907Y203245D01*
X241970Y203290D01*
X242036Y203331D01*
X242103Y203369D01*
X242172Y203404D01*
X242243Y203436D01*
X242316Y203464D01*
X242389Y203488D01*
X242464Y203509D01*
X242540Y203526D01*
X242616Y203539D01*
X242693Y203548D01*
X242771Y203554D01*
X242848Y203556D01*
X242954Y203554D01*
X243060Y203548D01*
X243165Y203539D01*
X243270Y203526D01*
X243375Y203509D01*
X243479Y203488D01*
X243582Y203464D01*
X243684Y203436D01*
X243785Y203404D01*
X243885Y203369D01*
X243983Y203330D01*
X244081Y203287D01*
X244176Y203242D01*
X244270Y203193D01*
X244362Y203140D01*
X244452Y203084D01*
X244540Y203025D01*
X244626Y202963D01*
X242057Y200593D02*
X241990Y200635D01*
X241925Y200680D01*
X241862Y200729D01*
X241801Y200780D01*
X241744Y200835D01*
X241689Y200892D01*
X241636Y200952D01*
X241587Y201014D01*
X241541Y201079D01*
X241499Y201145D01*
X241459Y201214D01*
X241423Y201285D01*
X241391Y201358D01*
X241362Y201432D01*
X241337Y201507D01*
X241316Y201583D01*
X241298Y201661D01*
X241285Y201739D01*
X241275Y201818D01*
X241269Y201897D01*
X241267Y201976D01*
X244231Y199407D02*
X244298Y199365D01*
X244363Y199320D01*
X244426Y199271D01*
X244487Y199220D01*
X244544Y199165D01*
X244599Y199108D01*
X244652Y199048D01*
X244701Y198986D01*
X244747Y198921D01*
X244789Y198855D01*
X244829Y198786D01*
X244865Y198715D01*
X244897Y198642D01*
X244926Y198568D01*
X244951Y198493D01*
X244972Y198417D01*
X244990Y198339D01*
X245003Y198261D01*
X245013Y198182D01*
X245019Y198103D01*
X245021Y198024D01*
X244230Y199407D02*
X242057Y200593D01*
X248653Y203556D02*
X248653Y196444D01*
X247863Y196444D02*
X249444Y196444D01*
X249444Y203556D02*
X247863Y203556D01*
X253195Y203556D02*
X253195Y196444D01*
X255566Y199605D02*
X253195Y203556D01*
X255566Y199605D02*
X257937Y203556D01*
X257937Y196444D01*
X262150Y196444D02*
X262150Y203556D01*
X261359Y196444D02*
X262940Y196444D01*
X262940Y203556D02*
X261359Y203556D01*
X268153Y196444D02*
X268231Y196446D01*
X268308Y196452D01*
X268385Y196461D01*
X268461Y196474D01*
X268537Y196491D01*
X268612Y196512D01*
X268685Y196536D01*
X268758Y196564D01*
X268829Y196596D01*
X268898Y196631D01*
X268965Y196669D01*
X269031Y196710D01*
X269094Y196755D01*
X269155Y196803D01*
X269214Y196853D01*
X269270Y196907D01*
X269324Y196963D01*
X269374Y197022D01*
X269422Y197083D01*
X269467Y197146D01*
X269508Y197212D01*
X269546Y197279D01*
X269581Y197348D01*
X269613Y197419D01*
X269641Y197492D01*
X269665Y197565D01*
X269686Y197640D01*
X269703Y197716D01*
X269716Y197792D01*
X269725Y197869D01*
X269731Y197946D01*
X269733Y198024D01*
X268153Y196444D02*
X268038Y196446D01*
X267924Y196452D01*
X267810Y196462D01*
X267696Y196475D01*
X267583Y196493D01*
X267470Y196515D01*
X267358Y196540D01*
X267248Y196569D01*
X267138Y196602D01*
X267029Y196639D01*
X266922Y196679D01*
X266816Y196723D01*
X266712Y196771D01*
X266609Y196822D01*
X266509Y196877D01*
X266410Y196935D01*
X266313Y196997D01*
X266219Y197061D01*
X266126Y197129D01*
X266036Y197201D01*
X265949Y197275D01*
X265864Y197352D01*
X265782Y197432D01*
X265980Y201976D02*
X265982Y202054D01*
X265988Y202131D01*
X265997Y202208D01*
X266010Y202284D01*
X266027Y202360D01*
X266048Y202435D01*
X266072Y202508D01*
X266100Y202581D01*
X266132Y202652D01*
X266167Y202721D01*
X266205Y202788D01*
X266246Y202854D01*
X266291Y202917D01*
X266339Y202978D01*
X266389Y203037D01*
X266443Y203093D01*
X266499Y203147D01*
X266558Y203197D01*
X266619Y203245D01*
X266682Y203290D01*
X266748Y203331D01*
X266815Y203369D01*
X266884Y203404D01*
X266955Y203436D01*
X267028Y203464D01*
X267101Y203488D01*
X267176Y203509D01*
X267252Y203526D01*
X267328Y203539D01*
X267405Y203548D01*
X267483Y203554D01*
X267560Y203556D01*
X267666Y203554D01*
X267772Y203548D01*
X267877Y203539D01*
X267982Y203526D01*
X268087Y203509D01*
X268191Y203488D01*
X268294Y203464D01*
X268396Y203436D01*
X268497Y203404D01*
X268597Y203369D01*
X268695Y203330D01*
X268793Y203287D01*
X268888Y203242D01*
X268982Y203193D01*
X269074Y203140D01*
X269164Y203084D01*
X269252Y203025D01*
X269338Y202963D01*
X266770Y200593D02*
X266703Y200635D01*
X266638Y200680D01*
X266575Y200729D01*
X266514Y200780D01*
X266457Y200835D01*
X266402Y200892D01*
X266349Y200952D01*
X266300Y201014D01*
X266254Y201079D01*
X266212Y201145D01*
X266172Y201214D01*
X266136Y201285D01*
X266104Y201358D01*
X266075Y201432D01*
X266050Y201507D01*
X266029Y201583D01*
X266011Y201661D01*
X265998Y201739D01*
X265988Y201818D01*
X265982Y201897D01*
X265980Y201976D01*
X268943Y199407D02*
X269010Y199365D01*
X269075Y199320D01*
X269138Y199271D01*
X269199Y199220D01*
X269256Y199165D01*
X269311Y199108D01*
X269364Y199048D01*
X269413Y198986D01*
X269459Y198921D01*
X269501Y198855D01*
X269541Y198786D01*
X269577Y198715D01*
X269609Y198642D01*
X269638Y198568D01*
X269663Y198493D01*
X269684Y198417D01*
X269702Y198339D01*
X269715Y198261D01*
X269725Y198182D01*
X269731Y198103D01*
X269733Y198024D01*
X268943Y199407D02*
X266770Y200593D01*
X272854Y201580D02*
X272854Y198420D01*
X272853Y201580D02*
X272855Y201667D01*
X272861Y201755D01*
X272870Y201842D01*
X272884Y201928D01*
X272901Y202014D01*
X272922Y202098D01*
X272947Y202182D01*
X272976Y202265D01*
X273008Y202346D01*
X273043Y202426D01*
X273082Y202504D01*
X273125Y202581D01*
X273171Y202655D01*
X273220Y202727D01*
X273272Y202797D01*
X273328Y202865D01*
X273386Y202930D01*
X273447Y202993D01*
X273511Y203052D01*
X273578Y203109D01*
X273646Y203163D01*
X273718Y203214D01*
X273791Y203261D01*
X273866Y203306D01*
X273944Y203347D01*
X274023Y203384D01*
X274103Y203418D01*
X274185Y203448D01*
X274268Y203475D01*
X274353Y203498D01*
X274438Y203517D01*
X274524Y203532D01*
X274611Y203544D01*
X274698Y203552D01*
X274785Y203556D01*
X274873Y203556D01*
X274960Y203552D01*
X275047Y203544D01*
X275134Y203532D01*
X275220Y203517D01*
X275305Y203498D01*
X275390Y203475D01*
X275473Y203448D01*
X275555Y203418D01*
X275635Y203384D01*
X275714Y203347D01*
X275792Y203306D01*
X275867Y203261D01*
X275940Y203214D01*
X276012Y203163D01*
X276080Y203109D01*
X276147Y203052D01*
X276211Y202993D01*
X276272Y202930D01*
X276330Y202865D01*
X276386Y202797D01*
X276438Y202727D01*
X276487Y202655D01*
X276533Y202581D01*
X276576Y202504D01*
X276615Y202426D01*
X276650Y202346D01*
X276682Y202265D01*
X276711Y202182D01*
X276736Y202098D01*
X276757Y202014D01*
X276774Y201928D01*
X276788Y201842D01*
X276797Y201755D01*
X276803Y201667D01*
X276805Y201580D01*
X276805Y198420D01*
X276803Y198333D01*
X276797Y198245D01*
X276788Y198158D01*
X276774Y198072D01*
X276757Y197986D01*
X276736Y197902D01*
X276711Y197818D01*
X276682Y197735D01*
X276650Y197654D01*
X276615Y197574D01*
X276576Y197496D01*
X276533Y197419D01*
X276487Y197345D01*
X276438Y197273D01*
X276386Y197203D01*
X276330Y197135D01*
X276272Y197070D01*
X276211Y197007D01*
X276147Y196948D01*
X276080Y196891D01*
X276012Y196837D01*
X275940Y196786D01*
X275867Y196739D01*
X275792Y196694D01*
X275714Y196653D01*
X275635Y196616D01*
X275555Y196582D01*
X275473Y196552D01*
X275390Y196525D01*
X275305Y196502D01*
X275220Y196483D01*
X275134Y196468D01*
X275047Y196456D01*
X274960Y196448D01*
X274873Y196444D01*
X274785Y196444D01*
X274698Y196448D01*
X274611Y196456D01*
X274524Y196468D01*
X274438Y196483D01*
X274353Y196502D01*
X274268Y196525D01*
X274185Y196552D01*
X274103Y196582D01*
X274023Y196616D01*
X273944Y196653D01*
X273866Y196694D01*
X273791Y196739D01*
X273718Y196786D01*
X273646Y196837D01*
X273578Y196891D01*
X273511Y196948D01*
X273447Y197007D01*
X273386Y197070D01*
X273328Y197135D01*
X273272Y197203D01*
X273220Y197273D01*
X273171Y197345D01*
X273125Y197419D01*
X273082Y197496D01*
X273043Y197574D01*
X273008Y197654D01*
X272976Y197735D01*
X272947Y197818D01*
X272922Y197902D01*
X272901Y197986D01*
X272884Y198072D01*
X272870Y198158D01*
X272861Y198245D01*
X272855Y198333D01*
X272853Y198420D01*
X283620Y196444D02*
X283698Y196446D01*
X283775Y196452D01*
X283852Y196461D01*
X283928Y196474D01*
X284004Y196491D01*
X284079Y196512D01*
X284152Y196536D01*
X284225Y196564D01*
X284296Y196596D01*
X284365Y196631D01*
X284432Y196669D01*
X284498Y196710D01*
X284561Y196755D01*
X284622Y196803D01*
X284681Y196853D01*
X284737Y196907D01*
X284791Y196963D01*
X284841Y197022D01*
X284889Y197083D01*
X284934Y197146D01*
X284975Y197212D01*
X285013Y197279D01*
X285048Y197348D01*
X285080Y197419D01*
X285108Y197492D01*
X285132Y197565D01*
X285153Y197640D01*
X285170Y197716D01*
X285183Y197792D01*
X285192Y197869D01*
X285198Y197946D01*
X285200Y198024D01*
X283620Y196444D02*
X283505Y196446D01*
X283391Y196452D01*
X283277Y196462D01*
X283163Y196475D01*
X283050Y196493D01*
X282937Y196515D01*
X282825Y196540D01*
X282715Y196569D01*
X282605Y196602D01*
X282496Y196639D01*
X282389Y196679D01*
X282283Y196723D01*
X282179Y196771D01*
X282076Y196822D01*
X281976Y196877D01*
X281877Y196935D01*
X281780Y196997D01*
X281686Y197061D01*
X281593Y197129D01*
X281503Y197201D01*
X281416Y197275D01*
X281331Y197352D01*
X281249Y197432D01*
X281447Y201976D02*
X281449Y202054D01*
X281455Y202131D01*
X281464Y202208D01*
X281477Y202284D01*
X281494Y202360D01*
X281515Y202435D01*
X281539Y202508D01*
X281567Y202581D01*
X281599Y202652D01*
X281634Y202721D01*
X281672Y202788D01*
X281713Y202854D01*
X281758Y202917D01*
X281806Y202978D01*
X281856Y203037D01*
X281910Y203093D01*
X281966Y203147D01*
X282025Y203197D01*
X282086Y203245D01*
X282149Y203290D01*
X282215Y203331D01*
X282282Y203369D01*
X282351Y203404D01*
X282422Y203436D01*
X282495Y203464D01*
X282568Y203488D01*
X282643Y203509D01*
X282719Y203526D01*
X282795Y203539D01*
X282872Y203548D01*
X282950Y203554D01*
X283027Y203556D01*
X283133Y203554D01*
X283239Y203548D01*
X283344Y203539D01*
X283449Y203526D01*
X283554Y203509D01*
X283658Y203488D01*
X283761Y203464D01*
X283863Y203436D01*
X283964Y203404D01*
X284064Y203369D01*
X284162Y203330D01*
X284260Y203287D01*
X284355Y203242D01*
X284449Y203193D01*
X284541Y203140D01*
X284631Y203084D01*
X284719Y203025D01*
X284805Y202963D01*
X282237Y200593D02*
X282170Y200635D01*
X282105Y200680D01*
X282042Y200729D01*
X281981Y200780D01*
X281924Y200835D01*
X281869Y200892D01*
X281816Y200952D01*
X281767Y201014D01*
X281721Y201079D01*
X281679Y201145D01*
X281639Y201214D01*
X281603Y201285D01*
X281571Y201358D01*
X281542Y201432D01*
X281517Y201507D01*
X281496Y201583D01*
X281478Y201661D01*
X281465Y201739D01*
X281455Y201818D01*
X281449Y201897D01*
X281447Y201976D01*
X284410Y199407D02*
X284477Y199365D01*
X284542Y199320D01*
X284605Y199271D01*
X284666Y199220D01*
X284723Y199165D01*
X284778Y199108D01*
X284831Y199048D01*
X284880Y198986D01*
X284926Y198921D01*
X284968Y198855D01*
X285008Y198786D01*
X285044Y198715D01*
X285076Y198642D01*
X285105Y198568D01*
X285130Y198493D01*
X285151Y198417D01*
X285169Y198339D01*
X285182Y198261D01*
X285192Y198182D01*
X285198Y198103D01*
X285200Y198024D01*
X284410Y199407D02*
X282237Y200593D01*
X289874Y196444D02*
X291454Y196444D01*
X289874Y196444D02*
X289796Y196446D01*
X289719Y196452D01*
X289642Y196461D01*
X289566Y196474D01*
X289490Y196491D01*
X289415Y196512D01*
X289342Y196536D01*
X289269Y196564D01*
X289198Y196596D01*
X289129Y196631D01*
X289062Y196669D01*
X288996Y196710D01*
X288933Y196755D01*
X288872Y196803D01*
X288813Y196853D01*
X288757Y196907D01*
X288703Y196963D01*
X288653Y197022D01*
X288605Y197083D01*
X288560Y197146D01*
X288519Y197212D01*
X288481Y197279D01*
X288446Y197348D01*
X288414Y197419D01*
X288386Y197492D01*
X288362Y197565D01*
X288341Y197640D01*
X288324Y197716D01*
X288311Y197792D01*
X288302Y197869D01*
X288296Y197946D01*
X288294Y198024D01*
X288294Y201976D01*
X288296Y202054D01*
X288302Y202131D01*
X288311Y202208D01*
X288324Y202284D01*
X288341Y202360D01*
X288362Y202435D01*
X288386Y202508D01*
X288414Y202581D01*
X288446Y202652D01*
X288481Y202721D01*
X288519Y202788D01*
X288560Y202854D01*
X288605Y202917D01*
X288653Y202978D01*
X288703Y203037D01*
X288757Y203093D01*
X288813Y203147D01*
X288872Y203197D01*
X288933Y203245D01*
X288996Y203290D01*
X289062Y203331D01*
X289129Y203369D01*
X289198Y203404D01*
X289269Y203436D01*
X289342Y203464D01*
X289415Y203488D01*
X289490Y203509D01*
X289566Y203526D01*
X289642Y203539D01*
X289719Y203548D01*
X289796Y203554D01*
X289874Y203556D01*
X291454Y203556D01*
X294799Y203556D02*
X294799Y196444D01*
X294799Y199210D02*
X298751Y203556D01*
X296380Y200790D02*
X298751Y196444D01*
X303493Y196444D02*
X303493Y203556D01*
X305469Y203556D01*
X305556Y203554D01*
X305644Y203548D01*
X305731Y203539D01*
X305817Y203525D01*
X305903Y203508D01*
X305987Y203487D01*
X306071Y203462D01*
X306154Y203433D01*
X306235Y203401D01*
X306315Y203366D01*
X306393Y203327D01*
X306470Y203284D01*
X306544Y203238D01*
X306616Y203189D01*
X306686Y203137D01*
X306754Y203081D01*
X306819Y203023D01*
X306882Y202962D01*
X306941Y202898D01*
X306998Y202831D01*
X307052Y202763D01*
X307103Y202691D01*
X307150Y202618D01*
X307195Y202543D01*
X307236Y202465D01*
X307273Y202386D01*
X307307Y202306D01*
X307337Y202224D01*
X307364Y202141D01*
X307387Y202056D01*
X307406Y201971D01*
X307421Y201885D01*
X307433Y201798D01*
X307441Y201711D01*
X307445Y201624D01*
X307445Y201536D01*
X307441Y201449D01*
X307433Y201362D01*
X307421Y201275D01*
X307406Y201189D01*
X307387Y201104D01*
X307364Y201019D01*
X307337Y200936D01*
X307307Y200854D01*
X307273Y200774D01*
X307236Y200695D01*
X307195Y200617D01*
X307150Y200542D01*
X307103Y200469D01*
X307052Y200397D01*
X306998Y200329D01*
X306941Y200262D01*
X306882Y200198D01*
X306819Y200137D01*
X306754Y200079D01*
X306686Y200023D01*
X306616Y199971D01*
X306544Y199922D01*
X306470Y199876D01*
X306393Y199833D01*
X306315Y199794D01*
X306235Y199759D01*
X306154Y199727D01*
X306071Y199698D01*
X305987Y199673D01*
X305903Y199652D01*
X305817Y199635D01*
X305731Y199621D01*
X305644Y199612D01*
X305556Y199606D01*
X305469Y199604D01*
X305469Y199605D02*
X303493Y199605D01*
X310030Y196444D02*
X312401Y203556D01*
X314772Y196444D01*
X314179Y198222D02*
X310623Y198222D01*
X317741Y201976D02*
X319716Y203556D01*
X319716Y196444D01*
X317741Y196444D02*
X321692Y196444D01*
X327229Y203556D02*
X327311Y203554D01*
X327393Y203548D01*
X327475Y203539D01*
X327556Y203526D01*
X327636Y203509D01*
X327716Y203488D01*
X327794Y203464D01*
X327871Y203436D01*
X327947Y203405D01*
X328022Y203370D01*
X328094Y203331D01*
X328165Y203290D01*
X328234Y203245D01*
X328300Y203197D01*
X328365Y203146D01*
X328427Y203092D01*
X328486Y203035D01*
X328543Y202976D01*
X328597Y202914D01*
X328648Y202849D01*
X328696Y202783D01*
X328741Y202714D01*
X328782Y202643D01*
X328821Y202571D01*
X328856Y202496D01*
X328887Y202420D01*
X328915Y202343D01*
X328939Y202265D01*
X328960Y202185D01*
X328977Y202105D01*
X328990Y202024D01*
X328999Y201942D01*
X329005Y201860D01*
X329007Y201778D01*
X327229Y203556D02*
X327136Y203554D01*
X327044Y203548D01*
X326952Y203539D01*
X326860Y203526D01*
X326769Y203509D01*
X326679Y203489D01*
X326589Y203465D01*
X326501Y203437D01*
X326413Y203405D01*
X326328Y203371D01*
X326243Y203332D01*
X326161Y203291D01*
X326080Y203246D01*
X326000Y203197D01*
X325923Y203146D01*
X325848Y203092D01*
X325776Y203034D01*
X325706Y202974D01*
X325638Y202910D01*
X325573Y202845D01*
X325510Y202776D01*
X325451Y202705D01*
X325394Y202632D01*
X325340Y202556D01*
X325290Y202479D01*
X325242Y202399D01*
X325198Y202318D01*
X325158Y202234D01*
X325120Y202150D01*
X325086Y202063D01*
X325056Y201976D01*
X328414Y200395D02*
X328475Y200456D01*
X328533Y200519D01*
X328588Y200585D01*
X328641Y200653D01*
X328690Y200724D01*
X328735Y200796D01*
X328778Y200871D01*
X328817Y200947D01*
X328853Y201026D01*
X328885Y201105D01*
X328913Y201186D01*
X328938Y201269D01*
X328959Y201352D01*
X328976Y201436D01*
X328990Y201521D01*
X328999Y201606D01*
X329005Y201692D01*
X329007Y201778D01*
X328414Y200395D02*
X325056Y196444D01*
X329007Y196444D01*
X334743Y196444D02*
X334743Y203556D01*
X336719Y203556D01*
X336806Y203554D01*
X336894Y203548D01*
X336981Y203539D01*
X337067Y203525D01*
X337153Y203508D01*
X337237Y203487D01*
X337321Y203462D01*
X337404Y203433D01*
X337485Y203401D01*
X337565Y203366D01*
X337643Y203327D01*
X337720Y203284D01*
X337794Y203238D01*
X337866Y203189D01*
X337936Y203137D01*
X338004Y203081D01*
X338069Y203023D01*
X338132Y202962D01*
X338191Y202898D01*
X338248Y202831D01*
X338302Y202763D01*
X338353Y202691D01*
X338400Y202618D01*
X338445Y202543D01*
X338486Y202465D01*
X338523Y202386D01*
X338557Y202306D01*
X338587Y202224D01*
X338614Y202141D01*
X338637Y202056D01*
X338656Y201971D01*
X338671Y201885D01*
X338683Y201798D01*
X338691Y201711D01*
X338695Y201624D01*
X338695Y201536D01*
X338691Y201449D01*
X338683Y201362D01*
X338671Y201275D01*
X338656Y201189D01*
X338637Y201104D01*
X338614Y201019D01*
X338587Y200936D01*
X338557Y200854D01*
X338523Y200774D01*
X338486Y200695D01*
X338445Y200617D01*
X338400Y200542D01*
X338353Y200469D01*
X338302Y200397D01*
X338248Y200329D01*
X338191Y200262D01*
X338132Y200198D01*
X338069Y200137D01*
X338004Y200079D01*
X337936Y200023D01*
X337866Y199971D01*
X337794Y199922D01*
X337720Y199876D01*
X337643Y199833D01*
X337565Y199794D01*
X337485Y199759D01*
X337404Y199727D01*
X337321Y199698D01*
X337237Y199673D01*
X337153Y199652D01*
X337067Y199635D01*
X336981Y199621D01*
X336894Y199612D01*
X336806Y199606D01*
X336719Y199604D01*
X336719Y199605D02*
X334743Y199605D01*
X341280Y196444D02*
X343651Y203556D01*
X346022Y196444D01*
X345429Y198222D02*
X341873Y198222D01*
X348991Y201976D02*
X350966Y203556D01*
X350966Y196444D01*
X348991Y196444D02*
X352942Y196444D01*
X356306Y201976D02*
X358281Y203556D01*
X358281Y196444D01*
X356306Y196444D02*
X360257Y196444D01*
X366042Y196008D02*
X366042Y203992D01*
X368260Y203992D01*
X368353Y203990D01*
X368446Y203984D01*
X368538Y203975D01*
X368630Y203961D01*
X368721Y203944D01*
X368812Y203922D01*
X368901Y203897D01*
X368989Y203869D01*
X369077Y203836D01*
X369162Y203800D01*
X369246Y203761D01*
X369329Y203718D01*
X369409Y203671D01*
X369487Y203621D01*
X369564Y203568D01*
X369638Y203512D01*
X369709Y203453D01*
X369778Y203391D01*
X369845Y203326D01*
X369908Y203258D01*
X369969Y203188D01*
X370027Y203115D01*
X370081Y203040D01*
X370133Y202962D01*
X370181Y202883D01*
X370226Y202802D01*
X370267Y202718D01*
X370305Y202634D01*
X370339Y202547D01*
X370369Y202459D01*
X370396Y202370D01*
X370419Y202280D01*
X370439Y202190D01*
X370454Y202098D01*
X370466Y202006D01*
X370474Y201913D01*
X370478Y201820D01*
X370478Y201728D01*
X370474Y201635D01*
X370466Y201542D01*
X370454Y201450D01*
X370439Y201358D01*
X370419Y201268D01*
X370396Y201178D01*
X370369Y201089D01*
X370339Y201001D01*
X370305Y200914D01*
X370267Y200830D01*
X370226Y200746D01*
X370181Y200665D01*
X370133Y200586D01*
X370081Y200508D01*
X370027Y200433D01*
X369969Y200360D01*
X369908Y200290D01*
X369845Y200222D01*
X369778Y200157D01*
X369709Y200095D01*
X369638Y200036D01*
X369564Y199980D01*
X369487Y199927D01*
X369409Y199877D01*
X369329Y199830D01*
X369246Y199787D01*
X369162Y199748D01*
X369077Y199712D01*
X368989Y199679D01*
X368901Y199651D01*
X368812Y199626D01*
X368721Y199604D01*
X368630Y199587D01*
X368538Y199573D01*
X368446Y199564D01*
X368353Y199558D01*
X368260Y199556D01*
X366042Y199556D01*
X368703Y199556D02*
X370477Y196008D01*
X373635Y196008D02*
X378958Y203992D01*
X373635Y203992D02*
X378958Y196008D01*
X390998Y196008D02*
X390998Y203992D01*
X388780Y203992D02*
X393216Y203992D01*
X401220Y203992D02*
X395897Y196008D01*
X401220Y196008D02*
X395897Y203992D01*
X409890Y203992D02*
X409890Y196008D01*
X409890Y203992D02*
X412107Y203992D01*
X412200Y203990D01*
X412293Y203984D01*
X412385Y203975D01*
X412477Y203961D01*
X412568Y203944D01*
X412659Y203922D01*
X412748Y203897D01*
X412836Y203869D01*
X412924Y203836D01*
X413009Y203800D01*
X413093Y203761D01*
X413176Y203718D01*
X413256Y203671D01*
X413334Y203621D01*
X413411Y203568D01*
X413485Y203512D01*
X413556Y203453D01*
X413625Y203391D01*
X413692Y203326D01*
X413755Y203258D01*
X413816Y203188D01*
X413874Y203115D01*
X413928Y203040D01*
X413980Y202962D01*
X414028Y202883D01*
X414073Y202802D01*
X414114Y202718D01*
X414152Y202634D01*
X414186Y202547D01*
X414216Y202459D01*
X414243Y202370D01*
X414266Y202280D01*
X414286Y202190D01*
X414301Y202098D01*
X414313Y202006D01*
X414321Y201913D01*
X414325Y201820D01*
X414325Y201728D01*
X414321Y201635D01*
X414313Y201542D01*
X414301Y201450D01*
X414286Y201358D01*
X414266Y201268D01*
X414243Y201178D01*
X414216Y201089D01*
X414186Y201001D01*
X414152Y200914D01*
X414114Y200830D01*
X414073Y200746D01*
X414028Y200665D01*
X413980Y200586D01*
X413928Y200508D01*
X413874Y200433D01*
X413816Y200360D01*
X413755Y200290D01*
X413692Y200222D01*
X413625Y200157D01*
X413556Y200095D01*
X413485Y200036D01*
X413411Y199980D01*
X413334Y199927D01*
X413256Y199877D01*
X413176Y199830D01*
X413093Y199787D01*
X413009Y199748D01*
X412924Y199712D01*
X412836Y199679D01*
X412748Y199651D01*
X412659Y199626D01*
X412568Y199604D01*
X412477Y199587D01*
X412385Y199573D01*
X412293Y199564D01*
X412200Y199558D01*
X412107Y199556D01*
X409890Y199556D01*
X417131Y196008D02*
X419793Y203992D01*
X422454Y196008D01*
X421789Y198004D02*
X417797Y198004D01*
X425675Y198226D02*
X425677Y198319D01*
X425683Y198412D01*
X425692Y198504D01*
X425706Y198596D01*
X425723Y198687D01*
X425745Y198778D01*
X425770Y198867D01*
X425798Y198955D01*
X425831Y199043D01*
X425867Y199128D01*
X425906Y199212D01*
X425949Y199295D01*
X425996Y199375D01*
X426046Y199453D01*
X426099Y199530D01*
X426155Y199604D01*
X426214Y199675D01*
X426276Y199744D01*
X426341Y199811D01*
X426409Y199874D01*
X426479Y199935D01*
X426552Y199993D01*
X426627Y200047D01*
X426705Y200099D01*
X426784Y200147D01*
X426865Y200192D01*
X426949Y200233D01*
X427033Y200271D01*
X427120Y200305D01*
X427208Y200335D01*
X427297Y200362D01*
X427387Y200385D01*
X427477Y200405D01*
X427569Y200420D01*
X427661Y200432D01*
X427754Y200440D01*
X427847Y200444D01*
X427939Y200444D01*
X428032Y200440D01*
X428125Y200432D01*
X428217Y200420D01*
X428309Y200405D01*
X428399Y200385D01*
X428489Y200362D01*
X428578Y200335D01*
X428666Y200305D01*
X428753Y200271D01*
X428837Y200233D01*
X428921Y200192D01*
X429002Y200147D01*
X429081Y200099D01*
X429159Y200047D01*
X429234Y199993D01*
X429307Y199935D01*
X429377Y199874D01*
X429445Y199811D01*
X429510Y199744D01*
X429572Y199675D01*
X429631Y199604D01*
X429687Y199530D01*
X429740Y199453D01*
X429790Y199375D01*
X429837Y199295D01*
X429880Y199212D01*
X429919Y199128D01*
X429955Y199043D01*
X429988Y198955D01*
X430016Y198867D01*
X430041Y198778D01*
X430063Y198687D01*
X430080Y198596D01*
X430094Y198504D01*
X430103Y198412D01*
X430109Y198319D01*
X430111Y198226D01*
X430109Y198133D01*
X430103Y198040D01*
X430094Y197948D01*
X430080Y197856D01*
X430063Y197765D01*
X430041Y197674D01*
X430016Y197585D01*
X429988Y197497D01*
X429955Y197409D01*
X429919Y197324D01*
X429880Y197240D01*
X429837Y197157D01*
X429790Y197077D01*
X429740Y196999D01*
X429687Y196922D01*
X429631Y196848D01*
X429572Y196777D01*
X429510Y196708D01*
X429445Y196641D01*
X429377Y196578D01*
X429307Y196517D01*
X429234Y196459D01*
X429159Y196405D01*
X429081Y196353D01*
X429002Y196305D01*
X428921Y196260D01*
X428837Y196219D01*
X428753Y196181D01*
X428666Y196147D01*
X428578Y196117D01*
X428489Y196090D01*
X428399Y196067D01*
X428309Y196047D01*
X428217Y196032D01*
X428125Y196020D01*
X428032Y196012D01*
X427939Y196008D01*
X427847Y196008D01*
X427754Y196012D01*
X427661Y196020D01*
X427569Y196032D01*
X427477Y196047D01*
X427387Y196067D01*
X427297Y196090D01*
X427208Y196117D01*
X427120Y196147D01*
X427033Y196181D01*
X426949Y196219D01*
X426865Y196260D01*
X426784Y196305D01*
X426705Y196353D01*
X426627Y196405D01*
X426552Y196459D01*
X426479Y196517D01*
X426409Y196578D01*
X426341Y196641D01*
X426276Y196708D01*
X426214Y196777D01*
X426155Y196848D01*
X426099Y196922D01*
X426046Y196999D01*
X425996Y197077D01*
X425949Y197157D01*
X425906Y197240D01*
X425867Y197324D01*
X425831Y197409D01*
X425798Y197497D01*
X425770Y197585D01*
X425745Y197674D01*
X425723Y197765D01*
X425706Y197856D01*
X425692Y197948D01*
X425683Y198040D01*
X425677Y198133D01*
X425675Y198226D01*
X426119Y202218D02*
X426121Y202301D01*
X426127Y202384D01*
X426137Y202467D01*
X426150Y202549D01*
X426168Y202630D01*
X426189Y202711D01*
X426214Y202790D01*
X426242Y202868D01*
X426275Y202945D01*
X426310Y203020D01*
X426350Y203093D01*
X426392Y203164D01*
X426439Y203234D01*
X426488Y203301D01*
X426540Y203365D01*
X426595Y203428D01*
X426653Y203487D01*
X426714Y203544D01*
X426778Y203598D01*
X426844Y203648D01*
X426912Y203696D01*
X426982Y203740D01*
X427054Y203781D01*
X427129Y203819D01*
X427205Y203853D01*
X427282Y203883D01*
X427361Y203910D01*
X427441Y203933D01*
X427521Y203953D01*
X427603Y203968D01*
X427686Y203980D01*
X427768Y203988D01*
X427851Y203992D01*
X427935Y203992D01*
X428018Y203988D01*
X428100Y203980D01*
X428183Y203968D01*
X428265Y203953D01*
X428345Y203933D01*
X428425Y203910D01*
X428504Y203883D01*
X428581Y203853D01*
X428657Y203819D01*
X428732Y203781D01*
X428804Y203740D01*
X428874Y203696D01*
X428942Y203648D01*
X429008Y203598D01*
X429072Y203544D01*
X429133Y203487D01*
X429191Y203428D01*
X429246Y203365D01*
X429298Y203301D01*
X429347Y203234D01*
X429394Y203164D01*
X429436Y203093D01*
X429476Y203020D01*
X429511Y202945D01*
X429544Y202868D01*
X429572Y202790D01*
X429597Y202711D01*
X429618Y202630D01*
X429636Y202549D01*
X429649Y202467D01*
X429659Y202384D01*
X429665Y202301D01*
X429667Y202218D01*
X429665Y202135D01*
X429659Y202052D01*
X429649Y201969D01*
X429636Y201887D01*
X429618Y201806D01*
X429597Y201725D01*
X429572Y201646D01*
X429544Y201568D01*
X429511Y201491D01*
X429476Y201416D01*
X429436Y201343D01*
X429394Y201272D01*
X429347Y201202D01*
X429298Y201135D01*
X429246Y201071D01*
X429191Y201008D01*
X429133Y200949D01*
X429072Y200892D01*
X429008Y200838D01*
X428942Y200788D01*
X428874Y200740D01*
X428804Y200696D01*
X428732Y200655D01*
X428657Y200617D01*
X428581Y200583D01*
X428504Y200553D01*
X428425Y200526D01*
X428345Y200503D01*
X428265Y200483D01*
X428183Y200468D01*
X428100Y200456D01*
X428018Y200448D01*
X427935Y200444D01*
X427851Y200444D01*
X427768Y200448D01*
X427686Y200456D01*
X427603Y200468D01*
X427521Y200483D01*
X427441Y200503D01*
X427361Y200526D01*
X427282Y200553D01*
X427205Y200583D01*
X427129Y200617D01*
X427054Y200655D01*
X426982Y200696D01*
X426912Y200740D01*
X426844Y200788D01*
X426778Y200838D01*
X426714Y200892D01*
X426653Y200949D01*
X426595Y201008D01*
X426540Y201071D01*
X426488Y201135D01*
X426439Y201202D01*
X426392Y201272D01*
X426350Y201343D01*
X426310Y201416D01*
X426275Y201491D01*
X426242Y201568D01*
X426214Y201646D01*
X426189Y201725D01*
X426168Y201806D01*
X426150Y201887D01*
X426137Y201969D01*
X426127Y202052D01*
X426121Y202135D01*
X426119Y202218D01*
X435932Y196008D02*
X438150Y196008D01*
X438243Y196010D01*
X438336Y196016D01*
X438428Y196025D01*
X438520Y196039D01*
X438611Y196056D01*
X438702Y196078D01*
X438791Y196103D01*
X438879Y196131D01*
X438967Y196164D01*
X439052Y196200D01*
X439136Y196239D01*
X439219Y196282D01*
X439299Y196329D01*
X439377Y196379D01*
X439454Y196432D01*
X439528Y196488D01*
X439599Y196547D01*
X439668Y196609D01*
X439735Y196674D01*
X439798Y196742D01*
X439859Y196812D01*
X439917Y196885D01*
X439971Y196960D01*
X440023Y197038D01*
X440071Y197117D01*
X440116Y197198D01*
X440157Y197282D01*
X440195Y197366D01*
X440229Y197453D01*
X440259Y197541D01*
X440286Y197630D01*
X440309Y197720D01*
X440329Y197810D01*
X440344Y197902D01*
X440356Y197994D01*
X440364Y198087D01*
X440368Y198180D01*
X440368Y198272D01*
X440364Y198365D01*
X440356Y198458D01*
X440344Y198550D01*
X440329Y198642D01*
X440309Y198732D01*
X440286Y198822D01*
X440259Y198911D01*
X440229Y198999D01*
X440195Y199086D01*
X440157Y199170D01*
X440116Y199254D01*
X440071Y199335D01*
X440023Y199414D01*
X439971Y199492D01*
X439917Y199567D01*
X439859Y199640D01*
X439798Y199710D01*
X439735Y199778D01*
X439668Y199843D01*
X439599Y199905D01*
X439528Y199964D01*
X439454Y200020D01*
X439377Y200073D01*
X439299Y200123D01*
X439219Y200170D01*
X439136Y200213D01*
X439052Y200252D01*
X438967Y200288D01*
X438879Y200321D01*
X438791Y200349D01*
X438702Y200374D01*
X438611Y200396D01*
X438520Y200413D01*
X438428Y200427D01*
X438336Y200436D01*
X438243Y200442D01*
X438150Y200444D01*
X438594Y203992D02*
X435932Y203992D01*
X438594Y203992D02*
X438677Y203990D01*
X438760Y203984D01*
X438843Y203974D01*
X438925Y203961D01*
X439006Y203943D01*
X439087Y203922D01*
X439166Y203897D01*
X439244Y203869D01*
X439321Y203836D01*
X439396Y203801D01*
X439469Y203761D01*
X439540Y203719D01*
X439610Y203672D01*
X439677Y203623D01*
X439741Y203571D01*
X439804Y203516D01*
X439863Y203458D01*
X439920Y203397D01*
X439974Y203333D01*
X440024Y203267D01*
X440072Y203199D01*
X440116Y203129D01*
X440157Y203057D01*
X440195Y202982D01*
X440229Y202906D01*
X440259Y202829D01*
X440286Y202750D01*
X440309Y202670D01*
X440329Y202590D01*
X440344Y202508D01*
X440356Y202425D01*
X440364Y202343D01*
X440368Y202260D01*
X440368Y202176D01*
X440364Y202093D01*
X440356Y202011D01*
X440344Y201928D01*
X440329Y201846D01*
X440309Y201766D01*
X440286Y201686D01*
X440259Y201607D01*
X440229Y201530D01*
X440195Y201454D01*
X440157Y201379D01*
X440116Y201307D01*
X440072Y201237D01*
X440024Y201169D01*
X439974Y201103D01*
X439920Y201039D01*
X439863Y200978D01*
X439804Y200920D01*
X439741Y200865D01*
X439677Y200813D01*
X439610Y200764D01*
X439540Y200717D01*
X439469Y200675D01*
X439396Y200635D01*
X439321Y200600D01*
X439244Y200567D01*
X439166Y200539D01*
X439087Y200514D01*
X439006Y200493D01*
X438925Y200475D01*
X438843Y200462D01*
X438760Y200452D01*
X438677Y200446D01*
X438594Y200444D01*
X436819Y200444D01*
X443589Y203992D02*
X446250Y196008D01*
X448911Y203992D01*
X452132Y196008D02*
X454350Y196008D01*
X454443Y196010D01*
X454536Y196016D01*
X454628Y196025D01*
X454720Y196039D01*
X454811Y196056D01*
X454902Y196078D01*
X454991Y196103D01*
X455079Y196131D01*
X455167Y196164D01*
X455252Y196200D01*
X455336Y196239D01*
X455419Y196282D01*
X455499Y196329D01*
X455577Y196379D01*
X455654Y196432D01*
X455728Y196488D01*
X455799Y196547D01*
X455868Y196609D01*
X455935Y196674D01*
X455998Y196742D01*
X456059Y196812D01*
X456117Y196885D01*
X456171Y196960D01*
X456223Y197038D01*
X456271Y197117D01*
X456316Y197198D01*
X456357Y197282D01*
X456395Y197366D01*
X456429Y197453D01*
X456459Y197541D01*
X456486Y197630D01*
X456509Y197720D01*
X456529Y197810D01*
X456544Y197902D01*
X456556Y197994D01*
X456564Y198087D01*
X456568Y198180D01*
X456568Y198272D01*
X456564Y198365D01*
X456556Y198458D01*
X456544Y198550D01*
X456529Y198642D01*
X456509Y198732D01*
X456486Y198822D01*
X456459Y198911D01*
X456429Y198999D01*
X456395Y199086D01*
X456357Y199170D01*
X456316Y199254D01*
X456271Y199335D01*
X456223Y199414D01*
X456171Y199492D01*
X456117Y199567D01*
X456059Y199640D01*
X455998Y199710D01*
X455935Y199778D01*
X455868Y199843D01*
X455799Y199905D01*
X455728Y199964D01*
X455654Y200020D01*
X455577Y200073D01*
X455499Y200123D01*
X455419Y200170D01*
X455336Y200213D01*
X455252Y200252D01*
X455167Y200288D01*
X455079Y200321D01*
X454991Y200349D01*
X454902Y200374D01*
X454811Y200396D01*
X454720Y200413D01*
X454628Y200427D01*
X454536Y200436D01*
X454443Y200442D01*
X454350Y200444D01*
X454794Y203992D02*
X452132Y203992D01*
X454794Y203992D02*
X454877Y203990D01*
X454960Y203984D01*
X455043Y203974D01*
X455125Y203961D01*
X455206Y203943D01*
X455287Y203922D01*
X455366Y203897D01*
X455444Y203869D01*
X455521Y203836D01*
X455596Y203801D01*
X455669Y203761D01*
X455740Y203719D01*
X455810Y203672D01*
X455877Y203623D01*
X455941Y203571D01*
X456004Y203516D01*
X456063Y203458D01*
X456120Y203397D01*
X456174Y203333D01*
X456224Y203267D01*
X456272Y203199D01*
X456316Y203129D01*
X456357Y203057D01*
X456395Y202982D01*
X456429Y202906D01*
X456459Y202829D01*
X456486Y202750D01*
X456509Y202670D01*
X456529Y202590D01*
X456544Y202508D01*
X456556Y202425D01*
X456564Y202343D01*
X456568Y202260D01*
X456568Y202176D01*
X456564Y202093D01*
X456556Y202011D01*
X456544Y201928D01*
X456529Y201846D01*
X456509Y201766D01*
X456486Y201686D01*
X456459Y201607D01*
X456429Y201530D01*
X456395Y201454D01*
X456357Y201379D01*
X456316Y201307D01*
X456272Y201237D01*
X456224Y201169D01*
X456174Y201103D01*
X456120Y201039D01*
X456063Y200978D01*
X456004Y200920D01*
X455941Y200865D01*
X455877Y200813D01*
X455810Y200764D01*
X455740Y200717D01*
X455669Y200675D01*
X455596Y200635D01*
X455521Y200600D01*
X455444Y200567D01*
X455366Y200539D01*
X455287Y200514D01*
X455206Y200493D01*
X455125Y200475D01*
X455043Y200462D01*
X454960Y200452D01*
X454877Y200446D01*
X454794Y200444D01*
X453019Y200444D01*
X103556Y36435D02*
X103556Y34459D01*
X103556Y36435D02*
X103554Y36522D01*
X103548Y36610D01*
X103539Y36697D01*
X103525Y36783D01*
X103508Y36869D01*
X103487Y36953D01*
X103462Y37037D01*
X103433Y37120D01*
X103401Y37201D01*
X103366Y37281D01*
X103327Y37359D01*
X103284Y37436D01*
X103238Y37510D01*
X103189Y37582D01*
X103137Y37652D01*
X103081Y37720D01*
X103023Y37785D01*
X102962Y37848D01*
X102898Y37907D01*
X102831Y37964D01*
X102763Y38018D01*
X102691Y38069D01*
X102618Y38116D01*
X102543Y38161D01*
X102465Y38202D01*
X102386Y38239D01*
X102306Y38273D01*
X102224Y38303D01*
X102141Y38330D01*
X102056Y38353D01*
X101971Y38372D01*
X101885Y38387D01*
X101798Y38399D01*
X101711Y38407D01*
X101624Y38411D01*
X101536Y38411D01*
X101449Y38407D01*
X101362Y38399D01*
X101275Y38387D01*
X101189Y38372D01*
X101104Y38353D01*
X101019Y38330D01*
X100936Y38303D01*
X100854Y38273D01*
X100774Y38239D01*
X100695Y38202D01*
X100617Y38161D01*
X100542Y38116D01*
X100469Y38069D01*
X100397Y38018D01*
X100329Y37964D01*
X100262Y37907D01*
X100198Y37848D01*
X100137Y37785D01*
X100079Y37720D01*
X100023Y37652D01*
X99971Y37582D01*
X99922Y37510D01*
X99876Y37436D01*
X99833Y37359D01*
X99794Y37281D01*
X99759Y37201D01*
X99727Y37120D01*
X99698Y37037D01*
X99673Y36953D01*
X99652Y36869D01*
X99635Y36783D01*
X99621Y36697D01*
X99612Y36610D01*
X99606Y36522D01*
X99604Y36435D01*
X96444Y36830D02*
X96444Y34459D01*
X96444Y36830D02*
X96446Y36909D01*
X96452Y36987D01*
X96462Y37065D01*
X96475Y37143D01*
X96493Y37220D01*
X96514Y37296D01*
X96539Y37370D01*
X96568Y37444D01*
X96600Y37516D01*
X96636Y37586D01*
X96676Y37654D01*
X96719Y37720D01*
X96765Y37784D01*
X96814Y37846D01*
X96866Y37905D01*
X96921Y37961D01*
X96979Y38015D01*
X97039Y38065D01*
X97102Y38113D01*
X97167Y38157D01*
X97234Y38198D01*
X97303Y38236D01*
X97374Y38270D01*
X97447Y38301D01*
X97521Y38328D01*
X97596Y38351D01*
X97672Y38370D01*
X97750Y38386D01*
X97828Y38398D01*
X97906Y38406D01*
X97985Y38410D01*
X98063Y38410D01*
X98142Y38406D01*
X98220Y38398D01*
X98298Y38386D01*
X98376Y38370D01*
X98452Y38351D01*
X98527Y38328D01*
X98601Y38301D01*
X98674Y38270D01*
X98745Y38236D01*
X98814Y38198D01*
X98881Y38157D01*
X98946Y38113D01*
X99009Y38065D01*
X99069Y38015D01*
X99127Y37961D01*
X99182Y37905D01*
X99234Y37846D01*
X99283Y37784D01*
X99329Y37720D01*
X99372Y37654D01*
X99412Y37586D01*
X99448Y37516D01*
X99480Y37444D01*
X99509Y37370D01*
X99534Y37296D01*
X99555Y37220D01*
X99573Y37143D01*
X99586Y37065D01*
X99596Y36987D01*
X99602Y36909D01*
X99604Y36830D01*
X99605Y36830D02*
X99605Y35249D01*
X96444Y41379D02*
X103556Y43750D01*
X96444Y46121D01*
X103556Y49090D02*
X103556Y51065D01*
X103554Y51152D01*
X103548Y51240D01*
X103539Y51327D01*
X103525Y51413D01*
X103508Y51499D01*
X103487Y51583D01*
X103462Y51667D01*
X103433Y51750D01*
X103401Y51831D01*
X103366Y51911D01*
X103327Y51989D01*
X103284Y52066D01*
X103238Y52140D01*
X103189Y52212D01*
X103137Y52282D01*
X103081Y52350D01*
X103023Y52415D01*
X102962Y52478D01*
X102898Y52537D01*
X102831Y52594D01*
X102763Y52648D01*
X102691Y52699D01*
X102618Y52746D01*
X102543Y52791D01*
X102465Y52832D01*
X102386Y52869D01*
X102306Y52903D01*
X102224Y52933D01*
X102141Y52960D01*
X102056Y52983D01*
X101971Y53002D01*
X101885Y53017D01*
X101798Y53029D01*
X101711Y53037D01*
X101624Y53041D01*
X101536Y53041D01*
X101449Y53037D01*
X101362Y53029D01*
X101275Y53017D01*
X101189Y53002D01*
X101104Y52983D01*
X101019Y52960D01*
X100936Y52933D01*
X100854Y52903D01*
X100774Y52869D01*
X100695Y52832D01*
X100617Y52791D01*
X100542Y52746D01*
X100469Y52699D01*
X100397Y52648D01*
X100329Y52594D01*
X100262Y52537D01*
X100198Y52478D01*
X100137Y52415D01*
X100079Y52350D01*
X100023Y52282D01*
X99971Y52212D01*
X99922Y52140D01*
X99876Y52066D01*
X99833Y51989D01*
X99794Y51911D01*
X99759Y51831D01*
X99727Y51750D01*
X99698Y51667D01*
X99673Y51583D01*
X99652Y51499D01*
X99635Y51413D01*
X99621Y51327D01*
X99612Y51240D01*
X99606Y51152D01*
X99604Y51065D01*
X96444Y51460D02*
X96444Y49090D01*
X96444Y51460D02*
X96446Y51539D01*
X96452Y51617D01*
X96462Y51695D01*
X96475Y51773D01*
X96493Y51850D01*
X96514Y51926D01*
X96539Y52000D01*
X96568Y52074D01*
X96600Y52146D01*
X96636Y52216D01*
X96676Y52284D01*
X96719Y52350D01*
X96765Y52414D01*
X96814Y52476D01*
X96866Y52535D01*
X96921Y52591D01*
X96979Y52645D01*
X97039Y52695D01*
X97102Y52743D01*
X97167Y52787D01*
X97234Y52828D01*
X97303Y52866D01*
X97374Y52900D01*
X97447Y52931D01*
X97521Y52958D01*
X97596Y52981D01*
X97672Y53000D01*
X97750Y53016D01*
X97828Y53028D01*
X97906Y53036D01*
X97985Y53040D01*
X98063Y53040D01*
X98142Y53036D01*
X98220Y53028D01*
X98298Y53016D01*
X98376Y53000D01*
X98452Y52981D01*
X98527Y52958D01*
X98601Y52931D01*
X98674Y52900D01*
X98745Y52866D01*
X98814Y52828D01*
X98881Y52787D01*
X98946Y52743D01*
X99009Y52695D01*
X99069Y52645D01*
X99127Y52591D01*
X99182Y52535D01*
X99234Y52476D01*
X99283Y52414D01*
X99329Y52350D01*
X99372Y52284D01*
X99412Y52216D01*
X99448Y52146D01*
X99480Y52074D01*
X99509Y52000D01*
X99534Y51926D01*
X99555Y51850D01*
X99573Y51773D01*
X99586Y51695D01*
X99596Y51617D01*
X99602Y51539D01*
X99604Y51460D01*
X99605Y51460D02*
X99605Y49880D01*
X96444Y59550D02*
X103556Y59550D01*
X96444Y59550D02*
X96444Y61526D01*
X96446Y61612D01*
X96452Y61698D01*
X96461Y61784D01*
X96474Y61869D01*
X96491Y61954D01*
X96511Y62037D01*
X96535Y62120D01*
X96563Y62202D01*
X96594Y62282D01*
X96629Y62361D01*
X96667Y62438D01*
X96709Y62514D01*
X96753Y62588D01*
X96801Y62659D01*
X96852Y62729D01*
X96906Y62796D01*
X96963Y62861D01*
X97023Y62923D01*
X97085Y62983D01*
X97150Y63040D01*
X97217Y63094D01*
X97287Y63145D01*
X97358Y63193D01*
X97432Y63237D01*
X97508Y63279D01*
X97585Y63317D01*
X97664Y63352D01*
X97744Y63383D01*
X97826Y63411D01*
X97909Y63435D01*
X97992Y63455D01*
X98077Y63472D01*
X98162Y63485D01*
X98248Y63494D01*
X98334Y63500D01*
X98420Y63502D01*
X98420Y63501D02*
X101580Y63501D01*
X101580Y63502D02*
X101666Y63500D01*
X101752Y63494D01*
X101838Y63485D01*
X101923Y63472D01*
X102008Y63455D01*
X102091Y63435D01*
X102174Y63411D01*
X102256Y63383D01*
X102336Y63352D01*
X102415Y63317D01*
X102492Y63279D01*
X102568Y63237D01*
X102642Y63193D01*
X102713Y63145D01*
X102783Y63094D01*
X102850Y63040D01*
X102915Y62983D01*
X102977Y62923D01*
X103037Y62861D01*
X103094Y62796D01*
X103148Y62729D01*
X103199Y62659D01*
X103247Y62588D01*
X103291Y62514D01*
X103333Y62438D01*
X103371Y62361D01*
X103406Y62282D01*
X103437Y62202D01*
X103465Y62120D01*
X103489Y62037D01*
X103509Y61954D01*
X103526Y61869D01*
X103539Y61784D01*
X103548Y61698D01*
X103554Y61612D01*
X103556Y61526D01*
X103556Y59550D01*
X103556Y67622D02*
X96444Y67622D01*
X103556Y66832D02*
X103556Y68412D01*
X96444Y68412D02*
X96444Y66832D01*
X98420Y71499D02*
X101580Y71499D01*
X98420Y71498D02*
X98333Y71500D01*
X98245Y71506D01*
X98158Y71515D01*
X98072Y71529D01*
X97986Y71546D01*
X97902Y71567D01*
X97818Y71592D01*
X97735Y71621D01*
X97654Y71653D01*
X97574Y71688D01*
X97496Y71727D01*
X97419Y71770D01*
X97345Y71816D01*
X97273Y71865D01*
X97203Y71917D01*
X97135Y71973D01*
X97070Y72031D01*
X97007Y72092D01*
X96948Y72156D01*
X96891Y72223D01*
X96837Y72291D01*
X96786Y72363D01*
X96739Y72436D01*
X96694Y72511D01*
X96653Y72589D01*
X96616Y72668D01*
X96582Y72748D01*
X96552Y72830D01*
X96525Y72913D01*
X96502Y72998D01*
X96483Y73083D01*
X96468Y73169D01*
X96456Y73256D01*
X96448Y73343D01*
X96444Y73430D01*
X96444Y73518D01*
X96448Y73605D01*
X96456Y73692D01*
X96468Y73779D01*
X96483Y73865D01*
X96502Y73950D01*
X96525Y74035D01*
X96552Y74118D01*
X96582Y74200D01*
X96616Y74280D01*
X96653Y74359D01*
X96694Y74437D01*
X96739Y74512D01*
X96786Y74585D01*
X96837Y74657D01*
X96891Y74725D01*
X96948Y74792D01*
X97007Y74856D01*
X97070Y74917D01*
X97135Y74975D01*
X97203Y75031D01*
X97273Y75083D01*
X97345Y75132D01*
X97419Y75178D01*
X97496Y75221D01*
X97574Y75260D01*
X97654Y75295D01*
X97735Y75327D01*
X97818Y75356D01*
X97902Y75381D01*
X97986Y75402D01*
X98072Y75419D01*
X98158Y75433D01*
X98245Y75442D01*
X98333Y75448D01*
X98420Y75450D01*
X101580Y75450D01*
X101667Y75448D01*
X101755Y75442D01*
X101842Y75433D01*
X101928Y75419D01*
X102014Y75402D01*
X102098Y75381D01*
X102182Y75356D01*
X102265Y75327D01*
X102346Y75295D01*
X102426Y75260D01*
X102504Y75221D01*
X102581Y75178D01*
X102655Y75132D01*
X102727Y75083D01*
X102797Y75031D01*
X102865Y74975D01*
X102930Y74917D01*
X102993Y74856D01*
X103052Y74792D01*
X103109Y74725D01*
X103163Y74657D01*
X103214Y74585D01*
X103261Y74512D01*
X103306Y74437D01*
X103347Y74359D01*
X103384Y74280D01*
X103418Y74200D01*
X103448Y74118D01*
X103475Y74035D01*
X103498Y73950D01*
X103517Y73865D01*
X103532Y73779D01*
X103544Y73692D01*
X103552Y73605D01*
X103556Y73518D01*
X103556Y73430D01*
X103552Y73343D01*
X103544Y73256D01*
X103532Y73169D01*
X103517Y73083D01*
X103498Y72998D01*
X103475Y72913D01*
X103448Y72830D01*
X103418Y72748D01*
X103384Y72668D01*
X103347Y72589D01*
X103306Y72511D01*
X103261Y72436D01*
X103214Y72363D01*
X103163Y72291D01*
X103109Y72223D01*
X103052Y72156D01*
X102993Y72092D01*
X102930Y72031D01*
X102865Y71973D01*
X102797Y71917D01*
X102727Y71865D01*
X102655Y71816D01*
X102581Y71770D01*
X102504Y71727D01*
X102426Y71688D01*
X102346Y71653D01*
X102265Y71621D01*
X102182Y71592D01*
X102098Y71567D01*
X102014Y71546D01*
X101928Y71529D01*
X101842Y71515D01*
X101755Y71506D01*
X101667Y71500D01*
X101580Y71498D01*
X103556Y85682D02*
X103556Y87262D01*
X103556Y85682D02*
X103554Y85604D01*
X103548Y85527D01*
X103539Y85450D01*
X103526Y85374D01*
X103509Y85298D01*
X103488Y85223D01*
X103464Y85150D01*
X103436Y85077D01*
X103404Y85006D01*
X103369Y84937D01*
X103331Y84870D01*
X103290Y84804D01*
X103245Y84741D01*
X103197Y84680D01*
X103147Y84621D01*
X103093Y84565D01*
X103037Y84511D01*
X102978Y84461D01*
X102917Y84413D01*
X102854Y84368D01*
X102788Y84327D01*
X102721Y84289D01*
X102652Y84254D01*
X102581Y84222D01*
X102508Y84194D01*
X102435Y84170D01*
X102360Y84149D01*
X102284Y84132D01*
X102208Y84119D01*
X102131Y84110D01*
X102054Y84104D01*
X101976Y84102D01*
X98024Y84102D01*
X98024Y84101D02*
X97946Y84103D01*
X97869Y84109D01*
X97792Y84118D01*
X97716Y84131D01*
X97640Y84148D01*
X97565Y84169D01*
X97491Y84193D01*
X97419Y84221D01*
X97348Y84253D01*
X97279Y84288D01*
X97211Y84326D01*
X97146Y84367D01*
X97082Y84412D01*
X97021Y84460D01*
X96962Y84511D01*
X96906Y84564D01*
X96853Y84620D01*
X96802Y84679D01*
X96754Y84740D01*
X96709Y84804D01*
X96668Y84869D01*
X96630Y84937D01*
X96595Y85006D01*
X96563Y85077D01*
X96535Y85149D01*
X96511Y85223D01*
X96490Y85298D01*
X96473Y85374D01*
X96460Y85450D01*
X96451Y85527D01*
X96445Y85604D01*
X96443Y85682D01*
X96444Y85682D02*
X96444Y87262D01*
X96444Y90487D02*
X103556Y90487D01*
X103556Y93648D01*
X103556Y96947D02*
X96444Y96947D01*
X96444Y100898D02*
X100790Y96947D01*
X99210Y98528D02*
X103556Y100898D01*
X99605Y110487D02*
X99605Y111673D01*
X103556Y111673D01*
X103556Y109302D01*
X103554Y109224D01*
X103548Y109147D01*
X103539Y109070D01*
X103526Y108994D01*
X103509Y108918D01*
X103488Y108843D01*
X103464Y108770D01*
X103436Y108697D01*
X103404Y108626D01*
X103369Y108557D01*
X103331Y108490D01*
X103290Y108424D01*
X103245Y108361D01*
X103197Y108300D01*
X103147Y108241D01*
X103093Y108185D01*
X103037Y108131D01*
X102978Y108081D01*
X102917Y108033D01*
X102854Y107988D01*
X102788Y107947D01*
X102721Y107909D01*
X102652Y107874D01*
X102581Y107842D01*
X102508Y107814D01*
X102435Y107790D01*
X102360Y107769D01*
X102284Y107752D01*
X102208Y107739D01*
X102131Y107730D01*
X102054Y107724D01*
X101976Y107722D01*
X98024Y107722D01*
X98024Y107721D02*
X97946Y107723D01*
X97869Y107729D01*
X97792Y107738D01*
X97716Y107751D01*
X97640Y107768D01*
X97565Y107789D01*
X97491Y107813D01*
X97419Y107841D01*
X97348Y107873D01*
X97279Y107908D01*
X97211Y107946D01*
X97146Y107987D01*
X97082Y108032D01*
X97021Y108080D01*
X96962Y108131D01*
X96906Y108184D01*
X96853Y108240D01*
X96802Y108299D01*
X96754Y108360D01*
X96709Y108424D01*
X96668Y108489D01*
X96630Y108557D01*
X96595Y108626D01*
X96563Y108697D01*
X96535Y108769D01*
X96511Y108843D01*
X96490Y108918D01*
X96473Y108994D01*
X96460Y109070D01*
X96451Y109147D01*
X96445Y109224D01*
X96443Y109302D01*
X96444Y109302D02*
X96444Y111673D01*
X96444Y115524D02*
X103556Y115524D01*
X103556Y119476D02*
X96444Y115524D01*
X96444Y119476D02*
X103556Y119476D01*
X103556Y123327D02*
X96444Y123327D01*
X96444Y125303D01*
X96446Y125389D01*
X96452Y125475D01*
X96461Y125561D01*
X96474Y125646D01*
X96491Y125731D01*
X96511Y125814D01*
X96535Y125897D01*
X96563Y125979D01*
X96594Y126059D01*
X96629Y126138D01*
X96667Y126215D01*
X96709Y126291D01*
X96753Y126365D01*
X96801Y126436D01*
X96852Y126506D01*
X96906Y126573D01*
X96963Y126638D01*
X97023Y126700D01*
X97085Y126760D01*
X97150Y126817D01*
X97217Y126871D01*
X97287Y126922D01*
X97358Y126970D01*
X97432Y127014D01*
X97508Y127056D01*
X97585Y127094D01*
X97664Y127129D01*
X97744Y127160D01*
X97826Y127188D01*
X97909Y127212D01*
X97992Y127232D01*
X98077Y127249D01*
X98162Y127262D01*
X98248Y127271D01*
X98334Y127277D01*
X98420Y127279D01*
X98420Y127278D02*
X101580Y127278D01*
X101580Y127279D02*
X101666Y127277D01*
X101752Y127271D01*
X101838Y127262D01*
X101923Y127249D01*
X102008Y127232D01*
X102091Y127212D01*
X102174Y127188D01*
X102256Y127160D01*
X102336Y127129D01*
X102415Y127094D01*
X102492Y127056D01*
X102568Y127014D01*
X102642Y126970D01*
X102713Y126922D01*
X102783Y126871D01*
X102850Y126817D01*
X102915Y126760D01*
X102977Y126700D01*
X103037Y126638D01*
X103094Y126573D01*
X103148Y126506D01*
X103199Y126436D01*
X103247Y126365D01*
X103291Y126291D01*
X103333Y126215D01*
X103371Y126138D01*
X103406Y126059D01*
X103437Y125979D01*
X103465Y125897D01*
X103489Y125814D01*
X103509Y125731D01*
X103526Y125646D01*
X103539Y125561D01*
X103548Y125475D01*
X103554Y125389D01*
X103556Y125303D01*
X103556Y123327D01*
D11*
X264000Y149000D02*
X264000Y81000D01*
X196000Y81000D01*
X196000Y146000D01*
X199000Y149000D02*
X264000Y149000D01*
X199000Y149000D02*
X196000Y146000D01*
X191424Y151830D02*
X191426Y151919D01*
X191432Y152008D01*
X191442Y152097D01*
X191456Y152185D01*
X191473Y152272D01*
X191495Y152358D01*
X191521Y152444D01*
X191550Y152528D01*
X191583Y152611D01*
X191619Y152692D01*
X191660Y152772D01*
X191703Y152849D01*
X191750Y152925D01*
X191801Y152998D01*
X191854Y153069D01*
X191911Y153138D01*
X191971Y153204D01*
X192034Y153268D01*
X192099Y153328D01*
X192167Y153386D01*
X192238Y153440D01*
X192311Y153491D01*
X192386Y153539D01*
X192463Y153584D01*
X192542Y153625D01*
X192623Y153662D01*
X192705Y153696D01*
X192789Y153727D01*
X192874Y153753D01*
X192960Y153776D01*
X193047Y153794D01*
X193135Y153809D01*
X193224Y153820D01*
X193313Y153827D01*
X193402Y153830D01*
X193491Y153829D01*
X193580Y153824D01*
X193668Y153815D01*
X193757Y153802D01*
X193844Y153785D01*
X193931Y153765D01*
X194017Y153740D01*
X194101Y153712D01*
X194184Y153680D01*
X194266Y153644D01*
X194346Y153605D01*
X194424Y153562D01*
X194500Y153516D01*
X194574Y153466D01*
X194646Y153413D01*
X194715Y153357D01*
X194782Y153298D01*
X194846Y153236D01*
X194907Y153172D01*
X194966Y153104D01*
X195021Y153034D01*
X195073Y152962D01*
X195122Y152887D01*
X195167Y152811D01*
X195209Y152732D01*
X195247Y152652D01*
X195282Y152570D01*
X195313Y152486D01*
X195341Y152401D01*
X195364Y152315D01*
X195384Y152228D01*
X195400Y152141D01*
X195412Y152052D01*
X195420Y151964D01*
X195424Y151875D01*
X195424Y151785D01*
X195420Y151696D01*
X195412Y151608D01*
X195400Y151519D01*
X195384Y151432D01*
X195364Y151345D01*
X195341Y151259D01*
X195313Y151174D01*
X195282Y151090D01*
X195247Y151008D01*
X195209Y150928D01*
X195167Y150849D01*
X195122Y150773D01*
X195073Y150698D01*
X195021Y150626D01*
X194966Y150556D01*
X194907Y150488D01*
X194846Y150424D01*
X194782Y150362D01*
X194715Y150303D01*
X194646Y150247D01*
X194574Y150194D01*
X194500Y150144D01*
X194424Y150098D01*
X194346Y150055D01*
X194266Y150016D01*
X194184Y149980D01*
X194101Y149948D01*
X194017Y149920D01*
X193931Y149895D01*
X193844Y149875D01*
X193757Y149858D01*
X193668Y149845D01*
X193580Y149836D01*
X193491Y149831D01*
X193402Y149830D01*
X193313Y149833D01*
X193224Y149840D01*
X193135Y149851D01*
X193047Y149866D01*
X192960Y149884D01*
X192874Y149907D01*
X192789Y149933D01*
X192705Y149964D01*
X192623Y149998D01*
X192542Y150035D01*
X192463Y150076D01*
X192386Y150121D01*
X192311Y150169D01*
X192238Y150220D01*
X192167Y150274D01*
X192099Y150332D01*
X192034Y150392D01*
X191971Y150456D01*
X191911Y150522D01*
X191854Y150591D01*
X191801Y150662D01*
X191750Y150735D01*
X191703Y150811D01*
X191660Y150888D01*
X191619Y150968D01*
X191583Y151049D01*
X191550Y151132D01*
X191521Y151216D01*
X191495Y151302D01*
X191473Y151388D01*
X191456Y151475D01*
X191442Y151563D01*
X191432Y151652D01*
X191426Y151741D01*
X191424Y151830D01*
D12*
X265792Y154635D02*
X265792Y163525D01*
X264804Y154635D02*
X266779Y154635D01*
X266779Y163525D02*
X264804Y163525D01*
X272579Y154635D02*
X274554Y154635D01*
X272579Y154635D02*
X272493Y154637D01*
X272407Y154643D01*
X272321Y154652D01*
X272236Y154665D01*
X272151Y154682D01*
X272068Y154702D01*
X271985Y154726D01*
X271903Y154754D01*
X271823Y154785D01*
X271744Y154820D01*
X271667Y154858D01*
X271591Y154900D01*
X271517Y154944D01*
X271446Y154992D01*
X271376Y155043D01*
X271309Y155097D01*
X271244Y155154D01*
X271182Y155214D01*
X271122Y155276D01*
X271065Y155341D01*
X271011Y155408D01*
X270960Y155478D01*
X270912Y155549D01*
X270868Y155623D01*
X270826Y155699D01*
X270788Y155776D01*
X270753Y155855D01*
X270722Y155935D01*
X270694Y156017D01*
X270670Y156100D01*
X270650Y156183D01*
X270633Y156268D01*
X270620Y156353D01*
X270611Y156439D01*
X270605Y156525D01*
X270603Y156611D01*
X270603Y161549D01*
X270605Y161638D01*
X270611Y161726D01*
X270621Y161814D01*
X270635Y161902D01*
X270653Y161989D01*
X270674Y162075D01*
X270700Y162160D01*
X270729Y162243D01*
X270762Y162326D01*
X270799Y162406D01*
X270839Y162485D01*
X270883Y162562D01*
X270930Y162638D01*
X270980Y162710D01*
X271034Y162781D01*
X271091Y162849D01*
X271151Y162915D01*
X271213Y162977D01*
X271279Y163037D01*
X271347Y163094D01*
X271418Y163148D01*
X271490Y163198D01*
X271565Y163245D01*
X271643Y163289D01*
X271722Y163329D01*
X271802Y163366D01*
X271885Y163399D01*
X271968Y163428D01*
X272053Y163454D01*
X272139Y163475D01*
X272226Y163493D01*
X272314Y163507D01*
X272402Y163517D01*
X272490Y163523D01*
X272579Y163525D01*
X274554Y163525D01*
X278257Y161549D02*
X280727Y163525D01*
X280727Y154635D01*
X283196Y154635D02*
X278257Y154635D01*
D11*
X198730Y40770D02*
X159270Y40770D01*
X159270Y60430D01*
X198730Y60430D01*
X198730Y40770D01*
D12*
X201996Y45855D02*
X201996Y54745D01*
X204466Y54745D01*
X204564Y54743D01*
X204662Y54737D01*
X204760Y54727D01*
X204857Y54714D01*
X204954Y54696D01*
X205050Y54675D01*
X205144Y54650D01*
X205238Y54621D01*
X205331Y54589D01*
X205422Y54552D01*
X205512Y54513D01*
X205600Y54469D01*
X205686Y54422D01*
X205771Y54372D01*
X205853Y54319D01*
X205933Y54262D01*
X206011Y54202D01*
X206086Y54139D01*
X206159Y54073D01*
X206229Y54004D01*
X206296Y53933D01*
X206361Y53859D01*
X206422Y53782D01*
X206481Y53703D01*
X206536Y53622D01*
X206588Y53539D01*
X206636Y53453D01*
X206681Y53366D01*
X206723Y53277D01*
X206761Y53187D01*
X206795Y53095D01*
X206826Y53002D01*
X206853Y52907D01*
X206876Y52812D01*
X206896Y52715D01*
X206911Y52619D01*
X206923Y52521D01*
X206931Y52423D01*
X206935Y52325D01*
X206935Y52227D01*
X206931Y52129D01*
X206923Y52031D01*
X206911Y51933D01*
X206896Y51837D01*
X206876Y51740D01*
X206853Y51645D01*
X206826Y51550D01*
X206795Y51457D01*
X206761Y51365D01*
X206723Y51275D01*
X206681Y51186D01*
X206636Y51099D01*
X206588Y51013D01*
X206536Y50930D01*
X206481Y50849D01*
X206422Y50770D01*
X206361Y50693D01*
X206296Y50619D01*
X206229Y50548D01*
X206159Y50479D01*
X206086Y50413D01*
X206011Y50350D01*
X205933Y50290D01*
X205853Y50233D01*
X205771Y50180D01*
X205686Y50130D01*
X205600Y50083D01*
X205512Y50039D01*
X205422Y50000D01*
X205331Y49963D01*
X205238Y49931D01*
X205144Y49902D01*
X205050Y49877D01*
X204954Y49856D01*
X204857Y49838D01*
X204760Y49825D01*
X204662Y49815D01*
X204564Y49809D01*
X204466Y49807D01*
X204466Y49806D02*
X201996Y49806D01*
X204960Y49806D02*
X206935Y45855D01*
X211065Y52769D02*
X213534Y54745D01*
X213534Y45855D01*
X211065Y45855D02*
X216004Y45855D01*
X308560Y167070D02*
X308560Y179770D01*
X413335Y179770D01*
X308560Y65470D02*
X308560Y52770D01*
X413335Y52770D01*
X413335Y179770D01*
X413335Y52770D02*
X492710Y52770D01*
X492710Y179770D01*
X413335Y179770D01*
D13*
X419685Y173420D02*
X486360Y173420D01*
X486360Y160720D01*
X445085Y160720D01*
X445085Y148020D01*
X486360Y148020D01*
X486360Y135320D01*
X445085Y135320D01*
X445085Y122620D01*
X486360Y122620D01*
X486360Y109920D01*
X445085Y109920D01*
X445085Y97220D01*
X486360Y97220D01*
X486360Y59120D01*
X419685Y97220D02*
X419685Y173420D01*
D14*
X327497Y157291D02*
X325451Y157291D01*
X327497Y157291D02*
X327586Y157293D01*
X327675Y157299D01*
X327764Y157309D01*
X327852Y157322D01*
X327940Y157339D01*
X328027Y157361D01*
X328112Y157386D01*
X328197Y157414D01*
X328280Y157447D01*
X328362Y157483D01*
X328442Y157522D01*
X328520Y157565D01*
X328596Y157611D01*
X328671Y157661D01*
X328743Y157714D01*
X328812Y157770D01*
X328879Y157829D01*
X328944Y157890D01*
X329005Y157955D01*
X329064Y158022D01*
X329120Y158091D01*
X329173Y158163D01*
X329223Y158238D01*
X329269Y158314D01*
X329312Y158392D01*
X329351Y158472D01*
X329387Y158554D01*
X329420Y158637D01*
X329448Y158722D01*
X329473Y158807D01*
X329495Y158894D01*
X329512Y158982D01*
X329525Y159070D01*
X329535Y159159D01*
X329541Y159248D01*
X329543Y159337D01*
X329541Y159426D01*
X329535Y159515D01*
X329525Y159604D01*
X329512Y159692D01*
X329495Y159780D01*
X329473Y159867D01*
X329448Y159952D01*
X329420Y160037D01*
X329387Y160120D01*
X329351Y160202D01*
X329312Y160282D01*
X329269Y160360D01*
X329223Y160436D01*
X329173Y160511D01*
X329120Y160583D01*
X329064Y160652D01*
X329005Y160719D01*
X328944Y160784D01*
X328879Y160845D01*
X328812Y160904D01*
X328743Y160960D01*
X328671Y161013D01*
X328596Y161063D01*
X328520Y161109D01*
X328442Y161152D01*
X328362Y161191D01*
X328280Y161227D01*
X328197Y161260D01*
X328112Y161288D01*
X328027Y161313D01*
X327940Y161335D01*
X327852Y161352D01*
X327764Y161365D01*
X327675Y161375D01*
X327586Y161381D01*
X327497Y161383D01*
X327906Y164657D02*
X325451Y164657D01*
X327906Y164657D02*
X327985Y164655D01*
X328064Y164649D01*
X328143Y164640D01*
X328221Y164627D01*
X328298Y164609D01*
X328374Y164589D01*
X328449Y164564D01*
X328523Y164536D01*
X328596Y164505D01*
X328667Y164469D01*
X328736Y164431D01*
X328803Y164389D01*
X328868Y164344D01*
X328931Y164296D01*
X328992Y164245D01*
X329049Y164191D01*
X329105Y164135D01*
X329157Y164076D01*
X329207Y164014D01*
X329253Y163950D01*
X329297Y163884D01*
X329337Y163816D01*
X329373Y163746D01*
X329407Y163674D01*
X329437Y163600D01*
X329463Y163526D01*
X329486Y163450D01*
X329504Y163373D01*
X329520Y163296D01*
X329531Y163217D01*
X329539Y163139D01*
X329543Y163060D01*
X329543Y162980D01*
X329539Y162901D01*
X329531Y162823D01*
X329520Y162744D01*
X329504Y162667D01*
X329486Y162590D01*
X329463Y162514D01*
X329437Y162440D01*
X329407Y162366D01*
X329373Y162294D01*
X329337Y162224D01*
X329297Y162156D01*
X329253Y162090D01*
X329207Y162026D01*
X329157Y161964D01*
X329105Y161905D01*
X329049Y161849D01*
X328992Y161795D01*
X328931Y161744D01*
X328868Y161696D01*
X328803Y161651D01*
X328736Y161609D01*
X328667Y161571D01*
X328596Y161535D01*
X328523Y161504D01*
X328449Y161476D01*
X328374Y161451D01*
X328298Y161431D01*
X328221Y161413D01*
X328143Y161400D01*
X328064Y161391D01*
X327985Y161385D01*
X327906Y161383D01*
X326269Y161383D01*
X332357Y164657D02*
X334812Y157291D01*
X337268Y164657D01*
X340081Y157291D02*
X342127Y157291D01*
X342216Y157293D01*
X342305Y157299D01*
X342394Y157309D01*
X342482Y157322D01*
X342570Y157339D01*
X342657Y157361D01*
X342742Y157386D01*
X342827Y157414D01*
X342910Y157447D01*
X342992Y157483D01*
X343072Y157522D01*
X343150Y157565D01*
X343226Y157611D01*
X343301Y157661D01*
X343373Y157714D01*
X343442Y157770D01*
X343509Y157829D01*
X343574Y157890D01*
X343635Y157955D01*
X343694Y158022D01*
X343750Y158091D01*
X343803Y158163D01*
X343853Y158238D01*
X343899Y158314D01*
X343942Y158392D01*
X343981Y158472D01*
X344017Y158554D01*
X344050Y158637D01*
X344078Y158722D01*
X344103Y158807D01*
X344125Y158894D01*
X344142Y158982D01*
X344155Y159070D01*
X344165Y159159D01*
X344171Y159248D01*
X344173Y159337D01*
X344171Y159426D01*
X344165Y159515D01*
X344155Y159604D01*
X344142Y159692D01*
X344125Y159780D01*
X344103Y159867D01*
X344078Y159952D01*
X344050Y160037D01*
X344017Y160120D01*
X343981Y160202D01*
X343942Y160282D01*
X343899Y160360D01*
X343853Y160436D01*
X343803Y160511D01*
X343750Y160583D01*
X343694Y160652D01*
X343635Y160719D01*
X343574Y160784D01*
X343509Y160845D01*
X343442Y160904D01*
X343373Y160960D01*
X343301Y161013D01*
X343226Y161063D01*
X343150Y161109D01*
X343072Y161152D01*
X342992Y161191D01*
X342910Y161227D01*
X342827Y161260D01*
X342742Y161288D01*
X342657Y161313D01*
X342570Y161335D01*
X342482Y161352D01*
X342394Y161365D01*
X342305Y161375D01*
X342216Y161381D01*
X342127Y161383D01*
X342537Y164657D02*
X340081Y164657D01*
X342537Y164657D02*
X342616Y164655D01*
X342695Y164649D01*
X342774Y164640D01*
X342852Y164627D01*
X342929Y164609D01*
X343005Y164589D01*
X343080Y164564D01*
X343154Y164536D01*
X343227Y164505D01*
X343298Y164469D01*
X343367Y164431D01*
X343434Y164389D01*
X343499Y164344D01*
X343562Y164296D01*
X343623Y164245D01*
X343680Y164191D01*
X343736Y164135D01*
X343788Y164076D01*
X343838Y164014D01*
X343884Y163950D01*
X343928Y163884D01*
X343968Y163816D01*
X344004Y163746D01*
X344038Y163674D01*
X344068Y163600D01*
X344094Y163526D01*
X344117Y163450D01*
X344135Y163373D01*
X344151Y163296D01*
X344162Y163217D01*
X344170Y163139D01*
X344174Y163060D01*
X344174Y162980D01*
X344170Y162901D01*
X344162Y162823D01*
X344151Y162744D01*
X344135Y162667D01*
X344117Y162590D01*
X344094Y162514D01*
X344068Y162440D01*
X344038Y162366D01*
X344004Y162294D01*
X343968Y162224D01*
X343928Y162156D01*
X343884Y162090D01*
X343838Y162026D01*
X343788Y161964D01*
X343736Y161905D01*
X343680Y161849D01*
X343623Y161795D01*
X343562Y161744D01*
X343499Y161696D01*
X343434Y161651D01*
X343367Y161609D01*
X343298Y161571D01*
X343227Y161535D01*
X343154Y161504D01*
X343080Y161476D01*
X343005Y161451D01*
X342929Y161431D01*
X342852Y161413D01*
X342774Y161400D01*
X342695Y161391D01*
X342616Y161385D01*
X342537Y161383D01*
X340900Y161383D01*
X329543Y148683D02*
X328316Y148683D01*
X329543Y148683D02*
X329543Y144591D01*
X327088Y144591D01*
X327010Y144593D01*
X326932Y144598D01*
X326855Y144608D01*
X326778Y144621D01*
X326702Y144637D01*
X326627Y144657D01*
X326553Y144681D01*
X326480Y144708D01*
X326408Y144739D01*
X326338Y144773D01*
X326270Y144810D01*
X326203Y144851D01*
X326138Y144895D01*
X326076Y144941D01*
X326016Y144991D01*
X325958Y145043D01*
X325903Y145098D01*
X325851Y145156D01*
X325801Y145216D01*
X325755Y145278D01*
X325711Y145343D01*
X325670Y145410D01*
X325633Y145478D01*
X325599Y145548D01*
X325568Y145620D01*
X325541Y145693D01*
X325517Y145767D01*
X325497Y145842D01*
X325481Y145918D01*
X325468Y145995D01*
X325458Y146072D01*
X325453Y146150D01*
X325451Y146228D01*
X325451Y150320D01*
X325453Y150400D01*
X325459Y150480D01*
X325469Y150560D01*
X325482Y150639D01*
X325500Y150718D01*
X325521Y150795D01*
X325547Y150871D01*
X325576Y150946D01*
X325608Y151020D01*
X325644Y151092D01*
X325684Y151162D01*
X325727Y151229D01*
X325773Y151295D01*
X325823Y151358D01*
X325875Y151419D01*
X325930Y151478D01*
X325989Y151533D01*
X326049Y151585D01*
X326113Y151635D01*
X326179Y151681D01*
X326246Y151724D01*
X326316Y151764D01*
X326388Y151800D01*
X326462Y151832D01*
X326536Y151861D01*
X326613Y151887D01*
X326690Y151908D01*
X326769Y151926D01*
X326848Y151939D01*
X326928Y151949D01*
X327008Y151955D01*
X327088Y151957D01*
X329543Y151957D01*
X333254Y151957D02*
X333254Y144591D01*
X337346Y144591D02*
X333254Y151957D01*
X337346Y151957D02*
X337346Y144591D01*
X341057Y144591D02*
X341057Y151957D01*
X343103Y151957D01*
X343192Y151955D01*
X343281Y151949D01*
X343370Y151939D01*
X343458Y151926D01*
X343546Y151909D01*
X343633Y151887D01*
X343718Y151862D01*
X343803Y151834D01*
X343886Y151801D01*
X343968Y151765D01*
X344048Y151726D01*
X344126Y151683D01*
X344202Y151637D01*
X344277Y151587D01*
X344349Y151534D01*
X344418Y151478D01*
X344485Y151419D01*
X344550Y151358D01*
X344611Y151293D01*
X344670Y151226D01*
X344726Y151157D01*
X344779Y151085D01*
X344829Y151010D01*
X344875Y150934D01*
X344918Y150856D01*
X344957Y150776D01*
X344993Y150694D01*
X345026Y150611D01*
X345054Y150526D01*
X345079Y150441D01*
X345101Y150354D01*
X345118Y150266D01*
X345131Y150178D01*
X345141Y150089D01*
X345147Y150000D01*
X345149Y149911D01*
X345149Y146637D01*
X345147Y146548D01*
X345141Y146459D01*
X345131Y146370D01*
X345118Y146282D01*
X345101Y146194D01*
X345079Y146107D01*
X345054Y146022D01*
X345026Y145937D01*
X344993Y145854D01*
X344957Y145772D01*
X344918Y145692D01*
X344875Y145614D01*
X344829Y145538D01*
X344779Y145463D01*
X344726Y145391D01*
X344670Y145322D01*
X344611Y145255D01*
X344550Y145190D01*
X344485Y145129D01*
X344418Y145070D01*
X344349Y145014D01*
X344277Y144961D01*
X344202Y144911D01*
X344126Y144865D01*
X344048Y144822D01*
X343968Y144783D01*
X343886Y144747D01*
X343803Y144714D01*
X343718Y144686D01*
X343633Y144661D01*
X343546Y144639D01*
X343458Y144622D01*
X343370Y144609D01*
X343281Y144599D01*
X343192Y144593D01*
X343103Y144591D01*
X341057Y144591D01*
X328725Y131891D02*
X327088Y131891D01*
X327010Y131893D01*
X326932Y131898D01*
X326855Y131908D01*
X326778Y131921D01*
X326702Y131937D01*
X326627Y131957D01*
X326553Y131981D01*
X326480Y132008D01*
X326408Y132039D01*
X326338Y132073D01*
X326270Y132110D01*
X326203Y132151D01*
X326138Y132195D01*
X326076Y132241D01*
X326016Y132291D01*
X325958Y132343D01*
X325903Y132398D01*
X325851Y132456D01*
X325801Y132516D01*
X325755Y132578D01*
X325711Y132643D01*
X325670Y132710D01*
X325633Y132778D01*
X325599Y132848D01*
X325568Y132920D01*
X325541Y132993D01*
X325517Y133067D01*
X325497Y133142D01*
X325481Y133218D01*
X325468Y133295D01*
X325458Y133372D01*
X325453Y133450D01*
X325451Y133528D01*
X325451Y137620D01*
X325453Y137700D01*
X325459Y137780D01*
X325469Y137860D01*
X325482Y137939D01*
X325500Y138018D01*
X325521Y138095D01*
X325547Y138171D01*
X325576Y138246D01*
X325608Y138320D01*
X325644Y138392D01*
X325684Y138462D01*
X325727Y138529D01*
X325773Y138595D01*
X325823Y138658D01*
X325875Y138719D01*
X325930Y138778D01*
X325989Y138833D01*
X326049Y138885D01*
X326113Y138935D01*
X326179Y138981D01*
X326246Y139024D01*
X326316Y139064D01*
X326388Y139100D01*
X326462Y139132D01*
X326536Y139161D01*
X326613Y139187D01*
X326690Y139208D01*
X326769Y139226D01*
X326848Y139239D01*
X326928Y139249D01*
X327008Y139255D01*
X327088Y139257D01*
X328725Y139257D01*
X331830Y131891D02*
X335103Y131891D01*
X331830Y131891D02*
X331830Y139257D01*
X335103Y139257D01*
X334285Y135983D02*
X331830Y135983D01*
X328725Y119191D02*
X327088Y119191D01*
X327010Y119193D01*
X326932Y119198D01*
X326855Y119208D01*
X326778Y119221D01*
X326702Y119237D01*
X326627Y119257D01*
X326553Y119281D01*
X326480Y119308D01*
X326408Y119339D01*
X326338Y119373D01*
X326270Y119410D01*
X326203Y119451D01*
X326138Y119495D01*
X326076Y119541D01*
X326016Y119591D01*
X325958Y119643D01*
X325903Y119698D01*
X325851Y119756D01*
X325801Y119816D01*
X325755Y119878D01*
X325711Y119943D01*
X325670Y120010D01*
X325633Y120078D01*
X325599Y120148D01*
X325568Y120220D01*
X325541Y120293D01*
X325517Y120367D01*
X325497Y120442D01*
X325481Y120518D01*
X325468Y120595D01*
X325458Y120672D01*
X325453Y120750D01*
X325451Y120828D01*
X325451Y124920D01*
X325453Y125000D01*
X325459Y125080D01*
X325469Y125160D01*
X325482Y125239D01*
X325500Y125318D01*
X325521Y125395D01*
X325547Y125471D01*
X325576Y125546D01*
X325608Y125620D01*
X325644Y125692D01*
X325684Y125762D01*
X325727Y125829D01*
X325773Y125895D01*
X325823Y125958D01*
X325875Y126019D01*
X325930Y126078D01*
X325989Y126133D01*
X326049Y126185D01*
X326113Y126235D01*
X326179Y126281D01*
X326246Y126324D01*
X326316Y126364D01*
X326388Y126400D01*
X326462Y126432D01*
X326536Y126461D01*
X326613Y126487D01*
X326690Y126508D01*
X326769Y126526D01*
X326848Y126539D01*
X326928Y126549D01*
X327008Y126555D01*
X327088Y126557D01*
X328725Y126557D01*
X335419Y120828D02*
X335417Y120750D01*
X335412Y120672D01*
X335402Y120595D01*
X335389Y120518D01*
X335373Y120442D01*
X335353Y120367D01*
X335329Y120293D01*
X335302Y120220D01*
X335271Y120148D01*
X335237Y120078D01*
X335200Y120010D01*
X335159Y119943D01*
X335115Y119878D01*
X335069Y119816D01*
X335019Y119756D01*
X334967Y119698D01*
X334912Y119643D01*
X334854Y119591D01*
X334794Y119541D01*
X334732Y119495D01*
X334667Y119451D01*
X334601Y119410D01*
X334532Y119373D01*
X334462Y119339D01*
X334390Y119308D01*
X334317Y119281D01*
X334243Y119257D01*
X334168Y119237D01*
X334092Y119221D01*
X334015Y119208D01*
X333938Y119198D01*
X333860Y119193D01*
X333782Y119191D01*
X333668Y119193D01*
X333555Y119198D01*
X333441Y119208D01*
X333328Y119221D01*
X333216Y119238D01*
X333104Y119258D01*
X332993Y119282D01*
X332882Y119310D01*
X332773Y119341D01*
X332665Y119376D01*
X332558Y119415D01*
X332452Y119457D01*
X332348Y119502D01*
X332245Y119551D01*
X332144Y119604D01*
X332045Y119659D01*
X331947Y119718D01*
X331852Y119780D01*
X331759Y119845D01*
X331667Y119913D01*
X331579Y119984D01*
X331492Y120058D01*
X331408Y120135D01*
X331327Y120214D01*
X331531Y124920D02*
X331533Y124998D01*
X331538Y125076D01*
X331548Y125153D01*
X331561Y125230D01*
X331577Y125306D01*
X331597Y125381D01*
X331621Y125455D01*
X331648Y125528D01*
X331679Y125600D01*
X331713Y125670D01*
X331750Y125739D01*
X331791Y125805D01*
X331835Y125870D01*
X331881Y125932D01*
X331931Y125992D01*
X331983Y126050D01*
X332038Y126105D01*
X332096Y126157D01*
X332156Y126207D01*
X332218Y126253D01*
X332283Y126297D01*
X332350Y126338D01*
X332418Y126375D01*
X332488Y126409D01*
X332560Y126440D01*
X332633Y126467D01*
X332707Y126491D01*
X332782Y126511D01*
X332858Y126527D01*
X332935Y126540D01*
X333012Y126550D01*
X333090Y126555D01*
X333168Y126557D01*
X333278Y126555D01*
X333387Y126549D01*
X333497Y126539D01*
X333605Y126526D01*
X333714Y126508D01*
X333821Y126487D01*
X333928Y126461D01*
X334034Y126432D01*
X334139Y126400D01*
X334242Y126363D01*
X334344Y126323D01*
X334445Y126279D01*
X334544Y126231D01*
X334641Y126181D01*
X334736Y126126D01*
X334829Y126068D01*
X334920Y126007D01*
X335009Y125943D01*
X332349Y123487D02*
X332282Y123529D01*
X332217Y123573D01*
X332155Y123621D01*
X332095Y123671D01*
X332037Y123724D01*
X331982Y123780D01*
X331930Y123839D01*
X331880Y123899D01*
X331833Y123963D01*
X331790Y124028D01*
X331749Y124095D01*
X331712Y124164D01*
X331678Y124235D01*
X331647Y124307D01*
X331620Y124381D01*
X331596Y124455D01*
X331576Y124531D01*
X331560Y124608D01*
X331547Y124685D01*
X331537Y124763D01*
X331532Y124842D01*
X331530Y124920D01*
X334600Y122260D02*
X334666Y122218D01*
X334731Y122174D01*
X334793Y122127D01*
X334853Y122076D01*
X334911Y122023D01*
X334966Y121967D01*
X335019Y121909D01*
X335068Y121848D01*
X335115Y121785D01*
X335158Y121720D01*
X335199Y121653D01*
X335236Y121584D01*
X335270Y121513D01*
X335301Y121441D01*
X335328Y121367D01*
X335352Y121292D01*
X335372Y121217D01*
X335388Y121140D01*
X335401Y121063D01*
X335411Y120985D01*
X335416Y120906D01*
X335418Y120828D01*
X334600Y122260D02*
X332349Y123488D01*
X338641Y126557D02*
X338641Y119191D01*
X342734Y119191D02*
X338641Y126557D01*
X342734Y126557D02*
X342734Y119191D01*
X329543Y108128D02*
X329541Y108050D01*
X329536Y107972D01*
X329526Y107895D01*
X329513Y107818D01*
X329497Y107742D01*
X329477Y107667D01*
X329453Y107593D01*
X329426Y107520D01*
X329395Y107448D01*
X329361Y107378D01*
X329324Y107310D01*
X329283Y107243D01*
X329239Y107178D01*
X329193Y107116D01*
X329143Y107056D01*
X329091Y106998D01*
X329036Y106943D01*
X328978Y106891D01*
X328918Y106841D01*
X328856Y106795D01*
X328791Y106751D01*
X328725Y106710D01*
X328656Y106673D01*
X328586Y106639D01*
X328514Y106608D01*
X328441Y106581D01*
X328367Y106557D01*
X328292Y106537D01*
X328216Y106521D01*
X328139Y106508D01*
X328062Y106498D01*
X327984Y106493D01*
X327906Y106491D01*
X327792Y106493D01*
X327679Y106498D01*
X327565Y106508D01*
X327452Y106521D01*
X327340Y106538D01*
X327228Y106558D01*
X327117Y106582D01*
X327006Y106610D01*
X326897Y106641D01*
X326789Y106676D01*
X326682Y106715D01*
X326576Y106757D01*
X326472Y106802D01*
X326369Y106851D01*
X326268Y106904D01*
X326169Y106959D01*
X326071Y107018D01*
X325976Y107080D01*
X325883Y107145D01*
X325791Y107213D01*
X325703Y107284D01*
X325616Y107358D01*
X325532Y107435D01*
X325451Y107514D01*
X325655Y112220D02*
X325657Y112298D01*
X325662Y112376D01*
X325672Y112453D01*
X325685Y112530D01*
X325701Y112606D01*
X325721Y112681D01*
X325745Y112755D01*
X325772Y112828D01*
X325803Y112900D01*
X325837Y112970D01*
X325874Y113039D01*
X325915Y113105D01*
X325959Y113170D01*
X326005Y113232D01*
X326055Y113292D01*
X326107Y113350D01*
X326162Y113405D01*
X326220Y113457D01*
X326280Y113507D01*
X326342Y113553D01*
X326407Y113597D01*
X326474Y113638D01*
X326542Y113675D01*
X326612Y113709D01*
X326684Y113740D01*
X326757Y113767D01*
X326831Y113791D01*
X326906Y113811D01*
X326982Y113827D01*
X327059Y113840D01*
X327136Y113850D01*
X327214Y113855D01*
X327292Y113857D01*
X327402Y113855D01*
X327511Y113849D01*
X327621Y113839D01*
X327729Y113826D01*
X327838Y113808D01*
X327945Y113787D01*
X328052Y113761D01*
X328158Y113732D01*
X328263Y113700D01*
X328366Y113663D01*
X328468Y113623D01*
X328569Y113579D01*
X328668Y113531D01*
X328765Y113481D01*
X328860Y113426D01*
X328953Y113368D01*
X329044Y113307D01*
X329133Y113243D01*
X326474Y110787D02*
X326407Y110829D01*
X326342Y110873D01*
X326280Y110921D01*
X326220Y110971D01*
X326162Y111024D01*
X326107Y111080D01*
X326055Y111139D01*
X326005Y111199D01*
X325958Y111263D01*
X325915Y111328D01*
X325874Y111395D01*
X325837Y111464D01*
X325803Y111535D01*
X325772Y111607D01*
X325745Y111681D01*
X325721Y111755D01*
X325701Y111831D01*
X325685Y111908D01*
X325672Y111985D01*
X325662Y112063D01*
X325657Y112142D01*
X325655Y112220D01*
X328725Y109560D02*
X328791Y109518D01*
X328856Y109474D01*
X328918Y109427D01*
X328978Y109376D01*
X329036Y109323D01*
X329091Y109267D01*
X329144Y109209D01*
X329193Y109148D01*
X329240Y109085D01*
X329283Y109020D01*
X329324Y108953D01*
X329361Y108884D01*
X329395Y108813D01*
X329426Y108741D01*
X329453Y108667D01*
X329477Y108592D01*
X329497Y108517D01*
X329513Y108440D01*
X329526Y108363D01*
X329536Y108285D01*
X329541Y108206D01*
X329543Y108128D01*
X328725Y109560D02*
X326474Y110788D01*
X334136Y106491D02*
X335773Y106491D01*
X334136Y106491D02*
X334058Y106493D01*
X333980Y106498D01*
X333903Y106508D01*
X333826Y106521D01*
X333750Y106537D01*
X333675Y106557D01*
X333601Y106581D01*
X333528Y106608D01*
X333456Y106639D01*
X333386Y106673D01*
X333318Y106710D01*
X333251Y106751D01*
X333186Y106795D01*
X333124Y106841D01*
X333064Y106891D01*
X333006Y106943D01*
X332951Y106998D01*
X332899Y107056D01*
X332849Y107116D01*
X332803Y107178D01*
X332759Y107243D01*
X332718Y107310D01*
X332681Y107378D01*
X332647Y107448D01*
X332616Y107520D01*
X332589Y107593D01*
X332565Y107667D01*
X332545Y107742D01*
X332529Y107818D01*
X332516Y107895D01*
X332506Y107972D01*
X332501Y108050D01*
X332499Y108128D01*
X332499Y112220D01*
X332501Y112300D01*
X332507Y112380D01*
X332517Y112460D01*
X332530Y112539D01*
X332548Y112618D01*
X332569Y112695D01*
X332595Y112771D01*
X332624Y112846D01*
X332656Y112920D01*
X332692Y112992D01*
X332732Y113062D01*
X332775Y113129D01*
X332821Y113195D01*
X332871Y113258D01*
X332923Y113319D01*
X332978Y113378D01*
X333037Y113433D01*
X333097Y113485D01*
X333161Y113535D01*
X333227Y113581D01*
X333294Y113624D01*
X333364Y113664D01*
X333436Y113700D01*
X333510Y113732D01*
X333584Y113761D01*
X333661Y113787D01*
X333738Y113808D01*
X333817Y113826D01*
X333896Y113839D01*
X333976Y113849D01*
X334056Y113855D01*
X334136Y113857D01*
X335773Y113857D01*
X338980Y113857D02*
X338980Y106491D01*
X338980Y109356D02*
X343072Y113857D01*
X340617Y110992D02*
X343072Y106491D01*
X325451Y101157D02*
X325451Y93791D01*
X327906Y97065D02*
X325451Y101157D01*
X327906Y97065D02*
X330362Y101157D01*
X330362Y93791D01*
X333907Y95837D02*
X333907Y99111D01*
X333909Y99200D01*
X333915Y99289D01*
X333925Y99378D01*
X333938Y99466D01*
X333955Y99554D01*
X333977Y99641D01*
X334002Y99726D01*
X334030Y99811D01*
X334063Y99894D01*
X334099Y99976D01*
X334138Y100056D01*
X334181Y100134D01*
X334227Y100210D01*
X334277Y100285D01*
X334330Y100357D01*
X334386Y100426D01*
X334445Y100493D01*
X334506Y100558D01*
X334571Y100619D01*
X334638Y100678D01*
X334707Y100734D01*
X334779Y100787D01*
X334854Y100837D01*
X334930Y100883D01*
X335008Y100926D01*
X335088Y100965D01*
X335170Y101001D01*
X335253Y101034D01*
X335338Y101062D01*
X335423Y101087D01*
X335510Y101109D01*
X335598Y101126D01*
X335686Y101139D01*
X335775Y101149D01*
X335864Y101155D01*
X335953Y101157D01*
X336042Y101155D01*
X336131Y101149D01*
X336220Y101139D01*
X336308Y101126D01*
X336396Y101109D01*
X336483Y101087D01*
X336568Y101062D01*
X336653Y101034D01*
X336736Y101001D01*
X336818Y100965D01*
X336898Y100926D01*
X336976Y100883D01*
X337052Y100837D01*
X337127Y100787D01*
X337199Y100734D01*
X337268Y100678D01*
X337335Y100619D01*
X337400Y100558D01*
X337461Y100493D01*
X337520Y100426D01*
X337576Y100357D01*
X337629Y100285D01*
X337679Y100210D01*
X337725Y100134D01*
X337768Y100056D01*
X337807Y99976D01*
X337843Y99894D01*
X337876Y99811D01*
X337904Y99726D01*
X337929Y99641D01*
X337951Y99554D01*
X337968Y99466D01*
X337981Y99378D01*
X337991Y99289D01*
X337997Y99200D01*
X337999Y99111D01*
X337999Y95837D01*
X337997Y95748D01*
X337991Y95659D01*
X337981Y95570D01*
X337968Y95482D01*
X337951Y95394D01*
X337929Y95307D01*
X337904Y95222D01*
X337876Y95137D01*
X337843Y95054D01*
X337807Y94972D01*
X337768Y94892D01*
X337725Y94814D01*
X337679Y94738D01*
X337629Y94663D01*
X337576Y94591D01*
X337520Y94522D01*
X337461Y94455D01*
X337400Y94390D01*
X337335Y94329D01*
X337268Y94270D01*
X337199Y94214D01*
X337127Y94161D01*
X337052Y94111D01*
X336976Y94065D01*
X336898Y94022D01*
X336818Y93983D01*
X336736Y93947D01*
X336653Y93914D01*
X336568Y93886D01*
X336483Y93861D01*
X336396Y93839D01*
X336308Y93822D01*
X336220Y93809D01*
X336131Y93799D01*
X336042Y93793D01*
X335953Y93791D01*
X335864Y93793D01*
X335775Y93799D01*
X335686Y93809D01*
X335598Y93822D01*
X335510Y93839D01*
X335423Y93861D01*
X335338Y93886D01*
X335253Y93914D01*
X335170Y93947D01*
X335088Y93983D01*
X335008Y94022D01*
X334930Y94065D01*
X334854Y94111D01*
X334779Y94161D01*
X334707Y94214D01*
X334638Y94270D01*
X334571Y94329D01*
X334506Y94390D01*
X334445Y94455D01*
X334386Y94522D01*
X334330Y94591D01*
X334277Y94663D01*
X334227Y94738D01*
X334181Y94814D01*
X334138Y94892D01*
X334099Y94972D01*
X334063Y95054D01*
X334030Y95137D01*
X334002Y95222D01*
X333977Y95307D01*
X333955Y95394D01*
X333938Y95482D01*
X333925Y95570D01*
X333915Y95659D01*
X333909Y95748D01*
X333907Y95837D01*
X343434Y93791D02*
X343512Y93793D01*
X343590Y93798D01*
X343667Y93808D01*
X343744Y93821D01*
X343820Y93837D01*
X343895Y93857D01*
X343969Y93881D01*
X344042Y93908D01*
X344114Y93939D01*
X344184Y93973D01*
X344253Y94010D01*
X344319Y94051D01*
X344384Y94095D01*
X344446Y94141D01*
X344506Y94191D01*
X344564Y94243D01*
X344619Y94298D01*
X344671Y94356D01*
X344721Y94416D01*
X344767Y94478D01*
X344811Y94543D01*
X344852Y94610D01*
X344889Y94678D01*
X344923Y94748D01*
X344954Y94820D01*
X344981Y94893D01*
X345005Y94967D01*
X345025Y95042D01*
X345041Y95118D01*
X345054Y95195D01*
X345064Y95272D01*
X345069Y95350D01*
X345071Y95428D01*
X343434Y93791D02*
X343320Y93793D01*
X343207Y93798D01*
X343093Y93808D01*
X342980Y93821D01*
X342868Y93838D01*
X342756Y93858D01*
X342645Y93882D01*
X342534Y93910D01*
X342425Y93941D01*
X342317Y93976D01*
X342210Y94015D01*
X342104Y94057D01*
X342000Y94102D01*
X341897Y94151D01*
X341796Y94204D01*
X341697Y94259D01*
X341599Y94318D01*
X341504Y94380D01*
X341411Y94445D01*
X341319Y94513D01*
X341231Y94584D01*
X341144Y94658D01*
X341060Y94735D01*
X340979Y94814D01*
X341183Y99520D02*
X341185Y99598D01*
X341190Y99676D01*
X341200Y99753D01*
X341213Y99830D01*
X341229Y99906D01*
X341249Y99981D01*
X341273Y100055D01*
X341300Y100128D01*
X341331Y100200D01*
X341365Y100270D01*
X341402Y100339D01*
X341443Y100405D01*
X341487Y100470D01*
X341533Y100532D01*
X341583Y100592D01*
X341635Y100650D01*
X341690Y100705D01*
X341748Y100757D01*
X341808Y100807D01*
X341870Y100853D01*
X341935Y100897D01*
X342002Y100938D01*
X342070Y100975D01*
X342140Y101009D01*
X342212Y101040D01*
X342285Y101067D01*
X342359Y101091D01*
X342434Y101111D01*
X342510Y101127D01*
X342587Y101140D01*
X342664Y101150D01*
X342742Y101155D01*
X342820Y101157D01*
X342930Y101155D01*
X343039Y101149D01*
X343149Y101139D01*
X343257Y101126D01*
X343366Y101108D01*
X343473Y101087D01*
X343580Y101061D01*
X343686Y101032D01*
X343791Y101000D01*
X343894Y100963D01*
X343996Y100923D01*
X344097Y100879D01*
X344196Y100831D01*
X344293Y100781D01*
X344388Y100726D01*
X344481Y100668D01*
X344572Y100607D01*
X344661Y100543D01*
X342001Y98087D02*
X341934Y98129D01*
X341869Y98173D01*
X341807Y98221D01*
X341747Y98271D01*
X341689Y98324D01*
X341634Y98380D01*
X341582Y98439D01*
X341532Y98499D01*
X341485Y98563D01*
X341442Y98628D01*
X341401Y98695D01*
X341364Y98764D01*
X341330Y98835D01*
X341299Y98907D01*
X341272Y98981D01*
X341248Y99055D01*
X341228Y99131D01*
X341212Y99208D01*
X341199Y99285D01*
X341189Y99363D01*
X341184Y99442D01*
X341182Y99520D01*
X344252Y96860D02*
X344318Y96818D01*
X344383Y96774D01*
X344445Y96727D01*
X344505Y96676D01*
X344563Y96623D01*
X344618Y96567D01*
X344671Y96509D01*
X344720Y96448D01*
X344767Y96385D01*
X344810Y96320D01*
X344851Y96253D01*
X344888Y96184D01*
X344922Y96113D01*
X344953Y96041D01*
X344980Y95967D01*
X345004Y95892D01*
X345024Y95817D01*
X345040Y95740D01*
X345053Y95663D01*
X345063Y95585D01*
X345068Y95506D01*
X345070Y95428D01*
X344252Y96860D02*
X342001Y98088D01*
X348633Y101157D02*
X348633Y93791D01*
X349451Y93791D02*
X347814Y93791D01*
X347814Y101157D02*
X349451Y101157D01*
X325451Y88457D02*
X325451Y81091D01*
X327906Y84365D02*
X325451Y88457D01*
X327906Y84365D02*
X330362Y88457D01*
X330362Y81091D01*
X334490Y81091D02*
X334490Y88457D01*
X333672Y81091D02*
X335308Y81091D01*
X335308Y88457D02*
X333672Y88457D01*
X340508Y81091D02*
X340586Y81093D01*
X340664Y81098D01*
X340741Y81108D01*
X340818Y81121D01*
X340894Y81137D01*
X340969Y81157D01*
X341043Y81181D01*
X341116Y81208D01*
X341188Y81239D01*
X341258Y81273D01*
X341327Y81310D01*
X341393Y81351D01*
X341458Y81395D01*
X341520Y81441D01*
X341580Y81491D01*
X341638Y81543D01*
X341693Y81598D01*
X341745Y81656D01*
X341795Y81716D01*
X341841Y81778D01*
X341885Y81843D01*
X341926Y81910D01*
X341963Y81978D01*
X341997Y82048D01*
X342028Y82120D01*
X342055Y82193D01*
X342079Y82267D01*
X342099Y82342D01*
X342115Y82418D01*
X342128Y82495D01*
X342138Y82572D01*
X342143Y82650D01*
X342145Y82728D01*
X340508Y81091D02*
X340394Y81093D01*
X340281Y81098D01*
X340167Y81108D01*
X340054Y81121D01*
X339942Y81138D01*
X339830Y81158D01*
X339719Y81182D01*
X339608Y81210D01*
X339499Y81241D01*
X339391Y81276D01*
X339284Y81315D01*
X339178Y81357D01*
X339074Y81402D01*
X338971Y81451D01*
X338870Y81504D01*
X338771Y81559D01*
X338673Y81618D01*
X338578Y81680D01*
X338485Y81745D01*
X338393Y81813D01*
X338305Y81884D01*
X338218Y81958D01*
X338134Y82035D01*
X338053Y82114D01*
X338257Y86820D02*
X338259Y86898D01*
X338264Y86976D01*
X338274Y87053D01*
X338287Y87130D01*
X338303Y87206D01*
X338323Y87281D01*
X338347Y87355D01*
X338374Y87428D01*
X338405Y87500D01*
X338439Y87570D01*
X338476Y87639D01*
X338517Y87705D01*
X338561Y87770D01*
X338607Y87832D01*
X338657Y87892D01*
X338709Y87950D01*
X338764Y88005D01*
X338822Y88057D01*
X338882Y88107D01*
X338944Y88153D01*
X339009Y88197D01*
X339076Y88238D01*
X339144Y88275D01*
X339214Y88309D01*
X339286Y88340D01*
X339359Y88367D01*
X339433Y88391D01*
X339508Y88411D01*
X339584Y88427D01*
X339661Y88440D01*
X339738Y88450D01*
X339816Y88455D01*
X339894Y88457D01*
X340004Y88455D01*
X340113Y88449D01*
X340223Y88439D01*
X340331Y88426D01*
X340440Y88408D01*
X340547Y88387D01*
X340654Y88361D01*
X340760Y88332D01*
X340865Y88300D01*
X340968Y88263D01*
X341070Y88223D01*
X341171Y88179D01*
X341270Y88131D01*
X341367Y88081D01*
X341462Y88026D01*
X341555Y87968D01*
X341646Y87907D01*
X341735Y87843D01*
X339075Y85387D02*
X339008Y85429D01*
X338943Y85473D01*
X338881Y85521D01*
X338821Y85571D01*
X338763Y85624D01*
X338708Y85680D01*
X338656Y85739D01*
X338606Y85799D01*
X338559Y85863D01*
X338516Y85928D01*
X338475Y85995D01*
X338438Y86064D01*
X338404Y86135D01*
X338373Y86207D01*
X338346Y86281D01*
X338322Y86355D01*
X338302Y86431D01*
X338286Y86508D01*
X338273Y86585D01*
X338263Y86663D01*
X338258Y86742D01*
X338256Y86820D01*
X341326Y84160D02*
X341392Y84118D01*
X341457Y84074D01*
X341519Y84027D01*
X341579Y83976D01*
X341637Y83923D01*
X341692Y83867D01*
X341745Y83809D01*
X341794Y83748D01*
X341841Y83685D01*
X341884Y83620D01*
X341925Y83553D01*
X341962Y83484D01*
X341996Y83413D01*
X342027Y83341D01*
X342054Y83267D01*
X342078Y83192D01*
X342098Y83117D01*
X342114Y83040D01*
X342127Y82963D01*
X342137Y82885D01*
X342142Y82806D01*
X342144Y82728D01*
X341326Y84160D02*
X339075Y85388D01*
X345124Y86411D02*
X345124Y83137D01*
X345124Y86411D02*
X345126Y86500D01*
X345132Y86589D01*
X345142Y86678D01*
X345155Y86766D01*
X345172Y86854D01*
X345194Y86941D01*
X345219Y87026D01*
X345247Y87111D01*
X345280Y87194D01*
X345316Y87276D01*
X345355Y87356D01*
X345398Y87434D01*
X345444Y87510D01*
X345494Y87585D01*
X345547Y87657D01*
X345603Y87726D01*
X345662Y87793D01*
X345723Y87858D01*
X345788Y87919D01*
X345855Y87978D01*
X345924Y88034D01*
X345996Y88087D01*
X346071Y88137D01*
X346147Y88183D01*
X346225Y88226D01*
X346305Y88265D01*
X346387Y88301D01*
X346470Y88334D01*
X346555Y88362D01*
X346640Y88387D01*
X346727Y88409D01*
X346815Y88426D01*
X346903Y88439D01*
X346992Y88449D01*
X347081Y88455D01*
X347170Y88457D01*
X347259Y88455D01*
X347348Y88449D01*
X347437Y88439D01*
X347525Y88426D01*
X347613Y88409D01*
X347700Y88387D01*
X347785Y88362D01*
X347870Y88334D01*
X347953Y88301D01*
X348035Y88265D01*
X348115Y88226D01*
X348193Y88183D01*
X348269Y88137D01*
X348344Y88087D01*
X348416Y88034D01*
X348485Y87978D01*
X348552Y87919D01*
X348617Y87858D01*
X348678Y87793D01*
X348737Y87726D01*
X348793Y87657D01*
X348846Y87585D01*
X348896Y87510D01*
X348942Y87434D01*
X348985Y87356D01*
X349024Y87276D01*
X349060Y87194D01*
X349093Y87111D01*
X349121Y87026D01*
X349146Y86941D01*
X349168Y86854D01*
X349185Y86766D01*
X349198Y86678D01*
X349208Y86589D01*
X349214Y86500D01*
X349216Y86411D01*
X349216Y83137D01*
X349214Y83048D01*
X349208Y82959D01*
X349198Y82870D01*
X349185Y82782D01*
X349168Y82694D01*
X349146Y82607D01*
X349121Y82522D01*
X349093Y82437D01*
X349060Y82354D01*
X349024Y82272D01*
X348985Y82192D01*
X348942Y82114D01*
X348896Y82038D01*
X348846Y81963D01*
X348793Y81891D01*
X348737Y81822D01*
X348678Y81755D01*
X348617Y81690D01*
X348552Y81629D01*
X348485Y81570D01*
X348416Y81514D01*
X348344Y81461D01*
X348269Y81411D01*
X348193Y81365D01*
X348115Y81322D01*
X348035Y81283D01*
X347953Y81247D01*
X347870Y81214D01*
X347785Y81186D01*
X347700Y81161D01*
X347613Y81139D01*
X347525Y81122D01*
X347437Y81109D01*
X347348Y81099D01*
X347259Y81093D01*
X347170Y81091D01*
X347081Y81093D01*
X346992Y81099D01*
X346903Y81109D01*
X346815Y81122D01*
X346727Y81139D01*
X346640Y81161D01*
X346555Y81186D01*
X346470Y81214D01*
X346387Y81247D01*
X346305Y81283D01*
X346225Y81322D01*
X346147Y81365D01*
X346071Y81411D01*
X345996Y81461D01*
X345924Y81514D01*
X345855Y81570D01*
X345788Y81629D01*
X345723Y81690D01*
X345662Y81755D01*
X345603Y81822D01*
X345547Y81891D01*
X345494Y81963D01*
X345444Y82038D01*
X345398Y82114D01*
X345355Y82192D01*
X345316Y82272D01*
X345280Y82354D01*
X345247Y82437D01*
X345219Y82522D01*
X345194Y82607D01*
X345172Y82694D01*
X345155Y82782D01*
X345142Y82870D01*
X345132Y82959D01*
X345126Y83048D01*
X345124Y83137D01*
X326269Y75757D02*
X326269Y68391D01*
X325451Y68391D02*
X327088Y68391D01*
X327088Y75757D02*
X325451Y75757D01*
X330371Y75757D02*
X330371Y68391D01*
X330371Y75757D02*
X332417Y75757D01*
X332506Y75755D01*
X332595Y75749D01*
X332684Y75739D01*
X332772Y75726D01*
X332860Y75709D01*
X332947Y75687D01*
X333032Y75662D01*
X333117Y75634D01*
X333200Y75601D01*
X333282Y75565D01*
X333362Y75526D01*
X333440Y75483D01*
X333516Y75437D01*
X333591Y75387D01*
X333663Y75334D01*
X333732Y75278D01*
X333799Y75219D01*
X333864Y75158D01*
X333925Y75093D01*
X333984Y75026D01*
X334040Y74957D01*
X334093Y74885D01*
X334143Y74810D01*
X334189Y74734D01*
X334232Y74656D01*
X334271Y74576D01*
X334307Y74494D01*
X334340Y74411D01*
X334368Y74326D01*
X334393Y74241D01*
X334415Y74154D01*
X334432Y74066D01*
X334445Y73978D01*
X334455Y73889D01*
X334461Y73800D01*
X334463Y73711D01*
X334461Y73622D01*
X334455Y73533D01*
X334445Y73444D01*
X334432Y73356D01*
X334415Y73268D01*
X334393Y73181D01*
X334368Y73096D01*
X334340Y73011D01*
X334307Y72928D01*
X334271Y72846D01*
X334232Y72766D01*
X334189Y72688D01*
X334143Y72612D01*
X334093Y72537D01*
X334040Y72465D01*
X333984Y72396D01*
X333925Y72329D01*
X333864Y72264D01*
X333799Y72203D01*
X333732Y72144D01*
X333663Y72088D01*
X333591Y72035D01*
X333516Y71985D01*
X333440Y71939D01*
X333362Y71896D01*
X333282Y71857D01*
X333200Y71821D01*
X333117Y71788D01*
X333032Y71760D01*
X332947Y71735D01*
X332860Y71713D01*
X332772Y71696D01*
X332684Y71683D01*
X332595Y71673D01*
X332506Y71667D01*
X332417Y71665D01*
X330371Y71665D01*
X332826Y71665D02*
X334463Y68391D01*
X338098Y70437D02*
X338098Y73711D01*
X338100Y73800D01*
X338106Y73889D01*
X338116Y73978D01*
X338129Y74066D01*
X338146Y74154D01*
X338168Y74241D01*
X338193Y74326D01*
X338221Y74411D01*
X338254Y74494D01*
X338290Y74576D01*
X338329Y74656D01*
X338372Y74734D01*
X338418Y74810D01*
X338468Y74885D01*
X338521Y74957D01*
X338577Y75026D01*
X338636Y75093D01*
X338697Y75158D01*
X338762Y75219D01*
X338829Y75278D01*
X338898Y75334D01*
X338970Y75387D01*
X339045Y75437D01*
X339121Y75483D01*
X339199Y75526D01*
X339279Y75565D01*
X339361Y75601D01*
X339444Y75634D01*
X339529Y75662D01*
X339614Y75687D01*
X339701Y75709D01*
X339789Y75726D01*
X339877Y75739D01*
X339966Y75749D01*
X340055Y75755D01*
X340144Y75757D01*
X340233Y75755D01*
X340322Y75749D01*
X340411Y75739D01*
X340499Y75726D01*
X340587Y75709D01*
X340674Y75687D01*
X340759Y75662D01*
X340844Y75634D01*
X340927Y75601D01*
X341009Y75565D01*
X341089Y75526D01*
X341167Y75483D01*
X341243Y75437D01*
X341318Y75387D01*
X341390Y75334D01*
X341459Y75278D01*
X341526Y75219D01*
X341591Y75158D01*
X341652Y75093D01*
X341711Y75026D01*
X341767Y74957D01*
X341820Y74885D01*
X341870Y74810D01*
X341916Y74734D01*
X341959Y74656D01*
X341998Y74576D01*
X342034Y74494D01*
X342067Y74411D01*
X342095Y74326D01*
X342120Y74241D01*
X342142Y74154D01*
X342159Y74066D01*
X342172Y73978D01*
X342182Y73889D01*
X342188Y73800D01*
X342190Y73711D01*
X342190Y70437D01*
X342188Y70348D01*
X342182Y70259D01*
X342172Y70170D01*
X342159Y70082D01*
X342142Y69994D01*
X342120Y69907D01*
X342095Y69822D01*
X342067Y69737D01*
X342034Y69654D01*
X341998Y69572D01*
X341959Y69492D01*
X341916Y69414D01*
X341870Y69338D01*
X341820Y69263D01*
X341767Y69191D01*
X341711Y69122D01*
X341652Y69055D01*
X341591Y68990D01*
X341526Y68929D01*
X341459Y68870D01*
X341390Y68814D01*
X341318Y68761D01*
X341243Y68711D01*
X341167Y68665D01*
X341089Y68622D01*
X341009Y68583D01*
X340927Y68547D01*
X340844Y68514D01*
X340759Y68486D01*
X340674Y68461D01*
X340587Y68439D01*
X340499Y68422D01*
X340411Y68409D01*
X340322Y68399D01*
X340233Y68393D01*
X340144Y68391D01*
X340055Y68393D01*
X339966Y68399D01*
X339877Y68409D01*
X339789Y68422D01*
X339701Y68439D01*
X339614Y68461D01*
X339529Y68486D01*
X339444Y68514D01*
X339361Y68547D01*
X339279Y68583D01*
X339199Y68622D01*
X339121Y68665D01*
X339045Y68711D01*
X338970Y68761D01*
X338898Y68814D01*
X338829Y68870D01*
X338762Y68929D01*
X338697Y68990D01*
X338636Y69055D01*
X338577Y69122D01*
X338521Y69191D01*
X338468Y69263D01*
X338418Y69338D01*
X338372Y69414D01*
X338329Y69492D01*
X338290Y69572D01*
X338254Y69654D01*
X338221Y69737D01*
X338193Y69822D01*
X338168Y69907D01*
X338146Y69994D01*
X338129Y70082D01*
X338116Y70170D01*
X338106Y70259D01*
X338100Y70348D01*
X338098Y70437D01*
X341372Y70028D02*
X343009Y68391D01*
D12*
X417806Y68740D02*
X417806Y59850D01*
X420769Y63801D02*
X417806Y68740D01*
X420769Y63801D02*
X423732Y68740D01*
X423732Y59850D01*
X428358Y62319D02*
X428358Y66271D01*
X428360Y66369D01*
X428366Y66467D01*
X428376Y66565D01*
X428389Y66662D01*
X428407Y66759D01*
X428428Y66855D01*
X428453Y66949D01*
X428482Y67043D01*
X428514Y67136D01*
X428551Y67227D01*
X428590Y67317D01*
X428634Y67405D01*
X428681Y67491D01*
X428731Y67576D01*
X428784Y67658D01*
X428841Y67738D01*
X428901Y67816D01*
X428964Y67891D01*
X429030Y67964D01*
X429099Y68034D01*
X429170Y68101D01*
X429244Y68166D01*
X429321Y68227D01*
X429400Y68286D01*
X429481Y68341D01*
X429564Y68393D01*
X429650Y68441D01*
X429737Y68486D01*
X429826Y68528D01*
X429916Y68566D01*
X430008Y68600D01*
X430101Y68631D01*
X430196Y68658D01*
X430291Y68681D01*
X430388Y68701D01*
X430484Y68716D01*
X430582Y68728D01*
X430680Y68736D01*
X430778Y68740D01*
X430876Y68740D01*
X430974Y68736D01*
X431072Y68728D01*
X431170Y68716D01*
X431266Y68701D01*
X431363Y68681D01*
X431458Y68658D01*
X431553Y68631D01*
X431646Y68600D01*
X431738Y68566D01*
X431828Y68528D01*
X431917Y68486D01*
X432004Y68441D01*
X432090Y68393D01*
X432173Y68341D01*
X432254Y68286D01*
X432333Y68227D01*
X432410Y68166D01*
X432484Y68101D01*
X432555Y68034D01*
X432624Y67964D01*
X432690Y67891D01*
X432753Y67816D01*
X432813Y67738D01*
X432870Y67658D01*
X432923Y67576D01*
X432973Y67491D01*
X433020Y67405D01*
X433064Y67317D01*
X433103Y67227D01*
X433140Y67136D01*
X433172Y67043D01*
X433201Y66949D01*
X433226Y66855D01*
X433247Y66759D01*
X433265Y66662D01*
X433278Y66565D01*
X433288Y66467D01*
X433294Y66369D01*
X433296Y66271D01*
X433297Y66271D02*
X433297Y62319D01*
X433296Y62319D02*
X433294Y62221D01*
X433288Y62123D01*
X433278Y62025D01*
X433265Y61928D01*
X433247Y61831D01*
X433226Y61735D01*
X433201Y61641D01*
X433172Y61547D01*
X433140Y61454D01*
X433103Y61363D01*
X433064Y61273D01*
X433020Y61185D01*
X432973Y61099D01*
X432923Y61014D01*
X432870Y60932D01*
X432813Y60852D01*
X432753Y60774D01*
X432690Y60699D01*
X432624Y60626D01*
X432555Y60556D01*
X432484Y60489D01*
X432410Y60424D01*
X432333Y60363D01*
X432254Y60304D01*
X432173Y60249D01*
X432090Y60197D01*
X432004Y60149D01*
X431917Y60104D01*
X431828Y60062D01*
X431738Y60024D01*
X431646Y59990D01*
X431553Y59959D01*
X431458Y59932D01*
X431363Y59909D01*
X431266Y59889D01*
X431170Y59874D01*
X431072Y59862D01*
X430974Y59854D01*
X430876Y59850D01*
X430778Y59850D01*
X430680Y59854D01*
X430582Y59862D01*
X430484Y59874D01*
X430388Y59889D01*
X430291Y59909D01*
X430196Y59932D01*
X430101Y59959D01*
X430008Y59990D01*
X429916Y60024D01*
X429826Y60062D01*
X429737Y60104D01*
X429650Y60149D01*
X429564Y60197D01*
X429481Y60249D01*
X429400Y60304D01*
X429321Y60363D01*
X429244Y60424D01*
X429170Y60489D01*
X429099Y60556D01*
X429030Y60626D01*
X428964Y60699D01*
X428901Y60774D01*
X428841Y60852D01*
X428784Y60932D01*
X428731Y61014D01*
X428681Y61099D01*
X428634Y61185D01*
X428590Y61273D01*
X428551Y61363D01*
X428514Y61454D01*
X428482Y61547D01*
X428453Y61641D01*
X428428Y61735D01*
X428407Y61831D01*
X428389Y61928D01*
X428376Y62025D01*
X428366Y62123D01*
X428360Y62221D01*
X428358Y62319D01*
X437807Y59850D02*
X437807Y68740D01*
X440276Y68740D01*
X440373Y68738D01*
X440470Y68732D01*
X440566Y68723D01*
X440662Y68710D01*
X440758Y68693D01*
X440852Y68672D01*
X440946Y68647D01*
X441039Y68619D01*
X441131Y68587D01*
X441221Y68552D01*
X441310Y68513D01*
X441397Y68471D01*
X441482Y68425D01*
X441566Y68376D01*
X441648Y68324D01*
X441727Y68268D01*
X441805Y68210D01*
X441879Y68148D01*
X441952Y68084D01*
X442022Y68017D01*
X442089Y67947D01*
X442153Y67874D01*
X442215Y67800D01*
X442273Y67722D01*
X442329Y67643D01*
X442381Y67561D01*
X442430Y67477D01*
X442476Y67392D01*
X442518Y67305D01*
X442557Y67216D01*
X442592Y67126D01*
X442624Y67034D01*
X442652Y66941D01*
X442677Y66847D01*
X442698Y66753D01*
X442715Y66657D01*
X442728Y66561D01*
X442737Y66465D01*
X442743Y66368D01*
X442745Y66271D01*
X442746Y66271D02*
X442746Y62319D01*
X442745Y62319D02*
X442743Y62222D01*
X442737Y62125D01*
X442728Y62029D01*
X442715Y61933D01*
X442698Y61837D01*
X442677Y61743D01*
X442652Y61649D01*
X442624Y61556D01*
X442592Y61464D01*
X442557Y61374D01*
X442518Y61285D01*
X442476Y61198D01*
X442430Y61113D01*
X442381Y61029D01*
X442329Y60947D01*
X442273Y60868D01*
X442215Y60790D01*
X442153Y60716D01*
X442089Y60643D01*
X442022Y60573D01*
X441952Y60506D01*
X441879Y60442D01*
X441805Y60380D01*
X441727Y60322D01*
X441648Y60266D01*
X441566Y60214D01*
X441482Y60165D01*
X441397Y60119D01*
X441310Y60077D01*
X441221Y60038D01*
X441131Y60003D01*
X441039Y59971D01*
X440946Y59943D01*
X440852Y59918D01*
X440758Y59897D01*
X440662Y59880D01*
X440566Y59867D01*
X440470Y59858D01*
X440373Y59852D01*
X440276Y59850D01*
X437807Y59850D01*
X447256Y66764D02*
X449725Y68740D01*
X449725Y59850D01*
X447256Y59850D02*
X452194Y59850D01*
D11*
X128000Y143000D02*
X128000Y157000D01*
X128000Y143000D02*
X129800Y143000D01*
X130200Y157000D02*
X128000Y157000D01*
X137000Y157000D02*
X141000Y157000D01*
X141000Y143000D02*
X137000Y143000D01*
X149000Y157000D02*
X153000Y157000D01*
X153000Y143000D02*
X149000Y143000D01*
X162000Y143000D02*
X162000Y157000D01*
X160500Y157000D01*
X160500Y143000D02*
X162000Y143000D01*
D12*
X109336Y154695D02*
X103409Y145805D01*
X109336Y145805D02*
X103409Y154695D01*
X114907Y154695D02*
X114907Y145805D01*
X112438Y154695D02*
X117376Y154695D01*
X120972Y152719D02*
X123441Y154695D01*
X123441Y145805D01*
X120972Y145805D02*
X125911Y145805D01*
X7500Y157500D02*
X7500Y202500D01*
X42500Y220000D02*
X82500Y220000D01*
X82500Y211500D01*
X57500Y211500D01*
X57500Y197500D01*
X57500Y162500D02*
X57500Y148500D01*
X82500Y148500D01*
X82500Y140000D01*
X42500Y140000D01*
D15*
X92731Y203749D02*
X92731Y212046D01*
X96880Y207898D02*
X88582Y207898D01*
X92731Y154896D02*
X92731Y146599D01*
D16*
X59050Y54600D02*
X59050Y29200D01*
X59050Y54600D02*
X33650Y54600D01*
X33650Y29200D01*
X59050Y29200D01*
D17*
X27300Y41900D02*
X-29850Y41900D01*
D16*
X59050Y54600D02*
X59050Y80000D01*
X33650Y80000D01*
X33650Y54600D01*
D17*
X27300Y67300D02*
X-29850Y67300D01*
D16*
X59050Y80000D02*
X59050Y105400D01*
X33650Y105400D01*
X33650Y80000D01*
D17*
X27300Y92700D02*
X-29850Y92700D01*
D16*
X59050Y105400D02*
X59050Y130800D01*
X33650Y130800D01*
X33650Y105400D01*
D17*
X27300Y118100D02*
X-29850Y118100D01*
D18*
X31110Y41900D03*
X31110Y67300D03*
X31110Y92700D03*
X31110Y118100D03*
D19*
X64130Y41900D03*
X64130Y67300D03*
X64130Y92700D03*
X64130Y118100D03*
D10*
X46866Y15230D02*
X46864Y15141D01*
X46858Y15053D01*
X46849Y14965D01*
X46835Y14877D01*
X46818Y14790D01*
X46797Y14704D01*
X46772Y14619D01*
X46743Y14535D01*
X46711Y14452D01*
X46676Y14371D01*
X46636Y14292D01*
X46594Y14214D01*
X46548Y14138D01*
X46499Y14064D01*
X46446Y13993D01*
X46391Y13924D01*
X46332Y13857D01*
X46271Y13793D01*
X46207Y13732D01*
X46140Y13673D01*
X46071Y13618D01*
X46000Y13565D01*
X45926Y13516D01*
X45850Y13470D01*
X45772Y13428D01*
X45693Y13388D01*
X45612Y13353D01*
X45529Y13321D01*
X45445Y13292D01*
X45360Y13267D01*
X45274Y13246D01*
X45187Y13229D01*
X45099Y13215D01*
X45011Y13206D01*
X44923Y13200D01*
X44834Y13198D01*
X44704Y13200D01*
X44573Y13206D01*
X44443Y13216D01*
X44314Y13230D01*
X44185Y13247D01*
X44056Y13269D01*
X43928Y13295D01*
X43801Y13324D01*
X43675Y13357D01*
X43550Y13394D01*
X43426Y13435D01*
X43304Y13480D01*
X43183Y13528D01*
X43063Y13580D01*
X42945Y13636D01*
X42829Y13695D01*
X42715Y13758D01*
X42602Y13824D01*
X42492Y13893D01*
X42384Y13966D01*
X42278Y14042D01*
X42174Y14121D01*
X42073Y14203D01*
X41975Y14289D01*
X41879Y14377D01*
X41786Y14468D01*
X42040Y20310D02*
X42042Y20399D01*
X42048Y20487D01*
X42057Y20575D01*
X42071Y20663D01*
X42088Y20750D01*
X42109Y20836D01*
X42134Y20921D01*
X42163Y21005D01*
X42195Y21088D01*
X42230Y21169D01*
X42270Y21248D01*
X42312Y21326D01*
X42358Y21402D01*
X42407Y21476D01*
X42460Y21547D01*
X42515Y21616D01*
X42574Y21683D01*
X42635Y21747D01*
X42699Y21808D01*
X42766Y21867D01*
X42835Y21922D01*
X42906Y21975D01*
X42980Y22024D01*
X43056Y22070D01*
X43134Y22112D01*
X43213Y22152D01*
X43294Y22187D01*
X43377Y22219D01*
X43461Y22248D01*
X43546Y22273D01*
X43632Y22294D01*
X43719Y22311D01*
X43807Y22325D01*
X43895Y22334D01*
X43983Y22340D01*
X44072Y22342D01*
X44195Y22340D01*
X44317Y22334D01*
X44439Y22324D01*
X44561Y22310D01*
X44682Y22293D01*
X44803Y22271D01*
X44923Y22246D01*
X45042Y22216D01*
X45160Y22183D01*
X45277Y22146D01*
X45392Y22106D01*
X45507Y22062D01*
X45620Y22014D01*
X45731Y21962D01*
X45840Y21907D01*
X45948Y21848D01*
X46054Y21786D01*
X46157Y21721D01*
X46259Y21652D01*
X46358Y21580D01*
X43055Y18532D02*
X42979Y18579D01*
X42905Y18629D01*
X42834Y18682D01*
X42765Y18739D01*
X42698Y18798D01*
X42634Y18860D01*
X42572Y18925D01*
X42514Y18993D01*
X42459Y19063D01*
X42406Y19135D01*
X42357Y19209D01*
X42311Y19286D01*
X42268Y19364D01*
X42229Y19445D01*
X42193Y19527D01*
X42161Y19610D01*
X42133Y19694D01*
X42108Y19780D01*
X42087Y19867D01*
X42070Y19955D01*
X42056Y20043D01*
X42047Y20132D01*
X42041Y20221D01*
X42039Y20310D01*
X45850Y17008D02*
X45926Y16961D01*
X46000Y16911D01*
X46071Y16858D01*
X46140Y16801D01*
X46207Y16742D01*
X46271Y16680D01*
X46333Y16615D01*
X46391Y16547D01*
X46446Y16477D01*
X46499Y16405D01*
X46548Y16331D01*
X46594Y16254D01*
X46637Y16176D01*
X46676Y16095D01*
X46712Y16013D01*
X46744Y15930D01*
X46772Y15846D01*
X46797Y15760D01*
X46818Y15673D01*
X46835Y15585D01*
X46849Y15497D01*
X46858Y15408D01*
X46864Y15319D01*
X46866Y15230D01*
X45850Y17008D02*
X43056Y18532D01*
X50320Y22342D02*
X52352Y13198D01*
X54384Y19294D01*
X56416Y13198D01*
X58448Y22342D01*
X62512Y22342D02*
X62512Y13198D01*
X62512Y22342D02*
X65052Y22342D01*
X65152Y22340D01*
X65251Y22334D01*
X65351Y22324D01*
X65449Y22311D01*
X65548Y22293D01*
X65645Y22272D01*
X65741Y22247D01*
X65837Y22218D01*
X65931Y22185D01*
X66024Y22149D01*
X66115Y22109D01*
X66205Y22065D01*
X66293Y22018D01*
X66379Y21968D01*
X66463Y21914D01*
X66545Y21857D01*
X66624Y21797D01*
X66702Y21733D01*
X66776Y21667D01*
X66848Y21598D01*
X66917Y21526D01*
X66983Y21452D01*
X67047Y21374D01*
X67107Y21295D01*
X67164Y21213D01*
X67218Y21129D01*
X67268Y21043D01*
X67315Y20955D01*
X67359Y20865D01*
X67399Y20774D01*
X67435Y20681D01*
X67468Y20587D01*
X67497Y20491D01*
X67522Y20395D01*
X67543Y20298D01*
X67561Y20199D01*
X67574Y20101D01*
X67584Y20001D01*
X67590Y19902D01*
X67592Y19802D01*
X67592Y15738D01*
X67590Y15638D01*
X67584Y15539D01*
X67574Y15439D01*
X67561Y15341D01*
X67543Y15242D01*
X67522Y15145D01*
X67497Y15049D01*
X67468Y14953D01*
X67435Y14859D01*
X67399Y14766D01*
X67359Y14675D01*
X67315Y14585D01*
X67268Y14497D01*
X67218Y14411D01*
X67164Y14327D01*
X67107Y14245D01*
X67047Y14166D01*
X66983Y14088D01*
X66917Y14014D01*
X66848Y13942D01*
X66776Y13873D01*
X66702Y13807D01*
X66624Y13743D01*
X66545Y13683D01*
X66463Y13626D01*
X66379Y13572D01*
X66293Y13522D01*
X66205Y13475D01*
X66115Y13431D01*
X66024Y13391D01*
X65931Y13355D01*
X65837Y13322D01*
X65741Y13293D01*
X65645Y13268D01*
X65548Y13247D01*
X65449Y13229D01*
X65351Y13216D01*
X65251Y13206D01*
X65152Y13200D01*
X65052Y13198D01*
X62512Y13198D01*
D20*
X112500Y57500D02*
X112502Y57402D01*
X112508Y57304D01*
X112517Y57206D01*
X112531Y57109D01*
X112548Y57012D01*
X112569Y56916D01*
X112594Y56821D01*
X112622Y56727D01*
X112655Y56635D01*
X112690Y56543D01*
X112730Y56453D01*
X112772Y56365D01*
X112819Y56278D01*
X112868Y56194D01*
X112921Y56111D01*
X112977Y56031D01*
X113037Y55952D01*
X113099Y55876D01*
X113164Y55803D01*
X113232Y55732D01*
X113303Y55664D01*
X113376Y55599D01*
X113452Y55537D01*
X113531Y55477D01*
X113611Y55421D01*
X113694Y55368D01*
X113778Y55319D01*
X113865Y55272D01*
X113953Y55230D01*
X114043Y55190D01*
X114135Y55155D01*
X114227Y55122D01*
X114321Y55094D01*
X114416Y55069D01*
X114512Y55048D01*
X114609Y55031D01*
X114706Y55017D01*
X114804Y55008D01*
X114902Y55002D01*
X115000Y55000D01*
X112500Y57500D02*
X112500Y112500D01*
X112502Y112598D01*
X112508Y112696D01*
X112517Y112794D01*
X112531Y112891D01*
X112548Y112988D01*
X112569Y113084D01*
X112594Y113179D01*
X112622Y113273D01*
X112655Y113365D01*
X112690Y113457D01*
X112730Y113547D01*
X112772Y113635D01*
X112819Y113722D01*
X112868Y113806D01*
X112921Y113889D01*
X112977Y113969D01*
X113037Y114048D01*
X113099Y114124D01*
X113164Y114197D01*
X113232Y114268D01*
X113303Y114336D01*
X113376Y114401D01*
X113452Y114463D01*
X113531Y114523D01*
X113611Y114579D01*
X113694Y114632D01*
X113778Y114681D01*
X113865Y114728D01*
X113953Y114770D01*
X114043Y114810D01*
X114135Y114845D01*
X114227Y114878D01*
X114321Y114906D01*
X114416Y114931D01*
X114512Y114952D01*
X114609Y114969D01*
X114706Y114983D01*
X114804Y114992D01*
X114902Y114998D01*
X115000Y115000D01*
X145000Y115000D02*
X145098Y114998D01*
X145196Y114992D01*
X145294Y114983D01*
X145391Y114969D01*
X145488Y114952D01*
X145584Y114931D01*
X145679Y114906D01*
X145773Y114878D01*
X145865Y114845D01*
X145957Y114810D01*
X146047Y114770D01*
X146135Y114728D01*
X146222Y114681D01*
X146306Y114632D01*
X146389Y114579D01*
X146469Y114523D01*
X146548Y114463D01*
X146624Y114401D01*
X146697Y114336D01*
X146768Y114268D01*
X146836Y114197D01*
X146901Y114124D01*
X146963Y114048D01*
X147023Y113969D01*
X147079Y113889D01*
X147132Y113806D01*
X147181Y113722D01*
X147228Y113635D01*
X147270Y113547D01*
X147310Y113457D01*
X147345Y113365D01*
X147378Y113273D01*
X147406Y113179D01*
X147431Y113084D01*
X147452Y112988D01*
X147469Y112891D01*
X147483Y112794D01*
X147492Y112696D01*
X147498Y112598D01*
X147500Y112500D01*
X147500Y57500D01*
X147498Y57402D01*
X147492Y57304D01*
X147483Y57206D01*
X147469Y57109D01*
X147452Y57012D01*
X147431Y56916D01*
X147406Y56821D01*
X147378Y56727D01*
X147345Y56635D01*
X147310Y56543D01*
X147270Y56453D01*
X147228Y56365D01*
X147181Y56278D01*
X147132Y56194D01*
X147079Y56111D01*
X147023Y56031D01*
X146963Y55952D01*
X146901Y55876D01*
X146836Y55803D01*
X146768Y55732D01*
X146697Y55664D01*
X146624Y55599D01*
X146548Y55537D01*
X146469Y55477D01*
X146389Y55421D01*
X146306Y55368D01*
X146222Y55319D01*
X146135Y55272D01*
X146047Y55230D01*
X145957Y55190D01*
X145865Y55155D01*
X145773Y55122D01*
X145679Y55094D01*
X145584Y55069D01*
X145488Y55048D01*
X145391Y55031D01*
X145294Y55017D01*
X145196Y55008D01*
X145098Y55002D01*
X145000Y55000D01*
X141000Y55000D01*
X119000Y55000D02*
X115000Y55000D01*
X115000Y115000D02*
X119000Y115000D01*
X141000Y115000D02*
X145000Y115000D01*
X122500Y100000D02*
X122500Y70000D01*
X137500Y70000D02*
X137500Y100000D01*
X137500Y70000D02*
X122500Y70000D01*
X122500Y100000D02*
X137500Y100000D01*
D10*
X150008Y78117D02*
X159152Y78117D01*
X150008Y78117D02*
X150008Y80657D01*
X150010Y80757D01*
X150016Y80856D01*
X150026Y80956D01*
X150039Y81054D01*
X150057Y81153D01*
X150078Y81250D01*
X150103Y81346D01*
X150132Y81442D01*
X150165Y81536D01*
X150201Y81629D01*
X150241Y81720D01*
X150285Y81810D01*
X150332Y81898D01*
X150382Y81984D01*
X150436Y82068D01*
X150493Y82150D01*
X150553Y82229D01*
X150617Y82307D01*
X150683Y82381D01*
X150752Y82453D01*
X150824Y82522D01*
X150898Y82588D01*
X150976Y82652D01*
X151055Y82712D01*
X151137Y82769D01*
X151221Y82823D01*
X151307Y82873D01*
X151395Y82920D01*
X151485Y82964D01*
X151576Y83004D01*
X151669Y83040D01*
X151763Y83073D01*
X151859Y83102D01*
X151955Y83127D01*
X152052Y83148D01*
X152151Y83166D01*
X152249Y83179D01*
X152349Y83189D01*
X152448Y83195D01*
X152548Y83197D01*
X152648Y83195D01*
X152747Y83189D01*
X152847Y83179D01*
X152945Y83166D01*
X153044Y83148D01*
X153141Y83127D01*
X153237Y83102D01*
X153333Y83073D01*
X153427Y83040D01*
X153520Y83004D01*
X153611Y82964D01*
X153701Y82920D01*
X153789Y82873D01*
X153875Y82823D01*
X153959Y82769D01*
X154041Y82712D01*
X154120Y82652D01*
X154198Y82588D01*
X154272Y82522D01*
X154344Y82453D01*
X154413Y82381D01*
X154479Y82307D01*
X154543Y82229D01*
X154603Y82150D01*
X154660Y82068D01*
X154714Y81984D01*
X154764Y81898D01*
X154811Y81810D01*
X154855Y81720D01*
X154895Y81629D01*
X154931Y81536D01*
X154964Y81442D01*
X154993Y81346D01*
X155018Y81250D01*
X155039Y81153D01*
X155057Y81054D01*
X155070Y80956D01*
X155080Y80856D01*
X155086Y80757D01*
X155088Y80657D01*
X155088Y78117D01*
X152040Y86803D02*
X150008Y89343D01*
X159152Y89343D01*
X159152Y86803D02*
X159152Y91883D01*
D11*
X175270Y189830D02*
X214730Y189830D01*
X214730Y170170D01*
X175270Y170170D01*
X175270Y189830D01*
D12*
X217996Y183495D02*
X217996Y174605D01*
X217996Y183495D02*
X220466Y183495D01*
X220564Y183493D01*
X220662Y183487D01*
X220760Y183477D01*
X220857Y183464D01*
X220954Y183446D01*
X221050Y183425D01*
X221144Y183400D01*
X221238Y183371D01*
X221331Y183339D01*
X221422Y183302D01*
X221512Y183263D01*
X221600Y183219D01*
X221686Y183172D01*
X221771Y183122D01*
X221853Y183069D01*
X221933Y183012D01*
X222011Y182952D01*
X222086Y182889D01*
X222159Y182823D01*
X222229Y182754D01*
X222296Y182683D01*
X222361Y182609D01*
X222422Y182532D01*
X222481Y182453D01*
X222536Y182372D01*
X222588Y182289D01*
X222636Y182203D01*
X222681Y182116D01*
X222723Y182027D01*
X222761Y181937D01*
X222795Y181845D01*
X222826Y181752D01*
X222853Y181657D01*
X222876Y181562D01*
X222896Y181465D01*
X222911Y181369D01*
X222923Y181271D01*
X222931Y181173D01*
X222935Y181075D01*
X222935Y180977D01*
X222931Y180879D01*
X222923Y180781D01*
X222911Y180683D01*
X222896Y180587D01*
X222876Y180490D01*
X222853Y180395D01*
X222826Y180300D01*
X222795Y180207D01*
X222761Y180115D01*
X222723Y180025D01*
X222681Y179936D01*
X222636Y179849D01*
X222588Y179763D01*
X222536Y179680D01*
X222481Y179599D01*
X222422Y179520D01*
X222361Y179443D01*
X222296Y179369D01*
X222229Y179298D01*
X222159Y179229D01*
X222086Y179163D01*
X222011Y179100D01*
X221933Y179040D01*
X221853Y178983D01*
X221771Y178930D01*
X221686Y178880D01*
X221600Y178833D01*
X221512Y178789D01*
X221422Y178750D01*
X221331Y178713D01*
X221238Y178681D01*
X221144Y178652D01*
X221050Y178627D01*
X220954Y178606D01*
X220857Y178588D01*
X220760Y178575D01*
X220662Y178565D01*
X220564Y178559D01*
X220466Y178557D01*
X220466Y178556D02*
X217996Y178556D01*
X220960Y178556D02*
X222935Y174605D01*
X229781Y183496D02*
X229873Y183494D01*
X229965Y183488D01*
X230056Y183479D01*
X230147Y183466D01*
X230237Y183449D01*
X230327Y183428D01*
X230415Y183404D01*
X230503Y183376D01*
X230589Y183344D01*
X230674Y183309D01*
X230757Y183270D01*
X230839Y183228D01*
X230919Y183183D01*
X230997Y183134D01*
X231073Y183082D01*
X231146Y183027D01*
X231218Y182969D01*
X231287Y182909D01*
X231353Y182845D01*
X231417Y182779D01*
X231477Y182710D01*
X231535Y182638D01*
X231590Y182565D01*
X231642Y182489D01*
X231691Y182411D01*
X231736Y182331D01*
X231778Y182249D01*
X231817Y182166D01*
X231852Y182081D01*
X231884Y181995D01*
X231912Y181907D01*
X231936Y181819D01*
X231957Y181729D01*
X231974Y181639D01*
X231987Y181548D01*
X231996Y181457D01*
X232002Y181365D01*
X232004Y181273D01*
X229781Y183495D02*
X229675Y183493D01*
X229570Y183487D01*
X229465Y183477D01*
X229360Y183464D01*
X229256Y183446D01*
X229153Y183425D01*
X229050Y183400D01*
X228948Y183371D01*
X228848Y183338D01*
X228749Y183302D01*
X228651Y183262D01*
X228555Y183218D01*
X228460Y183171D01*
X228368Y183121D01*
X228277Y183067D01*
X228188Y183009D01*
X228102Y182949D01*
X228018Y182885D01*
X227936Y182819D01*
X227856Y182749D01*
X227780Y182676D01*
X227706Y182601D01*
X227635Y182523D01*
X227567Y182442D01*
X227501Y182359D01*
X227439Y182273D01*
X227381Y182186D01*
X227325Y182096D01*
X227273Y182004D01*
X227224Y181910D01*
X227179Y181815D01*
X227137Y181718D01*
X227099Y181619D01*
X227065Y181520D01*
X231263Y179544D02*
X231332Y179613D01*
X231398Y179683D01*
X231461Y179757D01*
X231520Y179833D01*
X231577Y179911D01*
X231631Y179991D01*
X231681Y180074D01*
X231728Y180158D01*
X231771Y180245D01*
X231811Y180333D01*
X231847Y180422D01*
X231880Y180513D01*
X231909Y180605D01*
X231934Y180699D01*
X231955Y180793D01*
X231973Y180888D01*
X231986Y180984D01*
X231996Y181080D01*
X232002Y181176D01*
X232004Y181273D01*
X231263Y179544D02*
X227065Y174605D01*
X232004Y174605D01*
D11*
X260270Y40150D02*
X299730Y40150D01*
X299730Y59850D02*
X260270Y59850D01*
X299730Y59850D02*
X299730Y40150D01*
X260270Y40150D02*
X260270Y59850D01*
D12*
X248905Y45255D02*
X246929Y45255D01*
X246843Y45257D01*
X246757Y45263D01*
X246671Y45272D01*
X246586Y45285D01*
X246501Y45302D01*
X246418Y45322D01*
X246335Y45346D01*
X246253Y45374D01*
X246173Y45405D01*
X246094Y45440D01*
X246017Y45478D01*
X245941Y45520D01*
X245867Y45564D01*
X245796Y45612D01*
X245726Y45663D01*
X245659Y45717D01*
X245594Y45774D01*
X245532Y45834D01*
X245472Y45896D01*
X245415Y45961D01*
X245361Y46028D01*
X245310Y46098D01*
X245262Y46169D01*
X245218Y46243D01*
X245176Y46319D01*
X245138Y46396D01*
X245103Y46475D01*
X245072Y46555D01*
X245044Y46637D01*
X245020Y46720D01*
X245000Y46803D01*
X244983Y46888D01*
X244970Y46973D01*
X244961Y47059D01*
X244955Y47145D01*
X244953Y47231D01*
X244954Y47231D02*
X244954Y52169D01*
X244953Y52169D02*
X244955Y52258D01*
X244961Y52346D01*
X244971Y52434D01*
X244985Y52522D01*
X245003Y52609D01*
X245024Y52695D01*
X245050Y52780D01*
X245079Y52863D01*
X245112Y52946D01*
X245149Y53026D01*
X245189Y53105D01*
X245233Y53182D01*
X245280Y53258D01*
X245330Y53330D01*
X245384Y53401D01*
X245441Y53469D01*
X245501Y53535D01*
X245563Y53597D01*
X245629Y53657D01*
X245697Y53714D01*
X245768Y53768D01*
X245840Y53818D01*
X245915Y53865D01*
X245993Y53909D01*
X246072Y53949D01*
X246152Y53986D01*
X246235Y54019D01*
X246318Y54048D01*
X246403Y54074D01*
X246489Y54095D01*
X246576Y54113D01*
X246664Y54127D01*
X246752Y54137D01*
X246840Y54143D01*
X246929Y54145D01*
X248905Y54145D01*
X252608Y52169D02*
X255077Y54145D01*
X255077Y45255D01*
X252608Y45255D02*
X257546Y45255D01*
D11*
X165000Y170000D02*
X128750Y170000D01*
X125000Y173750D02*
X125000Y190000D01*
X165000Y190000D01*
X165000Y170000D01*
X128750Y170000D02*
X125000Y173750D01*
D21*
X143400Y180000D03*
D12*
X122245Y162793D02*
X113355Y162793D01*
X122245Y162793D02*
X122245Y166744D01*
X122245Y170718D02*
X122245Y174669D01*
X122245Y170718D02*
X113355Y170718D01*
X113355Y174669D01*
X117306Y173681D02*
X117306Y170718D01*
X113355Y178619D02*
X122245Y178619D01*
X113355Y178619D02*
X113355Y181089D01*
X113357Y181186D01*
X113363Y181283D01*
X113372Y181379D01*
X113385Y181475D01*
X113402Y181571D01*
X113423Y181665D01*
X113448Y181759D01*
X113476Y181852D01*
X113508Y181944D01*
X113543Y182034D01*
X113582Y182123D01*
X113624Y182210D01*
X113670Y182295D01*
X113719Y182379D01*
X113771Y182461D01*
X113827Y182540D01*
X113885Y182618D01*
X113947Y182692D01*
X114011Y182765D01*
X114078Y182835D01*
X114148Y182902D01*
X114221Y182966D01*
X114295Y183028D01*
X114373Y183086D01*
X114452Y183142D01*
X114534Y183194D01*
X114618Y183243D01*
X114703Y183289D01*
X114790Y183331D01*
X114879Y183370D01*
X114969Y183405D01*
X115061Y183437D01*
X115154Y183465D01*
X115248Y183490D01*
X115342Y183511D01*
X115438Y183528D01*
X115534Y183541D01*
X115630Y183550D01*
X115727Y183556D01*
X115824Y183558D01*
X119776Y183558D01*
X119873Y183556D01*
X119970Y183550D01*
X120066Y183541D01*
X120162Y183528D01*
X120258Y183511D01*
X120352Y183490D01*
X120446Y183465D01*
X120539Y183437D01*
X120631Y183405D01*
X120721Y183370D01*
X120810Y183331D01*
X120897Y183289D01*
X120982Y183243D01*
X121066Y183194D01*
X121148Y183142D01*
X121227Y183086D01*
X121305Y183028D01*
X121379Y182966D01*
X121452Y182902D01*
X121522Y182835D01*
X121589Y182765D01*
X121653Y182692D01*
X121715Y182618D01*
X121773Y182540D01*
X121829Y182461D01*
X121881Y182379D01*
X121930Y182295D01*
X121976Y182210D01*
X122018Y182123D01*
X122057Y182034D01*
X122092Y181944D01*
X122124Y181852D01*
X122152Y181759D01*
X122177Y181665D01*
X122198Y181571D01*
X122215Y181475D01*
X122228Y181379D01*
X122237Y181283D01*
X122243Y181186D01*
X122245Y181089D01*
X122245Y178619D01*
X115331Y188068D02*
X113355Y190538D01*
X122245Y190538D01*
X122245Y193007D02*
X122245Y188068D01*
M02*
