G04 EAGLE Gerber RS-274X export*
G75*
%MOMM*%
%FSLAX34Y34*%
%LPD*%
%INSoldermask Bottom*%
%IPPOS*%
%AMOC8*
5,1,8,0,0,1.08239X$1,22.5*%
G01*
%ADD10C,1.676400*%
%ADD11R,1.802400X1.802400*%
%ADD12C,1.802400*%
%ADD13R,0.702400X1.352400*%
%ADD14R,1.452400X1.652400*%
%ADD15R,1.652400X1.452400*%
%ADD16R,1.852400X1.952400*%
%ADD17C,2.652400*%


D10*
X85720Y41900D02*
X70480Y41900D01*
X70480Y67300D02*
X85720Y67300D01*
X85720Y92700D02*
X70480Y92700D01*
X70480Y118100D02*
X85720Y118100D01*
D11*
X445100Y13400D03*
D12*
X419700Y13400D03*
X394300Y13400D03*
X368900Y13400D03*
X343500Y13400D03*
X318100Y13400D03*
X292700Y13400D03*
X267300Y13400D03*
X241900Y13400D03*
X216500Y13400D03*
X191100Y13400D03*
X165700Y13400D03*
X140300Y13400D03*
X114900Y13400D03*
D11*
X445100Y216600D03*
D12*
X419700Y216600D03*
X394300Y216600D03*
X368900Y216600D03*
X343500Y216600D03*
X318100Y216600D03*
X292700Y216600D03*
X267300Y216600D03*
X241900Y216600D03*
X216500Y216600D03*
X191100Y216600D03*
X165700Y216600D03*
X140300Y216600D03*
X114900Y216600D03*
D13*
X49500Y177000D03*
X40000Y177000D03*
X30500Y177000D03*
X30500Y203000D03*
X49500Y203000D03*
D14*
X59500Y145000D03*
X40500Y145000D03*
D15*
X80000Y199500D03*
X80000Y180500D03*
D13*
X370500Y113001D03*
X380000Y113001D03*
X389500Y113001D03*
X389500Y86999D03*
X370500Y86999D03*
D16*
X380000Y139500D03*
X380000Y180500D03*
D15*
X420000Y169500D03*
X420000Y150500D03*
D14*
X370500Y55000D03*
X389500Y55000D03*
D15*
X420000Y90500D03*
X420000Y109500D03*
D17*
X475000Y20000D03*
X475000Y210000D03*
X20000Y20000D03*
M02*
