G04 EAGLE Gerber RS-274X export*
G75*
%MOMM*%
%FSLAX34Y34*%
%LPD*%
%INSoldermask Top*%
%IPPOS*%
%AMOC8*
5,1,8,0,0,1.08239X$1,22.5*%
G01*
%ADD10R,1.422400X0.652400*%
%ADD11R,0.652400X1.422400*%
%ADD12R,1.452400X1.652400*%
%ADD13R,2.692400X0.914400*%
%ADD14R,0.652400X2.152400*%
%ADD15R,4.752400X1.152400*%
%ADD16R,3.552400X1.752400*%
%ADD17C,1.676400*%
%ADD18R,1.752400X2.452400*%
%ADD19R,1.802400X1.802400*%
%ADD20C,1.802400*%
%ADD21R,1.352400X1.352400*%
%ADD22C,2.652400*%


D10*
X187074Y143000D03*
X187074Y135000D03*
X187074Y127000D03*
X187074Y119000D03*
X187074Y111000D03*
X187074Y103000D03*
X187074Y95000D03*
X187074Y87000D03*
D11*
X202000Y72074D03*
X210000Y72074D03*
X218000Y72074D03*
X226000Y72074D03*
X234000Y72074D03*
X242000Y72074D03*
X250000Y72074D03*
X258000Y72074D03*
D10*
X272926Y87000D03*
X272926Y95000D03*
X272926Y103000D03*
X272926Y111000D03*
X272926Y119000D03*
X272926Y127000D03*
X272926Y135000D03*
X272926Y143000D03*
D11*
X258000Y157926D03*
X250000Y157926D03*
X242000Y157926D03*
X234000Y157926D03*
X226000Y157926D03*
X218000Y157926D03*
X210000Y157926D03*
X202000Y157926D03*
D12*
X188500Y50600D03*
X169500Y50600D03*
D13*
X308560Y71820D03*
X308560Y84520D03*
X308560Y97220D03*
X308560Y109920D03*
X308560Y122620D03*
X308560Y135320D03*
X308560Y148020D03*
X308560Y160720D03*
D14*
X145000Y150000D03*
X133000Y150000D03*
X157000Y150000D03*
D15*
X74500Y170000D03*
X74500Y190000D03*
D16*
X22500Y146000D03*
X22500Y214000D03*
D17*
X70480Y41900D02*
X85720Y41900D01*
X85720Y67300D02*
X70480Y67300D01*
X70480Y92700D02*
X85720Y92700D01*
X85720Y118100D02*
X70480Y118100D01*
D18*
X130000Y53500D03*
X130000Y116500D03*
D12*
X185500Y180000D03*
X204500Y180000D03*
X289500Y50000D03*
X270500Y50000D03*
D19*
X445100Y13400D03*
D20*
X419700Y13400D03*
X394300Y13400D03*
X368900Y13400D03*
X343500Y13400D03*
X318100Y13400D03*
X292700Y13400D03*
X267300Y13400D03*
X241900Y13400D03*
X216500Y13400D03*
X191100Y13400D03*
X165700Y13400D03*
X140300Y13400D03*
X114900Y13400D03*
D19*
X445100Y216600D03*
D20*
X419700Y216600D03*
X394300Y216600D03*
X368900Y216600D03*
X343500Y216600D03*
X318100Y216600D03*
X292700Y216600D03*
X267300Y216600D03*
X241900Y216600D03*
X216500Y216600D03*
X191100Y216600D03*
X165700Y216600D03*
X140300Y216600D03*
X114900Y216600D03*
D21*
X134900Y180000D03*
X155900Y180000D03*
D22*
X475000Y20000D03*
X475000Y210000D03*
X20000Y20000D03*
M02*
